<svg width="57" height="57" viewBox="0 0 57 57" fill="none" xmlns="http://www.w3.org/2000/svg">
<g clip-path="url(#clip0_434_195)">
<path fill-rule="evenodd" clip-rule="evenodd" d="M14.25 0C12.3603 0 10.5481 0.750668 9.21186 2.08686C7.87567 3.42306 7.125 5.23533 7.125 7.125V55.2188C7.12477 55.5281 7.2051 55.8321 7.35808 56.101C7.51105 56.3698 7.7314 56.5942 7.99743 56.752C8.26346 56.9098 8.566 56.9957 8.87527 57.001C9.18455 57.0064 9.48989 56.9312 9.76125 56.7827L28.5 46.5583L47.2388 56.7827C47.5101 56.9312 47.8154 57.0064 48.1247 57.001C48.434 56.9957 48.7365 56.9098 49.0026 56.752C49.2686 56.5942 49.4889 56.3698 49.6419 56.101C49.7949 55.8321 49.8752 55.5281 49.875 55.2188V7.125C49.875 5.23533 49.1243 3.42306 47.7881 2.08686C46.4519 0.750668 44.6397 0 42.75 0L14.25 0ZM29.07 14.6062C29.0179 14.4994 28.9369 14.4094 28.8361 14.3464C28.7353 14.2834 28.6188 14.25 28.5 14.25C28.3812 14.25 28.2647 14.2834 28.1639 14.3464C28.0631 14.4094 27.9821 14.4994 27.93 14.6062L25.6714 19.1841C25.6262 19.2767 25.5591 19.3569 25.4759 19.4177C25.3927 19.4785 25.2959 19.5182 25.194 19.5332L20.1353 20.2671C20.0188 20.2847 19.9096 20.3345 19.8198 20.4108C19.73 20.487 19.6633 20.5868 19.627 20.6989C19.5908 20.8109 19.5865 20.9309 19.6146 21.0453C19.6427 21.1597 19.7021 21.264 19.7861 21.3465L23.4412 24.9126C23.5909 25.0586 23.6586 25.2688 23.6229 25.4754L22.7644 30.5128C22.745 30.6291 22.7585 30.7485 22.8032 30.8576C22.848 30.9667 22.9223 31.0612 23.0177 31.1304C23.1132 31.1996 23.2261 31.2408 23.3437 31.2494C23.4613 31.258 23.579 31.2336 23.6835 31.179L28.2079 28.7992C28.2986 28.7518 28.3994 28.727 28.5018 28.727C28.6041 28.727 28.705 28.7518 28.7957 28.7992L33.3201 31.179C33.4245 31.2326 33.5417 31.2562 33.6587 31.2472C33.7758 31.2381 33.888 31.1967 33.9829 31.1277C34.0778 31.0586 34.1517 30.9646 34.1963 30.856C34.2409 30.7475 34.2545 30.6287 34.2356 30.5128L33.3735 25.4719C33.3553 25.3706 33.362 25.2665 33.3931 25.1684C33.4241 25.0704 33.4785 24.9813 33.5516 24.909L37.2139 21.3429C37.2979 21.2604 37.3573 21.1561 37.3854 21.0417C37.4135 20.9273 37.4092 20.8074 37.373 20.6953C37.3367 20.5832 37.27 20.4835 37.1802 20.4072C37.0904 20.3309 36.9812 20.2812 36.8647 20.2635L31.806 19.5296C31.7041 19.5146 31.6073 19.475 31.5241 19.4141C31.4409 19.3533 31.3738 19.2731 31.3286 19.1805L29.07 14.6062Z" fill="#E0E323"/>
</g>
<defs>
<clipPath id="clip0_434_195">
<rect width="57" height="57" fill="white"/>
</clipPath>
</defs>
</svg>
