<svg width="66" height="66" viewBox="0 0 66 66" fill="none" xmlns="http://www.w3.org/2000/svg">
<path d="M9.28099 8.25019H6.18808V18.5618H9.28099C9.5812 18.5651 9.87582 18.5248 10.1637 18.4419C10.4516 18.359 10.7216 18.2358 10.9736 18.0733C11.2257 17.912 11.4497 17.7171 11.6446 17.4886C11.8407 17.2612 11.9986 17.0103 12.1207 16.7358C12.2417 16.4625 12.3224 16.1768 12.3593 15.8788C12.3974 15.582 12.3929 15.2851 12.3436 14.9894C12.2944 14.6925 12.2047 14.4102 12.0726 14.1414C11.9415 13.8714 11.7746 13.6261 11.5707 13.4054C11.7746 13.1859 11.9415 12.9405 12.0726 12.6706C12.2047 12.4017 12.2944 12.1194 12.3436 11.8226C12.3929 11.5268 12.3974 11.23 12.3593 10.9331C12.3224 10.6351 12.2417 10.3495 12.1207 10.0761C11.9986 9.80169 11.8407 9.55076 11.6446 9.32336C11.4497 9.09483 11.2257 8.89992 10.9736 8.73861C10.7216 8.57618 10.4516 8.45295 10.1637 8.37006C9.87582 8.28716 9.5812 8.24683 9.28099 8.25019ZM9.28099 10.3125C9.41765 10.3125 9.54984 10.3383 9.67642 10.3909C9.80189 10.4436 9.91391 10.5175 10.0102 10.6138C10.1077 10.7113 10.1816 10.8222 10.2343 10.9488C10.2869 11.0754 10.3127 11.2064 10.3127 11.3431C10.3127 11.4798 10.2869 11.612 10.2343 11.7385C10.1816 11.864 10.1077 11.976 10.0102 12.0724C9.91391 12.1698 9.80189 12.2438 9.67642 12.2964C9.54984 12.3491 9.41765 12.3748 9.28099 12.3748H8.25039V10.3125H9.28099ZM9.28099 16.4994H8.25039V14.4371H9.28099C9.41765 14.4371 9.54984 14.4629 9.67642 14.5155C9.80189 14.5682 9.91391 14.6421 10.0102 14.7396C10.1077 14.8359 10.1816 14.9479 10.2343 15.0734C10.2869 15.2 10.3127 15.3322 10.3127 15.4688C10.3127 15.6055 10.2869 15.7366 10.2343 15.8632C10.1816 15.9897 10.1077 16.1006 10.0102 16.1981C9.91391 16.2944 9.80189 16.3684 9.67642 16.421C9.54984 16.4737 9.41765 16.4994 9.28099 16.4994Z" fill="#FDFDFD"/>
<path d="M20.6253 11.3434C20.6253 11.1406 20.6052 10.939 20.566 10.7407C20.5256 10.5413 20.4674 10.3475 20.389 10.1593C20.3117 9.97226 20.2165 9.79414 20.1033 9.62499C19.9902 9.45584 19.8625 9.30013 19.7191 9.15674C19.5757 9.01223 19.4189 8.88453 19.2497 8.77139C19.0817 8.65825 18.9025 8.56303 18.7154 8.48573C18.5272 8.40732 18.3345 8.34907 18.1351 8.30986C17.9357 8.26953 17.7341 8.25049 17.5313 8.25049H14.4373V18.562H16.4996V15.9015L19.3875 18.7682L20.8315 17.3253L17.9234 14.4374C18.1093 14.415 18.2931 14.3758 18.4723 14.3187C18.6515 14.2627 18.824 14.191 18.9898 14.1025C19.1567 14.0151 19.3136 13.912 19.4603 13.7955C19.6082 13.679 19.7437 13.5502 19.867 13.4079C19.9902 13.2668 20.1 13.1156 20.1963 12.9531C20.2915 12.7918 20.3722 12.6227 20.4371 12.4457C20.5021 12.2698 20.5503 12.0883 20.5817 11.9035C20.613 11.7187 20.6276 11.5316 20.6253 11.3434ZM17.5313 12.3751H16.4996V10.3128H17.5313C17.668 10.3128 17.799 10.3386 17.9256 10.3912C18.0522 10.4439 18.1642 10.5178 18.2606 10.6141C18.3569 10.7116 18.432 10.8225 18.4835 10.9491C18.5361 11.0757 18.563 11.2067 18.563 11.3434C18.563 11.4801 18.5361 11.6122 18.4835 11.7388C18.432 11.8643 18.3569 11.9763 18.2606 12.0727C18.1642 12.1701 18.0522 12.244 17.9256 12.2967C17.799 12.3493 17.668 12.3751 17.5313 12.3751Z" fill="#FDFDFD"/>
<path d="M28.8746 18.562V11.3434C28.8746 11.1406 28.8555 10.939 28.8152 10.7407C28.776 10.5413 28.7166 10.3475 28.6393 10.1593C28.562 9.97226 28.4668 9.79414 28.3537 9.62499C28.2405 9.45584 28.1128 9.30013 27.9683 9.15674C27.8249 9.01223 27.6692 8.88453 27.5001 8.77139C27.3309 8.65825 27.1528 8.56303 26.9646 8.48573C26.7775 8.40732 26.5838 8.34907 26.3844 8.30986C26.185 8.26953 25.9844 8.25049 25.7817 8.25049C25.5778 8.25049 25.3773 8.26953 25.1779 8.30986C24.9785 8.34907 24.7847 8.40732 24.5976 8.48573C24.4094 8.56303 24.2313 8.65825 24.0622 8.77139C23.893 8.88453 23.7373 9.01223 23.5939 9.15674C23.4494 9.30013 23.3217 9.45584 23.2086 9.62499C23.0965 9.79414 23.0002 9.97226 22.9229 10.1593C22.8456 10.3475 22.7862 10.5413 22.747 10.7407C22.7078 10.939 22.6877 11.1406 22.6877 11.3434V18.562H24.75V15.4691H26.8123V18.562H28.8746ZM24.75 13.4057V11.3434C24.75 11.2067 24.7757 11.0757 24.8284 10.9491C24.881 10.8225 24.955 10.7116 25.0524 10.6141C25.1488 10.5178 25.2597 10.4439 25.3862 10.3912C25.5128 10.3386 25.6439 10.3128 25.7817 10.3128C25.9183 10.3128 26.0494 10.3386 26.176 10.3912C26.3026 10.4439 26.4135 10.5178 26.5098 10.6141C26.6073 10.7116 26.6812 10.8225 26.7339 10.9491C26.7865 11.0757 26.8123 11.2067 26.8123 11.3434V13.4057H24.75Z" fill="#FDFDFD"/>
<path d="M36.259 18.0668C36.3498 18.2203 36.4719 18.3413 36.6265 18.4286C36.7811 18.5171 36.9469 18.5619 37.125 18.5619H37.414C37.5204 18.5306 37.6201 18.4835 37.712 18.4197C37.8038 18.3569 37.8822 18.2808 37.9494 18.1911C38.0167 18.1015 38.0682 18.0041 38.1029 17.8988C38.1388 17.7924 38.1556 17.6837 38.1556 17.5728V8.25038H36.0933V13.9422L32.8346 8.74552C32.7808 8.6447 32.7113 8.5562 32.6273 8.47891C32.5433 8.40161 32.4481 8.34112 32.3439 8.29631C32.2386 8.2515 32.1299 8.22462 32.0157 8.21678C31.9014 8.20894 31.7894 8.22014 31.6796 8.25038C31.5687 8.28175 31.4668 8.33104 31.3727 8.39825C31.2786 8.46434 31.1979 8.54388 31.1307 8.63798C31.0635 8.73095 31.0131 8.83289 30.9806 8.94267C30.947 9.05358 30.9324 9.1656 30.9369 9.28098V18.5619H33.0003V12.8701L36.259 18.0668Z" fill="#FDFDFD"/>
<path d="M46.406 15.4691V11.3434C46.406 11.1406 46.3858 10.939 46.3466 10.7407C46.3063 10.5413 46.248 10.3475 46.1707 10.1593C46.0923 9.97226 45.9971 9.79414 45.884 9.62499C45.7719 9.45584 45.6431 9.30013 45.4997 9.15674C45.3563 9.01223 45.1995 8.88453 45.0315 8.77139C44.8623 8.65825 44.6842 8.56303 44.496 8.48573C44.3089 8.40732 44.1151 8.34907 43.9157 8.30986C43.7163 8.26953 43.5158 8.25049 43.312 8.25049H40.2179V18.562H43.312C43.5158 18.562 43.7163 18.543 43.9157 18.5027C44.1151 18.4635 44.3089 18.4041 44.496 18.3268C44.6842 18.2495 44.8623 18.1543 45.0315 18.0411C45.1995 17.928 45.3563 17.8003 45.4997 17.6558C45.6431 17.5124 45.7719 17.3567 45.884 17.1875C45.9971 17.0184 46.0923 16.8403 46.1707 16.6521C46.248 16.465 46.3063 16.2712 46.3466 16.0718C46.3858 15.8735 46.406 15.6719 46.406 15.4691ZM44.3437 15.4691C44.3437 15.6058 44.3168 15.7369 44.2653 15.8635C44.2126 15.99 44.1375 16.1009 44.0412 16.1984C43.9449 16.2947 43.8329 16.3687 43.7063 16.4213C43.5808 16.474 43.4486 16.4997 43.312 16.4997H42.2814V10.3128H43.312C43.4486 10.3128 43.5808 10.3386 43.7063 10.3912C43.8329 10.4439 43.9449 10.5178 44.0412 10.6141C44.1375 10.7116 44.2126 10.8225 44.2653 10.9491C44.3168 11.0757 44.3437 11.2067 44.3437 11.3434V15.4691Z" fill="#FDFDFD"/>
<mask id="mask0_340_1735" style="mask-type:luminance" maskUnits="userSpaceOnUse" x="0" y="0" width="53" height="46">
<path d="M0 0H52.8259V45.4571H0V0Z" fill="white"/>
</mask>
<g mask="url(#mask0_340_1735)">
<path d="M2.06231 7.21865C2.06231 7.0495 2.07127 6.88146 2.08808 6.71343C2.10376 6.5454 2.1284 6.37849 2.16201 6.2127C2.1945 6.04691 2.23594 5.88336 2.28523 5.72205C2.3334 5.56073 2.39053 5.40166 2.45551 5.24595C2.51936 5.08913 2.59217 4.93678 2.67171 4.78779C2.75124 4.6388 2.8375 4.49429 2.9316 4.35427C3.02569 4.21424 3.12651 4.07869 3.23293 3.94763C3.34047 3.81768 3.45362 3.69222 3.57348 3.57236C3.69222 3.45362 3.81768 3.34047 3.94763 3.23293C4.07869 3.12539 4.21424 3.02569 4.35427 2.9316C4.49429 2.8375 4.63992 2.75124 4.78891 2.67171C4.93678 2.59217 5.09025 2.51936 5.24595 2.45551C5.40166 2.39053 5.56073 2.3334 5.72205 2.28411C5.88336 2.23594 6.04691 2.1945 6.2127 2.16201C6.37849 2.1284 6.5454 2.10376 6.71343 2.08696C6.88146 2.07127 7.05062 2.06231 7.21865 2.06231H45.3742C45.5434 2.06231 45.7114 2.07127 45.8805 2.08696C46.0486 2.10376 46.2144 2.1284 46.3802 2.16201C46.5459 2.1945 46.7095 2.23594 46.8708 2.28411C47.0332 2.3334 47.1923 2.39053 47.348 2.45551C47.5037 2.51936 47.6561 2.59217 47.8051 2.67171C47.9541 2.75124 48.0986 2.8375 48.2397 2.9316C48.3797 3.02569 48.5153 3.12539 48.6452 3.23293C48.7763 3.34047 48.9006 3.45362 49.0205 3.57236C49.1404 3.69222 49.2535 3.81768 49.3599 3.94763C49.4675 4.07869 49.5683 4.21424 49.6613 4.35427C49.7554 4.49429 49.8427 4.6388 49.9223 4.78779C50.0018 4.93678 50.0735 5.08913 50.1385 5.24595C50.2034 5.40166 50.2595 5.56073 50.3087 5.72205C50.358 5.88336 50.3984 6.04691 50.432 6.2127C50.4645 6.37849 50.4891 6.5454 50.5059 6.71343C50.5227 6.88146 50.5305 7.0495 50.5305 7.21865V45.3742H52.5929V7.21865C52.5929 6.98228 52.5817 6.74592 52.5581 6.51067C52.5357 6.27543 52.501 6.04243 52.4551 5.81054C52.408 5.57866 52.3509 5.34901 52.2826 5.12273C52.2142 4.89757 52.1347 4.67465 52.044 4.45621C51.9532 4.23776 51.8524 4.02492 51.7404 3.81544C51.6295 3.60708 51.5085 3.40433 51.3763 3.20829C51.2452 3.01113 51.1052 2.82182 50.9551 2.63922C50.805 2.45663 50.6459 2.28187 50.479 2.11384C50.3121 1.94693 50.1374 1.78898 49.9536 1.63887C49.771 1.48876 49.5817 1.34762 49.3846 1.21655C49.1885 1.08549 48.9858 0.963383 48.7774 0.852482C48.5691 0.740461 48.3551 0.639641 48.1367 0.550024C47.9182 0.459287 47.6964 0.379752 47.4701 0.311419C47.2438 0.241966 47.0142 0.184835 46.7834 0.138906C46.5516 0.0929777 46.3174 0.0582511 46.0822 0.0347267C45.8469 0.0112023 45.6106 0 45.3742 0H7.21865C6.98228 0 6.74704 0.0112023 6.5118 0.0347267C6.27655 0.0582511 6.04243 0.0929777 5.81054 0.138906C5.57866 0.184835 5.35013 0.241966 5.12385 0.311419C4.89757 0.379752 4.67465 0.459287 4.45621 0.550024C4.23776 0.639641 4.02492 0.740461 3.81656 0.852482C3.60708 0.963383 3.40545 1.08549 3.20829 1.21655C3.01225 1.34762 2.82182 1.48876 2.63922 1.63887C2.45663 1.78898 2.28187 1.94693 2.11496 2.11384C1.94693 2.28187 1.78898 2.45663 1.63887 2.63922C1.48876 2.82182 1.34874 3.01113 1.21655 3.20829C1.08549 3.40433 0.964503 3.60708 0.852482 3.81544C0.741581 4.02492 0.640761 4.23776 0.550024 4.45621C0.459287 4.67465 0.379752 4.89757 0.311419 5.12273C0.241966 5.34901 0.184835 5.57866 0.138906 5.81054C0.0929777 6.04243 0.0582513 6.27543 0.0347266 6.51067C0.0123226 6.74592 0 6.98228 0 7.21865V42.2802H2.06231V7.21865Z" fill="#FDFDFD"/>
</g>
<path d="M8.25037 24.7498H45.3742V26.8121H8.25037V24.7498Z" fill="#FDFDFD"/>
<path d="M8.25037 34.031H45.3742V36.0933H8.25037V34.031Z" fill="#FDFDFD"/>
<path d="M33.0003 42.28H45.3742V44.3435H33.0003V42.28Z" fill="#FDFDFD"/>
<mask id="mask1_340_1735" style="mask-type:luminance" maskUnits="userSpaceOnUse" x="57" y="0" width="9" height="46">
<path d="M57.701 0H65.9996V45.4571H57.701V0Z" fill="white"/>
</mask>
<g mask="url(#mask1_340_1735)">
<path d="M65.9996 4.12462C65.9996 3.85465 65.9727 3.5858 65.92 3.32031C65.8674 3.05482 65.789 2.79717 65.6848 2.54624C65.5817 2.29644 65.454 2.05895 65.3039 1.83379C65.1538 1.60863 64.9824 1.40027 64.7909 1.20871C64.5993 1.01715 64.3909 0.84576 64.1658 0.695652C63.9406 0.544423 63.7031 0.417839 63.4533 0.313659C63.2024 0.2106 62.9447 0.132185 62.6793 0.0795352C62.4138 0.0268852 62.1449 0 61.8738 0C61.6039 0 61.335 0.0268852 61.0695 0.0795352C60.804 0.132185 60.5464 0.2106 60.2954 0.313659C60.0456 0.417839 59.8082 0.544423 59.583 0.695652C59.3578 0.84576 59.1495 1.01715 58.9579 1.20871C58.7664 1.40027 58.595 1.60863 58.4449 1.83379C58.2936 2.05895 58.167 2.29644 58.0629 2.54624C57.9598 2.79717 57.8814 3.05482 57.8287 3.32031C57.7761 3.5858 57.7492 3.85465 57.7492 4.12462V37.125C57.7178 37.2616 57.7178 37.3994 57.7492 37.5372L60.8432 44.7558C60.9239 44.9463 61.0505 45.0975 61.223 45.2118C61.3955 45.326 61.5848 45.3832 61.792 45.3832C61.9982 45.3832 62.1886 45.326 62.36 45.2118C62.5325 45.0975 62.6591 44.9463 62.7409 44.7558L65.9996 37.5372C66.0309 37.3994 66.0309 37.2616 65.9996 37.125V4.12462ZM59.8115 6.18693H63.9373V36.0932H59.8115V6.18693ZM61.8738 2.06231C62.0094 2.06231 62.1438 2.07575 62.2771 2.10264C62.4093 2.1284 62.5381 2.16761 62.6636 2.21914C62.789 2.27179 62.9078 2.33452 63.0198 2.4107C63.1329 2.48575 63.2371 2.57089 63.3323 2.66611C63.4287 2.76244 63.5138 2.86662 63.5889 2.97865C63.6639 3.09179 63.7278 3.21053 63.7793 3.33599C63.832 3.46034 63.8712 3.59028 63.8969 3.72247C63.9238 3.85577 63.9373 3.98908 63.9373 4.12462H59.8115C59.8115 3.98908 59.825 3.85577 59.8518 3.72247C59.8776 3.59028 59.9168 3.46034 59.9683 3.33599C60.021 3.21053 60.0837 3.09179 60.1599 2.97865C60.235 2.86662 60.3201 2.76244 60.4164 2.66611C60.5116 2.57089 60.6158 2.48575 60.729 2.4107C60.841 2.33452 60.9597 2.27179 61.0852 2.21914C61.2107 2.16761 61.3395 2.1284 61.4717 2.10264C61.605 2.07575 61.7394 2.06231 61.8738 2.06231ZM61.8738 41.7234L60.3481 38.1556H63.4007L61.8738 41.7234Z" fill="#FDFDFD"/>
</g>
<mask id="mask2_340_1735" style="mask-type:luminance" maskUnits="userSpaceOnUse" x="0" y="45" width="33" height="21">
<path d="M0 45.1699H32.1781V65.9992H0V45.1699Z" fill="white"/>
</mask>
<g mask="url(#mask2_340_1735)">
<path d="M26.8123 45.3738H5.15634C4.98719 45.3738 4.81915 45.3827 4.65112 45.3984C4.48309 45.4152 4.31618 45.4399 4.15039 45.4735C3.9846 45.506 3.82104 45.5474 3.65973 45.5956C3.49842 45.6449 3.33935 45.702 3.18364 45.767C3.02681 45.8308 2.87447 45.9036 2.72548 45.9832C2.57649 46.0627 2.43198 46.149 2.29195 46.2431C2.15193 46.3372 2.01638 46.4369 1.88532 46.5444C1.75537 46.6519 1.62991 46.7651 1.51005 46.8838C1.3913 47.0037 1.27816 47.128 1.17062 47.2591C1.06308 47.3902 0.963383 47.5246 0.869285 47.6657C0.775187 47.8058 0.68893 47.9503 0.609396 48.0993C0.52986 48.2482 0.457047 48.4006 0.393195 48.5574C0.328222 48.7131 0.271091 48.8722 0.221802 49.0335C0.173633 49.1948 0.132185 49.3584 0.0996989 49.5242C0.0660927 49.69 0.0414479 49.8569 0.0246447 50.0249C0.00896184 50.1929 0 50.361 0 50.5301V60.8428C0 61.0108 0.00896184 61.18 0.0246447 61.348C0.0414479 61.516 0.0660927 61.683 0.0996989 61.8487C0.132185 62.0145 0.173633 62.1781 0.221802 62.3394C0.271091 62.5007 0.328222 62.6598 0.393195 62.8155C0.457047 62.9712 0.52986 63.1235 0.609396 63.2725C0.68893 63.4215 0.775187 63.5671 0.869285 63.7072C0.963383 63.8472 1.06308 63.9827 1.17062 64.1138C1.27816 64.2438 1.3913 64.3692 1.51005 64.488C1.62991 64.6078 1.75537 64.721 1.88532 64.8285C2.01638 64.9349 2.15193 65.0357 2.29195 65.1298C2.43198 65.2239 2.57649 65.3102 2.72548 65.3897C2.87447 65.4693 3.02681 65.541 3.18364 65.6059C3.33935 65.6709 3.49842 65.728 3.65973 65.7762C3.82104 65.8255 3.9846 65.8669 4.15039 65.8994C4.31618 65.9319 4.48309 65.9577 4.65112 65.9734C4.81915 65.9902 4.98719 65.9991 5.15634 65.9991H26.8123C26.9814 65.9991 27.1495 65.9902 27.3175 65.9734C27.4855 65.9577 27.6524 65.9319 27.8182 65.8994C27.984 65.8669 28.1476 65.8255 28.3089 65.7762C28.4702 65.728 28.6293 65.6709 28.7861 65.6059C28.9418 65.541 29.0942 65.4693 29.2431 65.3897C29.3921 65.3102 29.5366 65.2239 29.6767 65.1298C29.8178 65.0357 29.9534 64.9349 30.0833 64.8285C30.2144 64.721 30.3387 64.6078 30.4586 64.488C30.5773 64.3692 30.6916 64.2438 30.798 64.1138C30.9055 63.9827 31.0052 63.8472 31.0993 63.7072C31.1934 63.5671 31.2797 63.4215 31.3592 63.2725C31.4399 63.1235 31.5116 62.9712 31.5765 62.8155C31.6404 62.6598 31.6975 62.5007 31.7468 62.3394C31.7961 62.1781 31.8364 62.0145 31.8689 61.8487C31.9025 61.683 31.9272 61.516 31.944 61.348C31.9608 61.18 31.9686 61.0108 31.9686 60.8428V50.5301C31.9686 50.361 31.9608 50.1929 31.944 50.0249C31.9272 49.8569 31.9025 49.69 31.8689 49.5242C31.8364 49.3584 31.7961 49.1948 31.7468 49.0335C31.6975 48.8722 31.6404 48.7131 31.5765 48.5574C31.5116 48.4006 31.4399 48.2482 31.3592 48.0993C31.2797 47.9503 31.1934 47.8058 31.0993 47.6657C31.0052 47.5246 30.9055 47.389 30.798 47.2591C30.6916 47.128 30.5773 47.0037 30.4586 46.8838C30.3387 46.7651 30.2144 46.6519 30.0833 46.5444C29.9534 46.4369 29.8178 46.3372 29.6767 46.2431C29.5366 46.149 29.3921 46.0627 29.2431 45.9832C29.0942 45.9036 28.9418 45.8308 28.7861 45.767C28.6293 45.702 28.4702 45.6449 28.3089 45.5956C28.1476 45.5474 27.984 45.506 27.8182 45.4735C27.6524 45.4399 27.4855 45.4152 27.3175 45.3984C27.1495 45.3827 26.9814 45.3738 26.8123 45.3738ZM29.9063 60.8428C29.9063 61.0456 29.8861 61.2472 29.8469 61.4455C29.8066 61.6449 29.7484 61.8387 29.6711 62.0269C29.5927 62.2139 29.4974 62.392 29.3843 62.5612C29.2723 62.7304 29.1434 62.8861 29.0001 63.0306C28.8567 63.174 28.6998 63.3017 28.5307 63.4148C28.3627 63.5279 28.1834 63.6232 27.9964 63.7005C27.8082 63.7789 27.6155 63.8371 27.4161 63.8763C27.2167 63.9167 27.015 63.9357 26.8123 63.9357H5.15634C4.95358 63.9357 4.75194 63.9167 4.55254 63.8763C4.35315 63.8371 4.16047 63.7789 3.97227 63.7005C3.7852 63.6232 3.60708 63.5279 3.43793 63.4148C3.26878 63.3017 3.11307 63.174 2.96856 63.0306C2.82518 62.8861 2.69747 62.7304 2.58433 62.5612C2.47119 62.392 2.37597 62.2139 2.29868 62.0269C2.22026 61.8387 2.16201 61.6449 2.12168 61.4455C2.08248 61.2472 2.06231 61.0456 2.06231 60.8428V50.5301C2.06231 50.3274 2.08248 50.1257 2.12168 49.9263C2.16201 49.7269 2.22026 49.5342 2.29868 49.3461C2.37597 49.159 2.47119 48.9797 2.58433 48.8117C2.69747 48.6426 2.82518 48.4857 2.96856 48.3423C3.11307 48.199 3.26878 48.0701 3.43793 47.9581C3.60708 47.845 3.7852 47.7497 3.97227 47.6725C4.16047 47.594 4.35315 47.5358 4.55254 47.4955C4.75194 47.4563 4.95358 47.4361 5.15634 47.4361H26.8123C27.015 47.4361 27.2167 47.4563 27.4161 47.4955C27.6155 47.5358 27.8082 47.594 27.9964 47.6713C28.1834 47.7497 28.3627 47.845 28.5307 47.9581C28.6998 48.0701 28.8567 48.199 29.0001 48.3423C29.1434 48.4857 29.2723 48.6426 29.3843 48.8117C29.4974 48.9797 29.5927 49.159 29.6711 49.3461C29.7484 49.5342 29.8066 49.7269 29.8469 49.9263C29.8861 50.1257 29.9063 50.3274 29.9063 50.5301V60.8428Z" fill="#FDFDFD"/>
</g>
<path d="M11.3444 51.5623H7.21868C7.08201 51.5623 6.95094 51.588 6.82436 51.6407C6.69778 51.6922 6.58688 51.7673 6.48942 51.8636C6.39308 51.9611 6.31802 52.072 6.26649 52.1985C6.21384 52.3251 6.18808 52.4562 6.18808 52.5929V58.7809C6.18808 58.9176 6.21384 59.0486 6.26649 59.1752C6.31802 59.3018 6.39308 59.4127 6.48942 59.509C6.58688 59.6065 6.69778 59.6804 6.82436 59.7331C6.95094 59.7857 7.08201 59.8115 7.21868 59.8115H11.3444C11.4811 59.8115 11.6121 59.7857 11.7387 59.7331C11.8653 59.6804 11.9762 59.6065 12.0726 59.509C12.17 59.4127 12.2439 59.3018 12.2966 59.1752C12.3492 59.0486 12.375 58.9176 12.375 58.7809V52.5929C12.375 52.4562 12.3492 52.3251 12.2966 52.1985C12.2439 52.072 12.17 51.9611 12.0726 51.8636C11.9762 51.7673 11.8653 51.6922 11.7387 51.6407C11.6121 51.588 11.4811 51.5623 11.3444 51.5623ZM10.3127 57.7492H8.25039V53.6246H10.3127V57.7492Z" fill="#FDFDFD"/>
<path d="M16.4996 51.5623H24.75V53.6246H16.4996V51.5623Z" fill="#FDFDFD"/>
<path d="M15.469 56.7173H25.7817V58.7807H15.469V56.7173Z" fill="#FDFDFD"/>
<mask id="mask3_340_1735" style="mask-type:luminance" maskUnits="userSpaceOnUse" x="39" y="49" width="26" height="17">
<path d="M39.0607 49.4719H64.0101V65.9995H39.0607V49.4719Z" fill="white"/>
</mask>
<g mask="url(#mask3_340_1735)">
<path d="M58.7811 49.4995H44.3438C44.1747 49.4995 44.0066 49.5085 43.8386 49.5253C43.6706 49.541 43.5036 49.5656 43.3379 49.5992C43.1721 49.6317 43.0085 49.6731 42.8472 49.7224C42.6848 49.7706 42.5268 49.8277 42.37 49.8927C42.2143 49.9566 42.0619 50.0294 41.9129 50.1089C41.764 50.1884 41.6195 50.2747 41.4794 50.3688C41.3383 50.4629 41.2027 50.5637 41.0728 50.6701C40.9417 50.7777 40.8174 50.8908 40.6975 51.0107C40.5777 51.1294 40.4645 51.2549 40.3581 51.3848C40.2506 51.5159 40.1497 51.6514 40.0568 51.7915C39.9627 51.9315 39.8753 52.0771 39.7957 52.225C39.7162 52.374 39.6445 52.5274 39.5795 52.6832C39.5157 52.8389 39.4586 52.9979 39.4093 53.1592C39.36 53.3206 39.3197 53.4841 39.286 53.6499C39.2536 53.8157 39.2289 53.9826 39.2121 54.1506C39.1953 54.3187 39.1875 54.4878 39.1875 54.6558V60.8439C39.1875 61.0119 39.1953 61.1811 39.2121 61.3491C39.2289 61.5171 39.2536 61.6841 39.286 61.8499C39.3197 62.0156 39.36 62.1792 39.4093 62.3405C39.4586 62.5018 39.5157 62.6609 39.5795 62.8166C39.6445 62.9723 39.7162 63.1247 39.7957 63.2736C39.8753 63.4226 39.9627 63.5683 40.0568 63.7083C40.1497 63.8483 40.2506 63.9839 40.3581 64.1149C40.4645 64.2449 40.5777 64.3703 40.6975 64.4891C40.8174 64.6089 40.9417 64.7221 41.0728 64.8296C41.2027 64.936 41.3383 65.0369 41.4794 65.131C41.6195 65.2251 41.764 65.3113 41.9129 65.3908C42.0619 65.4704 42.2143 65.5421 42.37 65.607C42.5268 65.672 42.6848 65.7291 42.8472 65.7773C43.0085 65.8266 43.1721 65.8681 43.3379 65.9005C43.5036 65.933 43.6706 65.9588 43.8386 65.9745C44.0066 65.9913 44.1747 66.0002 44.3438 66.0002H58.7811C58.9491 66.0002 59.1183 65.9913 59.2863 65.9745C59.4544 65.9588 59.6213 65.933 59.7871 65.9005C59.9528 65.8681 60.1164 65.8266 60.2777 65.7773C60.439 65.7291 60.5981 65.672 60.7538 65.607C60.9095 65.5421 61.063 65.4704 61.212 65.3908C61.3598 65.3113 61.5055 65.2251 61.6455 65.131C61.7855 65.0369 61.9211 64.936 62.0521 64.8296C62.1821 64.7221 62.3075 64.6089 62.4263 64.4891C62.5461 64.3703 62.6593 64.2449 62.7668 64.1149C62.8732 63.9839 62.9741 63.8483 63.0682 63.7083C63.1623 63.5683 63.2485 63.4226 63.328 63.2736C63.4076 63.1247 63.4804 62.9723 63.5443 62.8166C63.6092 62.6609 63.6664 62.5018 63.7145 62.3405C63.7638 62.1792 63.8053 62.0156 63.8377 61.8499C63.8714 61.6841 63.896 61.5171 63.9117 61.3491C63.9285 61.1811 63.9374 61.0119 63.9374 60.8439V54.6558C63.9374 54.4878 63.9285 54.3187 63.9117 54.1506C63.896 53.9826 63.8714 53.8157 63.8377 53.6499C63.8053 53.4841 63.7638 53.3206 63.7145 53.1592C63.6664 52.9979 63.6092 52.8389 63.5443 52.6832C63.4804 52.5274 63.4076 52.374 63.328 52.225C63.2485 52.0771 63.1623 51.9315 63.0682 51.7915C62.9741 51.6514 62.8732 51.5159 62.7668 51.3848C62.6593 51.2549 62.5461 51.1294 62.4263 51.0107C62.3075 50.8908 62.1821 50.7777 62.0521 50.6701C61.9211 50.5637 61.7855 50.4629 61.6455 50.3688C61.5055 50.2747 61.3598 50.1884 61.212 50.1089C61.063 50.0294 60.9095 49.9566 60.7538 49.8927C60.5981 49.8277 60.439 49.7706 60.2777 49.7224C60.1164 49.6731 59.9528 49.6317 59.7871 49.5992C59.6213 49.5656 59.4544 49.541 59.2863 49.5253C59.1183 49.5085 58.9491 49.4995 58.7811 49.4995ZM58.7811 51.5629H59.2762L51.5625 56.5333L43.8487 51.5629H58.7811ZM61.874 60.8439C61.874 61.0467 61.855 61.2483 61.8146 61.4466C61.7754 61.646 61.7172 61.8398 61.6388 62.028C61.5615 62.215 61.4663 62.3932 61.3531 62.5623C61.24 62.7315 61.1123 62.8872 60.9689 63.0317C60.8244 63.1751 60.6687 63.3028 60.4995 63.4159C60.3304 63.5291 60.1522 63.6243 59.9652 63.7016C59.777 63.78 59.5832 63.8382 59.3849 63.8774C59.1855 63.9178 58.9839 63.9368 58.7811 63.9368H44.3438C44.1399 63.9368 43.9394 63.9178 43.74 63.8774C43.5406 63.8382 43.3468 63.78 43.1597 63.7016C42.9715 63.6243 42.7934 63.5291 42.6243 63.4159C42.4562 63.3028 42.2994 63.1751 42.156 63.0317C42.0126 62.8872 41.8838 62.7315 41.7707 62.5623C41.6587 62.3932 41.5634 62.215 41.485 62.028C41.4077 61.8398 41.3495 61.646 41.3092 61.4466C41.2699 61.2483 41.2498 61.0467 41.2498 60.8439V54.6558C41.2509 54.3198 41.3069 53.9927 41.4167 53.6757C41.5254 53.3575 41.6833 53.0651 41.8894 52.7997L51.0057 58.6158C51.1749 58.7245 51.3608 58.7794 51.5625 58.7794C51.7641 58.7794 51.9489 58.7245 52.1192 58.6158L61.2355 52.7997C61.4405 53.0651 61.5984 53.3575 61.7082 53.6757C61.818 53.9927 61.8729 54.3198 61.874 54.6558V60.8439Z" fill="#FDFDFD"/>
</g>
</svg>
