<svg width="55" height="59" viewBox="0 0 55 59" fill="none" xmlns="http://www.w3.org/2000/svg">
<mask id="mask0_340_1768" style="mask-type:luminance" maskUnits="userSpaceOnUse" x="0" y="0" width="55" height="59">
<path d="M0 0H54.5527V59H0V0Z" fill="white"/>
</mask>
<g mask="url(#mask0_340_1768)">
<path d="M16.5071 27.6624C16.2818 27.2358 16.1737 26.7822 16.1817 26.3005C16.1727 25.8078 16.2878 25.3462 16.5252 24.9146C16.7445 24.509 17.0559 24.1955 17.4595 23.9742C17.8631 23.7449 18.2967 23.6317 18.7613 23.6368C19.1018 23.6327 19.4353 23.6788 19.7617 23.7749C20.0471 23.8731 20.3185 24.0013 20.5759 24.1605C20.643 24.1975 20.695 24.2496 20.7321 24.3177C20.7761 24.3938 20.7982 24.4769 20.7982 24.5651C20.7972 24.6902 20.7531 24.7994 20.666 24.8905C20.5909 24.9636 20.5008 25.0087 20.3966 25.0237C20.2915 25.0397 20.1933 25.0227 20.0992 24.9746C19.9109 24.8555 19.7096 24.7623 19.4963 24.6972C19.246 24.6231 18.9906 24.5951 18.7303 24.6131C18.4699 24.6322 18.2206 24.6962 17.9842 24.8054C17.7178 24.9416 17.5166 25.1419 17.3814 25.4082C17.2272 25.6967 17.1551 26.0041 17.1641 26.3305C17.1611 26.64 17.2292 26.9334 17.3694 27.2108C17.5076 27.4742 17.7088 27.6744 17.9722 27.8126C18.2766 27.9648 18.5991 28.0409 18.9396 28.0409C19.279 28.0409 19.6015 27.9648 19.9059 27.8126V26.7882H18.9366C18.8064 26.7892 18.6952 26.7431 18.6051 26.65C18.516 26.5599 18.4719 26.4507 18.4719 26.3245C18.4699 26.2624 18.4809 26.2024 18.504 26.1453C18.527 26.0872 18.56 26.0361 18.6041 25.9931C18.6482 25.949 18.6992 25.915 18.7563 25.8919C18.8144 25.8689 18.8745 25.8589 18.9366 25.8609H20.2925C20.4347 25.8569 20.5558 25.9069 20.654 26.0111C20.7541 26.1102 20.8052 26.2314 20.8042 26.3726V27.9338C20.8062 28.062 20.7711 28.1811 20.702 28.2893C20.638 28.3944 20.5488 28.4726 20.4367 28.5236C19.9189 28.792 19.3682 28.9262 18.7853 28.9282C18.3057 28.9362 17.855 28.823 17.4354 28.5907C17.0359 28.3714 16.7265 28.062 16.5071 27.6624ZM22.793 28.7229C23.1164 28.8731 23.4559 28.9482 23.8114 28.9482C24.1679 28.9482 24.5074 28.8731 24.8309 28.7229C25.1713 28.5727 25.4447 28.3414 25.65 28.0299C25.8803 27.6854 25.9885 27.3049 25.9755 26.8913V24.1545C25.9755 24.0153 25.9254 23.8961 25.8253 23.799C25.7782 23.7539 25.7241 23.7189 25.664 23.6938C25.6039 23.6688 25.5409 23.6568 25.4748 23.6568C25.4097 23.6568 25.3466 23.6688 25.2865 23.6938C25.2264 23.7189 25.1723 23.7539 25.1253 23.799C25.0291 23.8981 24.9811 24.0173 24.9811 24.1545V26.8973C24.9901 27.1136 24.938 27.3149 24.8238 27.4992C24.7167 27.6634 24.5745 27.7856 24.3962 27.8677C24.211 27.9518 24.0157 27.9939 23.8114 27.9939C23.6081 27.9939 23.4129 27.9518 23.2276 27.8677C23.0524 27.7836 22.9112 27.6614 22.805 27.4992C22.6888 27.3149 22.6348 27.1146 22.6428 26.8973V24.1545C22.6448 24.0153 22.5967 23.8971 22.4976 23.799C22.4265 23.7279 22.3424 23.6828 22.2432 23.6638C22.1451 23.6448 22.0489 23.6538 21.9568 23.6928C21.8637 23.7319 21.7896 23.794 21.7345 23.8781C21.6794 23.9622 21.6534 24.0543 21.6544 24.1545V26.8733C21.6424 27.2859 21.7485 27.6654 21.9738 28.0119C22.1801 28.3213 22.4535 28.5527 22.793 28.7049V28.7229ZM27.4035 28.9162C27.5397 28.9142 27.6558 28.8661 27.753 28.771C27.8551 28.6768 27.9052 28.5607 27.9042 28.4215V24.2036C27.9042 24.0634 27.8541 23.9452 27.753 23.847C27.7069 23.802 27.6528 23.7669 27.5927 23.7419C27.5317 23.7179 27.4696 23.7048 27.4035 23.7048C27.3384 23.7048 27.2753 23.7179 27.2152 23.7419C27.1541 23.7669 27.101 23.802 27.054 23.847C26.9598 23.9472 26.9138 24.0654 26.9158 24.2036V28.4215C26.9128 28.5577 26.9588 28.6738 27.054 28.771C27.1541 28.8591 27.2703 28.9012 27.4035 28.8982V28.9162ZM29.0187 28.7349C28.9236 28.6378 28.8775 28.5216 28.8806 28.3854V24.1845C28.8795 24.0493 28.9256 23.9332 29.0187 23.835C29.1139 23.7349 29.231 23.6868 29.3682 23.6908H30.7552C31.2669 23.6768 31.7436 23.801 32.1832 24.0644C32.5707 24.3057 32.8682 24.6281 33.0755 25.0347C33.1726 25.227 33.2457 25.4273 33.2958 25.6366C33.3458 25.8459 33.3709 26.0582 33.3709 26.2735C33.3709 26.4888 33.3458 26.7001 33.2958 26.9094C33.2457 27.1187 33.1726 27.3199 33.0755 27.5112C32.8702 27.9198 32.5727 28.2432 32.1832 28.4816C31.7456 28.7519 31.2689 28.8811 30.7552 28.8671H29.3682C29.231 28.8691 29.1149 28.821 29.0187 28.7229V28.7349ZM29.8689 27.9338H30.6761C30.9975 27.9398 31.301 27.8687 31.5864 27.7225C31.8467 27.5813 32.048 27.38 32.1892 27.1197C32.3364 26.8533 32.4065 26.5679 32.4005 26.2645C32.4055 25.958 32.3354 25.6706 32.1892 25.4022C32.041 25.1569 31.8407 24.9676 31.5864 24.8354C31.299 24.6982 30.9955 24.6352 30.6761 24.6492H29.8689V27.9338ZM34.196 28.7349C34.2922 28.8331 34.4083 28.8811 34.5455 28.8801H37.3064C37.4366 28.8811 37.5487 28.8371 37.6439 28.7469C37.739 28.6548 37.7881 28.5427 37.7881 28.4095C37.7911 28.2753 37.742 28.1631 37.6439 28.072C37.5507 27.9779 37.4386 27.9318 37.3064 27.9338H35.0402V26.7461H37.0591C37.1892 26.7481 37.3014 26.7031 37.3965 26.6139C37.4646 26.5458 37.5087 26.4637 37.5277 26.3696C37.5467 26.2745 37.5377 26.1833 37.5007 26.0942C37.4636 26.0051 37.4045 25.933 37.3244 25.8799C37.2443 25.8268 37.1552 25.7998 37.0591 25.7998H35.0402V24.6492H37.3064C37.4366 24.6502 37.5487 24.6061 37.6439 24.516C37.739 24.4249 37.7881 24.3117 37.7881 24.1785C37.7901 24.0463 37.744 23.9342 37.6499 23.841C37.5548 23.7469 37.4396 23.7008 37.3064 23.7028H34.5455C34.4073 23.6988 34.2912 23.7469 34.196 23.847C34.0979 23.9432 34.0498 24.0603 34.0518 24.1975V28.3794C34.0508 28.5166 34.0989 28.6328 34.196 28.7289V28.7349ZM54.4585 35.8459L52.65 39.6252L54.4585 43.3976C54.4806 43.4436 54.4956 43.4917 54.5056 43.5408C54.5156 43.5908 54.5186 43.6409 54.5156 43.692C54.5126 43.743 54.5036 43.7921 54.4886 43.8402C54.4726 43.8892 54.4515 43.9343 54.4245 43.9774C54.3974 44.0204 54.3654 44.0595 54.3284 44.0945C54.2913 44.1296 54.2512 44.1596 54.2062 44.1837C54.1621 44.2087 54.115 44.2267 54.066 44.2397C54.0169 44.2528 53.9668 44.2588 53.9158 44.2598H47.0091V48.3275C47.0101 48.3986 46.996 48.4667 46.967 48.5318C46.949 48.5718 46.9259 48.6109 46.9009 48.6469C44.4535 51.7924 44.4535 54.8537 46.9009 58.0001C46.965 58.0872 47.003 58.1844 47.0151 58.2925C47.0271 58.3997 47.0111 58.5028 46.967 58.6019C46.9159 58.7061 46.8418 58.7882 46.7447 58.8493C46.6465 58.9094 46.5394 58.9404 46.4242 58.9394H5.65287C5.36046 58.9374 5.06905 58.9154 4.77864 58.8733C4.59839 58.8733 4.43516 58.8132 4.27293 58.7712H4.21886C3.9675 58.7061 3.72216 58.624 3.48282 58.5238H3.42874L2.99513 58.3135H2.94707C2.58856 58.1153 2.25509 57.8819 1.94766 57.6115C1.63923 57.3412 1.36484 57.0417 1.1225 56.7113C0.879157 56.3818 0.67487 56.0293 0.509638 55.6558C0.343404 55.2813 0.22023 54.8937 0.138115 54.4922C0.138115 54.408 0.108073 54.3179 0.0900474 54.2208C0.0459851 53.9334 0.0239544 53.644 0.0239544 53.3536V5.56934C0.0239544 5.39709 0.0319657 5.22485 0.0479882 5.05361C0.0650121 4.88237 0.0880446 4.71113 0.12009 4.54189C0.152135 4.37265 0.19119 4.20542 0.238256 4.03918C0.285322 3.87395 0.340399 3.71072 0.402487 3.5505C0.464574 3.38927 0.533671 3.23205 0.609779 3.07783C0.685886 2.92261 0.770004 2.7724 0.860131 2.6262C0.950257 2.47899 1.04739 2.33679 1.15054 2.19859C1.25368 2.0614 1.36284 1.92821 1.478 1.80003C1.59416 1.67285 1.71533 1.54968 1.84151 1.43352C1.96869 1.31635 2.09987 1.2062 2.23707 1.10105C2.37326 0.996903 2.51546 0.898765 2.66066 0.806635C2.80687 0.714506 2.95608 0.630387 3.1103 0.552278C3.26351 0.474168 3.42073 0.403068 3.57996 0.338977C3.74018 0.275889 3.90341 0.21981 4.06864 0.170741C4.23388 0.121672 4.40111 0.0806141 4.56935 0.0475677C4.73859 0.014521 4.90883 -0.0115155 5.08007 -0.029541C5.26733 -0.029541 5.4596 -0.029541 5.68292 -0.029541H46.4062C46.4863 -0.029541 46.5634 -0.0145197 46.6375 0.016524C46.7106 0.0465662 46.7757 0.090628 46.8328 0.146707C46.8889 0.203787 46.9329 0.268879 46.963 0.342983C46.994 0.416086 47.0091 0.493195 47.0091 0.573307V34.9667H53.9158C53.9668 34.9667 54.0169 34.9727 54.066 34.9857C54.115 34.9987 54.1621 35.0178 54.2062 35.0418C54.2512 35.0668 54.2913 35.0959 54.3284 35.1309C54.3654 35.166 54.3974 35.205 54.4245 35.2481C54.4515 35.2911 54.4726 35.3372 54.4886 35.3853C54.5036 35.4333 54.5126 35.4834 54.5156 35.5335C54.5186 35.5846 54.5156 35.6346 54.5056 35.6847C54.4956 35.7348 54.4806 35.7828 54.4585 35.8279V35.8459ZM45.8034 1.14611H8.43679V47.7066H45.8034V1.14611ZM1.20462 5.56934V49.8757C1.52907 49.4651 1.9026 49.1056 2.32719 48.7981C2.75079 48.4907 3.20843 48.2474 3.70013 48.0681H3.76021C3.92845 48.006 4.09869 47.954 4.27293 47.9109H4.38108C4.54431 47.8749 4.71255 47.8448 4.87578 47.8208H5.00196C5.20224 47.7977 5.40352 47.7857 5.60481 47.7847H7.17201V1.14611H5.63485C5.48964 1.14611 5.34544 1.15312 5.20124 1.16714C5.05703 1.18116 4.91383 1.20219 4.77163 1.23023C4.62943 1.25927 4.48823 1.29432 4.35004 1.33638C4.21084 1.37844 4.07465 1.42651 3.94147 1.48259C3.80728 1.53766 3.67609 1.59975 3.54791 1.66785C3.42073 1.73594 3.29656 1.81005 3.17539 1.89116C3.05522 1.97127 2.93906 2.05739 2.8269 2.14952C2.71474 2.24165 2.60759 2.33879 2.50444 2.44093C2.4023 2.54308 2.30516 2.65023 2.21303 2.76239C2.1209 2.87454 2.03478 2.99071 1.95367 3.11088C1.87255 3.23205 1.79845 3.35522 1.73036 3.4834C1.66126 3.61158 1.59917 3.74176 1.54409 3.87595C1.48801 4.01014 1.43894 4.14633 1.39689 4.28453C1.35483 4.42372 1.31978 4.56392 1.29074 4.70612C1.2627 4.84832 1.24167 4.99152 1.22665 5.13573C1.21263 5.27993 1.20562 5.42413 1.20462 5.56934ZM45.2436 48.9113H5.65287C5.50466 48.9113 5.35946 48.9113 5.21926 48.9113L4.93586 48.9544H4.80268C4.6765 48.9544 4.55633 49.0084 4.42915 49.0445C4.13774 49.1316 3.85735 49.2478 3.58797 49.392C3.31959 49.5362 3.06824 49.7054 2.83391 49.9007C2.59958 50.096 2.38828 50.3133 2.19801 50.5516C2.00775 50.79 1.84351 51.0443 1.70532 51.3167C1.64323 51.4289 1.59116 51.545 1.5481 51.6662V51.7082C1.50604 51.8224 1.46398 51.9366 1.43394 52.0517V52.1118C1.43394 52.232 1.37385 52.3471 1.34982 52.4673C1.35282 52.4793 1.35282 52.4913 1.34982 52.5034C1.34982 52.6305 1.30776 52.7627 1.29574 52.8889C1.28373 53.0161 1.29574 53.1603 1.29574 53.2815C1.29374 53.5078 1.31177 53.7321 1.34982 53.9564C1.35583 54.0295 1.36784 54.1016 1.38587 54.1727C1.44896 54.4882 1.54409 54.7936 1.67327 55.088C1.80246 55.3834 1.96168 55.6608 2.15095 55.9212C2.34121 56.1805 2.55552 56.4179 2.79686 56.6312C3.03719 56.8445 3.29856 57.0297 3.57996 57.186H3.62202L3.98352 57.3612C4.1788 57.4433 4.38008 57.5094 4.58637 57.5595H4.62843C4.76663 57.5955 4.91183 57.6266 5.05603 57.6506C5.28435 57.6806 5.51368 57.6967 5.743 57.6987H45.2436C44.4645 56.533 44.0048 55.2542 43.8636 53.8593H11.4871C11.407 53.8593 11.3299 53.8442 11.2558 53.8132C11.1827 53.7832 11.1176 53.7391 11.0605 53.683C11.0044 53.6269 10.9603 53.5609 10.9303 53.4877C10.8993 53.4136 10.8842 53.3365 10.8842 53.2564C10.8842 53.1773 10.8993 53.1002 10.9303 53.0261C10.9603 52.952 11.0044 52.8869 11.0605 52.8308C11.1176 52.7737 11.1827 52.7307 11.2558 52.6996C11.3299 52.6696 11.407 52.6546 11.4871 52.6546H43.8636C44.0198 51.2947 44.4795 50.0469 45.2436 48.9113ZM52.9574 36.1714H47.0091V43.036H52.9574L51.4453 39.8656C51.3602 39.6913 51.3602 39.5161 51.4453 39.3418L52.9574 36.1714ZM13.7052 6.85314H25.0712C25.1513 6.85314 25.2284 6.83712 25.3025 6.80708C25.3756 6.77603 25.4407 6.73297 25.4978 6.67589C25.5539 6.61981 25.5979 6.55472 25.628 6.48062C25.659 6.40651 25.674 6.33041 25.674 6.25029C25.674 6.17018 25.659 6.09307 25.628 6.01997C25.5979 5.94587 25.5539 5.88077 25.4978 5.82369C25.4407 5.76761 25.3756 5.72355 25.3025 5.69351C25.2284 5.66247 25.1513 5.64745 25.0712 5.64745H13.7052C13.6251 5.64745 13.548 5.66247 13.4739 5.69351C13.4008 5.72355 13.3347 5.76761 13.2786 5.82369C13.2225 5.88077 13.1785 5.94587 13.1484 6.01997C13.1174 6.09307 13.1024 6.17018 13.1024 6.25029C13.1024 6.33041 13.1174 6.40651 13.1484 6.48062C13.1785 6.55472 13.2225 6.61981 13.2786 6.67589C13.3347 6.73297 13.4008 6.77603 13.4739 6.80708C13.548 6.83712 13.6251 6.85314 13.7052 6.85314ZM25.0712 10.7396C25.1513 10.7396 25.2284 10.7246 25.3025 10.6935C25.3756 10.6635 25.4407 10.6194 25.4978 10.5634C25.5539 10.5073 25.5979 10.4422 25.628 10.3681C25.659 10.294 25.674 10.2169 25.674 10.1368C25.674 10.0576 25.659 9.98054 25.628 9.90644C25.5979 9.83233 25.5539 9.76724 25.4978 9.71116C25.4407 9.65508 25.3756 9.61102 25.3025 9.57998C25.2284 9.54994 25.1513 9.53491 25.0712 9.53491H23.7093C23.6292 9.53491 23.5531 9.54994 23.479 9.57998C23.4048 9.61102 23.3398 9.65508 23.2837 9.71116C23.2266 9.76724 23.1835 9.83233 23.1525 9.90644C23.1224 9.98054 23.1064 10.0576 23.1064 10.1368C23.1064 10.2169 23.1224 10.294 23.1525 10.3681C23.1835 10.4422 23.2266 10.5073 23.2837 10.5634C23.3398 10.6194 23.4048 10.6635 23.479 10.6935C23.5531 10.7246 23.6292 10.7396 23.7093 10.7396H25.0712ZM13.7052 10.7396H20.7802C20.8603 10.7396 20.9374 10.7246 21.0105 10.6935C21.0846 10.6635 21.1497 10.6194 21.2068 10.5634C21.2628 10.5073 21.3069 10.4422 21.3369 10.3681C21.368 10.294 21.383 10.2169 21.383 10.1368C21.383 10.0576 21.368 9.98054 21.3369 9.90644C21.3069 9.83233 21.2628 9.76724 21.2068 9.71116C21.1497 9.65508 21.0846 9.61102 21.0105 9.57998C20.9374 9.54994 20.8603 9.53491 20.7802 9.53491H13.7052C13.6251 9.53491 13.548 9.54994 13.4739 9.57998C13.4008 9.61102 13.3347 9.65508 13.2786 9.71116C13.2225 9.76724 13.1785 9.83233 13.1484 9.90644C13.1174 9.98054 13.1024 10.0576 13.1024 10.1368C13.1024 10.2169 13.1174 10.294 13.1484 10.3681C13.1785 10.4422 13.2225 10.5073 13.2786 10.5634C13.3347 10.6194 13.4008 10.6635 13.4739 10.6935C13.548 10.7246 13.6251 10.7396 13.7052 10.7396ZM40.3557 40.8299H13.7052C13.6251 40.8299 13.548 40.846 13.4739 40.876C13.4008 40.907 13.3347 40.9501 13.2786 41.0072C13.2225 41.0633 13.1785 41.1284 13.1484 41.2025C13.1174 41.2756 13.1024 41.3527 13.1024 41.4328C13.1024 41.5129 13.1174 41.59 13.1484 41.6631C13.1785 41.7372 13.2225 41.8023 13.2786 41.8594C13.3347 41.9155 13.4008 41.9595 13.4739 41.9896C13.548 42.0206 13.6251 42.0356 13.7052 42.0356H40.3557C40.4358 42.0356 40.5119 42.0206 40.586 41.9896C40.6601 41.9595 40.7252 41.9155 40.7813 41.8594C40.8384 41.8023 40.8814 41.7372 40.9125 41.6631C40.9425 41.59 40.9585 41.5129 40.9585 41.4328C40.9585 41.3527 40.9425 41.2756 40.9125 41.2025C40.8814 41.1284 40.8384 41.0633 40.7813 41.0072C40.7252 40.9501 40.6601 40.907 40.586 40.876C40.5119 40.846 40.4358 40.8299 40.3557 40.8299ZM16.0495 17.2187H38.0114C38.2047 17.2187 38.3959 17.2378 38.5862 17.2748C38.7755 17.3129 38.9597 17.3689 39.139 17.443C39.3172 17.5171 39.4875 17.6073 39.6487 17.7154C39.8089 17.8226 39.9581 17.9447 40.0953 18.0819C40.2315 18.2181 40.3537 18.3673 40.4618 18.5286C40.569 18.6888 40.6601 18.859 40.7342 19.0373C40.8083 19.2165 40.8634 19.4008 40.9015 19.5901C40.9395 19.7803 40.9585 19.9716 40.9585 20.1649V32.5253C40.9595 32.7205 40.9425 32.9128 40.9055 33.1041C40.8694 33.2953 40.8143 33.4806 40.7412 33.6609C40.6671 33.8411 40.577 34.0123 40.4699 34.1746C40.3627 34.3368 40.2405 34.487 40.1033 34.6252C39.9661 34.7634 39.8169 34.8866 39.6557 34.9947C39.4945 35.1039 39.3242 35.195 39.145 35.2701C38.9647 35.3452 38.7795 35.4013 38.5892 35.4394C38.3979 35.4774 38.2057 35.4964 38.0114 35.4964H16.0495C15.8562 35.4964 15.665 35.4784 15.4747 35.4404C15.2854 35.4023 15.1012 35.3472 14.9229 35.2731C14.7447 35.199 14.5744 35.1089 14.4142 35.0017C14.253 34.8946 14.1038 34.7724 13.9676 34.6362C13.8304 34.499 13.7082 34.3508 13.6011 34.1906C13.4929 34.0294 13.4028 33.8601 13.3277 33.6819C13.2536 33.5036 13.1975 33.3194 13.1594 33.1301C13.1214 32.9408 13.1024 32.7486 13.1024 32.5563V20.1649C13.1024 19.9716 13.1214 19.7803 13.1584 19.5901C13.1965 19.4008 13.2526 19.2165 13.3267 19.0373C13.4008 18.859 13.4909 18.6888 13.5991 18.5286C13.7062 18.3673 13.8284 18.2181 13.9656 18.0819C14.1018 17.9447 14.251 17.8226 14.4122 17.7154C14.5724 17.6073 14.7427 17.5171 14.9209 17.443C15.1002 17.3689 15.2844 17.3129 15.4747 17.2748C15.664 17.2378 15.8552 17.2187 16.0495 17.2187ZM38.0114 18.4234H16.0495C15.9353 18.4234 15.8212 18.4344 15.709 18.4575C15.5969 18.4795 15.4887 18.5125 15.3826 18.5566C15.2774 18.5997 15.1763 18.6537 15.0811 18.7168C14.986 18.7809 14.8989 18.853 14.8178 18.9341C14.7367 19.0142 14.6646 19.1024 14.6015 19.1975C14.5374 19.2926 14.4843 19.3928 14.4402 19.4989C14.3962 19.6041 14.3631 19.7132 14.3411 19.8254C14.3191 19.9375 14.307 20.0507 14.307 20.1649V32.5253C14.305 32.6414 14.3151 32.7556 14.3361 32.8697C14.3561 32.9829 14.3882 33.0931 14.4312 33.2002C14.4743 33.3074 14.5274 33.4095 14.5904 33.5066C14.6535 33.6028 14.7256 33.6929 14.8068 33.775C14.8879 33.8571 14.977 33.9302 15.0721 33.9953C15.1683 34.0594 15.2694 34.1135 15.3766 34.1586C15.4827 34.2026 15.5929 34.2357 15.706 34.2587C15.8192 34.2807 15.9333 34.2917 16.0495 34.2917H38.0114C38.1256 34.2917 38.2387 34.2807 38.3509 34.2587C38.463 34.2377 38.5712 34.2046 38.6773 34.1616C38.7825 34.1175 38.8836 34.0644 38.9788 34.0013C39.0739 33.9382 39.161 33.8661 39.2421 33.785C39.3232 33.7049 39.3953 33.6168 39.4594 33.5217C39.5225 33.4275 39.5766 33.3274 39.6207 33.2212C39.6637 33.1161 39.6968 33.0069 39.7198 32.8948C39.7418 32.7836 39.7528 32.6705 39.7528 32.5563V20.1649C39.7528 20.0507 39.7418 19.9375 39.7198 19.8254C39.6968 19.7132 39.6637 19.6041 39.6207 19.4989C39.5766 19.3928 39.5225 19.2926 39.4594 19.1975C39.3953 19.1024 39.3232 19.0142 39.2431 18.9341C39.162 18.853 39.0739 18.7809 38.9788 18.7168C38.8836 18.6537 38.7835 18.5997 38.6773 18.5566C38.5722 18.5125 38.463 18.4795 38.3509 18.4575C38.2387 18.4344 38.1256 18.4234 38.0114 18.4234Z" fill="#FDFDFD"/>
</g>
</svg>
