<svg width="72" height="66" viewBox="0 0 72 66" fill="none" xmlns="http://www.w3.org/2000/svg">
<mask id="mask0_340_1773" style="mask-type:luminance" maskUnits="userSpaceOnUse" x="21" y="35" width="28" height="31">
<path d="M21.885 35.7549H48.7903V65.9012H21.885V35.7549Z" fill="white"/>
</mask>
<g mask="url(#mask0_340_1773)">
<path d="M48.7071 63.9367V63.6275C48.7071 61.8372 48.3551 60.0994 47.6634 58.463C46.9937 56.8828 46.0368 55.4652 44.8172 54.2468C43.5988 53.0284 42.1787 52.0727 40.5974 51.4043C40.2918 51.2747 39.9827 51.1586 39.671 51.0535C40.2344 50.7126 40.7562 50.3044 41.228 49.8327C41.9808 49.0811 42.5722 48.2036 42.9853 47.2284C43.413 46.2177 43.6306 45.1448 43.6306 44.0388C43.6306 42.9328 43.413 41.8598 42.9853 40.8491C42.5722 39.8727 41.9808 38.9965 41.228 38.2449C40.4752 37.4921 39.5977 36.9018 38.6213 36.4888C37.6094 36.061 36.5352 35.8447 35.428 35.8447C34.3208 35.8447 33.2465 36.061 32.2347 36.4888C31.2582 36.9018 30.3808 37.4921 29.628 38.2449C28.8752 38.9965 28.2837 39.8727 27.8706 40.8491C27.4429 41.8598 27.2254 42.9328 27.2254 44.0388C27.2254 45.1448 27.4429 46.2177 27.8706 47.2284C28.2837 48.2036 28.8752 49.0811 29.628 49.8327C30.0997 50.3044 30.6203 50.7126 31.1849 51.0535C30.872 51.1586 30.5641 51.2759 30.2586 51.4043C28.6772 52.0727 27.2571 53.0284 26.0375 54.2468C24.8191 55.464 23.861 56.8828 23.1925 58.463C22.4996 60.0994 22.1488 61.8372 22.1488 63.6275V63.9367C22.1488 65.0195 23.03 65.9006 24.1139 65.9006H46.7408C47.8247 65.9006 48.7071 65.0195 48.7071 63.9367ZM30.9527 48.5092C29.7563 47.3152 29.0988 45.7277 29.0988 44.0376C29.0988 42.3486 29.7563 40.7612 30.9527 39.5672C32.1479 38.3732 33.7366 37.7145 35.428 37.7145C37.1181 37.7145 38.708 38.3732 39.9032 39.5672C41.0984 40.7612 41.7571 42.3486 41.7571 44.0376C41.7571 45.7277 41.0984 47.3152 39.9032 48.5092C38.708 49.7031 37.1181 50.3606 35.428 50.3606C33.7366 50.3606 32.1479 49.7031 30.9527 48.5092ZM24.0211 63.9367V63.6275C24.0211 62.0889 24.3229 60.5968 24.9181 59.1926C25.4924 57.8349 26.3149 56.6164 27.3622 55.5703C28.4096 54.523 29.6304 53.7018 30.9881 53.1274C32.3935 52.5335 33.8869 52.2328 35.428 52.2328C36.9678 52.2328 38.4612 52.5335 39.8666 53.1274C41.2255 53.7018 42.4452 54.523 43.4925 55.5703C44.541 56.6164 45.3635 57.8349 45.9379 59.1926C46.5318 60.5968 46.8336 62.0889 46.8336 63.6275V63.9367C46.8336 63.988 46.7921 64.0296 46.7408 64.0296H24.1139C24.0626 64.0296 24.0211 63.988 24.0211 63.9367Z" fill="#FDFDFD"/>
</g>
<mask id="mask1_340_1773" style="mask-type:luminance" maskUnits="userSpaceOnUse" x="5" y="38" width="21" height="28">
<path d="M5.6165 38.5713H25.3262V65.9019H5.6165V38.5713Z" fill="white"/>
</mask>
<g mask="url(#mask1_340_1773)">
<path d="M21.7017 64.9659C21.7017 64.449 21.2813 64.031 20.7644 64.031H7.64903C7.5977 64.031 7.55615 63.9895 7.55615 63.9382V63.7622C7.55615 62.3898 7.82501 61.0589 8.35539 59.8063C8.86866 58.5965 9.60191 57.51 10.5368 56.5764C11.4705 55.6427 12.5593 54.9094 13.7704 54.3974C15.0243 53.8682 16.3564 53.5994 17.73 53.5994C19.7684 53.5994 21.7347 54.1994 23.4175 55.3347C23.8453 55.6231 24.4282 55.5107 24.7178 55.083C25.0062 54.6552 24.8938 54.0735 24.4661 53.7839C23.6192 53.2132 22.7136 52.7561 21.7653 52.4201C22.2126 52.1329 22.6317 51.7956 23.0167 51.4118C24.4282 50.0003 25.2067 48.1257 25.2067 46.13C25.2067 44.1356 24.4282 42.2597 23.0167 40.8482C21.604 39.4379 19.7269 38.6606 17.73 38.6606C15.7331 38.6606 13.8548 39.4379 12.4433 40.8482C11.0305 42.2597 10.2533 44.1356 10.2533 46.13C10.2533 48.1257 11.0305 50.0003 12.4433 51.4118C12.827 51.7956 13.2474 52.1329 13.6934 52.4201C13.4735 52.4983 13.2559 52.5826 13.0396 52.6742C11.6061 53.2804 10.3168 54.1481 9.21207 55.2528C8.10609 56.3576 7.23719 57.6444 6.62981 59.0779C6.00166 60.5616 5.6827 62.138 5.6827 63.7622V63.9382C5.6827 65.0209 6.56504 65.9021 7.64903 65.9021H20.7644C21.2826 65.9021 21.7017 65.4829 21.7017 64.9659ZM12.1267 46.13C12.1267 44.6354 12.7097 43.2288 13.7668 42.1717C14.8251 41.1146 16.2329 40.5317 17.73 40.5317C19.2258 40.5317 20.6336 41.1146 21.692 42.1717C22.7503 43.2288 23.3332 44.6354 23.3332 46.13C23.3332 47.6246 22.7503 49.0312 21.692 50.0883C20.6336 51.1454 19.2258 51.7284 17.73 51.7284C16.2329 51.7284 14.8251 51.1454 13.7668 50.0883C12.7097 49.0312 12.1267 47.6246 12.1267 46.13Z" fill="#FDFDFD"/>
</g>
<mask id="mask2_340_1773" style="mask-type:luminance" maskUnits="userSpaceOnUse" x="45" y="38" width="21" height="28">
<path d="M45.3488 38.5713H65.3714V65.9019H45.3488V38.5713Z" fill="white"/>
</mask>
<g mask="url(#mask2_340_1773)">
<path d="M61.5463 55.2528C60.4403 54.1481 59.1522 53.2804 57.7175 52.6742C57.5024 52.5826 57.2849 52.4983 57.0649 52.4201C57.511 52.1329 57.9313 51.7956 58.3151 51.4118C59.7278 50.0003 60.5051 48.1257 60.5051 46.13C60.5051 44.1356 59.7278 42.2597 58.3151 40.8482C56.9036 39.4379 55.0252 38.6606 53.0284 38.6606C51.0315 38.6606 49.1544 39.4379 47.7416 40.8482C46.3289 42.2597 45.5517 44.1356 45.5517 46.13C45.5517 48.1257 46.3289 50.0003 47.7416 51.4118C48.1266 51.7956 48.5458 52.1329 48.993 52.4201C48.0716 52.7476 47.1893 53.1875 46.3644 53.7362C45.9342 54.0222 45.8169 54.6027 46.1028 55.0329C46.39 55.463 46.9717 55.5804 47.4019 55.2944C49.07 54.1847 51.0156 53.5994 53.0284 53.5994C54.402 53.5994 55.734 53.8682 56.9879 54.3974C58.199 54.9094 59.2879 55.6427 60.2215 56.5764C61.1564 57.51 61.8909 58.5965 62.4029 59.8063C62.9333 61.0589 63.2022 62.3898 63.2022 63.7622V63.9382C63.2022 63.9883 63.1606 64.0298 63.1093 64.0298H50.1638C49.6469 64.0298 49.2265 64.449 49.2265 64.9659C49.2265 65.4829 49.6469 65.9021 50.1638 65.9021H63.1093C64.1933 65.9021 65.0756 65.0209 65.0756 63.9382V63.7622C65.0756 62.138 64.7567 60.5616 64.1285 59.0779C63.5211 57.6444 62.6522 56.3576 61.5463 55.2528ZM53.0284 51.7284C51.5325 51.7284 50.1247 51.1454 49.0664 50.0883C48.0081 49.0312 47.4251 47.6246 47.4251 46.13C47.4251 44.6354 48.0081 43.2288 49.0664 42.1717C50.1247 41.1146 51.5325 40.5317 53.0284 40.5317C54.5254 40.5317 55.9332 41.1146 56.9916 42.1717C58.0499 43.2288 58.6328 44.6354 58.6328 46.13C58.6328 47.6246 58.0499 49.0312 56.9916 50.0883C55.9332 51.1454 54.5254 51.7284 53.0284 51.7284Z" fill="#FDFDFD"/>
</g>
<path d="M11.424 13.2558L11.2248 13.455L11.0256 13.2558C10.2386 12.4687 9.19004 12.0361 8.0755 12.0361C6.96219 12.0361 5.91486 12.4687 5.12662 13.2558C3.50003 14.8811 3.50003 17.5245 5.12662 19.1499L10.5624 24.5796C10.7384 24.7556 10.9767 24.8545 11.2248 24.8545C11.4729 24.8545 11.7112 24.7556 11.8872 24.5796L17.323 19.1499C18.1112 18.3628 18.5451 17.3155 18.5451 16.2022C18.5451 15.0901 18.1112 14.0428 17.323 13.2558C15.6964 11.6316 13.0506 11.6316 11.424 13.2558ZM15.9983 17.8264L11.2248 22.5949L6.45013 17.8264C5.55435 16.9306 5.55435 15.4738 6.45013 14.5793C6.8852 14.1454 7.46202 13.9071 8.0755 13.9071C8.69021 13.9071 9.26703 14.1454 9.70087 14.5793L10.5624 15.4396C10.9278 15.805 11.5205 15.805 11.8872 15.4396L12.7475 14.5793C13.1826 14.1454 13.7594 13.9071 14.3729 13.9071C14.9876 13.9071 15.5644 14.1454 15.9983 14.5793C16.4321 15.0131 16.6716 15.5899 16.6716 16.2022C16.6716 16.8157 16.4321 17.3925 15.9983 17.8264Z" fill="#FDFDFD"/>
<mask id="mask3_340_1773" style="mask-type:luminance" maskUnits="userSpaceOnUse" x="0" y="6" width="21" height="31">
<path d="M0 6.03491H20.6336V36.3816H0V6.03491Z" fill="white"/>
</mask>
<g mask="url(#mask3_340_1773)">
<path d="M11.2247 28.5353C11.9408 28.5353 12.6545 28.4681 13.3523 28.3337L17.5795 35.6796C17.7506 35.9753 18.0634 36.1489 18.3922 36.1489C18.4924 36.1489 18.5938 36.133 18.694 36.0988C19.1181 35.9545 19.3796 35.5305 19.3197 35.0869L18.1111 26.1779C18.8883 25.5742 19.5813 24.8739 20.1776 24.0881C20.4893 23.6751 20.4086 23.0885 19.9968 22.7769C19.5837 22.464 18.9959 22.5459 18.6843 22.9577C18.0891 23.7411 17.3791 24.4242 16.5725 24.9876C16.2841 25.188 16.1325 25.5326 16.1802 25.8797L16.8218 30.6079L14.6331 26.8036C14.4229 26.4382 13.9927 26.2573 13.5845 26.3637C12.8183 26.5629 12.0239 26.6643 11.2247 26.6643C8.72674 26.6643 6.3779 25.6915 4.61199 23.9268C2.84486 22.1621 1.87208 19.817 1.87208 17.3203C1.87208 14.8248 2.84486 12.4784 4.61199 10.7137C6.3779 8.94901 8.72674 7.97745 11.2247 7.97745C12.5738 7.97745 13.8741 8.25853 15.0913 8.81091C16.2682 9.34496 17.3057 10.1051 18.1746 11.0681C18.5205 11.453 19.1132 11.4836 19.4969 11.1378C19.8819 10.7919 19.9124 10.2004 19.5666 9.81668C18.5242 8.66059 17.2789 7.74892 15.8674 7.10733C14.4045 6.44374 12.8427 6.10645 11.2247 6.10645C9.70929 6.10645 8.23913 6.40341 6.85451 6.98879C5.51755 7.55339 4.31747 8.36118 3.28725 9.3914C2.25582 10.4204 1.4468 11.6205 0.880977 12.9562C0.2956 14.3384 -0.00136566 15.8073 -0.00136566 17.3215C-0.00136566 18.8344 0.2956 20.3034 0.880977 21.6868C1.4468 23.0213 2.25582 24.2213 3.28725 25.2503C4.31747 26.2806 5.51755 27.0884 6.85451 27.6542C8.23913 28.2383 9.70929 28.5353 11.2247 28.5353Z" fill="#FDFDFD"/>
</g>
<path d="M54.8922 14.7692H55.3248C55.8418 14.7692 56.261 14.3512 56.261 13.8343C56.261 13.3174 55.8418 12.8982 55.3248 12.8982H54.8922C54.3753 12.8982 53.9561 13.3174 53.9561 13.8343C53.9561 14.3512 54.3753 14.7692 54.8922 14.7692Z" fill="#FDFDFD"/>
<mask id="mask4_340_1773" style="mask-type:luminance" maskUnits="userSpaceOnUse" x="51" y="6" width="21" height="31">
<path d="M51.6059 6.03491H72V36.3816H51.6059V6.03491Z" fill="white"/>
</mask>
<g mask="url(#mask4_340_1773)">
<path d="M71.119 12.955C70.5532 11.6205 69.7442 10.4204 68.7127 9.3914C67.6825 8.36118 66.4824 7.55339 65.1455 6.98757C63.7608 6.40341 62.2907 6.10645 60.7753 6.10645C57.4891 6.10645 54.3789 7.53872 52.2403 10.0354C51.9042 10.4277 51.9507 11.0192 52.3442 11.3553C52.7377 11.6901 53.3279 11.6449 53.664 11.2514C55.4458 9.17142 58.0378 7.97745 60.7753 7.97745C63.2732 7.97745 65.6221 8.94901 67.3892 10.7137C69.1551 12.4784 70.1279 14.8248 70.1279 17.3203C70.1279 19.817 69.1551 22.1621 67.3892 23.9268C65.6221 25.6915 63.2732 26.6643 60.7753 26.6643C60.35 26.6643 59.9211 26.635 59.5007 26.5775C59.1231 26.5262 58.7528 26.7083 58.5621 27.0382L56.509 30.6067L57.0492 26.6166C57.103 26.2219 56.9013 25.8369 56.5457 25.6561C55.3016 25.0255 54.1944 24.104 53.3438 22.9944C53.0298 22.5838 52.4407 22.5055 52.0301 22.8196C51.6195 23.1337 51.5413 23.7215 51.8566 24.1309C52.7401 25.2846 53.8547 26.2671 55.1073 27.0028L54.0099 35.0869C53.95 35.5305 54.2127 35.9545 54.6368 36.0988C54.7358 36.133 54.8384 36.1489 54.9386 36.1489C55.2662 36.1489 55.579 35.9765 55.7501 35.6796L59.882 28.4999C60.1789 28.5231 60.4771 28.5353 60.7753 28.5353C62.2907 28.5353 63.7608 28.2383 65.1442 27.6542C66.4812 27.0884 67.6825 26.2806 68.7127 25.2503C69.7429 24.2213 70.5532 23.0213 71.1178 21.6868C71.7032 20.3034 72.0001 18.8344 72.0001 17.3215C72.0001 15.8073 71.7044 14.3384 71.119 12.955Z" fill="#FDFDFD"/>
</g>
<path d="M66.7452 14.7692C67.2621 14.7692 67.6813 14.3512 67.6813 13.8343C67.6813 13.3174 67.2621 12.8982 66.7452 12.8982H58.281C57.7641 12.8982 57.3449 13.3174 57.3449 13.8343C57.3449 14.3512 57.7641 14.7692 58.281 14.7692H66.7452Z" fill="#FDFDFD"/>
<path d="M54.8922 18.2555H66.7452C67.2621 18.2555 67.6813 17.8364 67.6813 17.3194C67.6813 16.8037 67.2621 16.3845 66.7452 16.3845H54.8922C54.3753 16.3845 53.9561 16.8037 53.9561 17.3194C53.9561 17.8364 54.3753 18.2555 54.8922 18.2555Z" fill="#FDFDFD"/>
<path d="M66.7452 19.8694H66.436C65.9191 19.8694 65.4999 20.2886 65.4999 20.8055C65.4999 21.3224 65.9191 21.7416 66.436 21.7416H66.7452C67.2622 21.7416 67.6813 21.3224 67.6813 20.8055C67.6813 20.2886 67.2622 19.8694 66.7452 19.8694Z" fill="#FDFDFD"/>
<path d="M54.8922 21.7416H63.4052C63.9222 21.7416 64.3414 21.3224 64.3414 20.8055C64.3414 20.2886 63.9222 19.8694 63.4052 19.8694H54.8922C54.3753 19.8694 53.9561 20.2886 53.9561 20.8055C53.9561 21.3224 54.3753 21.7416 54.8922 21.7416Z" fill="#FDFDFD"/>
<path d="M32.875 24.2536H44.3614C45.5957 24.2536 46.599 23.2503 46.599 22.0172C46.599 21.6445 46.5073 21.2925 46.3448 20.9821C46.742 20.5788 46.9864 20.0252 46.9864 19.4166C46.9864 19.0011 46.8727 18.6125 46.6748 18.2789C47.0157 17.8866 47.2222 17.3745 47.2222 16.8148C47.2222 16.4726 47.1453 16.1475 47.0059 15.8567C47.4496 15.4485 47.7282 14.8619 47.7282 14.2142C47.7282 12.9811 46.7236 11.9778 45.4893 11.9778H40.3138C40.3957 10.8474 40.3872 9.7084 40.2869 8.58164C40.2625 6.97705 38.9488 5.6792 37.3356 5.6792C36.1905 5.6792 35.2593 6.6092 35.2593 7.75307V8.43621C35.2593 9.33689 35.1493 10.2363 34.9318 11.1101C34.6971 12.056 33.8515 12.7172 32.875 12.7172C32.3569 12.7172 31.9377 13.1363 31.9377 13.6533V23.3187C31.9377 23.8357 32.3581 24.2536 32.875 24.2536ZM33.8111 14.4782C35.2361 14.1372 36.3848 13.0325 36.7502 11.5599C37.0044 10.5394 37.1327 9.48843 37.1327 8.43621V7.75307C37.1327 7.64064 37.2244 7.55021 37.3356 7.55021C37.9308 7.55021 38.4147 8.03293 38.4147 8.62686C38.4147 8.65497 38.4159 8.68307 38.4184 8.71118C38.5345 9.99437 38.521 11.2947 38.3793 12.5742L38.3536 12.81C38.3243 13.074 38.4086 13.3392 38.5858 13.5372C38.7642 13.7352 39.0172 13.8488 39.2836 13.8488H45.4893C45.691 13.8488 45.8547 14.0126 45.8547 14.213C45.8547 14.4146 45.691 14.5784 45.4893 14.5784H44.9846C44.4665 14.5784 44.0473 14.9976 44.0473 15.5145C44.0473 16.0314 44.4665 16.4494 44.9846 16.4494C45.185 16.4494 45.35 16.6132 45.35 16.8148C45.35 17.0164 45.185 17.1802 44.9846 17.1802H44.7488C44.2306 17.1802 43.8114 17.5994 43.8114 18.1163C43.8114 18.632 44.2306 19.0512 44.7488 19.0512C44.9504 19.0512 45.1142 19.215 45.1142 19.4166C45.1142 19.6183 44.9504 19.782 44.7488 19.782H44.3614C43.8444 19.782 43.424 20.2 43.424 20.7169C43.424 21.2338 43.8444 21.653 44.3614 21.653C44.563 21.653 44.7268 21.8168 44.7268 22.0184C44.7268 22.2188 44.563 22.3826 44.3614 22.3826H33.8111V14.4782Z" fill="#FDFDFD"/>
<path d="M26.3028 24.2538H29.9287C30.4457 24.2538 30.8648 23.8358 30.8648 23.3189V13.827C30.8648 13.3113 30.4457 12.8921 29.9287 12.8921H26.3028C25.7847 12.8921 25.3655 13.3113 25.3655 13.827V23.3189C25.3655 23.8358 25.7847 24.2538 26.3028 24.2538ZM27.2389 14.7631H28.9926V22.3828H27.2389V14.7631Z" fill="#FDFDFD"/>
<mask id="mask5_340_1773" style="mask-type:luminance" maskUnits="userSpaceOnUse" x="19" y="0" width="34" height="38">
<path d="M19.0692 0H52.8573V37.6328H19.0692V0Z" fill="white"/>
</mask>
<g mask="url(#mask5_340_1773)">
<path d="M20.7411 23.2452C21.5684 25.1321 22.7245 26.8271 24.1788 28.2887L23.2903 36.5867C23.25 36.9557 23.4321 37.3114 23.7523 37.4971C23.8989 37.5814 24.0602 37.623 24.2216 37.623C24.4159 37.623 24.609 37.5619 24.7727 37.4421L31.4599 32.5697C32.9191 32.9803 34.432 33.188 35.9633 33.188C38.2058 33.188 40.3811 32.7493 42.4293 31.8829C44.4067 31.0482 46.1836 29.8518 47.7087 28.3278C49.2339 26.8039 50.4315 25.0294 51.2674 23.0533C52.1339 21.0076 52.5738 18.8335 52.5738 16.5946C52.5738 14.3546 52.1339 12.1805 51.2674 10.1347C50.4315 8.15861 49.2339 6.38415 47.7087 4.86022C46.1836 3.3375 44.4067 2.14109 42.4293 1.30518C40.3811 0.438727 38.2058 0 35.9633 0C33.7208 0 31.5455 0.438727 29.4973 1.30518C27.5187 2.14109 25.743 3.3375 24.2179 4.86022C22.6927 6.38415 21.4951 8.15861 20.6592 10.1347C19.7927 12.1805 19.3528 14.3546 19.3528 16.5946C19.3528 18.9068 19.8196 21.1444 20.7411 23.2452ZM22.3835 10.8643C23.1266 9.11061 24.1886 7.53657 25.5426 6.18373C26.8967 4.83211 28.472 3.77012 30.2269 3.02832C32.0441 2.26085 33.9738 1.87223 35.9633 1.87223C37.9529 1.87223 39.8825 2.26085 41.6998 3.02832C43.4534 3.77012 45.0299 4.83211 46.384 6.18373C47.7368 7.53657 48.8 9.11061 49.5431 10.8643C50.3105 12.6791 50.7004 14.6063 50.7004 16.5946C50.7004 18.5817 50.3105 20.5102 49.5431 22.325C48.8 24.0774 47.7381 25.6527 46.384 27.0043C45.0299 28.3572 43.4534 29.4192 41.6998 30.1597C39.8825 30.9272 37.9529 31.317 35.9633 31.317C34.4614 31.317 32.9802 31.0922 31.5614 30.6486C31.2779 30.5606 30.9699 30.6119 30.7304 30.7854L25.3776 34.6863L26.0901 28.037C26.1207 27.7473 26.0156 27.4602 25.8041 27.2597C24.3731 25.8983 23.2463 24.295 22.4569 22.4948C21.6405 20.6312 21.2262 18.6465 21.2262 16.5946C21.2262 14.6063 21.6161 12.6791 22.3835 10.8643Z" fill="#FDFDFD"/>
</g>
</svg>
