<svg width="71" height="77" viewBox="0 0 71 77" fill="none" xmlns="http://www.w3.org/2000/svg">
<path d="M9.32444 37.332C5.53107 37.332 2.67166 39.1398 2.67166 41.5387C2.67166 43.9364 5.53107 45.7455 9.32444 45.7455C13.1178 45.7455 15.9772 43.9364 15.9772 41.5387C15.9772 39.1398 13.1178 37.332 9.32444 37.332ZM9.32444 43.3412C6.77896 43.3412 5.09026 42.2556 5.09026 41.5387C5.09026 40.8206 6.77896 39.7349 9.32444 39.7349C11.8686 39.7349 13.5573 40.8206 13.5573 41.5387C13.5573 42.2556 11.8686 43.3412 9.32444 43.3412Z" fill="#FDFDFD"/>
<path d="M55.1364 41.2876C51.2921 41.2876 48.3934 43.1176 48.3934 45.5453C48.3934 47.9718 51.2921 49.8017 55.1364 49.8017C58.9808 49.8017 61.8808 47.9718 61.8808 45.5453C61.8808 43.1176 58.9808 41.2876 55.1364 41.2876ZM55.1364 47.3975C52.5373 47.3975 50.812 46.2831 50.812 45.5453C50.812 44.8076 52.5373 43.6918 55.1364 43.6918C57.7369 43.6918 59.4609 44.8076 59.4609 45.5453C59.4609 46.2831 57.7369 47.3975 55.1364 47.3975Z" fill="#FDFDFD"/>
<mask id="mask0_340_1713" style="mask-type:luminance" maskUnits="userSpaceOnUse" x="57" y="68" width="14" height="10">
<path d="M57.4163 68.2944H70.8618V77.0009H57.4163V68.2944Z" fill="white"/>
</mask>
<g mask="url(#mask0_340_1713)">
<path d="M64.2091 68.5828C60.4157 68.5828 57.5563 70.3905 57.5563 72.7895C57.5563 75.1871 60.4157 76.9962 64.2091 76.9962C68.0012 76.9962 70.8619 75.1871 70.8619 72.7895C70.8619 70.3905 68.0012 68.5828 64.2091 68.5828ZM64.2091 74.592C61.6636 74.592 59.9749 73.5076 59.9749 72.7895C59.9749 72.0714 61.6636 70.9857 64.2091 70.9857C66.7533 70.9857 68.442 72.0714 68.442 72.7895C68.442 73.5076 66.7533 74.592 64.2091 74.592Z" fill="#FDFDFD"/>
</g>
<path d="M34.1788 64.7923L55.3497 71.3182C55.5773 70.5334 55.9841 69.81 56.54 69.1677L35.3691 62.6418C35.1428 63.4267 34.7347 64.15 34.1788 64.7923Z" fill="#FDFDFD"/>
<path d="M26.5109 56.9629C22.7176 56.9629 19.8582 58.7719 19.8582 61.1696C19.8582 63.5686 22.7176 65.3763 26.5109 65.3763C30.303 65.3763 33.1637 63.5686 33.1637 61.1696C33.1637 58.7719 30.303 56.9629 26.5109 56.9629ZM26.5109 62.9734C23.9655 62.9734 22.2768 61.8877 22.2768 61.1696C22.2768 60.4528 23.9655 59.3671 26.5109 59.3671C29.0551 59.3671 30.7438 60.4528 30.7438 61.1696C30.7438 61.8877 29.0551 62.9734 26.5109 62.9734Z" fill="#FDFDFD"/>
<path d="M21.2905 24.9946C21.3049 24.8141 21.3284 24.6296 21.3755 24.4413L21.917 22.2791C18.9648 23.0587 16.7332 24.3092 16.7332 26.2385C16.7332 30.2634 26.4272 31.336 32.1552 31.336C37.8832 31.336 47.5772 30.2634 47.5772 26.2385C47.5772 24.3078 45.3443 23.0587 42.3921 22.2791L42.9336 24.4413C42.9846 24.6427 42.9977 24.8206 42.999 24.988C44.2887 25.4315 45.033 25.8932 45.1534 26.2385C44.8303 27.166 40.0166 28.9318 32.1552 28.9318C24.2362 28.9318 19.4095 27.1398 19.1492 26.2582C19.2473 25.9128 19.9864 25.4446 21.2905 24.9946Z" fill="#FDFDFD"/>
<mask id="mask1_340_1713" style="mask-type:luminance" maskUnits="userSpaceOnUse" x="23" y="0" width="18" height="27">
<path d="M23.5953 0H40.6733V26.7707H23.5953V0Z" fill="white"/>
</mask>
<g mask="url(#mask1_340_1713)">
<path d="M25.8597 20.2701C25.3038 20.2701 24.8198 20.6455 24.6851 21.1818L23.7236 25.0222C23.6334 25.3806 23.7158 25.7613 23.9447 26.0517C24.1736 26.3434 24.5255 26.5147 24.8983 26.5147H39.4125C39.7853 26.5147 40.1358 26.3434 40.3661 26.0517C40.595 25.7613 40.6761 25.3806 40.5858 25.0222L39.6244 21.1818C39.491 20.6455 39.007 20.2701 38.4511 20.2701H37.7879C36.8683 19.0562 36.4013 17.17 36.4013 14.6441C36.4013 11.7402 37.0161 9.68003 38.2287 8.51848C38.5845 8.17838 38.6957 7.65778 38.5112 7.20388C38.3268 6.74868 37.8821 6.45175 37.3889 6.45175H33.3653V5.27842H35.0658C35.7342 5.27842 36.2758 4.74081 36.2758 4.07762C36.2758 3.41313 35.7342 2.87552 35.0658 2.87552H33.3653V1.27315C33.3653 0.608656 32.8225 0.0710449 32.1554 0.0710449C31.487 0.0710449 30.9454 0.608656 30.9454 1.27315V2.87552H29.2449C28.5765 2.87552 28.035 3.41313 28.035 4.07762C28.035 4.74081 28.5765 5.27842 29.2449 5.27842H30.9454V6.45175H26.9205C26.4274 6.45175 25.984 6.74868 25.7995 7.20388C25.6151 7.65778 25.7263 8.17838 26.0821 8.51848C27.2933 9.68003 27.9081 11.7402 27.9081 14.6441C27.9081 17.17 27.4424 19.0562 26.5229 20.2701H25.8597ZM35.0658 8.85596C34.3398 10.3615 33.9827 12.2765 33.9827 14.6441C33.9827 16.928 34.3189 18.7893 34.9952 20.2701H29.3156C29.9919 18.7893 30.328 16.928 30.328 14.6441C30.328 12.2765 29.9709 10.3615 29.2436 8.85596H35.0658ZM37.5053 22.673L37.865 24.1105H26.4457L26.8041 22.673H37.5053Z" fill="#FDFDFD"/>
</g>
<path d="M7.25894 53.5467C6.89268 52.9921 6.14055 52.8391 5.58332 53.2053L3.7298 54.4218L1.87628 53.2053C1.31905 52.8391 0.568225 52.9921 0.200661 53.5467C-0.168211 54.1014 -0.0138599 54.8456 0.543372 55.2119L1.53357 55.862L0.543372 56.5108C-0.0138599 56.8771 -0.168211 57.6226 0.200661 58.176C0.432187 58.5265 0.818064 58.7162 1.21048 58.7162C1.43939 58.7162 1.67092 58.6521 1.87628 58.5174L3.7298 57.3009L5.58332 58.5174C5.78868 58.6521 6.02021 58.7162 6.24912 58.7162C6.64153 58.7162 7.02741 58.5265 7.25894 58.176C7.62781 57.6226 7.47346 56.8771 6.91623 56.5108L5.92603 55.862L6.91623 55.2119C7.47346 54.8456 7.62781 54.1014 7.25894 53.5467Z" fill="#FDFDFD"/>
<path d="M67.6376 55.0494C67.2687 54.4948 66.5192 54.3418 65.9619 54.708L64.1084 55.9232L62.2549 54.708C61.6977 54.3418 60.9455 54.4948 60.5793 55.0494C60.2104 55.6027 60.3648 56.3483 60.922 56.7146L61.9122 57.3634L60.922 58.0135C60.3648 58.3784 60.2104 59.124 60.5793 59.6786C60.8121 60.0292 61.1967 60.2189 61.5891 60.2189C61.818 60.2189 62.0495 60.1548 62.2549 60.0187L64.1084 58.8036L65.9619 60.0187C66.166 60.1548 66.3975 60.2189 66.6264 60.2189C67.0189 60.2189 67.4047 60.0292 67.6376 59.6786C68.0051 59.124 67.8521 58.3784 67.2935 58.0135L66.3033 57.3634L67.2935 56.7146C67.8521 56.3483 68.0051 55.6027 67.6376 55.0494Z" fill="#FDFDFD"/>
<path d="M52.6681 31.3109C52.3018 30.7563 51.551 30.6032 50.9925 30.9695L49.139 32.1847L47.2854 30.9695C46.7295 30.6032 45.9774 30.7563 45.6098 31.3109C45.2423 31.8642 45.3953 32.6098 45.9538 32.9748L46.944 33.6249L45.9538 34.275C45.3953 34.6399 45.2423 35.3855 45.6098 35.9401C45.8427 36.2907 46.2285 36.479 46.621 36.479C46.8499 36.479 47.0814 36.4163 47.2854 36.2802L49.139 35.065L50.9925 36.2802C51.1978 36.4163 51.4294 36.479 51.6583 36.479C52.0507 36.479 52.4366 36.2907 52.6681 35.9401C53.037 35.3855 52.8826 34.6399 52.3254 34.275L51.3352 33.6249L52.3254 32.9748C52.8826 32.6098 53.037 31.8642 52.6681 31.3109Z" fill="#FDFDFD"/>
<path d="M49.092 50.6247C48.3215 50.1446 47.6714 49.569 47.1665 48.9189L32.9388 56.4207C33.6556 56.936 34.2416 57.5443 34.6837 58.2218L49.092 50.6247Z" fill="#FDFDFD"/>
<path d="M45.9971 45.8934C45.9892 45.7769 45.9735 45.6631 45.9735 45.5454C45.9735 44.8299 46.1148 44.1484 46.3764 43.5127L18.3709 41.1438C18.3801 41.2759 18.3958 41.4054 18.3958 41.5388C18.3958 42.2373 18.261 42.9031 18.0099 43.5258L45.9971 45.8934Z" fill="#FDFDFD"/>
<path d="M23.3166 32.9668L15.6972 36.7523C16.4271 37.2664 17.0262 37.8759 17.4762 38.5561L27.5652 33.5437C26.2218 33.4272 24.762 33.2454 23.3166 32.9668Z" fill="#FDFDFD"/>
</svg>
