<svg width="33" height="33" viewBox="0 0 33 33" fill="none" xmlns="http://www.w3.org/2000/svg">
<mask id="mask0_340_1860" style="mask-type:luminance" maskUnits="userSpaceOnUse" x="0" y="0" width="33" height="33">
<path d="M0 0H33V33H0V0Z" fill="white"/>
</mask>
<g mask="url(#mask0_340_1860)">
<path d="M22.917 33H5.5C5.31996 33 5.14048 32.991 4.96099 32.9731C4.78207 32.9551 4.60427 32.9288 4.4276 32.8934C4.25092 32.8581 4.07648 32.8144 3.90429 32.7622C3.73154 32.7095 3.56272 32.6489 3.39614 32.5799C3.22955 32.5109 3.06746 32.4341 2.90817 32.3488C2.74944 32.2641 2.5952 32.1716 2.44544 32.0712C2.29625 31.9713 2.15154 31.8642 2.01244 31.7498C1.87334 31.6359 1.73985 31.5148 1.61253 31.3875C1.48521 31.2601 1.36462 31.1267 1.2502 30.9876C1.13578 30.8485 1.02866 30.7043 0.928819 30.5546C0.828421 30.4048 0.735876 30.2506 0.651183 30.0918C0.565929 29.9331 0.489088 29.7704 0.4201 29.6039C0.351112 29.4378 0.290536 29.2685 0.237814 29.0963C0.185652 28.9235 0.141903 28.7491 0.106567 28.5724C0.0712319 28.3963 0.0448705 28.2179 0.0269223 28.039C0.0089741 27.8595 0 27.68 0 27.5V10.0835C0 9.91806 0.00448701 9.75372 0.0129003 9.58882C0.0207525 9.42392 0.0330919 9.25959 0.0499184 9.09525C0.0661839 8.93091 0.0863758 8.76769 0.110494 8.60448C0.135172 8.44126 0.163216 8.27861 0.195748 8.11707C0.228279 7.95498 0.264175 7.79456 0.304558 7.63415C0.344942 7.4743 0.388691 7.31557 0.436926 7.1574C0.485162 6.9998 0.536763 6.84331 0.59229 6.68795C0.647818 6.53258 0.707271 6.3789 0.770651 6.22634C0.83403 6.07378 0.900775 5.92347 0.971446 5.77427C1.04212 5.62508 1.11615 5.47756 1.19412 5.3323C1.27208 5.18703 1.35341 5.04344 1.4381 4.9021C1.52279 4.76076 1.61141 4.6211 1.70284 4.48424C1.79482 4.34683 1.88961 4.21222 1.98776 4.07985C2.08648 3.94692 2.188 3.81736 2.29232 3.68948C2.39721 3.56216 2.50489 3.43708 2.61595 3.31481C2.72644 3.1931 2.8403 3.07363 2.95697 2.95697C3.07363 2.8403 3.1931 2.72644 3.31537 2.61539C3.43764 2.50489 3.56216 2.39721 3.69004 2.29232C3.81736 2.18744 3.94748 2.08648 4.07985 1.98776C4.21222 1.88961 4.34683 1.79482 4.48424 1.70284C4.6211 1.61141 4.76076 1.52279 4.9021 1.4381C5.04344 1.35341 5.18703 1.27208 5.3323 1.19412C5.47813 1.11615 5.62508 1.04212 5.77427 0.971446C5.92347 0.900775 6.07434 0.83403 6.22634 0.770651C6.3789 0.707271 6.53258 0.647818 6.68795 0.59229C6.84331 0.536763 6.9998 0.484601 7.1574 0.436926C7.31557 0.388691 7.4743 0.344942 7.63415 0.304558C7.79456 0.264175 7.95554 0.227718 8.11707 0.195748C8.27861 0.163216 8.44126 0.135172 8.60448 0.110494C8.76769 0.0863758 8.93147 0.0656231 9.09525 0.0493575C9.25959 0.033092 9.42392 0.0207525 9.58882 0.0129003C9.75372 0.00448701 9.91862 0 10.0835 0H22.917C23.0819 0 23.2468 0.00448701 23.4112 0.0129003C23.5761 0.0207525 23.7404 0.033092 23.9048 0.0493575C24.0691 0.0656231 24.2323 0.0863758 24.3955 0.110494C24.5587 0.135172 24.7214 0.163216 24.8829 0.195748C25.045 0.227718 25.206 0.264175 25.3658 0.304558C25.5257 0.344942 25.6844 0.388691 25.8426 0.436926C26.0002 0.484601 26.1567 0.536763 26.3121 0.59229C26.4674 0.647818 26.6211 0.707271 26.7737 0.770651C26.9262 0.83403 27.0765 0.900775 27.2257 0.971446C27.3749 1.04212 27.5224 1.11615 27.6677 1.19412C27.813 1.27208 27.9566 1.35341 28.0979 1.4381C28.2398 1.52279 28.3789 1.61141 28.5158 1.70284C28.6532 1.79482 28.7878 1.88961 28.9202 1.98776C29.0531 2.08648 29.1826 2.18744 29.3105 2.29232C29.4378 2.39721 29.5629 2.50489 29.6852 2.61539C29.8075 2.72644 29.9269 2.8403 30.0436 2.95697C30.1597 3.07363 30.2736 3.1931 30.3846 3.31481C30.4951 3.43708 30.6028 3.56216 30.7077 3.68948C30.8126 3.81736 30.9141 3.94692 31.0122 4.07985C31.1104 4.21222 31.2052 4.34683 31.2972 4.48424C31.3886 4.6211 31.4772 4.76076 31.5619 4.9021C31.6466 5.04344 31.7279 5.18703 31.8059 5.3323C31.8838 5.47756 31.9579 5.62508 32.0286 5.77427C32.0992 5.92347 32.166 6.07378 32.2294 6.22634C32.2927 6.3789 32.3522 6.53258 32.4077 6.68795C32.4632 6.84331 32.5154 6.9998 32.5631 7.1574C32.6113 7.31557 32.6556 7.4743 32.6954 7.63415C32.7358 7.79456 32.7723 7.95498 32.8043 8.11707C32.8368 8.27861 32.8648 8.44126 32.8895 8.60448C32.9136 8.76769 32.9344 8.93091 32.9506 9.09525C32.9669 9.25959 32.9792 9.42392 32.9877 9.58882C32.9955 9.75372 33 9.91806 33 10.0835V22.9165C33 23.0814 32.9955 23.2463 32.9877 23.4112C32.9792 23.5761 32.9669 23.7404 32.9506 23.9048C32.9344 24.0685 32.9136 24.2323 32.8895 24.3955C32.8648 24.5587 32.8368 24.7214 32.8043 24.8829C32.7723 25.045 32.7358 25.2054 32.6954 25.3658C32.6556 25.5257 32.6113 25.6844 32.5631 25.8426C32.5154 26.0002 32.4632 26.1567 32.4077 26.3121C32.3522 26.4674 32.2927 26.6211 32.2294 26.7737C32.166 26.9262 32.0992 27.0765 32.0286 27.2257C31.9579 27.3749 31.8838 27.5219 31.8059 27.6677C31.7279 27.813 31.6466 27.9566 31.5619 28.0979C31.4772 28.2392 31.3886 28.3789 31.2972 28.5158C31.2052 28.6532 31.1104 28.7878 31.0122 28.9202C30.9141 29.0531 30.8126 29.1826 30.7077 29.3105C30.6028 29.4378 30.4951 29.5629 30.3846 29.6846C30.2736 29.8069 30.1597 29.9264 30.0436 30.043C29.9269 30.1597 29.8075 30.2736 29.6852 30.3846C29.5629 30.4951 29.4378 30.6028 29.3105 30.7077C29.1826 30.812 29.0531 30.9135 28.9202 31.0122C28.7878 31.1104 28.6532 31.2052 28.5158 31.2972C28.3789 31.3886 28.2398 31.4772 28.0979 31.5619C27.9566 31.6466 27.813 31.7279 27.6677 31.8059C27.5224 31.8838 27.3749 31.9579 27.2257 32.0286C27.0765 32.0992 26.9262 32.166 26.7737 32.2294C26.6211 32.2927 26.4674 32.3522 26.3121 32.4077C26.1567 32.4632 26.0002 32.5154 25.8426 32.5631C25.6844 32.6113 25.5257 32.6551 25.3658 32.6954C25.206 32.7358 25.045 32.7723 24.8829 32.8043C24.7214 32.8368 24.5587 32.8648 24.3955 32.8895C24.2323 32.9136 24.0691 32.9338 23.9048 32.9506C23.7404 32.9669 23.5761 32.9792 23.4112 32.9871C23.2468 32.9955 23.0819 33 22.917 33ZM10.0835 3.66648C9.87319 3.66704 9.66398 3.67714 9.45477 3.69789C9.24556 3.7192 9.03804 3.75005 8.83219 3.791C8.62579 3.8325 8.42275 3.88354 8.2214 3.94468C8.0206 4.00581 7.82317 4.07648 7.6291 4.15725C7.43504 4.23746 7.24546 4.3272 7.05981 4.42647C6.87472 4.52575 6.69468 4.63344 6.52024 4.7501C6.34581 4.86677 6.17698 4.99184 6.01489 5.12533C5.85223 5.25882 5.69687 5.3996 5.54824 5.54824C5.3996 5.69687 5.25882 5.85223 5.12533 6.01433C4.9924 6.17698 4.86733 6.34525 4.7501 6.52024C4.63344 6.69468 4.52575 6.87472 4.42647 7.05981C4.3272 7.2449 4.23746 7.43504 4.15725 7.6291C4.07648 7.82317 4.00581 8.0206 3.94468 8.2214C3.88354 8.42219 3.8325 8.62579 3.791 8.83219C3.75005 9.03804 3.7192 9.24556 3.69845 9.45477C3.6777 9.66342 3.66704 9.87319 3.66648 10.0835V27.5C3.66648 27.6206 3.67826 27.7395 3.70182 27.8578C3.72537 27.9756 3.76015 28.0906 3.80614 28.2017C3.85213 28.3127 3.90878 28.4187 3.97553 28.5186C4.04283 28.6184 4.11855 28.7115 4.2038 28.7962C4.28906 28.8815 4.3816 28.9577 4.48144 29.0245C4.58184 29.0912 4.68728 29.1479 4.79834 29.1939C4.90939 29.2399 5.02437 29.2746 5.14216 29.2982C5.2605 29.3217 5.37941 29.3335 5.5 29.3335H22.917C23.1268 29.333 23.3366 29.3229 23.5452 29.3015C23.7544 29.2808 23.962 29.25 24.1684 29.209C24.3742 29.1675 24.5778 29.1165 24.7786 29.0553C24.9794 28.9942 25.1774 28.9235 25.3715 28.8428C25.5655 28.7625 25.7551 28.6728 25.9402 28.5735C26.1253 28.4743 26.3053 28.3666 26.4798 28.2499C26.6548 28.1327 26.823 28.0082 26.9857 27.8747C27.1478 27.7412 27.3031 27.6004 27.4518 27.4518C27.6004 27.3031 27.7412 27.1478 27.8747 26.9857C28.0082 26.823 28.1332 26.6548 28.2499 26.4798C28.3666 26.3053 28.4743 26.1253 28.5735 25.9402C28.6728 25.7545 28.7625 25.565 28.8433 25.3709C28.9235 25.1768 28.9942 24.9794 29.0553 24.7786C29.1165 24.5772 29.1681 24.3742 29.209 24.1678C29.25 23.962 29.2814 23.7544 29.3021 23.5452C29.3229 23.3366 29.333 23.1268 29.3335 22.9165V10.0835C29.333 9.87319 29.3229 9.66342 29.3021 9.45477C29.2814 9.24556 29.25 9.03804 29.209 8.83219C29.1681 8.62579 29.1165 8.42219 29.0553 8.2214C28.9942 8.0206 28.9235 7.82317 28.8433 7.6291C28.7625 7.43504 28.6728 7.2449 28.5735 7.05981C28.4743 6.87472 28.3666 6.69468 28.2499 6.52024C28.1332 6.34525 28.0082 6.17698 27.8747 6.01433C27.7412 5.85223 27.6004 5.69687 27.4518 5.54824C27.3031 5.3996 27.1478 5.25882 26.9857 5.12533C26.823 4.99184 26.6548 4.86677 26.4798 4.7501C26.3053 4.63344 26.1253 4.52575 25.9402 4.42647C25.7551 4.3272 25.5655 4.23746 25.3715 4.15725C25.1774 4.07648 24.9794 4.00581 24.7786 3.94468C24.5778 3.88354 24.3742 3.8325 24.1684 3.791C23.962 3.75005 23.7544 3.7192 23.5452 3.69789C23.3366 3.67714 23.1268 3.66704 22.917 3.66648H10.0835Z" fill="#FDFDFD"/>
</g>
<path d="M15.5835 25.6665H9.16649C9.04646 25.6665 8.92699 25.6547 8.8092 25.6317C8.69086 25.6081 8.57644 25.5733 8.46538 25.5274C8.35377 25.4808 8.24832 25.4247 8.14793 25.3574C8.04809 25.2907 7.95554 25.2149 7.87029 25.1297C7.78504 25.0444 7.70932 24.9519 7.64257 24.8521C7.57527 24.7517 7.51918 24.6462 7.47319 24.5352C7.42663 24.4235 7.39186 24.3091 7.36886 24.1908C7.34531 24.073 7.33353 23.9535 7.33353 23.8335V11C7.33353 10.8799 7.33914 10.7599 7.35091 10.6405C7.36269 10.521 7.38064 10.4026 7.40364 10.2849C7.42719 10.1671 7.45636 10.0504 7.49113 9.93542C7.52591 9.82044 7.56629 9.70771 7.61228 9.59665C7.65828 9.4856 7.70988 9.37735 7.76653 9.27134C7.82318 9.16533 7.88487 9.06269 7.95162 8.96286C8.0178 8.86302 8.08959 8.76655 8.16587 8.674C8.24159 8.5809 8.32236 8.49228 8.40761 8.40702C8.49231 8.32233 8.58093 8.24156 8.67403 8.16528C8.76658 8.08956 8.86305 8.01777 8.96289 7.95103C9.06272 7.88428 9.16593 7.82258 9.27137 7.7665C9.37738 7.70985 9.48619 7.65825 9.59668 7.61225C9.70774 7.56626 9.82103 7.52588 9.93545 7.4911C10.0504 7.45633 10.1671 7.42716 10.2849 7.40361C10.4027 7.38005 10.521 7.36266 10.6405 7.35088C10.7599 7.3391 10.88 7.3335 11 7.3335H13.75C13.8695 7.3335 13.9889 7.33742 14.1078 7.34471C14.2273 7.35257 14.3457 7.36434 14.464 7.38005C14.5829 7.39575 14.7001 7.41482 14.8174 7.43782C14.9346 7.46138 15.0507 7.4883 15.1662 7.51915C15.2818 7.55 15.3962 7.58421 15.5089 7.62235C15.6222 7.66049 15.7338 7.70256 15.8443 7.74799C15.9548 7.79342 16.0636 7.84278 16.1708 7.89494C16.2779 7.94766 16.3833 8.00375 16.4871 8.0632C16.5903 8.12266 16.6918 8.18547 16.7917 8.2511C16.8909 8.31728 16.988 8.38683 17.0833 8.45918C17.1781 8.53154 17.2707 8.6067 17.361 8.68522C17.4507 8.76374 17.5382 8.84507 17.6229 8.9292C17.7076 9.01334 17.7895 9.09971 17.8686 9.18945C17.9476 9.27863 18.0239 9.37062 18.0968 9.46484C18.1703 9.55963 18.2404 9.6561 18.3072 9.75482C18.3739 9.8541 18.4373 9.95505 18.4979 10.0583C18.5579 10.1615 18.6145 10.2663 18.6684 10.3729C18.7217 10.48 18.7716 10.5883 18.8176 10.6982C18.8641 10.8082 18.9067 10.9198 18.946 11.0325C18.9853 11.1452 19.0206 11.2591 19.052 11.3746C19.084 11.4896 19.1115 11.6057 19.1356 11.7224C19.1597 11.8396 19.1805 11.9574 19.1967 12.0752C19.213 12.1935 19.2259 12.3124 19.2343 12.4313C19.2433 12.5508 19.2478 12.6697 19.2489 12.7892C19.25 12.9087 19.2472 13.0281 19.2399 13.147C19.2332 13.2665 19.2225 13.3854 19.2079 13.5037C19.1934 13.6221 19.1754 13.7404 19.153 13.8577C19.1305 13.9749 19.1047 14.0916 19.075 14.2071C19.0447 14.3226 19.0116 14.4371 18.9741 14.5504C18.937 14.6642 18.8961 14.7758 18.8512 14.8869C18.8069 14.9974 18.7587 15.1067 18.7071 15.2144C18.6555 15.3221 18.5999 15.4281 18.5416 15.5319C18.7906 15.6912 19.0251 15.869 19.2455 16.0659C19.4654 16.2627 19.6684 16.4759 19.8546 16.7053C20.0403 16.9352 20.2069 17.1781 20.3533 17.4344C20.5002 17.6907 20.6253 17.9571 20.729 18.2337C20.8334 18.5102 20.9141 18.7934 20.9725 19.0828C21.0302 19.3722 21.065 19.665 21.0762 19.9601C21.0875 20.2551 21.0746 20.5495 21.0387 20.8429C21.0022 21.1357 20.9427 21.424 20.8597 21.7078C20.7773 21.991 20.6724 22.2664 20.5451 22.5328C20.4178 22.7998 20.2702 23.0544 20.102 23.2973C19.9343 23.5402 19.7475 23.7679 19.5428 23.981C19.3381 24.1936 19.1171 24.3888 18.8809 24.566C18.6448 24.7432 18.3958 24.9003 18.1344 25.0377C17.8725 25.1751 17.6016 25.2901 17.3217 25.3838C17.0413 25.4774 16.7552 25.5475 16.4641 25.5952C16.1725 25.6429 15.8786 25.6665 15.5835 25.6665ZM11 22H15.5835C15.7036 22 15.823 21.9882 15.9414 21.9646C16.0592 21.9411 16.1736 21.9063 16.2852 21.8603C16.3962 21.8143 16.5017 21.7577 16.6021 21.6909C16.7019 21.6242 16.7945 21.5479 16.8797 21.4632C16.965 21.378 17.0407 21.2854 17.108 21.185C17.1747 21.0852 17.2314 20.9792 17.2774 20.8681C17.3234 20.7571 17.3582 20.6426 17.3817 20.5243C17.4053 20.4065 17.4165 20.287 17.4165 20.1665C17.4165 20.0464 17.4053 19.927 17.3817 19.8092C17.3582 19.6908 17.3234 19.5764 17.2774 19.4648C17.2314 19.3537 17.1747 19.2483 17.108 19.1479C17.0407 19.0481 16.965 18.9555 16.8797 18.8703C16.7945 18.785 16.7019 18.7093 16.6021 18.6425C16.5017 18.5752 16.3962 18.5191 16.2852 18.4726C16.1736 18.4266 16.0592 18.3918 15.9414 18.3683C15.823 18.3453 15.7036 18.3335 15.5835 18.3335H11V22ZM11 14.6665H13.75C13.8706 14.6665 13.9895 14.6547 14.1078 14.6311C14.2256 14.6081 14.3406 14.5733 14.4517 14.5268C14.5627 14.4808 14.6687 14.4247 14.7686 14.3574C14.869 14.2907 14.9615 14.2149 15.0462 14.1297C15.1315 14.0444 15.2077 13.9519 15.2745 13.8521C15.3412 13.7517 15.3979 13.6462 15.4439 13.5346C15.4899 13.4235 15.5246 13.3091 15.5482 13.1908C15.5717 13.073 15.5835 12.9535 15.5835 12.8335C15.5835 12.7129 15.5717 12.5934 15.5482 12.4757C15.5246 12.3573 15.4899 12.2429 15.4439 12.1318C15.3979 12.0202 15.3412 11.9148 15.2745 11.8149C15.2077 11.7145 15.1315 11.622 15.0462 11.5367C14.9615 11.452 14.869 11.3758 14.7686 11.309C14.6687 11.2423 14.5627 11.1856 14.4517 11.1396C14.3406 11.0936 14.2256 11.0589 14.1078 11.0353C13.9895 11.0118 13.8706 11 13.75 11H11V14.6665Z" fill="#FDFDFD"/>
<path d="M23.852 25.6665C23.7314 25.667 23.6125 25.6558 23.4942 25.6328C23.3758 25.6098 23.2614 25.5756 23.1498 25.5302C23.0387 25.4848 22.9327 25.4287 22.8323 25.3625C22.7319 25.2957 22.6394 25.22 22.5536 25.1359C22.4683 25.0512 22.3921 24.9586 22.3247 24.8588C22.2574 24.7595 22.2002 24.6541 22.1537 24.543C22.1071 24.432 22.0718 24.3176 22.0477 24.1998C22.0241 24.082 22.0118 23.9631 22.0112 23.8425C22.0101 23.7225 22.0213 23.603 22.0443 23.4847C22.0673 23.3669 22.1015 23.2519 22.1469 23.1408C22.1924 23.0292 22.2479 22.9232 22.3147 22.8228C22.3808 22.7224 22.456 22.6293 22.5407 22.5441C22.6254 22.4582 22.7174 22.382 22.8172 22.3147C22.917 22.2473 23.0219 22.1901 23.133 22.1436C23.244 22.097 23.3585 22.0617 23.4762 22.0376C23.594 22.0129 23.7129 22.0006 23.8335 22H23.852C23.9721 22 24.0915 22.0118 24.2093 22.0353C24.3277 22.0589 24.4421 22.0937 24.5531 22.1397C24.6647 22.1857 24.7702 22.2423 24.8706 22.309C24.9704 22.3758 25.063 22.4521 25.1482 22.5368C25.2335 22.622 25.3092 22.7146 25.3759 22.815C25.4432 22.9148 25.4993 23.0208 25.5453 23.1319C25.5919 23.2429 25.6267 23.3579 25.6497 23.4757C25.6732 23.594 25.685 23.7129 25.685 23.8335C25.685 23.9535 25.6732 24.073 25.6497 24.1908C25.6267 24.3091 25.5919 24.4236 25.5453 24.5352C25.4993 24.6462 25.4432 24.7517 25.3759 24.8521C25.3092 24.9519 25.2335 25.0445 25.1482 25.1297C25.063 25.215 24.9704 25.2907 24.8706 25.3574C24.7702 25.4247 24.6647 25.4808 24.5531 25.5274C24.4421 25.5734 24.3277 25.6081 24.2093 25.6317C24.0915 25.6547 23.9721 25.6665 23.852 25.6665Z" fill="#FDFDFD"/>
</svg>
