<svg width="30" height="31" viewBox="0 0 30 31" fill="none" xmlns="http://www.w3.org/2000/svg">
<path d="M13.8365 18.2539C13.6313 18.2539 13.4342 18.1799 13.2803 18.0463C13.1111 17.8992 13.0101 17.6948 12.9949 17.4721C12.9821 17.2732 13.0406 17.076 13.1608 16.9161L18.5024 9.82963L18.2419 5.90542L23.4577 0L23.8408 5.7718L24.1831 6.06926L30 5.68908L24.7835 11.5953L20.8173 11.8387L14.4249 18.0161C14.2662 18.1696 14.0578 18.2539 13.8365 18.2539ZM19.3377 6.27366L19.595 10.1541L19.4739 10.3124L15.7427 15.2618L20.3548 10.8055L20.5536 10.7928L24.2729 10.5645L27.4951 6.91629L23.812 7.15728L22.8028 6.28002L22.5607 2.62542L19.3377 6.27366Z" fill="#373535"/>
<path d="M13.7501 20.9381C11.7598 20.9381 10.1406 19.3315 10.1406 17.3567C10.1406 15.3819 11.7598 13.7753 13.7501 13.7753C14.4514 13.7753 15.1311 13.9749 15.7171 14.3535L15.1335 15.2419C14.7223 14.9762 14.2438 14.8363 13.7501 14.8363C12.3497 14.8363 11.2099 15.9664 11.2099 17.3567C11.2099 18.7462 12.3497 19.8771 13.7501 19.8771C15.1504 19.8771 16.2902 18.7462 16.2902 17.3567C16.2902 16.8501 16.1395 16.3617 15.855 15.945L16.7399 15.35C17.1455 15.9434 17.3595 16.6369 17.3595 17.3567C17.3595 19.3315 15.7403 20.9381 13.7501 20.9381Z" fill="#373535"/>
<path d="M13.7499 24.5673C9.74286 24.5673 6.48291 21.3326 6.48291 17.3567C6.48291 13.3808 9.74286 10.1461 13.7499 10.1461C15.3057 10.1461 16.7902 10.6273 18.0414 11.5372L17.4098 12.393C16.3429 11.6167 15.0772 11.2071 13.7499 11.2071C10.332 11.2071 7.55219 13.9654 7.55219 17.3567C7.55219 20.7472 10.332 23.5063 13.7499 23.5063C17.1677 23.5063 19.9475 20.7472 19.9475 17.3567C19.9475 15.9577 19.4866 14.6398 18.6145 13.5454L19.453 12.8877C20.4758 14.1713 21.0168 15.7167 21.0168 17.3567C21.0168 21.3326 17.7569 24.5673 13.7499 24.5673Z" fill="#373535"/>
<path d="M13.7499 27.8394C7.92413 27.8394 3.1853 23.1365 3.1853 17.3568C3.1853 11.5762 7.92413 6.87415 13.7499 6.87415C15.6969 6.87415 17.5998 7.40384 19.2526 8.40677L18.6947 9.31187C17.2094 8.41075 15.4997 7.93513 13.7499 7.93513C8.51408 7.93513 4.25459 12.1616 4.25459 17.3568C4.25459 22.5519 8.51408 26.7784 13.7499 26.7784C18.9857 26.7784 23.2452 22.5519 23.2452 17.3568C23.2452 15.2905 22.5839 13.3291 21.3326 11.6844L22.1855 11.0449C23.5778 12.875 24.3145 15.0574 24.3145 17.3568C24.3145 23.1365 19.5748 27.8394 13.7499 27.8394Z" fill="#373535"/>
<path d="M13.75 31C6.16801 31 0 24.879 0 17.3567C0 9.83354 6.16801 3.71338 13.75 3.71338C15.7811 3.71338 17.7369 4.14207 19.5629 4.98911L19.1108 5.94988C17.4267 5.16965 15.6232 4.77357 13.75 4.77357C6.75716 4.77357 1.06848 10.4181 1.06848 17.3567C1.06848 24.2944 6.75716 29.939 13.75 29.939C20.742 29.939 26.4307 24.2944 26.4307 17.3567C26.4307 15.0327 25.787 12.7636 24.5711 10.7927L25.4824 10.2384C26.8018 12.3762 27.5 14.837 27.5 17.3567C27.5 24.879 21.3319 31 13.75 31Z" fill="#373535"/>
</svg>
