<svg width="34" height="35" viewBox="0 0 34 35" fill="none" xmlns="http://www.w3.org/2000/svg">
<path d="M7.39082 0.5C5.35825 0.5 3.6954 2.16285 3.6954 4.19543C3.6954 6.228 5.35825 7.89143 7.39082 7.89143C9.4234 7.89143 11.0868 6.228 11.0868 4.19543C11.0868 2.16285 9.4234 0.5 7.39082 0.5ZM19.9565 0.5V1.97829H12.5651V3.45657H32.5217V22.6737H13.304V24.152H19.5868L15.5217 32.2823H17L20.6954 24.8914L24.3914 32.2823H25.8697L21.804 24.152H33.2605C33.6679 24.152 34 23.8199 34 23.4131V2.71714C34 2.30982 33.6679 1.97829 33.2605 1.97829H21.4348V0.5H19.9565ZM7.39082 1.97829C8.62379 1.97829 9.60854 2.96246 9.60854 4.19543C9.60854 5.42839 8.62379 6.41314 7.39082 6.41314C6.15844 6.41314 5.17368 5.42839 5.17368 4.19543C5.17368 2.96246 6.15844 1.97829 7.39082 1.97829ZM4.06511 8.63028C1.82715 8.63028 -2.75976e-05 10.458 -2.75976e-05 12.6954V21.796C-0.00292049 21.8278 -0.00292049 21.8568 -2.75976e-05 21.8886V21.9349C-0.00292049 22.0037 0.00575829 22.076 0.0225372 22.1426C0.132468 23.2598 1.07383 24.152 2.21711 24.152C2.4769 24.152 2.72222 24.097 2.95597 24.0137V31.9131C2.95597 33.3336 4.12297 34.5 5.5434 34.5C6.2649 34.5 6.92043 34.1968 7.39082 33.7149C7.86179 34.1968 8.51733 34.5 9.23883 34.5C10.6593 34.5 11.8257 33.3336 11.8257 31.9131V13.0651H19.9565C21.1716 13.0651 22.1737 12.063 22.1737 10.8474C22.1737 9.64686 21.1976 8.65632 20.0023 8.63028C19.9884 8.63028 19.971 8.63028 19.9565 8.63028H9.60854C9.32272 8.62739 9.06294 8.78882 8.93854 9.04629L7.39082 12.1411L5.84369 9.04629C5.71929 8.78882 5.45951 8.62739 5.17368 8.63028H4.06511ZM4.06511 10.1086H4.71197L6.7214 14.1274C6.84233 14.3872 7.105 14.555 7.39082 14.555C7.67665 14.555 7.9399 14.3872 8.06083 14.1274L10.0703 10.1086H19.9565C19.9797 10.1086 20.0023 10.1086 20.0254 10.1086C20.4096 10.1433 20.6954 10.4551 20.6954 10.8474C20.6954 11.2663 20.3749 11.5869 19.9565 11.5869H11.0868C10.6795 11.5869 10.3474 11.919 10.3474 12.3257V31.9131C10.3474 32.534 9.85965 33.0217 9.23883 33.0217C8.65561 33.0217 8.18522 32.5941 8.13026 32.0283V31.8437C8.13026 31.8206 8.13026 31.7974 8.13026 31.7743V24.152C8.13894 23.9385 8.05215 23.7337 7.8994 23.589C7.74318 23.4421 7.53258 23.3698 7.32197 23.39C7.29015 23.3958 7.25833 23.4045 7.2294 23.4131C6.88572 23.4907 6.64329 23.7996 6.65197 24.152V31.7743C6.64908 31.8061 6.64908 31.835 6.65197 31.8669V32.0283C6.597 32.5941 6.12661 33.0217 5.5434 33.0217C4.92258 33.0217 4.43425 32.534 4.43425 31.9131V14.5434C4.44004 14.3155 4.33936 14.0985 4.1629 13.9544C3.9899 13.8098 3.75615 13.7554 3.53397 13.804C3.19029 13.8821 2.94787 14.1911 2.95597 14.5434V21.8191C2.95597 21.8423 2.95597 21.8654 2.95597 21.8886V21.9349C2.95597 22.3532 2.63601 22.6737 2.21711 22.6737C1.81557 22.6737 1.50082 22.3763 1.47826 21.9811C1.47826 21.9667 1.47826 21.9493 1.47826 21.9349C1.48404 21.8886 1.48404 21.8423 1.47826 21.796V12.6954C1.47826 11.2576 2.62733 10.1086 4.06511 10.1086Z" fill="#FDFDFD"/>
</svg>
