<svg width="77" height="64" viewBox="0 0 77 64" fill="none" xmlns="http://www.w3.org/2000/svg">
<mask id="mask0_340_1240" style="mask-type:luminance" maskUnits="userSpaceOnUse" x="0" y="0" width="62" height="59">
<path d="M0 0H61.8754V58.7375H0V0Z" fill="white"/>
</mask>
<g mask="url(#mask0_340_1240)">
<path fill-rule="evenodd" clip-rule="evenodd" d="M61.4759 4.9359H58.9336V3.68656C58.9336 2.97109 58.3525 2.38636 57.637 2.38636H4.32547C3.59911 2.38636 3.02891 2.97109 3.02891 3.68656V36.8233C3.02891 37.5424 3.61 38.1271 4.32547 38.1271H33.5217V48.3398H27.9105L26.0038 55.9993H33.5217V58.5525H19.5464C18.831 58.5525 18.2753 57.9787 18.2753 57.2741C18.2753 56.5986 18.8455 55.9993 19.561 55.9993H22.855C23.1456 55.9993 23.4107 55.7742 23.4761 55.5054L25.2629 48.3398H4.32547C2.20812 48.3398 0.486633 46.6111 0.486633 44.5228V3.64661C0.486633 1.53288 2.1827 -0.166809 4.32547 -0.166809H57.637C59.7544 -0.166809 61.4759 1.55831 61.4759 3.64661V4.9359ZM30.9831 45.7867C32.3849 45.7867 33.5217 44.6426 33.5217 43.2335C33.5217 41.8243 32.3849 40.6803 30.9831 40.6803C29.5775 40.6803 28.4408 41.8243 28.4408 43.2335C28.4408 44.6426 29.5775 45.7867 30.9831 45.7867Z" fill="#FDFDFD"/>
</g>
<path fill-rule="evenodd" clip-rule="evenodd" d="M71.6414 17.7013H69.0991V12.5949H38.6063V53.4457H48.7718V61.1052H39.8883C37.771 61.1052 36.064 59.4019 36.064 57.2627V11.3347C36.064 9.20644 37.7601 7.48859 39.8883 7.48859H67.8171C69.9344 7.48859 71.6414 9.19191 71.6414 11.3347V17.7013Z" fill="#FDFDFD"/>
<mask id="mask1_340_1240" style="mask-type:luminance" maskUnits="userSpaceOnUse" x="50" y="19" width="27" height="45">
<path d="M50.7185 19.6874H76.7514V63.9993H50.7185V19.6874Z" fill="white"/>
</mask>
<g mask="url(#mask1_340_1240)">
<path fill-rule="evenodd" clip-rule="evenodd" d="M55.1348 20.2543H72.898C75.0154 20.2543 76.7223 21.9576 76.7223 24.0967V59.8157C76.7223 61.9403 75.0299 63.6582 72.898 63.6582H55.1348C53.0174 63.6582 51.3105 61.9549 51.3105 59.8157V24.0967C51.3105 21.9721 53.0065 20.2543 55.1348 20.2543ZM53.8527 53.4455H74.1801V25.3606H53.8527V53.4455ZM64.0182 61.105C65.4201 61.105 66.5569 59.961 66.5569 58.5519C66.5569 57.1427 65.4201 55.9987 64.0182 55.9987C62.6127 55.9987 61.4759 57.1427 61.4759 58.5519C61.4759 59.961 62.6127 61.105 64.0182 61.105Z" fill="#FDFDFD"/>
</g>
</svg>
