<svg width="58" height="59" viewBox="0 0 58 59" fill="none" xmlns="http://www.w3.org/2000/svg">
<mask id="mask0_340_2274" style="mask-type:luminance" maskUnits="userSpaceOnUse" x="0" y="0" width="58" height="59">
<path d="M0 0H58V58.1652H0V0Z" fill="white"/>
</mask>
<g mask="url(#mask0_340_2274)">
<path d="M54.8598 15.8719L53.8181 17.6498C52.3751 20.1016 49.8342 21.7797 46.9799 22.2007L36.7247 16.3819C35.679 13.7581 35.8909 10.7706 37.3239 8.33062L38.3726 6.54881C40.9933 2.08589 46.8272 0.550154 51.3807 3.13343C55.9351 5.71374 57.4766 11.4199 54.8598 15.8719ZM44.7357 35.1595C41.7286 33.4518 33.5816 28.8308 26.4507 24.7849L31.772 15.7296L50.058 26.1003L44.7357 35.1595ZM35.7381 36.4571C32.3171 34.3828 30.606 33.0012 30.1527 32.4369L31.5197 29.8161L37.7734 33.3639L35.7381 36.4571ZM36.6547 41.7996C35.7923 41.4448 35.0255 42.5032 35.5439 43.2216C36.089 43.9697 35.3025 44.9768 34.4371 44.625C33.5776 44.2702 32.803 45.3217 33.3253 46.0431C33.8704 46.7951 33.0839 47.8022 32.2185 47.4474C31.3521 47.0877 30.5883 48.151 31.1067 48.8655C31.5562 49.4881 31.2023 50.5327 29.857 50.2253C27.4008 49.6571 21.224 46.5273 21.637 46.7437C21.6331 46.7398 21.6301 46.7437 21.6222 46.7398C19.0675 45.5924 18.8044 45.9739 16.2605 43.3936C15.5332 42.6574 14.8353 41.9537 14.0281 41.6276V31.8173C20.6287 31.7768 23.4062 31.3479 25.6465 31C26.7799 30.8241 27.7409 30.6778 28.9946 30.6077L28.4131 31.7185C28.2416 31.9714 28.1647 32.2719 28.2051 32.5871C28.2672 33.1 28.4209 34.3096 35.5439 38.5344C37.2037 39.5167 37.7004 40.3043 37.7004 40.3043C38.3214 41.3855 37.4077 42.1079 36.6547 41.7996ZM22.8986 55.9789L19.0202 53.7801L21.6193 48.7993C23.2741 49.5691 24.7032 50.2836 26.224 50.9319L22.8986 55.9789ZM12.1565 45.97H9.34946V30.9595H12.1565V45.97ZM52.3022 1.49887C46.8745 -1.58248 39.8974 0.253681 36.7572 5.59614L35.7125 7.37795C34.3454 9.70823 33.8989 12.4496 34.3967 15.0586L31.8932 13.6405C31.4507 13.3875 30.884 13.5377 30.6248 13.9814L24.3563 24.6564C24.0892 25.1031 24.243 25.6902 24.7003 25.9461L29.5643 28.7063C27.869 28.7577 26.6883 28.9405 25.3616 29.146C23.1795 29.486 20.4789 29.904 14.0094 29.9406C13.969 29.4613 13.5817 29.0838 13.0918 29.0838H9.34946V28.145C9.34946 27.6281 8.93255 27.2071 8.41412 27.2071H0.928435C-0.310472 27.2071 -0.30653 29.0838 0.928435 29.0838H7.47779V47.8466H0.928435C-0.310472 47.8466 -0.30653 49.7233 0.928435 49.7233H8.41412C8.93255 49.7233 9.34946 49.3013 9.34946 48.7845V47.8466H13.0918C13.6073 47.8466 14.0281 47.4247 14.0281 46.9088V43.8373C14.309 44.0864 14.6165 44.3947 14.931 44.7099C17.2915 47.1134 17.9932 47.2715 19.9043 48.0443L16.9406 53.7178C16.707 54.1645 16.8716 54.7179 17.3102 54.9669L22.737 58.0453C23.1686 58.2875 23.7097 58.155 23.9798 57.7449L28.004 51.6287C28.7935 51.9034 29.6303 52.1633 30.3429 52.1633C32.1268 52.1633 33.1864 50.7965 33.143 49.327C34.4657 49.0483 35.402 47.898 35.3616 46.5056C36.6843 46.2269 37.6196 45.0726 37.5802 43.6802C39.5721 43.2622 40.4414 40.9566 39.3011 39.326C39.1591 39.1026 38.6249 38.3585 37.3239 37.4532L39.4036 34.2909L44.6155 37.2447C45.054 37.4977 45.6208 37.3475 45.88 36.9077L52.1514 26.2327C52.4185 25.7811 52.2618 25.199 51.8084 24.9391L49.3523 23.5457C51.8853 22.6632 54.0674 20.9219 55.4305 18.6024L56.4723 16.8216C59.6184 11.4673 57.7694 4.59999 52.3022 1.49887Z" fill="#FDFDFD"/>
</g>
</svg>
