<svg width="57" height="57" viewBox="0 0 57 57" fill="none" xmlns="http://www.w3.org/2000/svg">
<mask id="mask0_340_2279" style="mask-type:luminance" maskUnits="userSpaceOnUse" x="0" y="0" width="57" height="57">
<path d="M0 0H56.2283V56.3779H0V0Z" fill="white"/>
</mask>
<g mask="url(#mask0_340_2279)">
<path fill-rule="evenodd" clip-rule="evenodd" d="M22.2898 0H3.8769C1.76946 0 0.0565675 1.71939 0.0565675 3.83535V22.3196C0.0565675 23.378 0.484552 24.3369 1.1762 25.0313C1.86786 25.7258 2.82318 26.1549 3.8769 26.1549H22.2898C24.3972 26.1549 26.1101 24.425 26.1101 22.3196V3.83535C26.1101 2.77689 25.6821 1.81806 24.9905 1.12359C24.2988 0.42913 23.3435 0 22.2898 0ZM24.3427 22.3196C24.3427 23.4546 23.4209 24.3809 22.2898 24.3809H3.8769C2.74675 24.3809 1.82391 23.4546 1.82391 22.3196V3.83535C1.82391 3.27308 2.0551 2.75486 2.42768 2.38033C2.80121 2.0058 3.31708 1.77399 3.8769 1.77399H22.2898C23.4209 1.77399 24.3427 2.70026 24.3427 3.83535V22.3196ZM52.3843 30.2H50.3963V28.3705C50.3963 27.8858 50.0017 27.4777 49.5078 27.4777H29.6457C29.1518 27.4777 28.7563 27.8753 28.7563 28.3705V32.5037C28.7563 32.9894 29.1518 33.3965 29.6457 33.3965H30.195C30.0852 34.2011 30.1177 35.7442 30.1396 36.8027L30.0957 36.8142C29.6238 36.9349 29.3496 37.4311 29.47 37.9052L29.8435 39.2826L30.1396 40.4072V52.5426C30.1396 54.6585 31.8525 56.3779 33.9609 56.3779H52.3843C53.438 56.3779 54.3933 55.9478 55.085 55.2543C55.7766 54.5599 56.2046 53.601 56.2046 52.5426V34.0469C56.2046 31.9309 54.4812 30.2 52.3843 30.2ZM49.4964 35.8659L32.0178 40.572L31.5449 38.82C31.5124 38.6763 31.5229 38.5336 31.6003 38.4119C31.6662 38.2912 31.7866 38.2022 31.9299 38.1581L48.3653 33.7384C48.6509 33.6618 48.9471 33.8266 49.0244 34.1245L49.1563 34.6312L49.4964 35.8659ZM49.9578 37.5747L52.2849 46.2924C52.3623 46.5798 52.1971 46.8767 51.9009 46.9543L35.4646 51.374C35.179 51.4516 34.8828 51.2753 34.8064 50.9879L32.4783 42.2588L49.9578 37.5747ZM30.5351 29.2632H48.6289V31.6225H30.5351V29.2632ZM32.0283 33.3859H42.7986L39.6919 34.2231L31.9079 36.318C31.886 35.271 31.8525 34.0689 32.0283 33.3859ZM54.4373 52.5311C54.4373 53.0934 54.2061 53.6116 53.8335 53.9861C53.46 54.3616 52.9441 54.5924 52.3843 54.5924H33.9609C33.4011 54.5924 32.8843 54.3616 32.5117 53.9861C32.1382 53.6116 31.9079 53.0934 31.9079 52.5311V47.0204L33.0935 51.4621C33.4231 52.6968 34.6965 53.4238 35.9146 53.1049L52.3509 48.6842C53.5699 48.3538 54.316 47.075 53.9873 45.8518L51.429 36.2739L50.3963 32.4051V31.997H52.3843C53.5144 31.997 54.4373 32.9233 54.4373 34.0584V52.5311ZM22.2898 30.2H3.8769C1.76946 30.2 0.0565675 31.9309 0.0565675 34.0469V50.1728C0.0451034 50.7897 0.0231312 51.4736 0.0565675 52.146V52.5311C0.0565675 53.0828 0.176938 53.6116 0.386153 54.0857C0.561933 54.5378 0.802674 54.9344 1.1657 55.2428C1.85735 55.9373 2.81267 56.3674 3.86639 56.3674H22.2783C22.542 56.3674 22.7951 56.3454 23.0473 56.2898C24.4746 55.9929 25.6057 54.8903 25.9678 53.4794C26.0442 53.1709 26.0996 52.8625 26.0996 52.5311V34.0469C26.0996 32.9894 25.6716 32.0305 24.9799 31.3361C24.2988 30.6416 23.3435 30.2 22.2898 30.2ZM2.42768 32.5919C2.80121 32.2173 3.31708 31.9865 3.8769 31.9865H22.2898C23.4209 31.9865 24.3427 32.9118 24.3427 34.0469V45.2014L21.2246 41.1457C20.895 40.6716 20.1594 40.6716 19.8193 41.1342L15.6694 46.5242L9.57539 38.6102C9.2458 38.1361 8.51021 38.1361 8.17011 38.5997L1.82391 46.8547V34.0469C1.82391 33.4741 2.0551 32.9673 2.42768 32.5919ZM21.8838 54.5924L16.789 47.9687L20.5224 43.119L24.3542 48.0894V52.5311C24.3542 53.0934 24.123 53.6116 23.7495 53.9861C23.3769 54.3616 22.8601 54.5924 22.3003 54.5924H21.8838ZM15.0322 48.5856L19.655 54.5924H3.8769C2.74675 54.5924 1.82391 53.6671 1.82391 52.5311V49.7427L8.87323 40.5835L15.0322 48.5856ZM52.3289 0H33.4336C31.3032 0 29.5578 1.75196 29.5578 3.89091V20.104C29.5578 21.173 29.9973 22.1538 30.6995 22.8483C31.4026 23.5543 32.3684 23.9949 33.4336 23.9949H52.3289C54.4593 23.9949 56.2046 22.2429 56.2046 20.104V3.89091C56.2046 1.74143 54.4593 0 52.3289 0ZM54.4373 20.104C54.4373 21.2611 53.482 22.2209 52.3289 22.2209H33.4336C32.2805 22.2209 31.3252 21.2611 31.3252 20.104V3.89091C31.3252 2.73283 32.2805 1.77399 33.4336 1.77399H52.3289C53.482 1.77399 54.4373 2.73283 54.4373 3.89091V20.104ZM48.2774 10.8346L38.814 5.35646C37.9685 4.81622 36.76 5.52218 36.804 6.52508V17.4918C36.7715 18.4947 37.9685 19.1892 38.814 18.6605L48.2229 13.2044C49.1563 12.7417 49.1782 11.3193 48.2774 10.8346ZM38.5723 16.7428V7.25211L46.7517 11.9917L38.5723 16.7428ZM22.3117 5.87468C22.3117 5.30091 22.1245 4.71756 21.7739 4.25394C21.1701 3.43879 20.1049 3.03073 19.1162 3.24051L10.3444 5.026C9.10346 5.25684 8.18158 6.39289 8.19208 7.64867V13.8212C3.05341 13.8988 1.69208 21.0188 6.42474 23.0025C7.05048 23.2564 7.7641 23.4106 8.47773 23.3445C8.60956 23.3119 9.6308 23.1136 9.79511 23.0801C11.892 22.4517 13.1875 20.2256 13.0117 18.0761C14.3405 22.5734 20.7851 22.5619 22.1245 18.0761C22.5095 17.6355 22.2344 6.70133 22.3117 5.87468ZM13.0012 15.3318V12.3001L17.5026 11.3854V11.9371C15.4497 11.9371 13.5725 13.3701 13.0012 15.3318ZM20.5444 16.7093C20.4231 20.6777 14.6806 20.6777 14.5708 16.7093C14.5268 14.8356 16.3935 13.3366 18.2058 13.7772C18.7436 13.9094 19.2815 13.4687 19.2815 12.9065V10.2943C19.292 9.71003 18.6997 9.2694 18.1398 9.44565L11.9475 10.7024C11.53 10.7905 11.2338 11.1545 11.2443 11.5731V18.5944C11.2443 19.1892 11.0686 19.762 10.7504 20.2477C9.14741 22.6615 5.24969 21.559 5.27167 18.5944C5.24969 16.9631 6.64446 15.5627 8.258 15.5962C8.97163 15.6403 9.69672 15.9161 9.95943 14.9899C9.97089 14.9238 9.9814 14.8577 9.9814 14.8021V7.64867C9.97089 7.21954 10.289 6.83351 10.7065 6.75593L19.4677 4.98193C20.0056 4.84975 20.5769 5.3124 20.5549 5.87468C20.5444 5.87468 20.5444 16.7093 20.5444 16.7093ZM15.6694 40.7492C20.3352 40.6275 20.3352 33.7605 15.6694 33.6398C11.0026 33.7605 11.0026 40.6275 15.6694 40.7492ZM16.9209 35.932C18.5344 37.6073 16.0859 40.0652 14.4179 38.4455C12.8034 36.7701 15.2519 34.3122 16.9209 35.932Z" fill="#FDFDFD"/>
</g>
</svg>
