<svg width="50" height="46" viewBox="0 0 50 46" fill="none" xmlns="http://www.w3.org/2000/svg">
<mask id="mask0_340_2284" style="mask-type:luminance" maskUnits="userSpaceOnUse" x="0" y="0" width="50" height="46">
<path d="M0 0H50V46H0V0Z" fill="white"/>
</mask>
<g mask="url(#mask0_340_2284)">
<path d="M49.7188 15.8363L45.0415 11.5325C44.9633 11.4614 44.8733 11.4067 44.7713 11.3684C44.6694 11.3293 44.564 11.3097 44.4536 11.3097C44.344 11.3097 44.2378 11.3293 44.1359 11.3684C44.0339 11.4067 43.9439 11.4614 43.8657 11.5325L43.0468 12.2868V8.53171C43.0485 8.33551 42.9763 8.16511 42.8311 8.02128L35.3809 0.404771C35.3028 0.325042 35.2102 0.262509 35.104 0.218736C34.9969 0.174963 34.8848 0.153076 34.7684 0.153076H9.10666C8.97074 0.153076 8.83567 0.159329 8.7006 0.171054C8.56553 0.183561 8.43216 0.201539 8.29879 0.226552C8.16626 0.250784 8.03459 0.280487 7.90462 0.317225C7.77549 0.353181 7.64722 0.395391 7.52234 0.443073C7.39747 0.490754 7.27514 0.543907 7.15536 0.602532C7.03558 0.661938 6.9192 0.725252 6.80706 0.79482C6.69408 0.864388 6.58534 0.938646 6.48085 1.01759C6.37551 1.09654 6.27527 1.18018 6.17928 1.26851C6.08329 1.35684 5.99239 1.44907 5.90659 1.54522C5.82079 1.64214 5.74009 1.74219 5.66448 1.84537C5.58972 1.94933 5.52007 2.05642 5.45635 2.16664C5.39179 2.27607 5.33402 2.38863 5.2822 2.50431C5.23038 2.61922 5.18451 2.73647 5.14543 2.85606C5.10636 2.97566 5.07323 3.09603 5.04689 3.21875C5.02056 3.34069 5.00017 3.46419 4.98743 3.58848C4.97384 3.71276 4.96704 3.83705 4.96704 3.96133V6.24691H2.48394C2.32084 6.24691 2.15943 6.26176 1.99973 6.29146C1.84002 6.32117 1.68541 6.36494 1.5342 6.42278C1.38384 6.47984 1.24112 6.55019 1.10605 6.63383C0.970132 6.71747 0.845255 6.81205 0.729722 6.91836C0.61504 7.02388 0.51225 7.13957 0.421353 7.26385C0.330456 7.38814 0.254001 7.52024 0.191138 7.65859C0.129124 7.79694 0.0815521 7.93921 0.0492711 8.08616C0.0169899 8.23311 0.000849665 8.38163 0 8.53171V20.7194C0.000849665 20.8687 0.0169899 21.0172 0.0492711 21.1641C0.0815521 21.3111 0.129124 21.4541 0.191138 21.5925C0.254001 21.7308 0.330456 21.8622 0.421353 21.9872C0.51225 22.1115 0.61504 22.2264 0.729722 22.3327C0.845255 22.439 0.970132 22.5336 1.10605 22.6172C1.24112 22.7001 1.38384 22.7705 1.5342 22.8283C1.68541 22.8861 1.84002 22.9291 1.99973 22.9588C2.15943 22.9885 2.32084 23.0034 2.48394 23.0042H4.96704V42.0462C4.96704 42.1713 4.97384 42.2956 4.98743 42.4199C5.00017 42.5441 5.02056 42.6676 5.04689 42.7896C5.07323 42.9123 5.10636 43.0327 5.14543 43.1523C5.18451 43.2719 5.23038 43.3891 5.2822 43.504C5.33402 43.6189 5.39179 43.7323 5.45635 43.8417C5.52007 43.9519 5.58972 44.059 5.66448 44.1622C5.74009 44.2661 5.82079 44.3662 5.90659 44.4623C5.99239 44.5593 6.08329 44.6515 6.17928 44.7398C6.27527 44.8282 6.37551 44.9118 6.48085 44.9907C6.58534 45.0697 6.69408 45.144 6.80706 45.2135C6.9192 45.2823 7.03558 45.3464 7.15536 45.405C7.27514 45.4644 7.39747 45.5176 7.52234 45.5653C7.64722 45.6129 7.77549 45.6552 7.90462 45.6911C8.03459 45.7271 8.16626 45.7576 8.29879 45.7818C8.43216 45.806 8.56553 45.8248 8.7006 45.8365C8.83567 45.849 8.97074 45.8553 9.10666 45.8553H38.9072C39.0431 45.8553 39.1782 45.849 39.3133 45.8365C39.4483 45.8248 39.5817 45.806 39.7151 45.7818C39.8476 45.7576 39.9793 45.7271 40.1092 45.6911C40.2384 45.6552 40.3658 45.6129 40.4915 45.5653C40.6164 45.5176 40.7387 45.4644 40.8585 45.405C40.9783 45.3464 41.0938 45.2823 41.2068 45.2135C41.3198 45.144 41.4285 45.0697 41.533 44.9907C41.6384 44.9118 41.7386 44.8282 41.8337 44.7398C41.9297 44.6515 42.0206 44.5593 42.1073 44.4623C42.1931 44.3662 42.2738 44.2661 42.3485 44.1622C42.4241 44.059 42.4938 43.9519 42.5575 43.8417C42.6212 43.7323 42.6798 43.6189 42.7317 43.504C42.7835 43.3891 42.8285 43.2719 42.8684 43.1523C42.9075 43.0327 42.9406 42.9123 42.967 42.7896C42.9933 42.6676 43.0128 42.5441 43.0264 42.4199C43.04 42.2956 43.0468 42.1713 43.0468 42.0462V23.0573L49.7188 16.9182C49.8828 16.7696 49.966 16.5891 49.9669 16.3772C49.9643 16.1662 49.8819 15.9856 49.7188 15.8363ZM25.1325 33.0735L23.9653 31.9995L40.9435 16.3772L42.1107 17.4591L25.1325 33.0735ZM25.9939 36.0141L24.2966 36.616L22.4591 34.9245L23.1124 33.3635L25.9939 36.0141ZM4.96704 10.8165H6.62272V12.34H4.96704V10.8165ZM4.96704 13.8634H23.1787V15.3869H4.96704V13.8634ZM8.2784 12.34V10.8165H23.1787V12.34H8.2784ZM4.96704 18.4338V16.9103H23.1787V18.4338H4.96704ZM41.3911 42.0462C41.3903 42.1963 41.3742 42.3448 41.3419 42.4918C41.3096 42.6387 41.262 42.7818 41.2 42.9201C41.1371 43.0585 41.0607 43.1898 40.9698 43.3149C40.8797 43.4391 40.7761 43.5541 40.6614 43.6604C40.5459 43.7667 40.421 43.8612 40.2851 43.9441C40.15 44.0277 40.0073 44.0981 39.8569 44.1559C39.7066 44.2138 39.5511 44.2568 39.3914 44.2865C39.2317 44.3162 39.0703 44.331 38.9072 44.3318H9.10666C8.94356 44.331 8.78215 44.3162 8.62245 44.2865C8.46274 44.2568 8.30728 44.2138 8.15692 44.1559C8.00656 44.0981 7.86384 44.0277 7.72792 43.9441C7.59285 43.8612 7.46797 43.7667 7.35244 43.6604C7.23691 43.5541 7.13412 43.4391 7.04407 43.3149C6.95318 43.1898 6.87672 43.0585 6.81386 42.9201C6.75099 42.7818 6.70427 42.6387 6.67199 42.4918C6.63971 42.3448 6.62357 42.1963 6.62272 42.0462V23.0042H11.25L15.9689 27.3533C16.132 27.5011 16.3274 27.5745 16.5568 27.5745C16.6664 27.5769 16.7717 27.5566 16.8711 27.5136C16.9476 27.4854 17.0172 27.4479 17.0809 27.4002C17.1447 27.3533 17.199 27.2978 17.2449 27.2353C17.2908 27.1728 17.3256 27.1055 17.3494 27.0336C17.3732 26.9617 17.3851 26.8882 17.3842 26.8124V23.0042H25.6626C25.8257 23.0034 25.9871 22.9885 26.1468 22.9588C26.3065 22.9291 26.4611 22.8861 26.6115 22.8283C26.7619 22.7705 26.9054 22.7001 27.0405 22.6172C27.1756 22.5336 27.3013 22.439 27.416 22.3327C27.5315 22.2264 27.6343 22.1115 27.7252 21.9872C27.8161 21.8622 27.8926 21.7308 27.9546 21.5925C28.0174 21.4541 28.065 21.3111 28.0973 21.1641C28.1287 21.0172 28.1457 20.8687 28.1457 20.7194V8.53171C28.1457 8.38163 28.1287 8.23311 28.0973 8.08616C28.065 7.93921 28.0174 7.79694 27.9546 7.65859C27.8926 7.52024 27.8161 7.38814 27.7252 7.26385C27.6343 7.13957 27.5315 7.02388 27.416 6.91836C27.3013 6.81205 27.1756 6.71747 27.0405 6.63383C26.9054 6.55019 26.7619 6.47984 26.6115 6.42278C26.4611 6.36494 26.3065 6.32117 26.1468 6.29146C25.9871 6.26176 25.8257 6.24691 25.6626 6.24691H6.62272V3.96133C6.62357 3.81203 6.63971 3.66352 6.67199 3.51657C6.70427 3.36961 6.75099 3.22657 6.81386 3.08822C6.87672 2.94986 6.95318 2.81854 7.04407 2.69348C7.13412 2.56919 7.23691 2.45351 7.35244 2.34798C7.46797 2.24168 7.59285 2.14709 7.72792 2.06346C7.86384 1.9806 8.00656 1.90947 8.15692 1.85241C8.30728 1.79457 8.46274 1.75079 8.62245 1.72187C8.78215 1.69217 8.94356 1.67732 9.10666 1.67653H33.9402V7.00825C33.941 7.15833 33.9572 7.30684 33.9894 7.45379C34.0217 7.60075 34.0693 7.74301 34.1313 7.88215C34.1942 8.0205 34.2706 8.15182 34.3615 8.2761C34.4516 8.40117 34.5552 8.51607 34.6699 8.62238C34.7854 8.7279 34.9103 8.82327 35.0462 8.90612C35.1813 8.98976 35.324 9.06011 35.4744 9.11795C35.6256 9.17501 35.7802 9.21879 35.9399 9.24849C36.0996 9.27819 36.261 9.29305 36.4241 9.29383H41.3911V13.8103L22.2102 31.4586C22.127 31.5352 22.0633 31.6243 22.0199 31.7252L19.0977 38.7257C19.0679 38.7945 19.0492 38.8656 19.0416 38.9391C19.0348 39.0126 19.039 39.0861 19.0552 39.158C19.0713 39.2307 19.0985 39.2995 19.1367 39.3643C19.175 39.43 19.2234 39.4886 19.2803 39.5402C19.4434 39.6887 19.6388 39.7622 19.8682 39.7614C19.9709 39.7622 20.0703 39.7442 20.1655 39.7083L27.7736 37.0194C27.8832 36.9795 27.9801 36.9217 28.0633 36.8443L41.3911 24.5808V42.0462ZM27.4755 35.2294L26.3082 34.1554L43.2779 18.5331L44.4536 19.6071L27.4755 35.2294Z" fill="#FDFDFD"/>
</g>
</svg>
