<svg width="48" height="45" viewBox="0 0 48 45" fill="none" xmlns="http://www.w3.org/2000/svg">
<mask id="mask0_340_2960" style="mask-type:luminance" maskUnits="userSpaceOnUse" x="8" y="33" width="10" height="13">
<path d="M8.43652 33.1306H17.797V45.0004H8.43652V33.1306Z" fill="white"/>
</mask>
<g mask="url(#mask0_340_2960)">
<path d="M14.5596 44.9999C14.3065 44.9999 14.0519 44.9599 13.8045 44.8791C13.1858 44.6783 12.6821 44.2489 12.3866 43.6693L8.53368 36.1128C8.36879 35.7896 8.49776 35.3937 8.82102 35.2296C9.14427 35.0647 9.54018 35.1929 9.70507 35.5161L13.558 43.0726C13.6943 43.3395 13.9261 43.5371 14.2102 43.6293C14.4951 43.7216 14.7988 43.6979 15.0657 43.5624L15.8461 43.1649C16.1122 43.0293 16.3106 42.7975 16.4028 42.5134C16.495 42.2286 16.4714 41.9249 16.3359 41.6588L12.4829 34.1023C12.318 33.779 12.4462 33.3831 12.7703 33.2182C13.0935 33.0534 13.4894 33.1823 13.6543 33.5056L17.5073 41.0621C17.8028 41.6416 17.8542 42.3012 17.6534 42.9191C17.4526 43.5379 17.0224 44.0407 16.4428 44.3354L15.6624 44.733C15.3147 44.9101 14.9384 44.9999 14.5596 44.9999Z" fill="#FDFDFD"/>
</g>
<path d="M4.04724 29.3909L7.39406 35.9547L14.1963 32.492L10.8495 25.9273L4.04724 29.3909ZM7.10754 37.4959C6.86837 37.4959 6.63735 37.3653 6.52144 37.1367L2.57708 29.4015C2.4979 29.2464 2.48403 29.066 2.5379 28.9003C2.59178 28.7346 2.70932 28.5974 2.86442 28.5183L10.838 24.458C11.1621 24.2931 11.558 24.4221 11.7229 24.7453L15.6664 32.4806C15.7456 32.6357 15.7603 32.8161 15.7064 32.9818C15.6517 33.1475 15.5342 33.2846 15.3791 33.3638L7.40549 37.4241C7.30998 37.4731 7.20795 37.4959 7.10754 37.4959Z" fill="#FDFDFD"/>
<mask id="mask1_340_2960" style="mask-type:luminance" maskUnits="userSpaceOnUse" x="0" y="29" width="8" height="9">
<path d="M0 29.8677H7.06996V37.8086H0V29.8677Z" fill="white"/>
</mask>
<g mask="url(#mask1_340_2960)">
<path d="M3.15726 37.6649C2.91727 37.6649 2.68708 37.5343 2.57034 37.3066L0.117367 32.4953C0.038186 32.3394 0.024309 32.159 0.0781848 31.9941C0.13206 31.8276 0.249607 31.6904 0.404704 31.6113L3.60949 29.9795C3.93356 29.8146 4.32947 29.9436 4.49436 30.2668C4.65925 30.5901 4.53028 30.9852 4.20702 31.1501L1.58752 32.4839L3.44378 36.1246L6.06329 34.7907C6.38654 34.6259 6.78245 34.754 6.94734 35.0773C7.11223 35.4013 6.98326 35.7964 6.66 35.9613L3.45521 37.5931C3.35971 37.6421 3.25767 37.6649 3.15726 37.6649Z" fill="#FDFDFD"/>
</g>
<path d="M15.0794 33.4357C14.7643 33.4357 14.4852 33.2079 14.4321 32.8863C14.3725 32.5279 14.6141 32.19 14.9725 32.1304L25.0032 30.4611L18.845 18.3839L11.5979 25.5118C11.3391 25.7665 10.9228 25.7633 10.6681 25.5045C10.4135 25.2465 10.4167 24.8302 10.6755 24.5755L18.5626 16.8183C18.7111 16.6713 18.9217 16.6044 19.1291 16.6379C19.3356 16.6713 19.5144 16.8019 19.6091 16.9881L26.5819 30.6635C26.6774 30.8504 26.6774 31.0708 26.5835 31.2578C26.4888 31.4447 26.3109 31.5761 26.1044 31.6104L15.1888 33.4267C15.1521 33.4324 15.1153 33.4357 15.0794 33.4357Z" fill="#FDFDFD"/>
<path d="M23.8204 27.3538C23.4931 27.3538 23.2098 27.1098 23.169 26.7767C23.1249 26.4159 23.3812 26.0886 23.7421 26.0445C23.9722 26.0167 24.1943 25.9482 24.4033 25.8421C24.8792 25.5996 25.231 25.1858 25.3926 24.6772C25.5534 24.1678 25.5053 23.6274 25.2563 23.154C24.7714 22.2365 23.6123 21.8446 22.6711 22.2822C22.4352 22.3916 22.227 22.5426 22.0515 22.7303C21.8042 22.9956 21.3887 23.0103 21.1225 22.763C20.8573 22.5156 20.8426 22.1001 21.0899 21.8349C21.3813 21.5222 21.7266 21.2716 22.1176 21.0904C22.8833 20.7345 23.7494 20.6888 24.5567 20.9614C25.364 21.2341 26.0252 21.7949 26.4195 22.5418C26.8342 23.3279 26.9142 24.2274 26.6456 25.0739C26.3771 25.9212 25.7926 26.6094 25 27.0135C24.6547 27.189 24.2849 27.3024 23.9012 27.3489C23.8743 27.3522 23.8474 27.3538 23.8204 27.3538Z" fill="#FDFDFD"/>
<path d="M28.879 21.9987C28.6398 21.9987 28.4088 21.8673 28.2929 21.6395C28.128 21.3163 28.2562 20.9212 28.5794 20.7563L30.634 19.7106C30.9573 19.5457 31.3532 19.6739 31.5181 19.9971C31.683 20.3204 31.554 20.7163 31.2307 20.8812L29.1769 21.9269C29.0814 21.9758 28.9794 21.9987 28.879 21.9987Z" fill="#FDFDFD"/>
<path d="M24.8033 18.5952C24.7363 18.5952 24.6678 18.5846 24.6 18.5625C24.2547 18.4507 24.0661 18.0801 24.178 17.7348L24.8906 15.5438C25.0024 15.1986 25.3738 15.01 25.7191 15.1218C26.0644 15.2337 26.253 15.6043 26.1412 15.9495L25.4285 18.1405C25.3387 18.418 25.0808 18.5952 24.8033 18.5952Z" fill="#FDFDFD"/>
<path d="M31.5442 27.9971C31.4765 27.9971 31.4087 27.9865 31.341 27.9645L29.1484 27.2527C28.8031 27.1408 28.6137 26.7702 28.7264 26.4249C28.8382 26.0797 29.2096 25.8911 29.5549 26.0029L31.7475 26.7147C32.0928 26.8274 32.2814 27.198 32.1695 27.5433C32.0789 27.8208 31.8218 27.9971 31.5442 27.9971Z" fill="#FDFDFD"/>
<path d="M32.2225 16.4146H46.0074V7.60916H32.2225V16.4146ZM46.6645 17.7288H31.5654C31.2022 17.7288 30.9075 17.4341 30.9075 17.0717V6.95204C30.9075 6.58879 31.2022 6.29492 31.5654 6.29492H46.6645C47.0277 6.29492 47.3216 6.58879 47.3216 6.95204V17.0717C47.3216 17.4341 47.0277 17.7288 46.6645 17.7288Z" fill="#FDFDFD"/>
<path d="M39.117 14.5583H39.1121C38.9472 14.5583 38.788 14.4962 38.6664 14.3844L31.1197 7.43525C30.8528 7.18872 30.8356 6.77323 31.0813 6.5063C31.3279 6.23937 31.7434 6.22223 32.0103 6.46875L39.1145 13.0106L46.2188 6.46875C46.4857 6.22223 46.902 6.23937 47.1477 6.5063C47.3942 6.77323 47.3771 7.18872 47.1102 7.43525L39.5627 14.3844C39.4419 14.4962 39.2827 14.5583 39.117 14.5583Z" fill="#FDFDFD"/>
<path d="M46.6637 17.7287C46.529 17.7287 46.3919 17.6871 46.2752 17.6006L40.1627 13.1093C39.8705 12.8938 39.8076 12.4832 40.0231 12.191C40.2378 11.8979 40.6492 11.8359 40.9423 12.0506L47.0539 16.5418C47.3462 16.7574 47.409 17.168 47.1943 17.461C47.0654 17.6357 46.8662 17.7287 46.6637 17.7287Z" fill="#FDFDFD"/>
<path d="M31.5656 17.7287C31.3639 17.7287 31.1648 17.6357 31.0358 17.461C30.8203 17.168 30.8831 16.7574 31.1762 16.5418L37.2878 12.0506C37.5801 11.8359 37.9915 11.8979 38.207 12.191C38.4225 12.4832 38.3596 12.8938 38.0666 13.1093L31.9549 17.6006C31.8374 17.6871 31.7011 17.7287 31.5656 17.7287Z" fill="#FDFDFD"/>
<mask id="mask2_340_2960" style="mask-type:luminance" maskUnits="userSpaceOnUse" x="9" y="-1" width="17" height="17">
<path d="M9.36865 -0.000488281H25.8775V15.2398H9.36865V-0.000488281Z" fill="white"/>
</mask>
<g mask="url(#mask2_340_2960)">
<path d="M11.6888 1.31294C11.1557 1.31294 10.7223 1.74639 10.7223 2.27862V9.25716C10.7223 9.78938 11.1557 10.2228 11.6888 10.2228H13.0487C13.2838 10.2228 13.501 10.3477 13.6185 10.551L15.1817 13.257L16.7458 10.551C16.8625 10.3477 17.0796 10.2228 17.3147 10.2228H23.5406C24.0737 10.2228 24.5071 9.78938 24.5071 9.25716V2.27862C24.5071 1.74639 24.0737 1.31294 23.5406 1.31294H11.6888ZM15.1817 15.2284C14.9466 15.2284 14.7303 15.1027 14.6128 14.8994L12.6692 11.5363H11.6888C10.4309 11.5363 9.40723 10.5134 9.40723 9.25716V2.27862C9.40723 1.02152 10.4309 -0.000488281 11.6888 -0.000488281H23.5406C24.7985 -0.000488281 25.8222 1.02152 25.8222 2.27862V9.25716C25.8222 10.5134 24.7985 11.5363 23.5406 11.5363H17.6943L15.7515 14.8994C15.634 15.1027 15.4168 15.2284 15.1817 15.2284Z" fill="#FDFDFD"/>
</g>
<path d="M13.6674 5.36714C13.4462 5.36714 13.2674 5.54672 13.2674 5.76794C13.2674 5.98834 13.4462 6.16792 13.6674 6.16792C13.8878 6.16792 14.0674 5.98834 14.0674 5.76794C14.0674 5.54672 13.8878 5.36714 13.6674 5.36714ZM13.6674 7.48135C12.7213 7.48135 11.9524 6.7124 11.9524 5.76794C11.9524 4.82266 12.7213 4.05371 13.6674 4.05371C14.6135 4.05371 15.3825 4.82266 15.3825 5.76794C15.3825 6.7124 14.6135 7.48135 13.6674 7.48135Z" fill="#FDFDFD"/>
<path d="M17.6148 5.36714C17.3936 5.36714 17.214 5.54672 17.214 5.76794C17.214 5.98834 17.3936 6.16792 17.6148 6.16792C17.8352 6.16792 18.0148 5.98834 18.0148 5.76794C18.0148 5.54672 17.8352 5.36714 17.6148 5.36714ZM17.6148 7.48135C16.6687 7.48135 15.8989 6.7124 15.8989 5.76794C15.8989 4.82266 16.6687 4.05371 17.6148 4.05371C18.5601 4.05371 19.3298 4.82266 19.3298 5.76794C19.3298 6.7124 18.5601 7.48135 17.6148 7.48135Z" fill="#FDFDFD"/>
<path d="M21.5617 5.36714C21.3413 5.36714 21.1617 5.54672 21.1617 5.76794C21.1617 5.98834 21.3413 6.16792 21.5617 6.16792C21.7821 6.16792 21.9617 5.98834 21.9617 5.76794C21.9617 5.54672 21.7821 5.36714 21.5617 5.36714ZM21.5617 7.48135C20.6164 7.48135 19.8467 6.7124 19.8467 5.76794C19.8467 4.82266 20.6164 4.05371 21.5617 4.05371C22.5078 4.05371 23.2768 4.82266 23.2768 5.76794C23.2768 6.7124 22.5078 7.48135 21.5617 7.48135Z" fill="#FDFDFD"/>
<mask id="mask3_340_2960" style="mask-type:luminance" maskUnits="userSpaceOnUse" x="43" y="33" width="5" height="4">
<path d="M43.2222 33.4204H47.9689V36.9729H43.2222V33.4204Z" fill="white"/>
</mask>
<g mask="url(#mask3_340_2960)">
<path d="M46.2391 36.9356H43.9763C43.613 36.9356 43.3184 36.6409 43.3184 36.2784C43.3184 35.9152 43.613 35.6213 43.9763 35.6213H46.2391C46.4546 35.6213 46.6301 35.4458 46.6301 35.2303C46.6301 35.0148 46.4546 34.8393 46.2391 34.8393C45.8758 34.8393 45.582 34.5454 45.582 34.1822C45.582 33.8197 45.8758 33.5259 46.2391 33.5259C47.1795 33.5259 47.9451 34.2908 47.9451 35.2303C47.9451 36.1707 47.1795 36.9356 46.2391 36.9356Z" fill="#FDFDFD"/>
</g>
<path d="M45.9863 39.0313H43.7023C43.339 39.0313 43.0452 38.7366 43.0452 38.3741C43.0452 38.0109 43.339 37.717 43.7023 37.717H45.9863C46.2026 37.717 46.3773 37.5415 46.3773 37.326C46.3773 37.1105 46.2026 36.9358 45.9863 36.9358C45.623 36.9358 45.3292 36.6411 45.3292 36.2787C45.3292 35.9154 45.623 35.6216 45.9863 35.6216C46.9275 35.6216 47.6924 36.3865 47.6924 37.326C47.6924 38.2664 46.9275 39.0313 45.9863 39.0313Z" fill="#FDFDFD"/>
<path d="M40.926 41.1305C40.455 41.1305 39.9562 41.097 39.4118 41.0301C38.8232 40.9582 38.2493 40.8758 37.6926 40.6684C37.469 40.5844 37.242 40.4701 36.9971 40.3174C36.9678 40.2995 36.9392 40.2807 36.9098 40.2619C36.7751 40.177 36.6592 40.1036 36.5514 40.0693C36.527 40.0644 36.4568 40.0668 36.4053 40.0677C36.3743 40.0685 36.3425 40.0693 36.3106 40.0693L35.8339 40.0734C35.8323 40.0734 35.8307 40.0734 35.829 40.0734C35.4682 40.0734 35.1744 39.7828 35.1719 39.422C35.1686 39.0587 35.4609 38.7624 35.8233 38.7591L36.3 38.7559C36.3237 38.755 36.3482 38.755 36.3719 38.7542C36.5188 38.7501 36.7212 38.7452 36.9416 38.8138C37.2143 38.8995 37.4265 39.0342 37.6135 39.1526C37.6404 39.1689 37.6665 39.1861 37.6934 39.2024C37.8649 39.3093 38.011 39.3844 38.1538 39.4375C38.5759 39.595 39.0461 39.662 39.5726 39.7264C40.1521 39.7975 40.668 39.826 41.1505 39.8138C41.1595 39.813 41.1692 39.813 41.179 39.813H45.4793C45.6948 39.813 45.8703 39.6383 45.8703 39.422C45.8703 39.2065 45.6948 39.0318 45.4793 39.0318C45.1161 39.0318 44.8214 38.7371 44.8214 38.3746C44.8214 38.0114 45.1161 37.7175 45.4793 37.7175C46.4197 37.7175 47.1846 38.4824 47.1846 39.422C47.1846 40.3623 46.4197 41.1272 45.4793 41.1272H41.1725C41.0909 41.1288 41.0093 41.1305 40.926 41.1305Z" fill="#FDFDFD"/>
<path d="M45.8345 34.8396H44.1137C43.7505 34.8396 43.4558 34.5458 43.4558 34.1825C43.4558 33.8201 43.7505 33.5262 44.1137 33.5262H45.8345C46.05 33.5262 46.2255 33.3507 46.2255 33.1352C46.2255 32.9197 46.05 32.7442 45.8345 32.7442H41.4028C41.0395 32.7442 40.7457 32.4503 40.7457 32.0871C40.7457 31.6528 40.8363 31.2381 41.0159 30.8545C41.0902 30.6945 41.1685 30.5402 41.2444 30.3916C41.3897 30.1051 41.5269 29.8341 41.624 29.5549C41.8526 28.8954 42.0395 27.9558 41.6452 27.2072C41.642 27.2032 41.6387 27.1983 41.6346 27.1934C41.5326 27.057 41.402 26.9542 41.2836 26.9183C41.1685 26.8832 41.0159 26.9028 40.9465 27.0089C40.9138 27.0595 40.9204 27.2236 40.9236 27.3117C40.9383 27.6578 40.9236 27.9713 40.8795 28.2684C40.7898 28.879 40.6045 29.4211 40.3285 29.8823C40.3122 29.9345 40.2894 29.9843 40.26 30.0325C40.2428 30.061 40.1294 30.2431 39.9343 30.5075C39.9245 30.5206 39.9163 30.532 39.9098 30.541C39.9033 30.55 39.8959 30.559 39.8894 30.5671C39.2372 31.4357 37.7792 33.0724 35.914 33.314C35.5532 33.3605 35.2242 33.1066 35.1769 32.7475C35.1304 32.3875 35.3842 32.0577 35.745 32.0112C36.7042 31.8871 37.5695 31.1802 38.1262 30.6096C38.4094 30.319 38.6413 30.0365 38.8119 29.8121C38.8135 29.8088 38.8159 29.8047 38.8184 29.8014C38.8315 29.7802 38.8519 29.7476 38.8812 29.701C38.9384 29.6121 39.029 29.4733 39.1498 29.288C39.3645 28.9607 39.509 28.5533 39.5792 28.0774C39.611 27.8619 39.6208 27.6285 39.6102 27.3648C39.5971 27.0399 39.6029 26.6628 39.8445 26.2922C40.2249 25.7085 40.9751 25.4498 41.6681 25.6612C42.0558 25.7804 42.4183 26.0457 42.6893 26.4089C42.7162 26.4448 42.7391 26.4783 42.7603 26.5109C42.7693 26.524 42.7774 26.5379 42.7856 26.5518C43.2942 27.4815 43.3219 28.6684 42.8664 29.9851C42.7407 30.3484 42.5758 30.6724 42.4166 30.9859C42.3424 31.132 42.273 31.27 42.2069 31.4104C42.2036 31.4169 42.2011 31.4234 42.1979 31.4308H45.8345C46.7749 31.4308 47.5405 32.1948 47.5405 33.1352C47.5405 34.0756 46.7749 34.8396 45.8345 34.8396Z" fill="#FDFDFD"/>
<path d="M32.8463 39.7243H35.1719V32.4095H32.8463V39.7243ZM35.8291 41.0386H32.1884C31.8259 41.0386 31.5312 40.7447 31.5312 40.3814V31.7523C31.5312 31.3891 31.8259 31.0952 32.1884 31.0952H35.8291C36.1923 31.0952 36.4862 31.3891 36.4862 31.7523V40.3814C36.4862 40.7447 36.1923 41.0386 35.8291 41.0386Z" fill="#FDFDFD"/>
</svg>
