<svg width="34" height="39" viewBox="0 0 34 39" fill="none" xmlns="http://www.w3.org/2000/svg">
<path d="M21.2237 21.5278C19.7542 20.6797 17.8773 21.1824 17.0291 22.6529C16.0395 24.3672 17.2037 26.3356 14.3916 28.9954C17.9344 29.4431 21.3591 27.4411 22.3477 25.7257C23.1969 24.2562 22.6931 22.3766 21.2237 21.5278Z" fill="#FDFDFD"/>
<path d="M22.3026 19.658C23.4445 20.3174 24.2383 21.3473 24.6316 22.5083C26.8089 18.3371 29.5139 11.9119 31.2548 6.08033C31.5546 5.07875 30.2957 4.35136 29.5781 5.11085C25.4015 9.53664 21.1927 15.0924 18.6711 19.0645C19.8729 18.8251 21.1617 18.9987 22.3026 19.658Z" fill="#FDFDFD"/>
<mask id="mask0_340_1296" style="mask-type:luminance" maskUnits="userSpaceOnUse" x="0" y="11" width="34" height="28">
<path d="M0 11.9807H33.3651V38.4996H0V11.9807Z" fill="white"/>
</mask>
<g mask="url(#mask0_340_1296)">
<path d="M2.37693 14.1757H10.3358V16.4117H2.37693V14.1757ZM31.6694 12.0664H31.5246C30.7287 14.2366 29.8403 16.4383 28.923 18.5215H30.9915V36.1219H2.37693V18.5215H16.4601L16.8501 17.9078C18.0133 16.0744 19.4186 14.0728 20.9343 12.0664H1.69687C0.756765 12.0664 0 12.827 0 13.7638V36.8041C0 37.7431 0.756765 38.5004 1.69687 38.5004H31.6694C32.6116 38.5004 33.37 37.7431 33.37 36.8041V13.7638C33.37 12.827 32.6116 12.0664 31.6694 12.0664Z" fill="#FDFDFD"/>
</g>
<path d="M18.3207 7.54482L18.9664 7.72164C19.7063 7.9262 20.2852 8.50397 20.4887 9.24605L20.6666 9.89074C20.7993 10.3766 21.487 10.3766 21.6198 9.89074L21.7977 9.24605C22.0011 8.50397 22.58 7.9262 23.3199 7.72164L23.9646 7.54482C24.4499 7.41208 24.4499 6.72386 23.9646 6.59002L23.3199 6.41267C22.58 6.20919 22.0011 5.63033 21.7977 4.88934L21.6198 4.24356C21.487 3.75882 20.7993 3.75882 20.6666 4.24356L20.4887 4.88934C20.2852 5.63033 19.7063 6.20919 18.9664 6.41267L18.3207 6.59002C17.8365 6.72386 17.8365 7.41208 18.3207 7.54482Z" fill="#FDFDFD"/>
<path d="M9.52622 4.86821L10.2949 5.07876C11.1774 5.3214 11.8661 6.01179 12.1088 6.89478L12.3204 7.6646C12.4798 8.24237 13.2986 8.24237 13.4564 7.6646L13.668 6.89478C13.9107 6.01179 14.6011 5.3214 15.4835 5.07876L16.2522 4.86821C16.8284 4.70881 16.8284 3.88948 16.2522 3.73007L15.4835 3.51844C14.6011 3.27579 13.9107 2.58649 13.668 1.70351L13.4564 0.934228C13.2986 0.355909 12.4798 0.355909 12.3204 0.934228L12.1088 1.70351C11.8661 2.58649 11.1774 3.27579 10.2949 3.51844L9.52622 3.73007C8.94898 3.88948 8.94898 4.70881 9.52622 4.86821Z" fill="#FDFDFD"/>
</svg>
