<svg width="34" height="39" viewBox="0 0 34 39" fill="none" xmlns="http://www.w3.org/2000/svg">
<path d="M21.2237 21.5278C19.7542 20.6796 17.8773 21.1823 17.0291 22.6529C16.0395 24.3672 17.2037 26.3355 14.3916 28.9954C17.9344 29.4431 21.3591 27.441 22.3477 25.7257C23.1969 24.2562 22.6931 22.3765 21.2237 21.5278Z" fill="#373535"/>
<path d="M22.3026 19.658C23.4445 20.3174 24.2383 21.3473 24.6316 22.5083C26.8089 18.3371 29.5139 11.9119 31.2548 6.08033C31.5546 5.07875 30.2957 4.35136 29.5781 5.11085C25.4015 9.53664 21.1927 15.0924 18.6711 19.0645C19.8729 18.8251 21.1617 18.9987 22.3026 19.658Z" fill="#373535"/>
<mask id="mask0_340_1183" style="mask-type:luminance" maskUnits="userSpaceOnUse" x="0" y="11" width="34" height="28">
<path d="M0 11.9807H33.3651V38.4995H0V11.9807Z" fill="white"/>
</mask>
<g mask="url(#mask0_340_1183)">
<path d="M2.37693 14.1756H10.3358V16.4116H2.37693V14.1756ZM31.6694 12.0663H31.5246C30.7287 14.2365 29.8403 16.4383 28.923 18.5214H30.9915V36.1218H2.37693V18.5214H16.4601L16.8501 17.9077C18.0133 16.0743 19.4186 14.0727 20.9343 12.0663H1.69687C0.756765 12.0663 0 12.8269 0 13.7637V36.804C0 37.743 0.756765 38.5003 1.69687 38.5003H31.6694C32.6116 38.5003 33.37 37.743 33.37 36.804V13.7637C33.37 12.8269 32.6116 12.0663 31.6694 12.0663Z" fill="#373535"/>
</g>
<path d="M18.3207 7.54473L18.9664 7.72155C19.7063 7.92611 20.2852 8.50388 20.4887 9.24596L20.6666 9.89065C20.7993 10.3765 21.487 10.3765 21.6198 9.89065L21.7977 9.24596C22.0011 8.50388 22.58 7.92611 23.3199 7.72155L23.9646 7.54473C24.4499 7.41198 24.4499 6.72377 23.9646 6.58993L23.3199 6.41258C22.58 6.2091 22.0011 5.63024 21.7977 4.88925L21.6198 4.24347C21.487 3.75873 20.7993 3.75873 20.6666 4.24347L20.4887 4.88925C20.2852 5.63024 19.7063 6.2091 18.9664 6.41258L18.3207 6.58993C17.8365 6.72377 17.8365 7.41198 18.3207 7.54473Z" fill="#373535"/>
<path d="M9.52622 4.86818L10.2949 5.07873C11.1774 5.32137 11.8661 6.01176 12.1088 6.89475L12.3204 7.66457C12.4798 8.24234 13.2986 8.24234 13.4564 7.66457L13.668 6.89475C13.9107 6.01176 14.6011 5.32137 15.4835 5.07873L16.2522 4.86818C16.8284 4.70878 16.8284 3.88945 16.2522 3.73004L15.4835 3.51841C14.6011 3.27576 13.9107 2.58646 13.668 1.70348L13.4564 0.934197C13.2986 0.355878 12.4798 0.355878 12.3204 0.934197L12.1088 1.70348C11.8661 2.58646 11.1774 3.27576 10.2949 3.51841L9.52622 3.73004C8.94898 3.88945 8.94898 4.70878 9.52622 4.86818Z" fill="#373535"/>
</svg>
