<svg width="48" height="17" viewBox="0 0 48 17" fill="none" xmlns="http://www.w3.org/2000/svg">
<path d="M25.3527 13.0802C25.3527 13.8305 24.7467 14.4381 24.0004 14.4381C23.2534 14.4381 22.6482 13.8305 22.6482 13.0802C22.6482 12.8518 22.7045 12.6373 22.804 12.4481C22.8056 12.6903 23.0013 12.8861 23.2436 12.8861C23.4866 12.8861 23.684 12.6887 23.684 12.4448C23.684 12.201 23.4866 12.0028 23.2436 12.0028C23.2183 12.0028 23.1938 12.006 23.1694 12.0101C23.3985 11.8299 23.6873 11.723 24.0004 11.723C24.7475 11.723 25.3527 12.3306 25.3527 13.0802Z" fill="#373535"/>
<mask id="mask0_340_2112" style="mask-type:luminance" maskUnits="userSpaceOnUse" x="6" y="0" width="36" height="8">
<path d="M6.03699 0.361816H41.9491V7.09942H6.03699V0.361816Z" fill="white"/>
</mask>
<g mask="url(#mask0_340_2112)">
<path d="M38.2814 2.62916H41.8512V6.314C41.8512 6.66634 41.5666 6.95261 41.2151 6.95261H38.9167C38.566 6.95261 38.2814 6.66634 38.2814 6.314V2.62916ZM40.8831 0.95312C40.8831 0.626884 40.6197 0.361816 40.2943 0.361816H39.8375C39.5129 0.361816 39.2495 0.626884 39.2495 0.95312V1.93346H40.8831V0.95312ZM6.14954 6.314C6.14954 6.66634 6.43418 6.95261 6.7857 6.95261H9.08403C9.43474 6.95261 9.71938 6.66634 9.71938 6.314V2.62916H6.14954V6.314ZM8.75127 0.95312C8.75127 0.626884 8.48784 0.361816 8.16242 0.361816H7.7065C7.38108 0.361816 7.11764 0.626884 7.11764 0.95312V1.93346H8.75127V0.95312Z" fill="#373535"/>
</g>
<path d="M48 1.14802C48 1.14802 46.5482 1.86738 44.758 1.86738C42.967 1.86738 41.5152 1.14802 41.5152 1.14802C41.5152 1.14802 42.967 0.427856 44.758 0.427856C46.5482 0.427856 48 1.14802 48 1.14802ZM35.3738 0.427856C33.5836 0.427856 32.1319 1.14802 32.1319 1.14802C32.1319 1.14802 33.5836 1.86738 35.3738 1.86738C37.1649 1.86738 38.6166 1.14802 38.6166 1.14802C38.6166 1.14802 37.1649 0.427856 35.3738 0.427856ZM3.24279 0.427856C1.45175 0.427856 0 1.14802 0 1.14802C0 1.14802 1.45175 1.86738 3.24279 1.86738C5.03301 1.86738 6.48477 1.14802 6.48477 1.14802C6.48477 1.14802 5.03383 0.427856 3.24279 0.427856ZM12.6262 0.427856C10.8351 0.427856 9.38338 1.14802 9.38338 1.14802C9.38338 1.14802 10.8351 1.86738 12.6262 1.86738C14.4172 1.86738 15.869 1.14802 15.869 1.14802C15.869 1.14802 14.4172 0.427856 12.6262 0.427856Z" fill="#373535"/>
<path d="M37.6118 5.29367L29.5889 8.57887C29.4241 9.10982 29.186 9.60896 28.8867 10.0632H19.1142C18.8141 9.60896 18.5759 9.10982 18.4112 8.57887L10.389 5.29367V4.05887L17.7285 5.34261C19.7936 4.62733 20.0513 3.23022 24.0004 3.23022C27.9495 3.23022 28.2064 4.62733 30.2715 5.34261L37.6118 4.05968V5.29367Z" fill="#373535"/>
<mask id="mask1_340_2112" style="mask-type:luminance" maskUnits="userSpaceOnUse" x="14" y="8" width="20" height="9">
<path d="M14.5974 8.77002H33.3886V16.638H14.5974V8.77002Z" fill="white"/>
</mask>
<g mask="url(#mask1_340_2112)">
<path d="M20.8212 13.3828H21.6009C21.7494 14.5793 22.7688 15.5091 24.0004 15.5091C25.2319 15.5091 26.2514 14.5793 26.3999 13.3828H27.1796C27.7358 13.3828 28.1893 12.9285 28.1893 12.369V10.6685H27.5865V12.369C27.5865 12.595 27.4038 12.7785 27.1796 12.7785H26.3999C26.2628 11.6717 25.3804 10.7941 24.2744 10.6685H23.7263C22.6204 10.7941 21.7379 11.6717 21.6009 12.7785H20.8212C20.5969 12.7785 20.4142 12.595 20.4142 12.369V10.6685H19.8123V12.369C19.8115 12.9285 20.2642 13.3828 20.8212 13.3828ZM24.0004 11.2566C25.0019 11.2566 25.8167 12.0746 25.8167 13.0802C25.8167 14.0859 25.0019 14.9039 24.0004 14.9039C22.998 14.9039 22.1832 14.0859 22.1832 13.0802C22.1832 12.0746 22.998 11.2566 24.0004 11.2566ZM30.0619 12.6659L29.6386 9.98426C29.8082 9.67923 29.9534 9.36196 30.0716 9.03409L30.384 8.90686L30.9296 12.369L33.2435 16.637H32.215L30.0619 12.6659ZM14.7565 16.637L17.0711 12.369L17.6167 8.90686L17.9283 9.03409C18.0466 9.36196 18.1917 9.67923 18.3614 9.98426L17.9389 12.6659L15.7857 16.637H14.7565Z" fill="#373535"/>
</g>
</svg>
