<svg width="41" height="42" viewBox="0 0 41 42" fill="none" xmlns="http://www.w3.org/2000/svg">
<mask id="mask0_340_2176" style="mask-type:luminance" maskUnits="userSpaceOnUse" x="0" y="0" width="41" height="42">
<path d="M0 0H40.5581V41.1887H0V0Z" fill="white"/>
</mask>
<g mask="url(#mask0_340_2176)">
<path d="M39.5754 12.0407H11.0615L39.0805 6.73271C39.1357 6.72221 39.1894 6.70681 39.2417 6.68582C39.2941 6.66483 39.3436 6.63893 39.3911 6.60814C39.4379 6.57735 39.4818 6.54236 39.5216 6.50247C39.5621 6.46328 39.5984 6.4206 39.6298 6.37371C39.6619 6.32752 39.6891 6.27784 39.7108 6.22605C39.7331 6.17427 39.7498 6.12108 39.7617 6.0658C39.7729 6.01051 39.7791 5.95453 39.7798 5.89785C39.7805 5.84186 39.7757 5.78588 39.7652 5.7306L38.8083 0.672455C38.7979 0.617171 38.7825 0.563286 38.7616 0.510801C38.7406 0.458317 38.7148 0.408631 38.6841 0.361744C38.6534 0.314158 38.6185 0.270071 38.5787 0.230182C38.5396 0.189594 38.4971 0.153205 38.4503 0.121714C38.4042 0.0895228 38.3547 0.0629304 38.303 0.0405369C38.2514 0.0181433 38.1983 0.00134828 38.1432 -0.00984849C38.0881 -0.0217451 38.0322 -0.0280432 37.9757 -0.028743C37.9199 -0.0294427 37.864 -0.0245443 37.8089 -0.0140473L0.808887 6.99653C0.753751 7.00703 0.70001 7.02312 0.647666 7.04342C0.595321 7.06441 0.545768 7.0903 0.498309 7.12109C0.451548 7.15189 0.407578 7.18688 0.367098 7.22676C0.327316 7.26595 0.291024 7.30934 0.259617 7.35553C0.227513 7.40241 0.200293 7.4514 0.178657 7.50318C0.156324 7.55497 0.139573 7.60885 0.127709 7.66414C0.116542 7.71872 0.110261 7.77471 0.109562 7.83139C0.108865 7.88737 0.11375 7.94336 0.124219 7.99934L1.06224 12.9763V37.1844C1.06224 37.3167 1.06921 37.4482 1.08178 37.5798C1.09504 37.7107 1.11458 37.8415 1.1404 37.9703C1.16623 38.0998 1.19833 38.2278 1.23672 38.3545C1.2751 38.4804 1.31907 38.6043 1.37002 38.7268C1.42027 38.8485 1.47611 38.9675 1.53822 39.0837C1.60034 39.2005 1.66804 39.3132 1.74132 39.4231C1.8146 39.5329 1.89277 39.6386 1.97652 39.7408C2.06027 39.8423 2.14821 39.9402 2.24174 40.0333C2.33456 40.1271 2.43157 40.2152 2.53347 40.2992C2.63537 40.3832 2.74075 40.4616 2.85033 40.5351C2.9599 40.6085 3.07227 40.6757 3.18883 40.738C3.30468 40.8003 3.42333 40.857 3.54477 40.9073C3.66691 40.9584 3.79044 41.0025 3.91607 41.041C4.04239 41.0795 4.16941 41.1117 4.29853 41.1376C4.42765 41.1635 4.55816 41.1831 4.68867 41.1957C4.81988 41.209 4.9511 41.216 5.083 41.216H36.4054C36.5366 41.216 36.6678 41.209 36.799 41.1957C36.9302 41.1831 37.06 41.1635 37.1891 41.1376C37.3182 41.1117 37.4453 41.0795 37.5716 41.041C37.6972 41.0025 37.8208 40.9584 37.9422 40.9073C38.0636 40.857 38.183 40.8003 38.2988 40.738C38.4147 40.6757 38.5278 40.6078 38.6366 40.5351C38.7462 40.4616 38.8516 40.3825 38.9535 40.2992C39.0547 40.2152 39.1524 40.1264 39.2452 40.0333C39.3381 39.9402 39.4267 39.8423 39.5097 39.7401C39.5935 39.6386 39.6717 39.5322 39.7449 39.4224C39.8182 39.3132 39.8852 39.1998 39.9473 39.0837C40.0095 38.9675 40.066 38.8478 40.1162 38.7261C40.1665 38.6043 40.2105 38.4804 40.2489 38.3538C40.2872 38.2278 40.3193 38.0998 40.3445 37.9703C40.3703 37.8408 40.3898 37.7107 40.4031 37.5791C40.4157 37.4482 40.4219 37.3167 40.4219 37.1844V12.8986C40.4219 12.8426 40.4171 12.7874 40.4059 12.7328C40.3954 12.6775 40.3794 12.6243 40.3577 12.5725C40.3368 12.5207 40.311 12.4711 40.2796 12.4249C40.2489 12.378 40.214 12.3346 40.1749 12.2947C40.1351 12.2555 40.0925 12.2198 40.0465 12.1883C40.0004 12.1568 39.9515 12.1302 39.8999 12.1086C39.8482 12.0869 39.7952 12.0701 39.7408 12.0589C39.6863 12.047 39.6312 12.0414 39.5754 12.0407ZM38.719 17.1891H36.6105L34.329 13.7566H38.719V17.1891ZM29.7639 17.1891L27.4823 13.7566H32.275L34.5565 17.1891H29.7639ZM22.9179 17.1891L20.6364 13.7566H25.4283L27.7099 17.1891H22.9179ZM16.0712 17.1891L13.7897 13.7566H18.5823L20.8639 17.1891H16.0712ZM9.22521 17.1891L6.94368 13.7566H11.7357L14.0172 17.1891H9.22521ZM10.7669 6.86497L13.6459 9.81322L8.93906 10.7041L6.06499 7.74881L10.7669 6.86497ZM17.4957 5.59134L20.3746 8.52909L15.6671 9.42203L12.7881 6.47308L17.4957 5.59134ZM24.2216 4.3163L27.0992 7.26455L22.3958 8.1554L19.5169 5.20015L24.2216 4.3163ZM30.9503 3.04267L33.8272 5.98252L29.1204 6.87337L26.2435 3.92512L30.9503 3.04267ZM2.77565 13.7566H4.88619L7.16772 17.1891H2.77565V13.7566ZM37.9234 5.20715L35.847 5.59973L32.9715 2.65008L37.2847 1.83272L37.9234 5.20715ZM4.03332 8.12461L6.92135 11.0778L2.60605 11.8965L1.96745 8.52279L4.03332 8.12461ZM36.4137 39.4994H5.0844C4.93295 39.4994 4.78289 39.4847 4.63424 39.4546C4.48558 39.4245 4.3418 39.3811 4.20152 39.3223C4.06124 39.2642 3.92863 39.1928 3.8023 39.1082C3.67668 39.0242 3.56012 38.9283 3.45264 38.8205C3.34586 38.7128 3.25024 38.5959 3.16579 38.47C3.08134 38.3433 3.01015 38.2103 2.95223 38.0697C2.8943 37.9297 2.85033 37.7848 2.82032 37.6358C2.79101 37.4867 2.77565 37.3363 2.77565 37.1844V18.9057H38.719V37.1844C38.719 37.3363 38.7043 37.4867 38.675 37.6358C38.6457 37.7848 38.6017 37.9297 38.5438 38.0697C38.4859 38.2103 38.4147 38.3433 38.3309 38.47C38.2465 38.5959 38.1509 38.7128 38.0441 38.8205C37.9373 38.9276 37.8208 39.0235 37.6951 39.1082C37.5688 39.1928 37.4362 39.2642 37.2959 39.3223C37.1563 39.3804 37.0119 39.4245 36.8639 39.4546C36.7152 39.4847 36.5652 39.4994 36.4137 39.4994Z" fill="#FDFDFD"/>
</g>
<path d="M17.7646 22.4604C17.632 22.3806 17.4889 22.34 17.3346 22.3379C17.1804 22.3365 17.0366 22.3736 16.9026 22.4499C16.7686 22.5255 16.6625 22.6304 16.5851 22.7641C16.5076 22.8978 16.4685 23.0419 16.4685 23.1966V35.2093C16.4685 35.266 16.4741 35.322 16.4853 35.3773C16.4957 35.4326 16.5125 35.4857 16.5334 35.5382C16.555 35.59 16.5816 35.6397 16.613 35.6866C16.6444 35.7335 16.6793 35.7769 16.7191 35.816C16.7588 35.8559 16.8021 35.8916 16.8489 35.9231C16.8956 35.9546 16.9452 35.9805 16.9968 36.0022C17.0485 36.0239 17.1022 36.04 17.1574 36.0512C17.2125 36.0624 17.2683 36.068 17.3242 36.068C17.4826 36.0673 17.6292 36.026 17.7646 35.9441L27.7477 29.9377C27.7798 29.9188 27.8099 29.8978 27.8385 29.8748C27.8671 29.8517 27.8943 29.8272 27.9201 29.8006C27.9459 29.774 27.9697 29.7467 27.992 29.7166C28.0136 29.6872 28.0339 29.6564 28.052 29.6242C28.0702 29.5927 28.0862 29.5591 28.1002 29.5249C28.1135 29.4913 28.1253 29.4563 28.1344 29.4206C28.1442 29.3849 28.1511 29.3485 28.156 29.3121C28.1602 29.2757 28.163 29.2386 28.163 29.2022C28.163 29.1652 28.1602 29.1288 28.156 29.0917C28.1511 29.0553 28.1442 29.0196 28.1344 28.9839C28.1253 28.9482 28.1135 28.9132 28.1002 28.8789C28.0862 28.8447 28.0702 28.8118 28.052 28.7796C28.0339 28.7474 28.0136 28.7166 27.992 28.6872C27.9697 28.6578 27.9459 28.6298 27.9201 28.6032C27.8943 28.5773 27.8671 28.5521 27.8385 28.5297C27.8099 28.5066 27.7798 28.4857 27.7477 28.4668L17.7646 22.4604ZM18.1805 33.6929V24.7137L25.6463 29.2043L18.1805 33.6929Z" fill="#FDFDFD"/>
</svg>
