<svg width="42" height="40" viewBox="0 0 42 40" fill="none" xmlns="http://www.w3.org/2000/svg">
<mask id="mask0_340_2196" style="mask-type:luminance" maskUnits="userSpaceOnUse" x="0" y="0" width="39" height="37">
<path d="M0 0H38.0616V36.3356H0V0Z" fill="white"/>
</mask>
<g mask="url(#mask0_340_2196)">
<path d="M20.6852 34.3104H8.78134V1.96013H29.2718V15.4494C29.2718 15.5138 29.2781 15.5775 29.2907 15.6405C29.3032 15.7035 29.3214 15.7651 29.3458 15.8245C29.3702 15.884 29.4003 15.9407 29.4359 15.9939C29.4714 16.0478 29.5119 16.0968 29.5573 16.1422C29.6027 16.1884 29.6522 16.229 29.7053 16.2647C29.759 16.3004 29.8148 16.3305 29.8742 16.355C29.9335 16.3795 29.9942 16.3984 30.057 16.411C30.1198 16.4236 30.1833 16.4299 30.2475 16.4299C30.3118 16.4299 30.3753 16.4236 30.4381 16.411C30.5009 16.3984 30.5616 16.3795 30.6209 16.355C30.6803 16.3305 30.7361 16.3004 30.7898 16.2647C30.8429 16.229 30.8924 16.1884 30.9371 16.1422C30.9825 16.0968 31.0229 16.0478 31.0585 15.9939C31.0941 15.9407 31.1241 15.884 31.1493 15.8245C31.1737 15.7651 31.1918 15.7035 31.2044 15.6405C31.217 15.5775 31.2232 15.5138 31.2232 15.4494V8.82235H36.1018V11.1653C36.1018 11.2297 36.1081 11.2933 36.1206 11.357C36.1332 11.42 36.1513 11.4809 36.1764 11.5404C36.2009 11.5999 36.2309 11.6565 36.2665 11.7104C36.3021 11.7636 36.3426 11.8133 36.3879 11.8588C36.4333 11.9043 36.4821 11.9449 36.5352 11.9805C36.5889 12.0162 36.6448 12.0463 36.7041 12.0708C36.7634 12.096 36.8241 12.1142 36.8869 12.1268C36.9498 12.1394 37.0133 12.1457 37.0775 12.1457C37.1417 12.1457 37.2052 12.1394 37.268 12.1268C37.3308 12.1142 37.3915 12.096 37.4509 12.0708C37.5102 12.0463 37.5667 12.0162 37.6198 11.9805C37.6728 11.9449 37.7224 11.9043 37.7677 11.8588C37.8131 11.8133 37.8536 11.7636 37.8892 11.7104C37.9248 11.6565 37.9548 11.5999 37.9792 11.5404C38.0036 11.4809 38.0218 11.42 38.0343 11.357C38.0469 11.2933 38.0532 11.2297 38.0532 11.1653V4.90139C38.0532 4.74113 38.0448 4.58088 38.0294 4.42132C38.0134 4.26107 37.9897 4.10292 37.959 3.94546C37.9276 3.78801 37.8885 3.63265 37.8417 3.4794C37.7956 3.32544 37.7419 3.17498 37.6805 3.02663C37.6191 2.87827 37.5507 2.73341 37.4753 2.59205C37.3999 2.45069 37.3183 2.31283 37.2296 2.17987C37.1403 2.04621 37.0454 1.91745 36.9442 1.79358C36.843 1.66972 36.7355 1.55075 36.6224 1.43739C36.5101 1.32402 36.3914 1.21625 36.2679 1.11408C36.1443 1.01261 36.0166 0.916736 35.884 0.827861C35.7507 0.738287 35.6139 0.655711 35.4736 0.580133C35.3327 0.504555 35.1882 0.435974 35.0409 0.374392C34.893 0.31281 34.7429 0.258925 34.5901 0.212039C34.4372 0.165152 34.283 0.126663 34.1259 0.0951725C33.9696 0.0636817 33.8119 0.0398885 33.6527 0.0237931C33.4936 0.00839749 33.3345 0 33.1747 0H4.87852C4.7187 0 4.55957 0.00839749 4.40044 0.0237931C4.24131 0.0398885 4.08358 0.0636817 3.92725 0.0951725C3.77021 0.126663 3.61597 0.165152 3.46312 0.212039C3.31028 0.258925 3.16022 0.31281 3.01226 0.374392C2.865 0.435974 2.72053 0.504555 2.57955 0.580133C2.43926 0.655711 2.30247 0.738287 2.16916 0.827861C2.03656 0.916736 1.90814 1.01261 1.7853 1.11408C1.66177 1.21625 1.54312 1.32402 1.43075 1.43739C1.31769 1.55075 1.21021 1.66972 1.10901 1.79358C1.00781 1.91745 0.912891 2.04621 0.823556 2.17987C0.734919 2.31283 0.653261 2.45069 0.577885 2.59205C0.502509 2.73341 0.434112 2.87827 0.372694 3.02663C0.311276 3.17498 0.257536 3.32544 0.211472 3.4794C0.164711 3.63265 0.125627 3.78801 0.0942204 3.94546C0.0635115 4.10292 0.0397818 4.26107 0.0237296 4.42132C0.00767717 4.58088 0 4.74113 0 4.90139V31.3692C0 31.5301 0.00767717 31.6904 0.0237296 31.8499C0.0397818 32.0095 0.0635115 32.1676 0.0942204 32.3251C0.125627 32.4825 0.164711 32.6379 0.211472 32.7918C0.257536 32.9451 0.311276 33.0963 0.372694 33.2446C0.434112 33.3923 0.502509 33.5371 0.577885 33.6792C0.653261 33.8205 0.734919 33.9577 0.823556 34.0914C0.912891 34.2243 1.00781 34.3531 1.10901 34.4777C1.21021 34.6015 1.31769 34.7205 1.43075 34.8339C1.54312 34.9472 1.66177 35.055 1.7853 35.1565C1.90814 35.2586 2.03656 35.3538 2.16916 35.4434C2.30247 35.5322 2.43926 35.6148 2.57955 35.6904C2.72053 35.766 2.865 35.8346 3.01226 35.8961C3.16022 35.9577 3.31028 36.0116 3.46312 36.0585C3.61597 36.1054 3.77021 36.1446 3.92725 36.1761C4.08358 36.2076 4.24131 36.2306 4.40044 36.2467C4.55957 36.2628 4.7187 36.2705 4.87852 36.2712H20.6852C20.7494 36.2712 20.8129 36.2649 20.8758 36.2523C20.9386 36.2397 20.9993 36.2209 21.0586 36.1964C21.1179 36.1719 21.1745 36.1418 21.2275 36.1061C21.2806 36.0697 21.3301 36.0291 21.3755 35.9836C21.4208 35.9381 21.4613 35.8891 21.4969 35.8353C21.5325 35.7821 21.5625 35.7254 21.5869 35.6659C21.6114 35.6064 21.6295 35.5448 21.6421 35.4819C21.6546 35.4189 21.6609 35.3552 21.6609 35.2908C21.6609 35.2264 21.6546 35.1628 21.6421 35.0998C21.6295 35.0361 21.6114 34.9752 21.5869 34.9157C21.5625 34.8562 21.5325 34.7996 21.4969 34.7464C21.4613 34.6925 21.4208 34.6428 21.3755 34.5973C21.3301 34.5518 21.2806 34.5112 21.2275 34.4756C21.1745 34.4399 21.1179 34.4098 21.0586 34.3853C20.9993 34.3601 20.9386 34.3419 20.8758 34.3293C20.8129 34.3167 20.7494 34.3104 20.6852 34.3104ZM33.1747 1.96013C33.2703 1.96013 33.3659 1.96503 33.4615 1.97483C33.5571 1.98393 33.652 1.99792 33.7456 2.01682C33.8398 2.03571 33.9326 2.05881 34.0247 2.0868C34.1162 2.11479 34.2062 2.14768 34.2948 2.18407C34.3835 2.22116 34.47 2.26245 34.5545 2.30793C34.6389 2.35342 34.7213 2.40241 34.8008 2.45629C34.8804 2.50948 34.9579 2.56686 35.0318 2.62774C35.1058 2.68932 35.177 2.75371 35.2447 2.82159C35.3124 2.89017 35.3766 2.96085 35.4373 3.03572C35.4981 3.1099 35.5553 3.18758 35.6083 3.26736C35.6621 3.34783 35.7109 3.42971 35.7563 3.51509C35.8017 3.59976 35.8421 3.68724 35.8791 3.77611C35.9154 3.86498 35.9482 3.95526 35.9761 4.04763C36.0034 4.14001 36.0271 4.23308 36.0459 4.32755C36.0641 4.42202 36.078 4.5172 36.0878 4.61307C36.0969 4.70894 36.1018 4.80481 36.1018 4.90139V6.86222H31.2232V1.96013H33.1747ZM1.95141 15.6846H6.82993V20.586H1.95141V15.6846ZM6.82993 13.7237H1.95141V8.82235H6.82993V13.7237ZM1.95141 22.5468H6.82993V27.4482H1.95141V22.5468ZM1.95141 4.90139C1.95141 4.80481 1.95629 4.70894 1.96537 4.61307C1.97444 4.5172 1.9891 4.42202 2.00724 4.32755C2.02609 4.23308 2.04912 4.14001 2.07704 4.04763C2.10495 3.95526 2.13706 3.86498 2.17405 3.77611C2.21104 3.68724 2.25152 3.59976 2.29688 3.51509C2.34225 3.42971 2.3911 3.34783 2.44485 3.26736C2.49789 3.18758 2.55512 3.1099 2.61584 3.03572C2.67656 2.96085 2.74077 2.89017 2.80847 2.82159C2.87617 2.75371 2.94735 2.68932 3.02133 2.62774C3.09531 2.56686 3.17279 2.50948 3.25235 2.45629C3.33191 2.40241 3.41427 2.35342 3.49872 2.30793C3.58317 2.26245 3.66971 2.22116 3.75835 2.18407C3.84698 2.14768 3.93702 2.11479 4.02845 2.0868C4.12057 2.05881 4.2134 2.03571 4.30762 2.01682C4.40114 1.99792 4.49606 1.98393 4.59167 1.97483C4.68659 1.96503 4.78291 1.96013 4.87852 1.96013H6.82993V6.86222H1.95141V4.90139ZM4.87852 34.3104C4.78291 34.3104 4.68659 34.3055 4.59167 34.2964C4.49606 34.2866 4.40114 34.2726 4.30762 34.2537C4.2134 34.2348 4.12057 34.2117 4.02845 34.1837C3.93702 34.1557 3.84698 34.1236 3.75835 34.0865C3.66971 34.0494 3.58317 34.0088 3.49872 33.9633C3.41427 33.9178 3.33191 33.8681 3.25235 33.8149C3.17279 33.7611 3.09531 33.7037 3.02133 33.6428C2.94735 33.5819 2.87617 33.5168 2.80847 33.449C2.74077 33.3811 2.67656 33.3097 2.61584 33.2355C2.55512 33.1606 2.49789 33.0837 2.44485 33.0032C2.3911 32.9234 2.34225 32.8408 2.29688 32.7561C2.25152 32.6708 2.21104 32.584 2.17405 32.4951C2.13706 32.4062 2.10495 32.3153 2.07704 32.2229C2.04912 32.1312 2.02609 32.0375 2.00724 31.943C1.9891 31.8485 1.97444 31.7533 1.96537 31.6575C1.95629 31.5616 1.95141 31.4657 1.95141 31.3692V29.409H6.82993V34.3104H4.87852Z" fill="#FDFDFD"/>
</g>
<path d="M37.0775 30.0264C37.0133 30.0264 36.9497 30.0327 36.8869 30.0453C36.8241 30.0579 36.7634 30.0768 36.7041 30.1012C36.6448 30.1257 36.5889 30.1558 36.5352 30.1915C36.4821 30.2279 36.4333 30.2685 36.3879 30.314C36.3425 30.3595 36.3021 30.4085 36.2665 30.4623C36.2309 30.5155 36.2009 30.5722 36.1764 30.6317C36.1513 30.6912 36.1332 30.7528 36.1206 30.8157C36.108 30.8787 36.1018 30.9424 36.1018 31.0068V31.3693C36.1039 31.6422 36.0676 31.9088 35.9943 32.1712C35.9217 32.4337 35.8135 32.68 35.6711 32.9116C35.5288 33.144 35.3578 33.3511 35.1568 33.5345C34.9565 33.7178 34.7352 33.8697 34.4916 33.99C34.3842 34.0299 34.2871 34.088 34.1992 34.1629C34.112 34.2378 34.0401 34.3252 33.9835 34.4253C33.927 34.5261 33.8893 34.6331 33.8705 34.7472C33.8516 34.8606 33.8523 34.9739 33.8733 35.088C33.8942 35.2014 33.934 35.3077 33.9926 35.4071C34.0506 35.5065 34.1245 35.5926 34.2132 35.666C34.3018 35.7388 34.4002 35.7948 34.5084 35.8333C34.6166 35.8718 34.7282 35.89 34.8434 35.8886C34.9886 35.8886 35.1268 35.8571 35.2587 35.7955C35.4673 35.6982 35.6683 35.587 35.861 35.4603C36.0536 35.3343 36.2365 35.1951 36.4096 35.0425C36.5826 34.8907 36.7439 34.7262 36.8932 34.5506C37.0433 34.3756 37.1794 34.1902 37.3029 33.9949C37.4257 33.7997 37.5346 33.5967 37.6288 33.3861C37.7231 33.1748 37.8026 32.9585 37.8661 32.7367C37.9296 32.5141 37.9771 32.2888 38.0085 32.06C38.0399 31.8304 38.0546 31.6009 38.0532 31.3693V31.0068C38.0532 30.9424 38.0469 30.8787 38.0343 30.8157C38.0218 30.7528 38.0036 30.6912 37.9792 30.6317C37.9548 30.5722 37.9248 30.5155 37.8892 30.4623C37.8536 30.4085 37.8131 30.3595 37.7677 30.314C37.7224 30.2685 37.6728 30.2279 37.6198 30.1915C37.5667 30.1558 37.5102 30.1257 37.4509 30.1012C37.3915 30.0768 37.3308 30.0579 37.268 30.0453C37.2052 30.0327 37.1417 30.0264 37.0775 30.0264Z" fill="#FDFDFD"/>
<path d="M17.0748 11.2993C16.8521 11.1705 16.6169 11.0725 16.3692 11.0053C16.1207 10.9389 15.868 10.9053 15.6112 10.9053C15.3537 10.9053 15.101 10.9389 14.8533 11.006C14.6048 11.0725 14.3696 11.1705 14.147 11.3C13.9243 11.4287 13.7226 11.5848 13.5405 11.7674C13.359 11.9501 13.2041 12.1537 13.0756 12.3769C12.9472 12.6009 12.8502 12.8374 12.7839 13.0865C12.7169 13.3364 12.6841 13.5897 12.6841 13.8479V23.4065C12.6834 23.6647 12.7155 23.9187 12.7811 24.1685C12.8474 24.4191 12.9444 24.6556 13.0721 24.8802C13.2006 25.1042 13.3555 25.3078 13.537 25.4912C13.7191 25.6738 13.9215 25.8306 14.1442 25.9593C14.3668 26.0888 14.6027 26.1868 14.8512 26.2539C15.0996 26.3204 15.353 26.3533 15.6105 26.3533C15.8673 26.3526 16.1207 26.319 16.3685 26.2511C16.6169 26.184 16.8528 26.0853 17.0748 25.9551L25.3131 21.1741C25.5358 21.0453 25.7389 20.8893 25.9203 20.7066C26.1025 20.524 26.2581 20.3211 26.3872 20.0971C26.5156 19.8739 26.6134 19.6367 26.6797 19.3875C26.7467 19.1377 26.7802 18.8837 26.7802 18.6254C26.7802 18.3665 26.7467 18.1125 26.6797 17.8634C26.6134 17.6135 26.5156 17.377 26.3872 17.1531C26.2581 16.9291 26.1025 16.7262 25.9203 16.5435C25.7389 16.3609 25.5358 16.2055 25.3131 16.0761L17.0748 11.2993ZM24.3374 19.4743L16.0991 24.2518C16.0621 24.2735 16.0244 24.2924 15.9846 24.3085C15.9455 24.3253 15.905 24.3386 15.8639 24.3498C15.8227 24.361 15.7815 24.3694 15.7389 24.375C15.6971 24.3806 15.6545 24.3834 15.6119 24.3834C15.5693 24.3834 15.5268 24.3806 15.4842 24.375C15.4423 24.3694 15.4004 24.361 15.3593 24.3505C15.3181 24.3393 15.2776 24.3253 15.2385 24.3092C15.1987 24.2924 15.161 24.2735 15.1241 24.2525C15.0871 24.2308 15.0515 24.207 15.018 24.1811C14.9838 24.1553 14.9524 24.1273 14.9217 24.0965C14.8916 24.0664 14.8637 24.0342 14.8379 24.0006C14.8121 23.9663 14.7883 23.9313 14.7667 23.8942C14.7458 23.8571 14.7269 23.8186 14.7102 23.7788C14.6941 23.7396 14.6802 23.699 14.669 23.6577C14.6578 23.6164 14.6495 23.5744 14.6439 23.5317C14.6383 23.4897 14.6355 23.4471 14.6355 23.4044V13.8465C14.6348 13.7597 14.6453 13.6751 14.6669 13.5918C14.6892 13.5085 14.7213 13.4294 14.7639 13.3546C14.8072 13.2804 14.8588 13.2125 14.9203 13.1516C14.981 13.0914 15.0487 13.0397 15.1234 12.997C15.2748 12.9102 15.4374 12.8654 15.6112 12.8633C15.7864 12.8626 15.949 12.9081 16.0991 12.9984L24.3374 17.7766C24.3744 17.7976 24.41 17.8214 24.4435 17.8473C24.4777 17.8739 24.5091 17.9019 24.5398 17.9319C24.5698 17.962 24.5977 17.9942 24.6236 18.0285C24.6494 18.0621 24.6731 18.0978 24.6948 18.1349C24.7157 18.172 24.7345 18.2105 24.7513 18.2504C24.7673 18.2895 24.7813 18.3301 24.7918 18.3714C24.8029 18.4127 24.8113 18.4547 24.8169 18.4974C24.8225 18.5394 24.8253 18.5821 24.8253 18.6254C24.8253 18.6681 24.8225 18.7108 24.8169 18.7528C24.8113 18.7955 24.8029 18.8375 24.7918 18.8788C24.7813 18.9201 24.7673 18.9606 24.7513 19.0005C24.7345 19.0397 24.7157 19.0782 24.6948 19.1153C24.6731 19.1524 24.6494 19.1881 24.6236 19.2217C24.5977 19.256 24.5698 19.2882 24.5398 19.3182C24.5091 19.3483 24.4777 19.377 24.4435 19.4029C24.41 19.4288 24.3744 19.4526 24.3374 19.4743Z" fill="#FDFDFD"/>
<mask id="mask1_340_2196" style="mask-type:luminance" maskUnits="userSpaceOnUse" x="23" y="13" width="19" height="27">
<path d="M23.5894 13.7627H41.0781V39.3095H23.5894V13.7627Z" fill="white"/>
</mask>
<g mask="url(#mask1_340_2196)">
<path d="M40.9141 17.2987C40.8478 17.0475 40.7354 16.8187 40.5777 16.6129C40.4206 16.4065 40.2294 16.2386 40.0047 16.1091L36.6253 14.1483C36.5143 14.0839 36.3978 14.0307 36.2763 13.9894C36.1556 13.9481 36.0314 13.9187 35.9043 13.9019C35.7773 13.8851 35.6496 13.8809 35.5219 13.8893C35.3942 13.8977 35.2678 13.9187 35.1443 13.9523C35.0208 13.9852 34.9014 14.03 34.7863 14.0874C34.6711 14.1441 34.5629 14.2119 34.4617 14.2903C34.3598 14.368 34.267 14.4562 34.1818 14.5527C34.0974 14.6493 34.0234 14.7536 33.9592 14.8648L24.1191 31.9896C23.9418 32.2975 23.8092 32.6229 23.7206 32.9665C23.632 33.3108 23.5908 33.66 23.5971 34.0148L23.6515 37.2822C23.6529 37.3669 23.6599 37.4508 23.6717 37.5341C23.6843 37.6174 23.7017 37.6993 23.7241 37.7804C23.7471 37.8616 23.775 37.9414 23.8078 38.0184C23.8406 38.096 23.8783 38.1709 23.9209 38.2437C23.9635 38.3165 24.0109 38.3858 24.0619 38.4522C24.1135 38.5187 24.1694 38.5817 24.2287 38.6412C24.288 38.7007 24.3515 38.756 24.4178 38.807C24.4848 38.8581 24.5546 38.905 24.6272 38.947C24.6998 38.989 24.7745 39.0268 24.8519 39.059C24.9294 39.0912 25.009 39.1185 25.0899 39.1408C25.1702 39.1632 25.2525 39.18 25.3356 39.1912C25.4187 39.2031 25.5024 39.2087 25.5862 39.2094C25.6699 39.2101 25.7537 39.2059 25.8367 39.1954C25.9198 39.1856 26.0021 39.1702 26.0838 39.1492C26.1647 39.1283 26.2443 39.1024 26.3225 39.0716C26.4006 39.0408 26.476 39.0044 26.5493 38.9638L29.3941 37.3774C29.7032 37.2045 29.9838 36.9932 30.2358 36.744C30.4877 36.4942 30.702 36.215 30.8786 35.9071L40.718 18.7879C40.8485 18.5633 40.9308 18.3212 40.965 18.0629C40.9985 17.8054 40.9818 17.5507 40.9141 17.2987ZM29.1896 34.9295C29.0095 35.243 28.7617 35.4872 28.4463 35.6628L25.6029 37.2514L25.5485 33.984C25.5422 33.6215 25.6287 33.2835 25.8088 32.97L35.6489 15.8474L39.029 17.8075L29.1896 34.9295Z" fill="#FDFDFD"/>
</g>
</svg>
