<svg width="41" height="42" viewBox="0 0 41 42" fill="none" xmlns="http://www.w3.org/2000/svg">
<path d="M2.67947 27.7454L34.669 33.2934L38.255 13.2938L6.26543 7.73953L2.67947 27.7454ZM35.2574 34.8742C35.2169 34.8742 35.1771 34.8679 35.1374 34.8623L1.70237 29.068C1.51393 29.0281 1.34294 28.9189 1.22848 28.765C1.1203 28.604 1.07424 28.4039 1.10913 28.2149L4.95193 6.76681C5.02591 6.37143 5.40279 6.1083 5.79712 6.17688L39.2314 11.9712C39.4198 12.0055 39.5915 12.114 39.7053 12.2749C39.8142 12.4352 39.8595 12.6353 39.8253 12.8243L35.9763 34.2731C35.9197 34.6279 35.6057 34.8742 35.2574 34.8742Z" fill="#FDFDFD"/>
<path d="M30.6999 16.1232C29.3068 16.1232 28.0736 17.1253 27.8223 18.5452C27.6848 19.3122 27.8565 20.0911 28.3074 20.7377C28.7526 21.3794 29.4268 21.8084 30.1918 21.9406C30.963 22.0778 31.7391 21.9063 32.3791 21.4536C33.0184 21.0071 33.4413 20.3318 33.5781 19.5641C33.7149 18.7915 33.5439 18.0127 33.0931 17.3709C32.6471 16.7299 31.9736 16.3066 31.2087 16.1687C31.037 16.14 30.866 16.1232 30.6999 16.1232ZM30.7117 23.4522C30.4549 23.4522 30.1974 23.4291 29.9405 23.3829C28.7868 23.1828 27.7818 22.5418 27.1083 21.5739C26.4404 20.6117 26.1773 19.4437 26.3832 18.2877C26.8054 15.9 29.0786 14.2967 31.4599 14.7257C32.6129 14.9265 33.6179 15.5732 34.2921 16.5354C34.96 17.4969 35.2224 18.6593 35.0173 19.816C34.8177 20.9728 34.1776 21.9805 33.2124 22.6558C32.4705 23.1828 31.5967 23.4522 30.7117 23.4522Z" fill="#FDFDFD"/>
<path d="M23.6306 32.8595C23.408 32.8595 23.1798 32.7503 23.0367 32.5501L11.4846 16.3176L3.52468 21.7971C3.19316 22.0259 2.73602 21.9405 2.50779 21.6081C2.27957 21.2764 2.36542 20.818 2.69624 20.5892L11.2452 14.7032C11.576 14.4737 12.0213 14.5541 12.2558 14.8802L24.2301 31.6971C24.4591 32.0288 24.3844 32.4872 24.0591 32.7216C23.9279 32.8133 23.7793 32.8595 23.6306 32.8595Z" fill="#FDFDFD"/>
<path d="M32.3563 34.371C32.1224 34.371 31.8998 34.2619 31.7567 34.0617L24.9896 24.5571L20.4559 27.6831C20.1244 27.9119 19.6679 27.8265 19.4397 27.4941C19.2108 27.1624 19.2966 26.704 19.6281 26.4752L24.7558 22.9419C25.081 22.7131 25.5326 22.7936 25.7608 23.1197L32.9446 33.2087C33.1847 33.5404 33.11 33.9987 32.7792 34.2332C32.6536 34.3248 32.4993 34.371 32.3563 34.371Z" fill="#FDFDFD"/>
<path d="M2.95935 22.7594C2.66761 22.7594 2.38774 22.576 2.27398 22.2779L0.0468886 16.2491C-0.0215084 16.0658 -0.0159249 15.8594 0.0692223 15.6823C0.149484 15.5046 0.303726 15.3674 0.486584 15.3044L4.02718 14.0273C4.40406 13.8901 4.82631 14.0847 4.9631 14.4682C5.09501 14.8517 4.90029 15.2701 4.51782 15.4073L1.67446 16.4325L3.64401 21.7685C3.78709 22.1463 3.59307 22.5704 3.21618 22.7076C3.13034 22.7419 3.04449 22.7594 2.95935 22.7594Z" fill="#FDFDFD"/>
<mask id="mask0_340_2155" style="mask-type:luminance" maskUnits="userSpaceOnUse" x="35" y="18" width="7" height="10">
<path d="M35.8975 18.126H41.0063V27.0834H35.8975V18.126Z" fill="white"/>
</mask>
<g mask="url(#mask0_340_2155)">
<path d="M36.6617 27.0533C36.3595 27.0533 36.0796 26.87 35.9707 26.567C35.8395 26.1891 36.0335 25.7706 36.416 25.6334L39.2601 24.6082L37.2842 19.2723C37.1474 18.8888 37.3359 18.4703 37.7183 18.3275C38.0952 18.1841 38.5175 18.3786 38.6549 18.7565L40.8876 24.7916C40.956 24.9749 40.9504 25.1814 40.8646 25.3584C40.785 25.5362 40.6308 25.6733 40.4479 25.7363L36.9073 27.0134C36.8278 27.0421 36.7475 27.0533 36.6617 27.0533Z" fill="#FDFDFD"/>
</g>
<path d="M8.29848 37.1984C8.00674 37.1984 7.72687 37.0158 7.61311 36.7177L4.84931 29.2403C4.70624 28.8624 4.90026 28.4383 5.28343 28.2956C5.66031 28.1521 6.07697 28.3523 6.21935 28.7302L8.73817 35.5329L21.2325 31.0605C21.615 30.9233 22.0316 31.1235 22.1691 31.5014C22.3059 31.8855 22.1063 32.3033 21.7231 32.4405L8.54345 37.1585C8.46389 37.1816 8.38363 37.1984 8.29848 37.1984Z" fill="#FDFDFD"/>
<path d="M35.3997 12.7847C35.1031 12.7847 34.8232 12.6013 34.7144 12.3095L32.1962 5.50677L19.6963 9.97918C19.3194 10.1163 18.9021 9.9162 18.7653 9.53201C18.6285 9.15412 18.8281 8.73634 19.2106 8.59918L32.3847 3.88114C32.7615 3.74328 33.1782 3.93853 33.3157 4.31642L36.0851 11.7938C36.2275 12.1772 36.0334 12.5957 35.6566 12.7385C35.5714 12.7728 35.4856 12.7847 35.3997 12.7847Z" fill="#FDFDFD"/>
<mask id="mask1_340_2155" style="mask-type:luminance" maskUnits="userSpaceOnUse" x="11" y="31" width="15" height="11">
<path d="M11.0623 31.5615H25.7132V41.041H11.0623V31.5615Z" fill="white"/>
</mask>
<g mask="url(#mask1_340_2155)">
<path d="M18.0458 41.041C17.8803 41.041 17.7149 40.9836 17.5774 40.8745L11.3875 35.7618C11.079 35.5042 11.0337 35.0403 11.2905 34.7309C11.5473 34.416 12.0101 34.3762 12.3185 34.6281L17.9543 39.2831L24.2929 31.8569C24.556 31.5532 25.0181 31.5133 25.3265 31.7764C25.635 32.0402 25.6692 32.5035 25.4068 32.8128L18.5999 40.7891C18.4513 40.955 18.2461 41.041 18.0458 41.041Z" fill="#FDFDFD"/>
</g>
<path d="M16.0985 9.44057C15.9275 9.44057 15.7558 9.37759 15.619 9.26352C15.3161 8.99969 15.2763 8.53643 15.5388 8.22712L22.3457 0.257116C22.6088 -0.0465961 23.0652 -0.0864846 23.3681 0.165443L29.5581 5.27817C29.8665 5.53569 29.9119 5.99966 29.6551 6.30897C29.3982 6.62388 28.9411 6.66377 28.627 6.40624L22.9912 1.75678L16.6526 9.18304C16.504 9.34959 16.3044 9.44057 16.0985 9.44057Z" fill="#FDFDFD"/>
<path d="M28.422 39.5807C28.3759 39.5807 28.3362 39.5807 28.2964 39.5751L20.3477 38.1895C19.9478 38.1265 19.6791 37.743 19.7475 37.3476C19.8165 36.9466 20.199 36.6779 20.5926 36.7521L27.8281 38.0061L28.7305 33.0019C28.7989 32.6009 29.1758 32.3377 29.5757 32.4119C29.9749 32.4812 30.238 32.8647 30.1689 33.2657L29.1416 38.9795C29.0788 39.3343 28.7703 39.5807 28.422 39.5807Z" fill="#FDFDFD"/>
<path d="M11.4901 8.63887C11.4448 8.63887 11.405 8.63327 11.3589 8.62767C10.959 8.55279 10.6966 8.1749 10.765 7.77462L11.793 2.06006C11.8614 1.65908 12.2439 1.40155 12.6382 1.46454L20.6044 2.84454C20.998 2.91312 21.2667 3.29661 21.1983 3.69199C21.1292 4.09298 20.7642 4.3617 20.3531 4.29312L13.1009 3.03348L12.2097 8.03214C12.1413 8.38694 11.8328 8.63887 11.4901 8.63887Z" fill="#FDFDFD"/>
</svg>
