<svg width="48" height="17" viewBox="0 0 48 17" fill="none" xmlns="http://www.w3.org/2000/svg">
<path d="M25.3527 13.0803C25.3527 13.8306 24.7467 14.4382 24.0004 14.4382C23.2534 14.4382 22.6482 13.8306 22.6482 13.0803C22.6482 12.8519 22.7045 12.6374 22.804 12.4482C22.8056 12.6904 23.0013 12.8862 23.2436 12.8862C23.4866 12.8862 23.684 12.6888 23.684 12.4449C23.684 12.2011 23.4866 12.0029 23.2436 12.0029C23.2183 12.0029 23.1938 12.0062 23.1694 12.0102C23.3985 11.83 23.6873 11.7231 24.0004 11.7231C24.7475 11.7231 25.3527 12.3308 25.3527 13.0803Z" fill="#FDFDFD"/>
<mask id="mask0_340_2232" style="mask-type:luminance" maskUnits="userSpaceOnUse" x="6" y="0" width="36" height="8">
<path d="M6.03699 0.361816H41.9491V7.09942H6.03699V0.361816Z" fill="white"/>
</mask>
<g mask="url(#mask0_340_2232)">
<path d="M38.2814 2.62916H41.8512V6.314C41.8512 6.66634 41.5666 6.95261 41.2151 6.95261H38.9167C38.566 6.95261 38.2814 6.66634 38.2814 6.314V2.62916ZM40.8831 0.95312C40.8831 0.626884 40.6197 0.361816 40.2943 0.361816H39.8375C39.5129 0.361816 39.2495 0.626884 39.2495 0.95312V1.93346H40.8831V0.95312ZM6.14954 6.314C6.14954 6.66634 6.43418 6.95261 6.7857 6.95261H9.08403C9.43474 6.95261 9.71938 6.66634 9.71938 6.314V2.62916H6.14954V6.314ZM8.75127 0.95312C8.75127 0.626884 8.48784 0.361816 8.16242 0.361816H7.7065C7.38108 0.361816 7.11764 0.626884 7.11764 0.95312V1.93346H8.75127V0.95312Z" fill="#FDFDFD"/>
</g>
<path d="M48 1.14815C48 1.14815 46.5482 1.8675 44.758 1.8675C42.967 1.8675 41.5152 1.14815 41.5152 1.14815C41.5152 1.14815 42.967 0.427979 44.758 0.427979C46.5482 0.427979 48 1.14815 48 1.14815ZM35.3738 0.427979C33.5836 0.427979 32.1319 1.14815 32.1319 1.14815C32.1319 1.14815 33.5836 1.8675 35.3738 1.8675C37.1649 1.8675 38.6166 1.14815 38.6166 1.14815C38.6166 1.14815 37.1649 0.427979 35.3738 0.427979ZM3.24279 0.427979C1.45175 0.427979 0 1.14815 0 1.14815C0 1.14815 1.45175 1.8675 3.24279 1.8675C5.03301 1.8675 6.48477 1.14815 6.48477 1.14815C6.48477 1.14815 5.03383 0.427979 3.24279 0.427979ZM12.6262 0.427979C10.8351 0.427979 9.38338 1.14815 9.38338 1.14815C9.38338 1.14815 10.8351 1.8675 12.6262 1.8675C14.4172 1.8675 15.869 1.14815 15.869 1.14815C15.869 1.14815 14.4172 0.427979 12.6262 0.427979Z" fill="#FDFDFD"/>
<path d="M37.6118 5.29367L29.5889 8.57887C29.4241 9.10982 29.186 9.60896 28.8867 10.0632H19.1142C18.8141 9.60896 18.5759 9.10982 18.4112 8.57887L10.389 5.29367V4.05887L17.7285 5.34261C19.7936 4.62733 20.0513 3.23022 24.0004 3.23022C27.9495 3.23022 28.2064 4.62733 30.2715 5.34261L37.6118 4.05968V5.29367Z" fill="#FDFDFD"/>
<mask id="mask1_340_2232" style="mask-type:luminance" maskUnits="userSpaceOnUse" x="14" y="8" width="20" height="9">
<path d="M14.5974 8.77002H33.3886V16.638H14.5974V8.77002Z" fill="white"/>
</mask>
<g mask="url(#mask1_340_2232)">
<path d="M20.8212 13.3829H21.6009C21.7494 14.5794 22.7688 15.5092 24.0004 15.5092C25.2319 15.5092 26.2514 14.5794 26.3999 13.3829H27.1796C27.7358 13.3829 28.1893 12.9287 28.1893 12.3692V10.6687H27.5865V12.3692C27.5865 12.5951 27.4038 12.7786 27.1796 12.7786H26.3999C26.2628 11.6718 25.3804 10.7943 24.2744 10.6687H23.7263C22.6204 10.7943 21.7379 11.6718 21.6009 12.7786H20.8212C20.5969 12.7786 20.4142 12.5951 20.4142 12.3692V10.6687H19.8123V12.3692C19.8115 12.9287 20.2642 13.3829 20.8212 13.3829ZM24.0004 11.2567C25.0019 11.2567 25.8167 12.0747 25.8167 13.0804C25.8167 14.086 25.0019 14.904 24.0004 14.904C22.998 14.904 22.1832 14.086 22.1832 13.0804C22.1832 12.0747 22.998 11.2567 24.0004 11.2567ZM30.0619 12.666L29.6386 9.98438C29.8082 9.67935 29.9534 9.36208 30.0716 9.03421L30.384 8.90698L30.9296 12.3692L33.2435 16.6372H32.215L30.0619 12.666ZM14.7565 16.6372L17.0711 12.3692L17.6167 8.90698L17.9283 9.03421C18.0466 9.36208 18.1917 9.67935 18.3614 9.98438L17.9389 12.666L15.7857 16.6372H14.7565Z" fill="#FDFDFD"/>
</g>
</svg>
