<svg width="45" height="45" viewBox="0 0 45 45" fill="none" xmlns="http://www.w3.org/2000/svg">
<circle cx="22.5" cy="22.5" r="22.5" fill="#02554A"/>
<path d="M28.3807 12.9439C28.3809 12.7983 28.338 12.656 28.2572 12.5348C28.1765 12.4137 28.0616 12.3193 27.9271 12.2635C27.7926 12.2078 27.6446 12.1932 27.5018 12.2217C27.3591 12.2502 27.228 12.3204 27.1252 12.4235L24.1848 15.3638C24.1166 15.4322 24.0625 15.5134 24.0257 15.6027C23.9889 15.692 23.97 15.7877 23.9702 15.8843V19.9904L22.8808 21.0784C22.6629 21.0205 22.4346 21.0135 22.2135 21.0578C21.9924 21.1021 21.7844 21.1966 21.6056 21.3339C21.4268 21.4713 21.2819 21.6478 21.1821 21.85C21.0823 22.0522 21.0302 22.2746 21.0298 22.5C21.0299 22.7093 21.0747 22.916 21.1611 23.1066C21.2475 23.2971 21.3736 23.467 21.531 23.605C21.6883 23.7429 21.8733 23.8456 22.0735 23.9063C22.2737 23.967 22.4846 23.9843 22.692 23.9569C22.8995 23.9296 23.0987 23.8583 23.2763 23.7478C23.454 23.6373 23.6061 23.4902 23.7223 23.3163C23.8386 23.1423 23.9164 22.9455 23.9505 22.7391C23.9846 22.5327 23.9743 22.3214 23.9202 22.1193L25.0096 21.0299H29.1158C29.2124 21.03 29.3081 21.0112 29.3974 20.9743C29.4867 20.9375 29.5678 20.8834 29.6362 20.8152L32.5766 17.8749C32.6796 17.7721 32.7498 17.641 32.7783 17.4982C32.8068 17.3554 32.7922 17.2074 32.7365 17.0729C32.6807 16.9385 32.5863 16.8236 32.4652 16.7428C32.3441 16.6621 32.2017 16.6191 32.0561 16.6193H28.3807V12.9439ZM31.2387 21.2915C31.4917 23.1222 31.1633 24.986 30.3 26.6199C29.4367 28.2539 28.082 29.5754 26.4272 30.398C24.7723 31.2206 22.9009 31.5027 21.0772 31.2045C19.2534 30.9062 17.5693 30.0427 16.2627 28.7359C14.9561 27.429 14.0929 25.7448 13.795 23.9209C13.4972 22.0971 13.7796 20.2258 14.6025 18.5711C15.4254 16.9164 16.7473 15.562 18.3814 14.699C20.0155 13.836 21.8794 13.508 23.71 13.7613L23.1469 14.3244C22.9419 14.5292 22.7792 14.7723 22.6682 15.04C22.5572 15.3076 22.5001 15.5945 22.5 15.8843C21.1915 15.8843 19.9124 16.2723 18.8245 16.9992C17.7365 17.7262 16.8886 18.7594 16.3878 19.9683C15.8871 21.1772 15.7561 22.5074 16.0114 23.7907C16.2666 25.074 16.8967 26.2528 17.822 27.1781C18.7472 28.1033 19.926 28.7334 21.2093 28.9887C22.4927 29.2439 23.8229 29.1129 25.0318 28.6122C26.2406 28.1115 27.2739 27.2635 28.0008 26.1756C28.7278 25.0876 29.1158 23.8085 29.1158 22.5C29.7004 22.4995 30.261 22.2668 30.6742 21.8532L31.2387 21.2915ZM22.5 17.3544C21.4823 17.3544 20.4875 17.6562 19.6413 18.2216C18.7951 18.787 18.1356 19.5907 17.7461 20.5309C17.3566 21.4711 17.2547 22.5057 17.4533 23.5039C17.6518 24.502 18.1419 25.4189 18.8615 26.1385C19.5811 26.8581 20.498 27.3482 21.4962 27.5468C22.4943 27.7453 23.5289 27.6434 24.4691 27.2539C25.4094 26.8645 26.213 26.205 26.7784 25.3588C27.3438 24.5126 27.6456 23.5177 27.6456 22.5H25.6182L25.4345 22.6838C25.3991 23.2486 25.2015 23.7912 24.8654 24.2465C24.5293 24.7018 24.069 25.0504 23.5397 25.2505C23.0103 25.4506 22.4345 25.4938 21.8813 25.3747C21.328 25.2556 20.8209 24.9795 20.4207 24.5793C20.0206 24.1791 19.7444 23.672 19.6253 23.1188C19.5063 22.5655 19.5494 21.9897 19.7495 21.4604C19.9496 20.931 20.2983 20.4707 20.7535 20.1346C21.2088 19.7985 21.7514 19.6009 22.3162 19.5656L22.5 19.3818V17.3544Z" fill="white"/>
</svg>
