<svg width="45" height="45" viewBox="0 0 45 45" fill="none" xmlns="http://www.w3.org/2000/svg">
<circle cx="22.5" cy="22.5" r="22.5" fill="#02554A"/>
<path d="M23.0881 13.0908C22.9321 13.0908 22.7826 13.1528 22.6723 13.2631C22.562 13.3733 22.5 13.5229 22.5 13.6789V16.7368C22.5 18.3564 23.5903 19.7195 25.0758 20.1359C24.817 23.3585 23.8855 25.7637 23.1222 27.2468C23.3386 27.5008 23.5421 27.6902 23.7009 27.8231C24.3113 28.3335 24.8523 29.1651 24.8523 30.2024C24.8531 30.8165 24.6569 31.4147 24.2925 31.909H30.733C31.2009 31.909 31.6496 31.7231 31.9805 31.3923C32.3113 31.0614 32.4972 30.6127 32.4972 30.1448V29.7837C32.4972 29.3744 32.3572 28.9969 32.142 28.6876C31.5069 27.7737 29.7086 24.8181 29.3322 20.1347C30.0735 19.9269 30.7266 19.4824 31.1918 18.8689C31.6571 18.2555 31.909 17.5068 31.9091 16.7368V13.6789C31.9091 13.5229 31.8472 13.3733 31.7369 13.2631C31.6266 13.1528 31.477 13.0908 31.3211 13.0908H30.439C30.205 13.0908 29.9806 13.1838 29.8152 13.3492C29.6498 13.5146 29.5569 13.739 29.5569 13.9729V14.855C29.557 14.9323 29.5419 15.0088 29.5125 15.0802C29.4831 15.1516 29.4399 15.2165 29.3854 15.2712C29.2754 15.3817 29.1259 15.444 28.97 15.4443C28.814 15.4446 28.6643 15.3829 28.5538 15.2729C28.4433 15.1628 28.381 15.0133 28.3807 14.8574V14.855L28.376 13.9682C28.3748 13.7351 28.2813 13.5119 28.116 13.3475C27.9507 13.1831 27.727 13.0908 27.4939 13.0908H26.9152C26.6821 13.0908 26.4585 13.1831 26.2932 13.3475C26.1279 13.5119 26.0344 13.7351 26.0331 13.9682L26.0284 14.8574C26.0281 15.0133 25.9659 15.1628 25.8554 15.2729C25.7449 15.3829 25.5952 15.4446 25.4392 15.4443C25.2832 15.444 25.1338 15.3817 25.0237 15.2712C24.9137 15.1607 24.852 15.011 24.8523 14.855V13.9729C24.8523 13.739 24.7594 13.5146 24.5939 13.3492C24.4285 13.1838 24.2042 13.0908 23.9702 13.0908H23.0881ZM18.3836 16.6192C17.7024 16.6192 17.0359 16.8164 16.4643 17.1869C15.8928 17.5574 15.4407 18.0854 15.1626 18.7072C14.8846 19.329 14.7924 20.018 14.8973 20.691C15.0022 21.364 15.2996 21.9922 15.7537 22.4999H15.4432C15.1313 22.4999 14.8321 22.6238 14.6116 22.8444C14.391 23.065 14.2671 23.3641 14.2671 23.676C14.2671 23.988 14.391 24.2871 14.6116 24.5077C14.8321 24.7283 15.1313 24.8522 15.4432 24.8522H16.0548C15.6173 26.9669 14.4635 28.1877 13.8201 28.7252C13.4132 29.0663 13.0909 29.5908 13.0909 30.2024C13.0909 31.1445 13.8554 31.909 14.7975 31.909H21.9708C22.9117 31.909 23.6762 31.1445 23.6762 30.2024C23.6762 29.5908 23.3539 29.0663 22.947 28.7252C22.3036 28.1877 21.1498 26.9669 20.7123 24.8522H21.3239C21.6358 24.8522 21.935 24.7283 22.1556 24.5077C22.3761 24.2871 22.5 23.988 22.5 23.676C22.5 23.3641 22.3761 23.065 22.1556 22.8444C21.935 22.6238 21.6358 22.4999 21.3239 22.4999H21.0134C21.4675 21.9922 21.7649 21.364 21.8698 20.691C21.9747 20.018 21.8825 19.329 21.6045 18.7072C21.3264 18.0854 20.8743 17.5574 20.3028 17.1869C19.7312 16.8164 19.0647 16.6192 18.3836 16.6192Z" fill="white"/>
</svg>
