<svg width="63" height="74" viewBox="0 0 63 74" fill="none" xmlns="http://www.w3.org/2000/svg">
<mask id="mask0_340_1252" style="mask-type:luminance" maskUnits="userSpaceOnUse" x="0" y="0" width="63" height="74">
<path d="M0 0H62.0427V74H0V0Z" fill="white"/>
</mask>
<g mask="url(#mask0_340_1252)">
<path d="M45.5393 15.7953C32.8121 4.11995 11.6894 12.005 9.53197 29.1231C8.58159 36.4752 11.3425 43.7229 16.9235 48.5058C20.2287 51.3175 22.3438 54.7891 23.5226 58.6667C22.7612 59.0277 22.2423 59.792 22.2423 60.6831C22.3015 61.6363 21.9997 63.4666 22.7471 64.1998C21.9997 64.9359 22.2874 66.7802 22.2423 67.7165C22.2423 69.042 23.3929 70.0516 24.7014 69.9501C24.6309 72.1413 26.385 73.9997 28.5847 73.9856H33.5453C35.6886 73.9856 37.4286 72.2428 37.4286 70.0939V69.9501C38.7372 70.0516 39.8878 69.042 39.8878 67.7165C39.8285 66.7802 40.1303 64.9359 39.383 64.1998C40.1303 63.4666 39.8426 61.6222 39.8878 60.6831C39.8878 59.792 39.3548 59.0277 38.6074 58.6667C39.758 54.8342 41.6983 51.4049 45.0063 48.6948C55.0713 40.508 55.3166 24.2979 45.5393 15.7953ZM35.7591 70.0798C35.7591 71.3206 34.7523 72.3133 33.5312 72.3133H28.5706C27.2762 72.3133 26.2694 71.2191 26.3399 69.936H35.7591V70.0798ZM38.2183 67.7024C38.2183 68.0183 37.9616 68.2777 37.6429 68.2777H24.4589C24.1402 68.2777 23.8836 68.0183 23.8836 67.7024V65.5845C23.8836 65.2658 24.1402 65.0064 24.4589 65.0064H37.6429C37.9616 65.0064 38.2183 65.2658 38.2183 65.5845V67.7024ZM38.2183 62.7898C38.2183 63.1056 37.9616 63.3651 37.6429 63.3651H24.4589C24.1402 63.3651 23.8836 63.1056 23.8836 62.7898V60.669C23.8836 60.3532 24.1402 60.0937 24.4589 60.0937H37.6429C37.9616 60.0937 38.2183 60.3532 38.2183 60.669V62.7898ZM43.929 47.4116C40.291 50.3812 38.1759 54.2138 36.9097 58.4496H25.1921C23.8977 54.1715 21.6106 50.322 17.9867 47.2537C4.78571 35.9112 11.4581 14.0355 28.7567 12.0332C40.4038 10.4765 51.3036 20.2905 51.1034 32.0053C51.1175 37.9586 48.5004 43.5791 43.929 47.4116ZM21.4667 19.123C18.4605 19.6419 16.3341 22.5241 16.7656 25.5924C12.149 27.5241 12.1631 34.3855 16.8079 36.2863C16.2326 39.4279 18.39 42.499 21.4808 43.0179C23.4803 47.657 30.4686 46.2159 30.4827 41.1425V20.9956C30.4404 15.925 23.5085 14.498 21.4667 19.123ZM28.8301 41.1425C28.8301 44.5436 23.9823 45.3642 22.905 42.1239C22.8035 41.3004 23.579 39.7747 24.6168 39.3997C25.0314 39.2107 25.2062 38.7228 25.0173 38.3055C24.8311 37.8853 24.3433 37.6991 23.9259 37.8994C22.5891 38.4493 21.4808 39.9891 21.3229 41.2722C19.5829 40.7533 18.3618 39.1684 18.3618 37.2818C18.3449 36.4893 18.5479 35.5361 19.4955 35.3923C19.941 35.3218 20.2428 34.8875 20.1723 34.4419C19.7972 33.0882 18.0431 34.0386 17.4537 34.7578C14.1767 33.4464 14.0752 28.6494 17.2817 27.1801C17.7695 28.3899 19.7972 29.7295 20.8491 29.8028C21.2806 29.8874 21.7403 29.5998 21.8249 29.1542C21.9123 28.7058 21.6247 28.2743 21.1791 28.1728C17.1519 27.3239 17.7131 21.8754 21.3088 20.8658C21.509 21.9036 22.2423 23.3024 23.3788 23.5337C24.1543 23.5619 24.5153 22.4677 23.8667 22.0334C21.7403 20.4767 23.5649 17.9273 25.7815 17.9414C27.4623 17.9414 28.8301 19.3091 28.8301 20.9956V41.1425ZM45.3503 25.6093C45.7677 22.5382 43.6413 19.6419 40.6492 19.1371C38.6074 14.5262 31.6756 15.925 31.6474 21.0097V41.1566C31.6474 43.7511 33.7455 45.869 36.3485 45.869C38.2465 45.869 39.9301 44.7466 40.6633 43.032C43.7541 42.5131 45.9115 39.442 45.3362 36.3004C49.9528 34.3996 49.9669 27.5382 45.3503 25.6093ZM44.6481 34.7578C44.0869 34.0668 42.2877 33.0882 41.9295 34.4419C41.8562 34.8875 42.158 35.3218 42.6064 35.3923C43.5539 35.522 43.7541 36.4893 43.74 37.2818C43.74 39.1684 42.5189 40.7533 40.7789 41.2722C40.621 39.975 39.5127 38.4352 38.176 37.8994C37.7586 37.7132 37.2707 37.8853 37.0817 38.3055C36.8956 38.7228 37.0676 39.2107 37.485 39.3997C38.5341 39.7607 39.3125 41.2863 39.1968 42.1239C38.7795 43.3619 37.6288 44.1995 36.3203 44.1995C34.6395 44.1995 33.2718 42.8289 33.2718 41.1425V20.9956C33.3 17.5522 38.0885 16.7879 39.1968 20.0311C39.3125 20.6064 38.7231 21.7739 38.2183 22.0334C37.5724 22.4677 37.9306 23.5619 38.709 23.5337C39.8596 23.2883 40.5477 21.9347 40.793 20.8658C44.3887 21.8895 44.9358 27.3239 40.9227 28.1728C40.4772 28.2602 40.1895 28.7058 40.2741 29.1542C40.3615 29.5998 40.8071 29.8874 41.2527 29.8028C42.3018 29.7295 44.3295 28.3899 44.8202 27.1801C48.0266 28.6494 47.9251 33.4464 44.6481 34.7578ZM12.4226 49.789C12.7385 50.1077 12.7385 50.6407 12.4226 50.9565L10.4513 52.9306C10.1355 53.2493 9.60248 53.2493 9.28662 52.9306C8.97077 52.6148 8.97077 52.0818 9.28662 51.7631L11.2579 49.789C11.5737 49.4731 12.1039 49.4731 12.4226 49.789ZM52.8293 9.29487C53.1452 9.61072 53.1452 10.1437 52.8293 10.4624L50.858 12.4365C50.5422 12.7523 50.012 12.7523 49.6933 12.4365C49.3775 12.1206 49.3775 11.5848 49.6933 11.269L51.6646 9.29487C51.9945 8.97902 52.5134 8.97902 52.8293 9.29487ZM3.88045 31.9489H1.09135C0.0112405 31.9489 0.0112405 30.2907 1.09135 30.2907H3.88045C4.95773 30.2907 4.95773 31.9489 3.88045 31.9489ZM61.0246 31.9489H58.2355C57.7758 31.9489 57.4176 31.5738 57.4176 31.1283C57.4176 30.6799 57.7899 30.3048 58.2355 30.3048H61.0246C62.1047 30.2907 62.1047 31.9489 61.0246 31.9489ZM9.28662 10.4624C8.97077 10.1437 8.97077 9.61072 9.28662 9.29487C9.60248 8.97902 10.1355 8.97902 10.4513 9.29487L12.4226 11.269C13.184 12.0332 12.0193 13.2007 11.2579 12.4365L9.28662 10.4624ZM52.8293 51.7772C53.3623 52.2679 52.9449 53.2183 52.2399 53.1901C52.0227 53.1901 51.8225 53.1055 51.6505 52.9447L49.6792 50.9706C48.9178 50.2064 50.0825 49.0417 50.8439 49.8031C50.858 49.789 52.8293 51.7772 52.8293 51.7772ZM30.2373 3.87742V1.07986C30.2373 -0.000251293 31.8927 -0.000251293 31.8927 1.07986V3.87742C31.8786 4.97162 30.2373 4.97162 30.2373 3.87742Z" fill="#FDFDFD"/>
</g>
</svg>
