<svg width="76" height="80" viewBox="0 0 76 80" fill="none" xmlns="http://www.w3.org/2000/svg">
<path d="M6.93108 21.678C6.95526 21.8217 6.94989 21.9654 6.91631 22.1064C6.88273 22.2488 6.82362 22.3791 6.73766 22.4973C6.65303 22.6155 6.54826 22.7122 6.42334 22.7888C6.29976 22.8654 6.16544 22.9164 6.02171 22.9393C5.87799 22.9621 5.73426 22.9581 5.59188 22.9245C5.45084 22.8909 5.32055 22.8318 5.20234 22.7458C5.0828 22.6612 4.98608 22.5564 4.90952 22.4315C4.83296 22.3079 4.78191 22.1736 4.75908 22.0299C4.73624 21.8862 4.74027 21.7438 4.77385 21.6014C4.80743 21.4604 4.86788 21.3301 4.9525 21.2119C5.03847 21.0937 5.14324 20.9956 5.26682 20.919C5.3904 20.8425 5.52472 20.7928 5.66844 20.7699C5.81351 20.7458 5.9559 20.7511 6.09828 20.7847C6.24066 20.8183 6.36961 20.8774 6.48916 20.9634C6.60736 21.048 6.70408 21.1528 6.78064 21.2763C6.85855 21.4013 6.90825 21.5342 6.93108 21.678Z" fill="#FDFDFD"/>
<path d="M9.15816 24.1058C9.15816 24.2159 9.13801 24.3234 9.09503 24.4254C9.05339 24.5275 8.99294 24.6175 8.91369 24.6954C8.83579 24.7733 8.74579 24.8338 8.6437 24.8768C8.54028 24.9184 8.43416 24.9399 8.32401 24.9399C8.21253 24.9399 8.10641 24.9184 8.00433 24.8768C7.90224 24.8338 7.8109 24.7733 7.73299 24.6954C7.65509 24.6175 7.59464 24.5275 7.55166 24.4254C7.51002 24.3234 7.48853 24.2159 7.48853 24.1058C7.48853 23.9956 7.51002 23.8895 7.55166 23.7861C7.59464 23.684 7.65509 23.594 7.73299 23.5161C7.8109 23.4382 7.90224 23.3777 8.00433 23.3347C8.10641 23.2931 8.21253 23.2716 8.32401 23.2716C8.43416 23.2716 8.54028 23.2931 8.6437 23.3347C8.74579 23.3777 8.83579 23.4382 8.91369 23.5161C8.99294 23.594 9.05339 23.684 9.09503 23.7861C9.13801 23.8895 9.15816 23.9956 9.15816 24.1058Z" fill="#FDFDFD"/>
<path d="M37.8644 17.0849C37.6763 16.8378 37.3231 16.7908 37.0746 16.9788L34.2968 19.0917C34.6218 19.3026 34.8905 19.582 35.0839 19.9084L37.7583 17.8734C38.0054 17.6854 38.0538 17.3321 37.8644 17.0849Z" fill="#FDFDFD"/>
<mask id="mask0_340_1357" style="mask-type:luminance" maskUnits="userSpaceOnUse" x="6" y="18" width="29" height="62">
<path d="M6.39508 18.9121H34.936V79.0902H6.39508V18.9121Z" fill="white"/>
</mask>
<g mask="url(#mask0_340_1357)">
<path d="M11.4778 42.4844L13.545 52.6822V76.1176C13.545 77.7604 14.8788 79.0915 16.5229 79.0915C18.1671 79.0915 19.5009 77.7604 19.5009 76.1176V54.2887L20.6171 54.0631V76.1176C20.6171 77.7604 21.9509 79.0915 23.5951 79.0915C25.2392 79.0915 26.573 77.7604 26.573 76.1176V51.7702C26.573 51.5915 26.5542 51.4169 26.5233 51.2477C26.5193 51.1577 26.5099 51.0677 26.4911 50.9777L23.5292 36.366L31.7256 32.253C32.2414 31.9924 32.6148 31.5156 32.7411 30.9528L34.8352 21.5918C35.0676 20.5535 34.4134 19.5259 33.3751 19.2935C32.3368 19.0625 31.3065 19.7153 31.0742 20.7523L29.1789 29.2227L20.7393 33.4593L12.1131 35.2028C11.8606 35.231 11.6121 35.3089 11.3851 35.4365C11.1675 35.5547 10.9794 35.7145 10.829 35.9026C10.4918 36.2747 10.1721 36.7233 9.87126 37.2257C7.98537 40.3769 6.82616 45.5819 6.58438 46.7452C6.42319 47.5162 6.74825 48.3073 7.40644 48.7425C7.72881 48.9548 8.09954 49.0622 8.47028 49.0622C8.85444 49.0622 9.2386 48.9467 9.56904 48.7184L11.8552 47.132L10.923 42.5314L11.4778 42.4844Z" fill="#FDFDFD"/>
</g>
<path d="M20.538 27.4677C20.5514 27.8223 20.5312 28.1756 20.4748 28.5262C20.4184 28.8781 20.3284 29.2193 20.2048 29.5538C20.0813 29.8869 19.9268 30.2039 19.7401 30.5075C19.5547 30.8097 19.3398 31.0918 19.098 31.3523C18.8562 31.6129 18.5916 31.848 18.3042 32.0562C18.0154 32.2644 17.7105 32.443 17.3867 32.5921C17.063 32.7399 16.7286 32.8554 16.3834 32.9387C16.0368 33.0206 15.6862 33.069 15.3303 33.0824C14.9743 33.0959 14.621 33.0757 14.2705 33.0193C13.9185 32.9629 13.576 32.8729 13.2429 32.7506C12.9084 32.6271 12.5901 32.4726 12.2878 32.2859C11.9843 32.1005 11.7022 31.887 11.4416 31.6452C11.1797 31.4034 10.9446 31.1388 10.7364 30.8513C10.5269 30.5639 10.3482 30.2576 10.2005 29.9352C10.0514 29.6129 9.93585 29.2784 9.85257 28.9318C9.77063 28.5866 9.72227 28.2361 9.70884 27.8814C9.69541 27.5255 9.7169 27.1736 9.77197 26.8216C9.82839 26.471 9.91838 26.1285 10.042 25.7954C10.1655 25.4623 10.32 25.1439 10.5067 24.8417C10.6921 24.5395 10.907 24.2574 11.1488 23.9968C11.3906 23.7362 11.6552 23.5012 11.9426 23.293C12.2314 23.0834 12.5363 22.9048 12.8601 22.757C13.1838 22.6079 13.5182 22.4924 13.8648 22.4105C14.21 22.3272 14.5606 22.2802 14.9165 22.2667C15.2725 22.252 15.6258 22.2734 15.9764 22.3299C16.3283 22.3863 16.6708 22.4749 17.0039 22.5985C17.3384 22.7221 17.6567 22.8766 17.9603 23.0633C18.2625 23.2486 18.5446 23.4622 18.8065 23.704C19.0671 23.9458 19.3022 24.2104 19.5104 24.4978C19.7199 24.7853 19.8986 25.0915 20.0463 25.4139C20.1954 25.7363 20.311 26.0708 20.3942 26.416C20.4762 26.7625 20.5245 27.1131 20.538 27.4677Z" fill="#FDFDFD"/>
<mask id="mask1_340_1357" style="mask-type:luminance" maskUnits="userSpaceOnUse" x="0" y="0" width="20" height="20">
<path d="M0 0H19.1182V19.9443H0V0Z" fill="white"/>
</mask>
<g mask="url(#mask1_340_1357)">
<path d="M19.0066 9.48455C19.0066 4.25535 14.7459 0 9.50995 0C4.27403 0 0.0133057 4.25535 0.0133057 9.48455C0.0133057 13.0683 2.01472 16.194 4.95908 17.8072C4.95236 17.8663 4.94968 17.9268 4.94968 17.9885C4.94968 18.9906 5.76233 19.8019 6.76573 19.8019C7.43734 19.8019 8.02299 19.4365 8.33731 18.8952C8.72147 18.9422 9.11235 18.9704 9.50995 18.9704C14.7459 18.9704 19.0066 14.7151 19.0066 9.48455ZM9.50995 0.961753C14.2153 0.961753 18.0435 4.78593 18.0435 9.48455C18.0435 14.1845 14.2153 18.0074 9.50995 18.0074C4.80461 18.0074 0.977745 14.1845 0.977745 9.48455C0.977745 4.78593 4.80461 0.961753 9.50995 0.961753Z" fill="#FDFDFD"/>
</g>
<path d="M6.67178 11.0695C7.25474 11.8714 7.93307 13.0373 7.93307 14.124C7.93307 16.0247 11.087 16.0247 11.087 14.124C11.087 13.0373 11.7653 11.8714 12.3483 11.0695C13.2764 10.2716 13.8661 9.09092 13.8661 7.77187C13.8661 5.36883 11.9158 3.4198 9.51003 3.4198C7.1043 3.4198 5.15393 5.36883 5.15393 7.77187C5.15393 9.09092 5.74361 10.2716 6.67178 11.0695ZM9.51003 4.31976C11.4147 4.31976 12.9648 5.86851 12.9648 7.77187C12.9648 8.77526 12.5256 9.72896 11.7586 10.3871L11.6793 10.4556L11.6162 10.5416C11.2912 10.9902 11.0252 11.4255 10.8103 11.8486H8.21112C7.99486 11.4255 7.7289 10.9889 7.4025 10.5403L7.34071 10.4556L7.26146 10.3871C6.49447 9.72896 6.05524 8.77526 6.05524 7.77187C6.05524 5.86851 7.60533 4.31976 9.51003 4.31976Z" fill="#FDFDFD"/>
<path d="M7.30312 7.96908C7.4361 7.96908 7.54356 7.86027 7.54356 7.72864C7.54356 6.60973 8.45427 5.69902 9.57453 5.69902C9.7075 5.69902 9.81496 5.59156 9.81496 5.45858C9.81496 5.3256 9.7075 5.21814 9.57453 5.21814C8.18965 5.21814 7.06134 6.34377 7.06134 7.72864C7.06134 7.86027 7.1688 7.96908 7.30312 7.96908Z" fill="#FDFDFD"/>
<mask id="mask2_340_1357" style="mask-type:luminance" maskUnits="userSpaceOnUse" x="27" y="2" width="49" height="36">
<path d="M27.1992 2.06274H76.0001V37.8249H27.1992V2.06274Z" fill="white"/>
</mask>
<g mask="url(#mask2_340_1357)">
<path d="M28.2777 27.0349V3.21676H75.0302V36.5665H28.2777V32.968L27.3146 33.4515V37.5282H75.9933V2.25366H27.3146V27.9053L28.181 27.4715L28.2777 27.0349Z" fill="#FDFDFD"/>
</g>
<mask id="mask3_340_1357" style="mask-type:luminance" maskUnits="userSpaceOnUse" x="42" y="11" width="19" height="14">
<path d="M42.4152 11.8635H60.984V24.5006H42.4152V11.8635Z" fill="white"/>
</mask>
<g mask="url(#mask3_340_1357)">
<path d="M54.6314 24.3825H44.8583C44.7783 24.3825 44.6989 24.3789 44.6189 24.3711C44.5394 24.3633 44.4605 24.3519 44.3821 24.3363C44.3037 24.3212 44.2263 24.302 44.1495 24.2791C44.0732 24.2562 43.998 24.2303 43.9238 24.2001C43.8502 24.17 43.7776 24.1367 43.7072 24.0998C43.6367 24.0629 43.5684 24.0224 43.5016 23.9788C43.4354 23.9356 43.3713 23.8889 43.3094 23.8395C43.2474 23.7896 43.188 23.7371 43.1319 23.6815C43.0752 23.6265 43.0217 23.5688 42.9709 23.508C42.92 23.4477 42.8723 23.3848 42.8278 23.3199C42.7833 23.2549 42.7425 23.1879 42.7044 23.1188C42.6668 23.0497 42.6329 22.979 42.6022 22.9068C42.5714 22.8346 42.5444 22.7608 42.5211 22.686C42.4978 22.6111 42.4782 22.5353 42.4628 22.4584C42.4469 22.382 42.4353 22.3046 42.4273 22.2266C42.4194 22.1487 42.4152 22.0707 42.4152 21.9923V14.3435C42.4152 14.265 42.4194 14.1871 42.4273 14.1091C42.4353 14.0312 42.4469 13.9543 42.4628 13.8774C42.4782 13.8005 42.4978 13.7246 42.5211 13.6498C42.5444 13.575 42.5714 13.5017 42.6022 13.429C42.6329 13.3567 42.6668 13.2861 42.7044 13.2175C42.7425 13.1484 42.7833 13.0813 42.8278 13.0164C42.8723 12.9509 42.92 12.8886 42.9709 12.8278C43.0217 12.7675 43.0752 12.7093 43.1319 12.6542C43.188 12.5986 43.2474 12.5461 43.3094 12.4968C43.3713 12.4469 43.4354 12.4006 43.5016 12.357C43.5684 12.3133 43.6367 12.2733 43.7072 12.2364C43.7776 12.1995 43.8502 12.1658 43.9238 12.1362C43.998 12.106 44.0732 12.0795 44.1495 12.0567C44.2263 12.0338 44.3037 12.0151 44.3821 11.9995C44.4605 11.9844 44.5394 11.9725 44.6189 11.9652C44.6989 11.9574 44.7783 11.9532 44.8583 11.9532H54.6314C54.7114 11.9532 54.7914 11.9574 54.8708 11.9652C54.9503 11.9725 55.0292 11.9844 55.1082 11.9995C55.1866 12.0151 55.2639 12.0338 55.3402 12.0567C55.417 12.0795 55.4922 12.106 55.5658 12.1362C55.64 12.1658 55.7121 12.1995 55.7825 12.2364C55.853 12.2733 55.9218 12.3133 55.988 12.357C56.0548 12.4006 56.1189 12.4469 56.1809 12.4968C56.2423 12.5461 56.3017 12.5986 56.3583 12.6542C56.415 12.7093 56.4685 12.7675 56.5194 12.8278C56.5697 12.8886 56.6174 12.9509 56.6619 13.0164C56.7064 13.0813 56.7477 13.1484 56.7853 13.2175C56.8229 13.2861 56.8573 13.3567 56.8881 13.429C56.9188 13.5017 56.9458 13.575 56.9686 13.6498C56.9919 13.7246 57.0115 13.8005 57.0274 13.8774C57.0427 13.9543 57.0549 14.0312 57.0629 14.1091C57.0708 14.1871 57.0745 14.265 57.0745 14.3435V15.8732L60.236 13.9403C60.3112 13.894 60.3933 13.8701 60.4818 13.8675C60.5703 13.8649 60.6534 13.8847 60.7313 13.9268C60.8086 13.9688 60.8701 14.027 60.9156 14.1013C60.9607 14.1762 60.9835 14.2567 60.984 14.3435V21.9923C60.984 22.0796 60.9612 22.1601 60.9162 22.2349C60.8711 22.3098 60.8097 22.3685 60.7324 22.4106C60.6545 22.4527 60.5713 22.4724 60.4823 22.4703C60.3939 22.4682 60.3117 22.4438 60.236 22.3981L57.0745 20.4651V21.9923C57.0745 22.0707 57.0708 22.1487 57.0629 22.2266C57.0549 22.3046 57.0427 22.382 57.0274 22.4584C57.0115 22.5353 56.9919 22.6111 56.9686 22.686C56.9458 22.7608 56.9188 22.8346 56.8881 22.9068C56.8573 22.979 56.8229 23.0497 56.7853 23.1188C56.7477 23.1879 56.7064 23.2549 56.6619 23.3199C56.6174 23.3848 56.5697 23.4477 56.5194 23.508C56.4685 23.5688 56.415 23.6265 56.3583 23.6815C56.3017 23.7371 56.2423 23.7896 56.1809 23.8395C56.1189 23.8889 56.0548 23.9356 55.988 23.9788C55.9218 24.0224 55.853 24.0629 55.7825 24.0998C55.7121 24.1367 55.64 24.17 55.5658 24.2001C55.4922 24.2303 55.417 24.2562 55.3402 24.2791C55.2639 24.302 55.1866 24.3212 55.1082 24.3363C55.0292 24.3519 54.9503 24.3633 54.8708 24.3711C54.7914 24.3789 54.7114 24.3825 54.6314 24.3825ZM44.8583 12.9093C44.7624 12.9093 44.6671 12.9187 44.5722 12.9369C44.478 12.9551 44.3863 12.9826 44.2973 13.0185C44.2083 13.0543 44.1241 13.0985 44.0441 13.151C43.9641 13.2034 43.8899 13.2627 43.8221 13.3292C43.7538 13.3957 43.6929 13.4685 43.6394 13.5469C43.5859 13.6249 43.5408 13.7075 43.5043 13.7948C43.4672 13.8815 43.4397 13.9714 43.4206 14.0639C43.4021 14.1559 43.3925 14.2494 43.3925 14.3435V21.9923C43.3925 22.0868 43.4021 22.1799 43.4206 22.2723C43.4397 22.3648 43.4672 22.4542 43.5043 22.5415C43.5408 22.6283 43.5859 22.7109 43.6394 22.7894C43.6929 22.8673 43.7538 22.9401 43.8221 23.0066C43.8899 23.0731 43.9641 23.1328 44.0441 23.1848C44.1241 23.2373 44.2083 23.2814 44.2973 23.3173C44.3863 23.3537 44.478 23.3807 44.5722 23.3989C44.6671 23.4176 44.7624 23.4264 44.8583 23.4264H54.6314C54.7278 23.4264 54.8232 23.4176 54.9175 23.3989C55.0117 23.3807 55.1034 23.3537 55.1924 23.3173C55.2814 23.2814 55.3656 23.2373 55.4461 23.1848C55.5261 23.1328 55.5998 23.0731 55.6681 23.0066C55.7359 22.9401 55.7968 22.8673 55.8503 22.7894C55.9038 22.7109 55.9488 22.6283 55.9859 22.5415C56.0225 22.4542 56.0506 22.3648 56.0691 22.2723C56.0882 22.1799 56.0972 22.0868 56.0972 21.9923V19.602C56.0972 19.5153 56.12 19.4342 56.165 19.3594C56.21 19.2845 56.2715 19.2263 56.3493 19.1843C56.4267 19.1416 56.5098 19.1219 56.5988 19.1245C56.6878 19.1266 56.7699 19.1505 56.8452 19.1967L60.0066 21.1318V15.204L56.8452 17.1375C56.7699 17.1832 56.6878 17.2076 56.5994 17.2097C56.5109 17.2123 56.4277 17.1926 56.3499 17.1505C56.2725 17.1084 56.2111 17.0502 56.1655 16.9759C56.1205 16.9011 56.0977 16.8205 56.0972 16.7337V14.3435C56.0972 14.2494 56.0882 14.1559 56.0691 14.0639C56.0506 13.9714 56.0225 13.8815 55.9859 13.7948C55.9488 13.7075 55.9038 13.6249 55.8503 13.5469C55.7968 13.4685 55.7359 13.3957 55.6681 13.3292C55.5998 13.2627 55.5261 13.2034 55.4461 13.151C55.3656 13.0985 55.2814 13.0543 55.1924 13.0185C55.1034 12.9826 55.0117 12.9551 54.9175 12.9369C54.8232 12.9187 54.7278 12.9093 54.6314 12.9093H44.8583Z" fill="#FDFDFD"/>
</g>
</svg>
