<svg width="64" height="60" viewBox="0 0 64 60" fill="none" xmlns="http://www.w3.org/2000/svg">
<path d="M2.81683 18.9723L7.61649 16.3889C7.68223 16.3539 7.74467 16.3122 7.80274 16.264C7.85971 16.2169 7.91229 16.1632 7.9605 16.1052C8.00761 16.0471 8.04924 15.9847 8.0843 15.9189C8.11936 15.8521 8.14784 15.7831 8.16975 15.7108C8.19057 15.6396 8.20481 15.5662 8.21248 15.4917C8.22015 15.4161 8.21905 15.3416 8.21248 15.2671C8.20481 15.1926 8.18947 15.1192 8.16756 15.0469C8.14565 14.9756 8.11716 14.9066 8.08211 14.8398C8.04595 14.7741 8.00542 14.7116 7.95721 14.6536C7.90901 14.5966 7.85642 14.5429 7.79836 14.4958C7.74029 14.4487 7.67894 14.4071 7.61211 14.372C7.54638 14.3358 7.47736 14.3074 7.40505 14.2865C7.33384 14.2646 7.26043 14.2504 7.18594 14.2427C7.11144 14.2361 7.03694 14.2361 6.96244 14.2438C6.88794 14.2504 6.81454 14.2657 6.74223 14.2876C6.67102 14.3095 6.602 14.338 6.53627 14.3742L1.7377 16.9564C1.54707 17.0605 1.3674 17.181 1.20088 17.3202C1.03435 17.4593 0.882068 17.6127 0.745122 17.7814C0.608177 17.9501 0.488761 18.1298 0.387969 18.3215C0.286082 18.5143 0.203914 18.7137 0.141467 18.9219C0.0790199 19.13 0.0373887 19.3426 0.0154775 19.5584C-0.00533828 19.7742 -0.00533821 19.9911 0.016573 20.207C0.0373888 20.4239 0.0801158 20.6353 0.142563 20.8435C0.20501 21.0516 0.287177 21.251 0.389064 21.4428L6.07065 32.0303C6.10571 32.096 6.14734 32.1585 6.19555 32.2165C6.24266 32.2746 6.29634 32.3272 6.3544 32.3743C6.41247 32.4214 6.47382 32.463 6.54065 32.4981C6.60638 32.5331 6.6754 32.5616 6.74771 32.5835C6.81892 32.6043 6.89232 32.6186 6.96682 32.6263C7.04132 32.6328 7.11582 32.6328 7.19032 32.6252C7.26482 32.6175 7.33822 32.6033 7.40943 32.5813C7.48174 32.5594 7.54966 32.5299 7.61649 32.4948C7.68223 32.4597 7.74358 32.4181 7.80164 32.3699C7.85971 32.3217 7.91229 32.2691 7.9594 32.211C8.00651 32.153 8.04814 32.0905 8.0832 32.0248C8.11826 31.958 8.14674 31.8889 8.16866 31.8177C8.19057 31.7454 8.20481 31.672 8.21138 31.5975C8.21905 31.523 8.21905 31.4485 8.21138 31.3729C8.20371 31.2984 8.18947 31.225 8.16756 31.1538C8.14565 31.0815 8.11716 31.0125 8.08211 30.9468L2.40052 20.3592C2.33698 20.2398 2.29863 20.1127 2.28439 19.9769C2.27124 19.8421 2.28439 19.7096 2.32383 19.5803C2.36217 19.4499 2.42462 19.3327 2.51007 19.2275C2.59553 19.1213 2.69851 19.0369 2.81683 18.9723Z" fill="#FDFDFD"/>
<mask id="mask0_384_672" style="mask-type:luminance" maskUnits="userSpaceOnUse" x="10" y="7" width="42" height="53">
<path d="M10.1297 7.86218H51.9189V60H10.1297V7.86218Z" fill="white"/>
</mask>
<g mask="url(#mask0_384_672)">
<path d="M50.6381 31.7465C50.5625 31.7465 50.488 31.7542 50.4146 31.7684C50.3412 31.7837 50.27 31.8046 50.201 31.8341C50.1308 31.8626 50.0651 31.8977 50.0027 31.9393C49.9413 31.9809 49.8832 32.028 49.8307 32.0817C49.777 32.1343 49.7299 32.1924 49.6882 32.2548C49.6466 32.3173 49.6115 32.383 49.5831 32.4531C49.5535 32.5221 49.5327 32.5934 49.5173 32.6679C49.5031 32.7413 49.4954 32.8158 49.4954 32.8903V46.4687L43.6834 41.5616C43.5301 41.4356 43.3668 41.3239 43.1937 41.2264C43.0206 41.13 42.8399 41.0489 42.6525 40.9843C42.4652 40.9185 42.2735 40.8714 42.0774 40.8408C41.8812 40.8101 41.684 40.7969 41.4858 40.8013C41.2875 40.8057 41.0903 40.8276 40.8963 40.867C40.7013 40.9065 40.5118 40.9635 40.3277 41.0369C40.1437 41.1103 39.9662 41.199 39.7986 41.3042C39.6299 41.4094 39.471 41.5288 39.3242 41.6613L21.7569 57.7464C21.6572 57.7562 21.5586 57.7727 21.46 57.7727H13.561C13.4262 57.7716 13.2969 57.7442 13.1731 57.6916C13.0493 57.639 12.9398 57.5656 12.8445 57.4703C12.7491 57.3739 12.6757 57.2643 12.6232 57.1405C12.5706 57.0167 12.5443 56.8864 12.5421 56.7516V11.3537C12.5421 11.2189 12.5684 11.0886 12.6199 10.9637C12.6725 10.8388 12.7459 10.7292 12.8412 10.6328C12.9365 10.5375 13.0471 10.4641 13.1709 10.4126C13.2958 10.36 13.4262 10.3348 13.561 10.3337H48.4667C49.2577 10.2921 49.4362 11.3537 50.2612 11.2858C50.3368 11.2858 50.4102 11.2781 50.4847 11.2627C50.5581 11.2485 50.6293 11.2266 50.6983 11.197C50.7685 11.1685 50.8342 11.1335 50.8966 11.0907C50.958 11.0491 51.016 11.002 51.0686 10.9483C51.1223 10.8946 51.1694 10.8366 51.2111 10.7741C51.2527 10.7117 51.2878 10.6459 51.3162 10.5758C51.3447 10.5068 51.3666 10.4345 51.3809 10.3611C51.3962 10.2877 51.4028 10.2132 51.4028 10.1376C51.3568 9.98203 51.2987 9.83085 51.2275 9.68514C51.1563 9.53833 51.073 9.40029 50.9788 9.26773C50.8846 9.13516 50.7805 9.01137 50.6655 8.89743C50.5504 8.78239 50.4277 8.67831 50.2952 8.5841C50.1637 8.48988 50.0246 8.40771 49.8778 8.3365C49.7321 8.26529 49.582 8.20722 49.4264 8.16121C49.2708 8.1152 49.112 8.08342 48.9509 8.0637C48.7899 8.04398 48.6288 8.03851 48.4667 8.04618H13.561C13.344 8.04618 13.1293 8.06809 12.9168 8.10972C12.7042 8.15244 12.4983 8.21599 12.2978 8.29925C12.0973 8.38251 11.9077 8.4844 11.727 8.60491C11.5473 8.72542 11.3808 8.86237 11.2274 9.01575C11.074 9.16913 10.9371 9.33675 10.8166 9.51752C10.6961 9.69719 10.5942 9.88782 10.5109 10.0883C10.4276 10.2888 10.3652 10.4959 10.3225 10.7084C10.2808 10.922 10.2589 11.1368 10.2589 11.3537V56.7516C10.2589 56.9696 10.2808 57.1844 10.3225 57.3969C10.3652 57.6105 10.4276 57.8165 10.5109 58.0181C10.5942 58.2186 10.6961 58.4092 10.8166 58.5889C10.9371 58.7696 11.074 58.9373 11.2274 59.0906C11.3797 59.244 11.5473 59.381 11.727 59.5015C11.9077 59.6231 12.0973 59.725 12.2978 59.8082C12.4983 59.8915 12.7042 59.9539 12.9168 59.9967C13.1293 60.0394 13.344 60.0602 13.561 60.0613H21.46C22.0768 60.0613 22.6749 59.9572 23.2556 59.748L49.5743 50.5102C49.7342 50.4543 49.8898 50.3853 50.0388 50.3053C50.1889 50.2253 50.3313 50.1333 50.4661 50.0314C50.6019 49.9295 50.729 49.8167 50.8473 49.6951C50.9657 49.5735 51.073 49.4431 51.1716 49.304C51.2702 49.1648 51.3568 49.0202 51.4324 48.8679C51.508 48.7157 51.5715 48.559 51.623 48.3969C51.6745 48.2347 51.7139 48.0693 51.7402 47.9017C51.7665 47.734 51.7797 47.5642 51.7797 47.3944V32.8903C51.7797 32.8158 51.772 32.7413 51.7577 32.6679C51.7424 32.5934 51.7216 32.5221 51.692 32.4531C51.6635 32.383 51.6285 32.3173 51.5868 32.2548C51.5452 32.1924 51.4981 32.1343 51.4444 32.0817C51.3918 32.028 51.3338 31.9809 51.2724 31.9393C51.21 31.8977 51.1442 31.8626 51.0741 31.8341C51.0051 31.8046 50.9339 31.7837 50.8605 31.7684C50.7871 31.7542 50.7126 31.7465 50.6381 31.7465ZM40.8613 43.354C40.9522 43.2685 41.0563 43.2028 41.1713 43.1546C41.2875 43.1075 41.4069 43.0823 41.5318 43.079C41.6567 43.0746 41.7783 43.0943 41.8966 43.1349C42.0138 43.1754 42.1212 43.2357 42.2176 43.3156L48.3681 48.5097L27.0638 55.988L40.8613 43.354Z" fill="#FDFDFD"/>
</g>
<path d="M27.1328 5.86482L33.5539 2.40503C33.6733 2.3404 33.8004 2.30205 33.9363 2.2889C34.071 2.27576 34.2025 2.2889 34.3329 2.32725C34.4621 2.36669 34.5794 2.42914 34.6845 2.51459C34.7897 2.60004 34.8741 2.70303 34.9387 2.82244L36.3169 5.39702C36.3892 5.52848 36.4845 5.64023 36.6018 5.73335C36.719 5.82648 36.8494 5.8944 36.9929 5.93603C37.1364 5.97766 37.2832 5.99081 37.4311 5.97547C37.5801 5.96014 37.7203 5.91741 37.8518 5.8462C37.9844 5.77499 38.0972 5.68186 38.1925 5.56683C38.2878 5.4507 38.358 5.32142 38.4029 5.179C38.4478 5.03548 38.4631 4.88977 38.45 4.73968C38.4379 4.59068 38.3974 4.44935 38.3295 4.3157L36.9513 1.74112C36.8483 1.5494 36.7267 1.37082 36.5886 1.2032C36.4495 1.03668 36.2961 0.884393 36.1285 0.746352C35.9598 0.609407 35.7801 0.48999 35.5884 0.388103C35.3967 0.286215 35.1973 0.204048 34.9902 0.141601C34.782 0.0791543 34.5706 0.0364273 34.3548 0.0156118C34.1389 -0.00520394 33.922 -0.00520394 33.7062 0.0156118C33.4904 0.0375228 33.2789 0.0791543 33.0719 0.141601C32.8637 0.205144 32.6643 0.287311 32.4726 0.389198L26.0515 3.84899C25.92 3.92239 25.8072 4.0177 25.713 4.13493C25.6198 4.25215 25.5519 4.38252 25.5092 4.52714C25.4676 4.67175 25.4544 4.81856 25.4698 4.96865C25.4851 5.11765 25.5289 5.25898 25.599 5.39154C25.6702 5.5241 25.7645 5.63804 25.8806 5.73335C25.9956 5.82867 26.126 5.89878 26.2695 5.94261C26.413 5.98752 26.5587 6.00286 26.7088 5.98862C26.8578 5.97547 26.9992 5.93384 27.1328 5.86482Z" fill="#FDFDFD"/>
<path d="M63.9295 13.1669C63.9897 9.46827 59.0214 5.97562 55.9768 8.78573L39.8545 25.3978C39.7362 25.5446 39.6431 25.7056 39.5729 25.882L37.372 33.5411C37.3172 33.7438 37.3172 33.9453 37.372 34.148C37.4267 34.3507 37.5297 34.5249 37.6798 34.6706C37.8299 34.8174 38.0063 34.9149 38.2101 34.9642C38.4138 35.0135 38.6154 35.008 38.8159 34.9478C39.0219 34.8229 47.0271 32.4773 46.8694 32.233L54.5307 24.3383C54.6325 24.2299 54.7103 24.105 54.764 23.9648C54.8166 23.8245 54.8418 23.6799 54.8385 23.5298C54.8352 23.3808 54.8035 23.2373 54.7432 23.0993C54.684 22.9623 54.5997 22.8418 54.4934 22.7366C54.386 22.6326 54.2622 22.5526 54.1242 22.4956C53.9851 22.4397 53.8415 22.4123 53.6915 22.4134C53.5425 22.4134 53.3989 22.443 53.2609 22.5C53.1218 22.557 53.0002 22.638 52.8939 22.7432L46.4816 29.3505C46.0696 28.5574 45.5438 27.8496 44.9039 27.2262C44.2641 26.604 43.5433 26.0967 42.7402 25.7078L54.8999 13.1778C55.3118 13.3488 55.7051 13.5569 56.0798 13.8001C56.4534 14.0433 56.8018 14.3194 57.125 14.6273C57.4481 14.9362 57.7396 15.2715 58.0003 15.6341C58.2621 15.9956 58.4878 16.3791 58.6785 16.7833L56.0907 19.4488C55.9889 19.5584 55.9111 19.6833 55.8574 19.8235C55.8037 19.9627 55.7796 20.1084 55.7829 20.2574C55.7862 20.4075 55.8179 20.551 55.8782 20.6879C55.9374 20.826 56.0206 20.9465 56.128 21.0517C56.2354 21.1557 56.3581 21.2357 56.4972 21.2916C56.6352 21.3486 56.7798 21.3759 56.9288 21.3748C57.0789 21.3748 57.2225 21.3453 57.3605 21.2883C57.4996 21.2313 57.6212 21.1492 57.7275 21.044L62.9917 15.622C63.3083 15.2945 63.5482 14.9176 63.7115 14.4903C63.8747 14.0642 63.947 13.6237 63.9295 13.1669ZM44.5862 30.7036L40.1569 32.1179L41.4431 27.6426C42.142 27.934 42.7632 28.3437 43.3055 28.8729C43.8489 29.4009 44.2751 30.0112 44.5862 30.7036ZM61.3538 14.0269L60.3448 15.0666C59.9011 14.2964 59.3588 13.604 58.7179 12.9894C58.077 12.3748 57.3638 11.8621 56.5772 11.4512L57.6125 10.3831C59.3928 9.041 62.6225 12.1907 61.3538 14.0269Z" fill="#FDFDFD"/>
<path d="M18.2259 21.3519H25.9858C26.0603 21.3519 26.1348 21.3442 26.2082 21.33C26.2816 21.3146 26.3539 21.2938 26.4229 21.2642C26.4919 21.2357 26.5577 21.2007 26.6201 21.159C26.6826 21.1174 26.7406 21.0692 26.7932 21.0166C26.8458 20.9629 26.894 20.906 26.9356 20.8435C26.9773 20.7811 27.0123 20.7153 27.0408 20.6452C27.0693 20.5762 27.0912 20.505 27.1054 20.4305C27.1208 20.3571 27.1274 20.2826 27.1274 20.2081C27.1274 20.1325 27.1208 20.058 27.1054 19.9846C27.0912 19.9112 27.0693 19.8389 27.0408 19.7699C27.0123 19.7009 26.9773 19.634 26.9356 19.5716C26.894 19.5091 26.8458 19.4522 26.7932 19.3985C26.7406 19.3459 26.6826 19.2977 26.6201 19.2561C26.5577 19.2144 26.4919 19.1794 26.4229 19.1509C26.3539 19.1224 26.2816 19.1005 26.2082 19.0851C26.1348 19.0709 26.0603 19.0632 25.9858 19.0632H18.2259C18.0758 19.0654 17.9323 19.0961 17.7943 19.1553C17.6562 19.2144 17.5346 19.2977 17.4294 19.404C17.3243 19.5113 17.2432 19.634 17.1862 19.7732C17.1293 19.9123 17.1008 20.0569 17.1008 20.2081C17.1008 20.3582 17.1293 20.5028 17.1862 20.6419C17.2432 20.7811 17.3243 20.9038 17.4294 21.0111C17.5346 21.1174 17.6562 21.2007 17.7943 21.2598C17.9323 21.319 18.0758 21.3497 18.2259 21.3519Z" fill="#FDFDFD"/>
<path d="M18.2259 27.2744H30.4184C30.5685 27.2722 30.7131 27.2415 30.8512 27.1823C30.9881 27.1232 31.1097 27.041 31.2149 26.9336C31.3201 26.8263 31.4012 26.7036 31.4581 26.5644C31.5151 26.4253 31.5436 26.2807 31.5436 26.1306C31.5436 25.9805 31.5151 25.8359 31.4581 25.6967C31.4012 25.5576 31.3201 25.4349 31.2149 25.3275C31.1097 25.2202 30.9881 25.138 30.8512 25.0788C30.7131 25.0197 30.5685 24.989 30.4184 24.9868H18.2259C18.0758 24.989 17.9323 25.0197 17.7943 25.0788C17.6562 25.138 17.5346 25.2202 17.4294 25.3275C17.3243 25.4349 17.2432 25.5576 17.1862 25.6967C17.1293 25.8359 17.1019 25.9805 17.1019 26.1306C17.1019 26.2807 17.1293 26.4253 17.1862 26.5644C17.2432 26.7036 17.3243 26.8263 17.4294 26.9336C17.5346 27.041 17.6562 27.1232 17.7943 27.1823C17.9323 27.2415 18.0758 27.2722 18.2259 27.2744Z" fill="#FDFDFD"/>
<path d="M18.2259 33.1981H32.5679C32.718 33.1959 32.8615 33.1652 32.9996 33.106C33.1376 33.0469 33.2592 32.9636 33.3644 32.8562C33.4696 32.75 33.5506 32.6262 33.6076 32.4881C33.6646 32.349 33.6931 32.2044 33.6931 32.0543C33.6931 31.9031 33.6646 31.7585 33.6076 31.6193C33.5506 31.4813 33.4696 31.3575 33.3644 31.2512C33.2592 31.1439 33.1376 31.0606 32.9996 31.0015C32.8615 30.9423 32.718 30.9116 32.5679 30.9094H18.2259C18.0758 30.9116 17.9323 30.9423 17.7943 31.0015C17.6562 31.0606 17.5346 31.1439 17.4294 31.2512C17.3243 31.3575 17.2432 31.4813 17.1862 31.6204C17.1304 31.7585 17.1019 31.9031 17.1019 32.0543C17.1019 32.2044 17.1304 32.349 17.1862 32.4881C17.2432 32.6273 17.3243 32.75 17.4294 32.8562C17.5346 32.9636 17.6562 33.0469 17.7943 33.106C17.9323 33.1652 18.0758 33.1959 18.2259 33.1981Z" fill="#FDFDFD"/>
<path d="M18.2259 39.1207H37.3227C37.3983 39.1207 37.4717 39.1141 37.5451 39.0988C37.6196 39.0845 37.6908 39.0626 37.7598 39.0341C37.8288 39.0056 37.8945 38.9695 37.957 38.9278C38.0194 38.8862 38.0775 38.8391 38.1301 38.7854C38.1827 38.7328 38.2309 38.6748 38.2725 38.6123C38.3141 38.5499 38.3492 38.4841 38.3777 38.4151C38.4062 38.345 38.4281 38.2738 38.4423 38.2004C38.4577 38.127 38.4642 38.0525 38.4642 37.9769C38.4642 37.9013 38.4577 37.8279 38.4423 37.7534C38.4281 37.68 38.4062 37.6088 38.3777 37.5387C38.3492 37.4697 38.3141 37.4039 38.2725 37.3415C38.2309 37.279 38.1827 37.221 38.1301 37.1684C38.0775 37.1147 38.0194 37.0676 37.957 37.0259C37.8945 36.9843 37.8288 36.9493 37.7598 36.9197C37.6908 36.8912 37.6196 36.8693 37.5451 36.855C37.4717 36.8408 37.3983 36.8331 37.3227 36.8331H18.2259C18.0758 36.8353 17.9323 36.866 17.7943 36.9252C17.6562 36.9843 17.5346 37.0665 17.4294 37.1738C17.3243 37.2812 17.2432 37.4039 17.1862 37.5431C17.1293 37.6822 17.1008 37.8268 17.1008 37.9769C17.1008 38.127 17.1293 38.2716 17.1862 38.4107C17.2432 38.5499 17.3243 38.6726 17.4294 38.7799C17.5346 38.8873 17.6562 38.9706 17.7943 39.0286C17.9323 39.0878 18.0758 39.1185 18.2259 39.1207Z" fill="#FDFDFD"/>
</svg>
