<svg width="74" height="57" viewBox="0 0 74 57" fill="none" xmlns="http://www.w3.org/2000/svg">
<mask id="mask0_340_1433" style="mask-type:luminance" maskUnits="userSpaceOnUse" x="0" y="0" width="42" height="38">
<path d="M0 0H41.3127V37.277H0V0Z" fill="white"/>
</mask>
<g mask="url(#mask0_340_1433)">
<path fill-rule="evenodd" clip-rule="evenodd" d="M3.70863 0.0390625C1.67078 0.0390625 0.0275126 1.68733 0.0275126 3.72643V26.2464C0.0275126 28.2905 1.67078 29.9301 3.70863 29.9301H17.1994V31.7918C15.1503 31.7918 13.4746 33.8684 13.4746 35.3968V36.6492C13.4746 37.0213 13.6844 37.1986 14.0128 37.1986H27.0628C27.3974 37.1986 27.6022 37.0213 27.6022 36.6492V35.3968C27.6022 33.8684 25.9315 31.7918 23.8824 31.7918V29.9301H26.9054C26.7906 29.5093 26.6957 29.0735 26.6282 28.6189C26.3523 26.8009 26.4659 25.029 26.9192 23.4519H5.80517C4.33547 23.4519 4.1207 22.5441 4.1207 21.4178V5.16616C4.1207 4.03735 4.2156 3.1308 5.6853 3.1308H35.3902C36.8612 3.1308 36.9548 4.03735 36.9548 5.16616V7.31015C36.9548 10.1134 41.048 8.4502 41.048 5.6469V3.72643C41.048 1.68733 39.4098 0.0390625 37.3669 0.0390625C26.1512 0.0390625 14.9293 0.0390625 3.70863 0.0390625Z" fill="#FDFDFD"/>
</g>
<path d="M51.0037 12.6644C44.4531 12.6644 39.1724 17.7703 39.1724 24.5007C39.1724 31.2299 44.4531 36.3307 51.0037 36.3307C57.5593 36.3307 62.83 31.2299 62.83 24.5007C62.83 17.7753 57.5593 12.6644 51.0037 12.6644Z" fill="#FDFDFD"/>
<mask id="mask1_340_1433" style="mask-type:luminance" maskUnits="userSpaceOnUse" x="29" y="37" width="44" height="21">
<path d="M29.1656 37.9169H72.9594V57.0005H29.1656V37.9169Z" fill="white"/>
</mask>
<g mask="url(#mask1_340_1433)">
<path d="M43.7277 38.1025C35.1555 40.0555 31.0224 42.9162 29.3454 50.9552C28.8871 53.123 29.5976 53.7585 30.4804 54.0595C36.5678 56.1185 46.581 56.854 51.0038 56.854C55.4204 56.854 65.4373 56.1185 71.5247 54.0595C72.41 53.7585 73.1205 53.123 72.6622 50.9552C70.9865 42.9175 66.8521 40.0567 58.2749 38.1025L51.783 39.5922C51.1699 39.7358 50.8315 39.7358 50.2246 39.5922L43.7277 38.1025Z" fill="#FDFDFD"/>
</g>
<mask id="mask2_340_1433" style="mask-type:luminance" maskUnits="userSpaceOnUse" x="28" y="7" width="46" height="28">
<path d="M28.5262 7.22754H73.525V34.7186H28.5262V7.22754Z" fill="white"/>
</mask>
<g mask="url(#mask2_340_1433)">
<path fill-rule="evenodd" clip-rule="evenodd" d="M51.0038 7.32935C47.4987 7.32935 43.9649 8.17096 40.9094 10.2101C37.4768 12.5026 35.0843 15.8928 33.9755 19.6751C33.6708 19.6376 33.3074 19.6564 32.8729 19.775C31.2533 20.2382 30.0321 21.5618 29.4889 22.7319C28.7772 24.2553 28.48 26.2656 28.7959 28.3484C29.1056 30.4213 29.9847 32.1345 31.0785 33.1908C32.1761 34.251 33.4135 34.5994 34.6497 34.3371C36.4828 33.9463 37.3956 33.6529 37.1334 31.9496L35.8909 23.6584C36.1432 19.1731 38.4645 14.9513 42.3466 12.3578C44.9676 10.6046 48.0007 9.91162 51.0038 9.91162C54.0019 9.91162 57.0337 10.6046 59.6609 12.3578C63.5368 14.9526 65.8581 19.1731 66.1103 23.6584L64.8679 31.9496C64.6107 33.6541 65.5222 33.9463 67.3553 34.3371C68.5877 34.5994 69.8239 34.251 70.9228 33.1908C72.0216 32.1345 72.8957 30.4213 73.2054 28.3484C73.5263 26.2644 73.2253 24.2553 72.5123 22.7319C71.9679 21.5618 70.7505 20.2382 69.1309 19.775C68.6976 19.6551 68.3342 19.6376 68.0283 19.6751C66.922 15.8928 64.5308 12.5026 61.0919 10.2101C58.0438 8.16971 54.5051 7.32935 51.0038 7.32935Z" fill="#FDFDFD"/>
</g>
<path d="M11.5153 16.3843H12.6391C12.8339 16.3843 12.9201 16.443 12.9201 16.5529V18.6257C12.9201 18.7393 12.8339 18.788 12.6391 18.788H11.5153C11.3205 18.788 11.2344 18.7393 11.2344 18.6257V16.5529C11.2344 16.4417 11.3205 16.3843 11.5153 16.3843ZM11.5153 12.0863H12.6391C12.8339 12.0863 12.9201 12.1388 12.9201 12.2549V14.3265C12.9201 14.4426 12.8339 14.49 12.6391 14.49H11.5153C11.3205 14.49 11.2344 14.4426 11.2344 14.3265V12.2549C11.2344 12.1388 11.3205 12.0863 11.5153 12.0863ZM11.5153 7.78835H12.6391C12.8339 7.78835 12.9201 7.8408 12.9201 7.95068V10.0285C12.9201 10.1396 12.8339 10.1908 12.6391 10.1908H11.5153C11.3205 10.1908 11.2344 10.1396 11.2344 10.0285V7.95068C11.2344 7.8408 11.3205 7.78835 11.5153 7.78835ZM11.4691 6.01147C10.4527 6.01147 9.9832 6.50346 9.9832 7.57732V19.0028C9.9832 20.0729 10.4527 20.5686 11.4691 20.5686H18.5966C18.5966 20.5686 18.0522 18.788 16.7685 18.788H14.6807C14.2662 18.788 14.0764 18.5982 14.0764 18.1724V14.6336C14.0764 14.2091 14.2662 14.013 14.6807 14.013H17.5615C18.4305 14.013 18.955 13.1577 18.955 12.5696H14.6807C14.2662 12.5696 14.0764 12.3748 14.0764 11.9502V8.4102C14.0764 7.9844 14.2662 7.7896 14.6807 7.7896H17.4853C18.2258 7.7896 18.664 6.67577 18.664 6.01272H11.4691V6.01147Z" fill="#FDFDFD"/>
<path fill-rule="evenodd" clip-rule="evenodd" d="M20.3785 6.00085C19.9577 6.57025 19.6581 8.72923 20.7319 10.1752L22.8946 13.0896L24.2645 11.2403L20.3785 6.00085Z" fill="#FDFDFD"/>
<path fill-rule="evenodd" clip-rule="evenodd" d="M29.1918 6.00085L22.7898 14.6318C22.751 14.5793 22.7136 14.5269 22.6749 14.4744C22.2166 13.8538 21.591 13.5042 20.938 13.5042C20.2824 13.5042 19.6581 13.8538 19.1998 14.4744C18.2396 15.7693 18.2396 17.8646 19.1998 19.1545C19.6581 19.7751 20.2824 20.1297 20.938 20.1297C21.591 20.1297 22.2166 19.7763 22.6749 19.1545C22.8572 18.916 23.0033 18.6388 23.1244 18.3329L23.6401 17.1766L24.7864 15.6345L25.9314 17.1766L26.4484 18.3329C26.5683 18.6388 26.7144 18.9147 26.8967 19.1545C27.3587 19.7751 27.9868 20.1297 28.6348 20.1297C29.2904 20.1297 29.9147 19.7763 30.378 19.1545C31.3382 17.8646 31.3382 15.7693 30.378 14.4744C29.9147 13.8476 29.2892 13.5042 28.6348 13.5042C27.9868 13.5042 27.3587 13.8476 26.8967 14.4744C26.858 14.5269 26.8205 14.5793 26.7868 14.6318L26.1612 13.7864L28.8396 10.1752C29.9135 8.72923 29.6176 6.57025 29.1918 6.00085ZM20.9542 15.1624C21.2751 15.1662 21.576 15.3435 21.8058 15.6444C22.2828 16.2938 22.2828 17.3402 21.8058 17.9845C21.3275 18.6288 20.5509 18.6288 20.0676 17.9845C19.5906 17.3402 19.5906 16.2938 20.0676 15.6444C20.3061 15.3285 20.622 15.1587 20.9542 15.1624ZM28.6149 15.1624C28.9483 15.1587 29.2692 15.3298 29.5039 15.6444C29.9797 16.2938 29.9797 17.3402 29.5039 17.9845C29.0257 18.6288 28.2465 18.6288 27.7658 17.9845C27.2875 17.3402 27.2875 16.2938 27.7658 15.6444C27.9943 15.3435 28.3002 15.1662 28.6149 15.1624Z" fill="#FDFDFD"/>
</svg>
