<svg width="48" height="73" viewBox="0 0 48 73" fill="none" xmlns="http://www.w3.org/2000/svg">
<path d="M21.7148 44.4527C21.4893 44.4527 21.2663 44.4416 21.0421 44.4205C20.819 44.3982 20.5973 44.3648 20.3767 44.3214C20.1562 44.278 19.9394 44.2235 19.7238 44.1591C19.5095 44.0934 19.2976 44.0179 19.0907 43.9324C18.8826 43.8469 18.6806 43.7515 18.4824 43.6449C18.2842 43.5396 18.0922 43.4244 17.9051 43.3005C17.718 43.1766 17.5384 43.0428 17.3649 42.9003C17.1902 42.7591 17.0242 42.608 16.8656 42.4494C16.707 42.292 16.5559 42.126 16.4134 41.9526C16.2709 41.7791 16.1384 41.5995 16.0132 41.4136C15.8881 41.2278 15.7729 41.0358 15.6676 40.8375C15.561 40.6405 15.4656 40.4386 15.3789 40.2317C15.2934 40.0248 15.2178 39.8142 15.1522 39.5998C15.0877 39.3855 15.0332 39.1674 14.9886 38.9481C14.9453 38.7289 14.9131 38.5071 14.8908 38.2841C14.8685 38.0611 14.8573 37.8381 14.8573 37.6138C14.8573 37.3896 14.8685 37.1666 14.8908 36.9436C14.9131 36.7205 14.9453 36.5 14.9886 36.2795C15.0332 36.0602 15.0877 35.8434 15.1522 35.629C15.2178 35.4147 15.2934 35.2041 15.3789 34.9972C15.4656 34.7903 15.561 34.5871 15.6676 34.3901C15.7729 34.1931 15.8881 34.0011 16.0132 33.814C16.1384 33.6282 16.2709 33.4485 16.4134 33.2751C16.5559 33.1016 16.707 32.9368 16.8656 32.7783C17.0242 32.6197 17.1902 32.4698 17.3649 32.3273C17.5384 32.1848 17.718 32.0522 17.9051 31.9271C18.0922 31.8032 18.2842 31.688 18.4824 31.5827C18.6806 31.4774 18.8826 31.3807 19.0907 31.2953C19.2976 31.2098 19.5095 31.1342 19.7238 31.0698C19.9394 31.0041 20.1562 30.9496 20.3767 30.9062C20.5973 30.8629 20.819 30.8294 21.0421 30.8084C21.2663 30.7861 21.4893 30.7749 21.7148 30.7749C21.939 30.7749 22.1633 30.7861 22.3863 30.8084C22.6105 30.8294 22.8323 30.8629 23.0516 30.9062C23.2721 30.9496 23.4902 31.0041 23.7045 31.0698C23.9201 31.1342 24.1307 31.2098 24.3389 31.2953C24.5458 31.3807 24.7489 31.4774 24.9472 31.5827C25.1454 31.688 25.3374 31.8032 25.5245 31.9271C25.7104 32.0522 25.8912 32.1848 26.0647 32.3273C26.2381 32.4698 26.4042 32.6197 26.5627 32.7783C26.7213 32.9368 26.8725 33.1016 27.015 33.2751C27.1574 33.4485 27.2912 33.6282 27.4164 33.814C27.5403 34.0011 27.6555 34.1931 27.762 34.3901C27.8673 34.5871 27.964 34.7903 28.0495 34.9972C28.135 35.2041 28.2105 35.4147 28.2762 35.629C28.3419 35.8434 28.3964 36.0602 28.4397 36.2795C28.4831 36.5 28.5165 36.7205 28.5388 36.9436C28.5599 37.1666 28.5711 37.3896 28.5711 37.6138C28.5711 37.8381 28.5599 38.0611 28.5376 38.2841C28.5153 38.5071 28.4831 38.7276 28.4385 38.9481C28.3951 39.1674 28.3406 39.3843 28.275 39.5986C28.2093 39.8129 28.1337 40.0235 28.0482 40.2304C27.9615 40.4373 27.8661 40.6393 27.7596 40.8363C27.6542 41.0345 27.539 41.2253 27.4139 41.4124C27.2888 41.5982 27.155 41.7779 27.0125 41.9513C26.87 42.1235 26.7201 42.2896 26.5615 42.4481C26.4029 42.6067 26.2357 42.7566 26.0622 42.8991C25.8888 43.0403 25.7091 43.1742 25.522 43.298C25.3362 43.4232 25.1429 43.5384 24.9459 43.6437C24.7477 43.749 24.5445 43.8444 24.3376 43.9311C24.1295 44.0166 23.9189 44.0922 23.7045 44.1566C23.489 44.2223 23.2721 44.2768 23.0516 44.3202C22.8311 44.3648 22.6093 44.397 22.3863 44.4193C22.1633 44.4416 21.939 44.4527 21.7148 44.4527ZM21.7148 33.0545C21.4137 33.0545 21.1176 33.0843 20.8228 33.1425C20.5279 33.2007 20.2429 33.2875 19.9654 33.4014C19.6879 33.5167 19.424 33.6567 19.175 33.8227C18.9247 33.9899 18.6943 34.1783 18.4824 34.3901C18.2693 34.602 18.0798 34.8324 17.9137 35.0814C17.7465 35.3305 17.6065 35.5931 17.4913 35.8694C17.3761 36.1457 17.2893 36.4306 17.2311 36.7243C17.1729 37.0179 17.1431 37.3152 17.1431 37.6138C17.1431 37.9136 17.1729 38.2097 17.2311 38.5034C17.2893 38.797 17.3761 39.082 17.4913 39.3582C17.6065 39.6358 17.7465 39.8984 17.9137 40.1474C18.0798 40.3965 18.2693 40.6269 18.4824 40.8375C18.6943 41.0494 18.9247 41.2389 19.175 41.405C19.424 41.571 19.6879 41.7122 19.9654 41.8262C20.2429 41.9414 20.5279 42.0269 20.8228 42.0864C21.1176 42.1446 21.4137 42.1731 21.7148 42.1731C22.0146 42.1731 22.312 42.1446 22.6068 42.0864C22.9005 42.0269 23.1867 41.9414 23.4642 41.8262C23.7417 41.7122 24.0043 41.571 24.2546 41.405C24.5036 41.2389 24.7341 41.0494 24.9472 40.8375C25.159 40.6269 25.3486 40.3965 25.5158 40.1474C25.6819 39.8984 25.8231 39.6358 25.9383 39.3582C26.0523 39.082 26.139 38.797 26.1985 38.5034C26.2567 38.2097 26.2852 37.9136 26.2852 37.6138C26.2852 37.3152 26.2567 37.0179 26.1985 36.7243C26.139 36.4306 26.0523 36.1457 25.9383 35.8694C25.8231 35.5931 25.6819 35.3305 25.5158 35.0814C25.3486 34.8324 25.159 34.602 24.9472 34.3901C24.7341 34.1783 24.5036 33.9899 24.2546 33.8227C24.0043 33.6567 23.7417 33.5167 23.4642 33.4014C23.1867 33.2875 22.9005 33.2007 22.6068 33.1425C22.312 33.0843 22.0146 33.0545 21.7148 33.0545Z" fill="#FDFDFD"/>
<path d="M20.5713 39.8933C20.4201 39.8933 20.2739 39.8648 20.1339 39.8065C19.9939 39.7483 19.8713 39.6665 19.7635 39.56C19.6569 39.4522 19.5739 39.3295 19.5157 39.1895C19.4575 39.0508 19.429 38.9046 19.429 38.7534V36.4738C19.429 36.3772 19.4414 36.2818 19.4649 36.1876C19.4897 36.0934 19.5256 36.0042 19.5727 35.9188C19.621 35.8345 19.678 35.7565 19.7449 35.6858C19.813 35.6165 19.8874 35.5557 19.9704 35.5037C20.0534 35.4529 20.1414 35.4133 20.2343 35.3848C20.3272 35.3563 20.4226 35.3389 20.5205 35.3352C20.6171 35.3303 20.7137 35.3377 20.8091 35.3588C20.9045 35.3786 20.995 35.4108 21.0829 35.4542L23.3675 36.594C23.5621 36.6906 23.7157 36.8306 23.8297 37.014C23.9436 37.1973 24.0006 37.398 24.0006 37.6136C24.0006 37.8304 23.9436 38.0299 23.8297 38.2133C23.7157 38.3979 23.5621 38.5379 23.3675 38.6345L21.0829 39.7743C20.9219 39.8536 20.7509 39.8933 20.5713 39.8933Z" fill="#FDFDFD"/>
<mask id="mask0_340_1384" style="mask-type:luminance" maskUnits="userSpaceOnUse" x="4" y="22" width="44" height="31">
<path d="M4.57169 22.5848H48V52.7157H4.57169V22.5848Z" fill="white"/>
</mask>
<g mask="url(#mask0_340_1384)">
<path d="M33.1428 52.4319H10.2857C10.0986 52.4319 9.91276 52.4233 9.72568 52.4047C9.53984 52.3861 9.35524 52.3588 9.17188 52.3217C8.98852 52.2857 8.80763 52.2399 8.62799 52.1854C8.44958 52.1309 8.27365 52.0689 8.1002 51.9971C7.92799 51.9252 7.75825 51.8459 7.59348 51.7579C7.4287 51.67 7.26888 51.5733 7.11277 51.4693C6.9579 51.3664 6.80799 51.2549 6.66304 51.1372C6.51808 51.0183 6.37932 50.8932 6.24799 50.7606C6.11543 50.6293 5.9903 50.4918 5.87136 50.3468C5.75242 50.2031 5.64092 50.0532 5.53685 49.8983C5.43278 49.7434 5.33738 49.5836 5.24817 49.4188C5.16021 49.2541 5.08092 49.0856 5.00906 48.9134C4.9372 48.7411 4.87402 48.5652 4.8195 48.3868C4.76499 48.2084 4.71915 48.0275 4.68322 47.8442C4.64605 47.662 4.6188 47.4774 4.60021 47.2916C4.58163 47.1058 4.57172 46.9199 4.57172 46.7328V28.4957C4.57172 28.3086 4.58163 28.1228 4.60021 27.937C4.6188 27.7511 4.64605 27.5678 4.68322 27.3844C4.71915 27.201 4.76499 27.0202 4.8195 26.8418C4.87402 26.6633 4.9372 26.4887 5.00906 26.3152C5.08092 26.143 5.16021 25.9745 5.24817 25.811C5.33738 25.6462 5.43278 25.4864 5.53685 25.3315C5.64092 25.1754 5.75242 25.0267 5.87136 24.8818C5.9903 24.738 6.11543 24.5993 6.24799 24.468C6.37932 24.3354 6.51808 24.2103 6.66304 24.0926C6.80799 23.9736 6.9579 23.8634 7.11277 23.7593C7.26888 23.6552 7.4287 23.5598 7.59348 23.4718C7.75825 23.3839 7.92799 23.3034 8.1002 23.2327C8.27365 23.1609 8.44958 23.0977 8.62799 23.0432C8.80763 22.9887 8.98852 22.9441 9.17188 22.9069C9.35524 22.871 9.53984 22.8425 9.72568 22.8251C9.91276 22.8065 10.0986 22.7966 10.2857 22.7966H33.1428C33.3298 22.7966 33.5169 22.8065 33.7028 22.8251C33.8886 22.8425 34.0732 22.871 34.2578 22.9069C34.4412 22.9441 34.6221 22.9887 34.8005 23.0432C34.9801 23.0977 35.156 23.1609 35.3282 23.2327C35.5017 23.3034 35.6702 23.3839 35.835 23.4718C35.9998 23.5598 36.1608 23.6552 36.3157 23.7593C36.4718 23.8634 36.6217 23.9736 36.7667 24.0926C36.9104 24.2103 37.0491 24.3354 37.1817 24.468C37.3143 24.5993 37.4394 24.738 37.5583 24.8818C37.676 25.0267 37.7875 25.1754 37.8916 25.3315C37.9957 25.4864 38.0923 25.6462 38.1803 25.811C38.2682 25.9745 38.3488 26.143 38.4206 26.3152C38.4925 26.4887 38.5557 26.6633 38.6089 26.8418C38.6635 27.0202 38.7093 27.201 38.7465 27.3844C38.7824 27.5678 38.8109 27.7511 38.8295 27.937C38.8481 28.1228 38.8567 28.3086 38.8567 28.4957V32.1431L46.2507 27.5343C46.4266 27.424 46.6187 27.3671 46.8256 27.3609C47.0325 27.3547 47.227 27.4017 47.4091 27.5021C47.59 27.6025 47.7337 27.7412 47.8402 27.9184C47.9456 28.0968 47.9988 28.2888 48.0001 28.4957V46.7328C48.0001 46.941 47.9468 47.133 47.8415 47.3114C47.7362 47.4898 47.5925 47.6298 47.4116 47.7302C47.2295 47.8305 47.0349 47.8776 46.8268 47.8727C46.6199 47.8677 46.4279 47.8095 46.2507 47.7004L38.8567 43.0916V46.7328C38.8567 46.9199 38.8481 47.1058 38.8295 47.2916C38.8109 47.4774 38.7824 47.662 38.7465 47.8442C38.7093 48.0275 38.6635 48.2084 38.6089 48.3868C38.5557 48.5652 38.4925 48.7411 38.4206 48.9134C38.3488 49.0856 38.2682 49.2541 38.1803 49.4188C38.0923 49.5836 37.9957 49.7434 37.8916 49.8983C37.7875 50.0532 37.676 50.2031 37.5583 50.3468C37.4394 50.4918 37.3143 50.6293 37.1817 50.7606C37.0491 50.8932 36.9104 51.0183 36.7667 51.1372C36.6217 51.2549 36.4718 51.3664 36.3157 51.4693C36.1608 51.5733 35.9998 51.67 35.835 51.7579C35.6702 51.8459 35.5017 51.9252 35.3282 51.9971C35.156 52.0689 34.9801 52.1309 34.8005 52.1854C34.6221 52.2399 34.4412 52.2857 34.2578 52.3217C34.0732 52.3588 33.8886 52.3861 33.7028 52.4047C33.5169 52.4233 33.3298 52.4319 33.1428 52.4319ZM10.2857 25.0763C10.0614 25.0763 9.83842 25.0986 9.61665 25.1419C9.39612 25.1853 9.18179 25.251 8.97365 25.3364C8.76551 25.4219 8.56852 25.5272 8.38144 25.6524C8.19436 25.7775 8.02091 25.9187 7.86232 26.0773C7.7025 26.2359 7.56002 26.4094 7.43489 26.5964C7.30976 26.7823 7.20445 26.9793 7.11896 27.1874C7.03224 27.3943 6.96781 27.6087 6.92321 27.8292C6.87985 28.0485 6.85755 28.2715 6.85755 28.4957V46.7328C6.85755 46.9583 6.87985 47.1801 6.92321 47.4006C6.96781 47.6211 7.03224 47.8342 7.11896 48.0424C7.20445 48.2493 7.30976 48.4463 7.43489 48.6334C7.56002 48.8192 7.7025 48.9926 7.86232 49.1512C8.02091 49.3098 8.19436 49.4523 8.38144 49.5762C8.56852 49.7013 8.76551 49.8066 8.97365 49.8921C9.18179 49.9788 9.39612 50.0433 9.61665 50.0866C9.83842 50.1312 10.0614 50.1523 10.2857 50.1523H33.1428C33.3683 50.1523 33.5913 50.1312 33.8118 50.0866C34.0323 50.0433 34.2467 49.9788 34.4548 49.8921C34.6629 49.8066 34.8599 49.7013 35.0483 49.5762C35.2353 49.4523 35.4075 49.3098 35.5674 49.1512C35.7259 48.9926 35.8684 48.8192 35.9936 48.6334C36.1187 48.4463 36.224 48.2493 36.3107 48.0424C36.3962 47.8342 36.4619 47.6211 36.5052 47.4006C36.5498 47.1801 36.5709 46.9583 36.5709 46.7328V41.0337C36.5709 40.8268 36.6242 40.6336 36.7295 40.4552C36.8348 40.2767 36.9785 40.138 37.1606 40.0376C37.3415 39.936 37.536 39.889 37.7442 39.8952C37.9523 39.9001 38.1443 39.9571 38.3203 40.0674L45.7142 44.6812V30.5474L38.3203 35.1575C38.1443 35.2665 37.9523 35.3247 37.7454 35.3297C37.5385 35.3359 37.344 35.2888 37.1619 35.1884C36.981 35.0881 36.8373 34.9493 36.7307 34.7722C36.6254 34.5938 36.5721 34.4017 36.5709 34.1948V28.4957C36.5709 28.2715 36.5498 28.0485 36.5052 27.8292C36.4619 27.6087 36.3962 27.3943 36.3107 27.1874C36.224 26.9793 36.1187 26.7823 35.9936 26.5964C35.8684 26.4094 35.7259 26.2359 35.5674 26.0773C35.4075 25.9187 35.2353 25.7775 35.0483 25.6524C34.8599 25.5272 34.6629 25.4219 34.4548 25.3364C34.2467 25.251 34.0323 25.1853 33.8118 25.1419C33.5913 25.0986 33.3683 25.0763 33.1428 25.0763H10.2857Z" fill="#FDFDFD"/>
</g>
<path d="M27.4288 54.7115H16.0008C15.8484 54.7115 15.7035 54.683 15.5635 54.6248C15.4235 54.5678 15.2996 54.4848 15.1918 54.3782C15.0853 54.2717 15.0023 54.1478 14.944 54.009C14.887 53.869 14.8573 53.7228 14.8573 53.5717V51.292C14.8573 51.1409 14.887 50.9959 14.944 50.8559C15.0023 50.7172 15.0853 50.5933 15.1918 50.4867C15.2996 50.3802 15.4235 50.2972 15.5635 50.2389C15.7035 50.182 15.8484 50.1522 16.0008 50.1522C16.152 50.1522 16.2982 50.182 16.4382 50.2389C16.5782 50.2972 16.7008 50.3802 16.8086 50.4867C16.9152 50.5933 16.9982 50.7172 17.0564 50.8559C17.1146 50.9959 17.1431 51.1409 17.1431 51.292V52.4319H26.2852V51.292C26.2852 51.1409 26.315 50.9959 26.3732 50.8559C26.4314 50.7172 26.5132 50.5933 26.621 50.4867C26.7275 50.3802 26.8514 50.2972 26.9914 50.2389C27.1314 50.182 27.2776 50.1522 27.4288 50.1522C27.5799 50.1522 27.7261 50.182 27.8661 50.2389C28.0061 50.2972 28.13 50.3802 28.2365 50.4867C28.3443 50.5933 28.4261 50.7172 28.4843 50.8559C28.5426 50.9959 28.5711 51.1409 28.5711 51.292V53.5717C28.5711 53.7228 28.5426 53.869 28.4843 54.009C28.4261 54.1478 28.3443 54.2717 28.2365 54.3782C28.13 54.4848 28.0061 54.5678 27.8661 54.6248C27.7261 54.683 27.5799 54.7115 27.4288 54.7115Z" fill="#FDFDFD"/>
<mask id="mask1_340_1384" style="mask-type:luminance" maskUnits="userSpaceOnUse" x="20" y="52" width="3" height="21">
<path d="M20.4301 52.3983H22.9674V72.9497H20.4301V52.3983Z" fill="white"/>
</mask>
<g mask="url(#mask1_340_1384)">
<path d="M21.7148 72.9501C21.5624 72.9501 21.4175 72.9204 21.2775 72.8634C21.1375 72.8052 21.0136 72.7234 20.9058 72.6156C20.7993 72.5091 20.7162 72.3864 20.6593 72.2464C20.601 72.1064 20.5713 71.9614 20.5713 71.8103V53.5719C20.5713 53.4208 20.601 53.2758 20.6593 53.1358C20.7162 52.9971 20.7993 52.8732 20.9058 52.7666C21.0136 52.6601 21.1375 52.5771 21.2775 52.5189C21.4175 52.4619 21.5624 52.4321 21.7148 52.4321C21.866 52.4321 22.0122 52.4619 22.1522 52.5189C22.2922 52.5771 22.4148 52.6601 22.5226 52.7666C22.6292 52.8732 22.7122 52.9971 22.7704 53.1358C22.8286 53.2758 22.8571 53.4208 22.8571 53.5719V71.8103C22.8571 71.9614 22.8286 72.1064 22.7704 72.2464C22.7122 72.3864 22.6292 72.5091 22.5226 72.6156C22.4148 72.7234 22.2922 72.8052 22.1522 72.8634C22.0122 72.9204 21.866 72.9501 21.7148 72.9501Z" fill="#FDFDFD"/>
</g>
<path d="M10.2856 71.81C10.08 71.81 9.88795 71.758 9.71078 71.6539C9.53361 71.5511 9.39362 71.4098 9.29202 71.2302C9.19167 71.0518 9.14211 70.8598 9.14459 70.6541C9.14707 70.4497 9.20158 70.2589 9.30813 70.0829L19.5938 52.9857C19.6706 52.8531 19.7697 52.7403 19.8911 52.6474C20.0138 52.5545 20.1488 52.4888 20.2975 52.4517C20.4449 52.4133 20.5961 52.4046 20.7472 52.4269C20.8996 52.448 21.0408 52.4988 21.1722 52.578C21.3035 52.6561 21.415 52.7577 21.5054 52.8803C21.5959 53.0042 21.6591 53.1405 21.695 53.2892C21.7309 53.4379 21.7359 53.5878 21.7111 53.7389C21.6863 53.8888 21.633 54.0301 21.5525 54.1589L11.2669 71.2575C11.1628 71.4284 11.0241 71.5635 10.8494 71.6626C10.6747 71.7605 10.4864 71.81 10.2856 71.81Z" fill="#FDFDFD"/>
<path d="M33.1428 71.8097C32.9421 71.8097 32.755 71.7602 32.5791 71.6623C32.4044 71.5632 32.2656 71.4282 32.1628 71.2572L21.8771 54.1587C21.8016 54.0298 21.7545 53.891 21.7347 53.7424C21.7148 53.5949 21.7235 53.4487 21.7607 53.3038C21.7978 53.1588 21.861 53.0275 21.9515 52.9073C22.0407 52.7884 22.1497 52.6893 22.2786 52.6125C22.4062 52.5356 22.5449 52.4861 22.6924 52.4626C22.841 52.4403 22.9872 52.4464 23.1334 52.4811C23.2784 52.5158 23.4122 52.5765 23.5336 52.6645C23.6562 52.7512 23.7566 52.8578 23.8359 52.9854L34.1215 70.0827C34.2268 70.2586 34.2813 70.4494 34.2838 70.6538C34.2875 70.8595 34.238 71.0515 34.1364 71.2299C34.0348 71.4096 33.896 71.5508 33.7176 71.6536C33.5405 71.7577 33.3484 71.8097 33.1428 71.8097Z" fill="#FDFDFD"/>
<mask id="mask2_340_1384" style="mask-type:luminance" maskUnits="userSpaceOnUse" x="1" y="0" width="22" height="21">
<path d="M1.08282 0H22.0159V20.6815H1.08282V0Z" fill="white"/>
</mask>
<g mask="url(#mask2_340_1384)">
<path d="M11.4291 20.5167C11.0921 20.5167 10.7564 20.5006 10.4206 20.4672C10.0849 20.4337 9.75284 20.3854 9.42205 20.3198C9.09125 20.2541 8.76541 20.1723 8.44329 20.0744C8.12117 19.9778 7.804 19.8638 7.49303 19.7362C7.18206 19.6074 6.87728 19.4637 6.57994 19.3051C6.28259 19.1465 5.99516 18.9743 5.71392 18.7872C5.43392 18.6014 5.16383 18.4006 4.90366 18.1875C4.64348 17.9745 4.39446 17.749 4.15534 17.5123C3.91747 17.2745 3.69198 17.0254 3.47764 16.7665C3.26455 16.5063 3.06384 16.2362 2.87676 15.9575C2.68968 15.6775 2.51623 15.39 2.35765 15.0939C2.19907 14.7978 2.05535 14.4943 1.9265 14.1833C1.79765 13.8736 1.68367 13.5577 1.58579 13.2355C1.48792 12.9146 1.40615 12.5888 1.34048 12.2593C1.27482 11.9297 1.22526 11.5977 1.19305 11.2631C1.1596 10.9286 1.14349 10.5941 1.14349 10.2584C1.14349 9.92262 1.1596 9.58687 1.19305 9.25236C1.22526 8.91785 1.27482 8.58581 1.34048 8.25626C1.40615 7.9267 1.48792 7.6021 1.58579 7.27998C1.68367 6.95909 1.79765 6.64316 1.9265 6.33219C2.05535 6.02122 2.19907 5.71892 2.35765 5.42157C2.51623 5.12547 2.68968 4.83804 2.87676 4.55804C3.06384 4.27928 3.26455 4.00919 3.47764 3.75025C3.69198 3.49008 3.91747 3.24105 4.15534 3.00441C4.39446 2.76654 4.64348 2.54105 4.90366 2.32796C5.16383 2.11486 5.43392 1.91539 5.71392 1.72831C5.99516 1.54123 6.28259 1.36902 6.57994 1.21044C6.87728 1.05185 7.18206 0.909377 7.49303 0.780528C7.804 0.651679 8.12117 0.538936 8.44329 0.441061C8.76541 0.343185 9.09125 0.262654 9.42205 0.19699C9.75284 0.131327 10.0849 0.0817695 10.4206 0.0483182C10.7564 0.0161061 11.0921 0 11.4291 0C11.7661 0 12.1019 0.0161061 12.4376 0.0483182C12.7721 0.0817695 13.1054 0.131327 13.435 0.19699C13.7658 0.262654 14.0928 0.343185 14.415 0.441061C14.7371 0.538936 15.0542 0.651679 15.3652 0.780528C15.6762 0.909377 15.981 1.05185 16.2771 1.21044C16.5744 1.36902 16.8631 1.54123 17.1431 1.72831C17.4231 1.91539 17.6932 2.11486 17.9533 2.32796C18.2148 2.54105 18.4638 2.76654 18.7017 3.00441C18.9395 3.24105 19.1663 3.49008 19.3794 3.75025C19.5937 4.00919 19.7944 4.27928 19.9815 4.55804C20.1686 4.83804 20.3408 5.12547 20.4994 5.42157C20.6592 5.71892 20.8029 6.02122 20.9317 6.33219C21.0606 6.64316 21.1733 6.95909 21.2712 7.27998C21.3691 7.6021 21.4509 7.9267 21.5165 8.25626C21.5822 8.58581 21.6317 8.91785 21.6652 9.25236C21.6974 9.58687 21.7148 9.92262 21.7148 10.2584C21.7135 10.5941 21.6974 10.9286 21.664 11.2631C21.6305 11.5977 21.5809 11.9297 21.5153 12.258C21.4484 12.5876 21.3666 12.9134 21.2687 13.2343C21.1709 13.5564 21.0569 13.8711 20.928 14.1821C20.7992 14.4918 20.6555 14.7953 20.4956 15.0915C20.3371 15.3876 20.1648 15.675 19.9765 15.955C19.7894 16.2338 19.59 16.5026 19.3756 16.7628C19.1625 17.0217 18.9358 17.2707 18.6979 17.5086C18.4601 17.7453 18.211 17.9707 17.9509 18.1838C17.6907 18.3969 17.4206 18.5976 17.1406 18.7835C16.8606 18.9706 16.5719 19.1428 16.2746 19.3014C15.9785 19.4599 15.6737 19.6037 15.3627 19.7325C15.0518 19.8613 14.7358 19.9741 14.4137 20.072C14.0916 20.1698 13.7645 20.2516 13.435 20.3173C13.1042 20.3829 12.7721 20.4325 12.4364 20.4659C12.1019 20.4994 11.7661 20.5167 11.4291 20.5167ZM11.4291 2.27964C11.1665 2.27964 10.9051 2.29203 10.6449 2.31804C10.3835 2.34282 10.1258 2.38123 9.86806 2.43203C9.61161 2.48282 9.35763 2.54725 9.10612 2.62282C8.85586 2.6984 8.60931 2.78636 8.36772 2.88672C8.12489 2.98583 7.88825 3.09857 7.65781 3.22123C7.42613 3.34388 7.20188 3.47893 6.98383 3.62388C6.76701 3.76884 6.5564 3.92494 6.35321 4.08972C6.15126 4.25574 5.95799 4.43167 5.77215 4.61627C5.58631 4.80087 5.41162 4.99414 5.24436 5.19609C5.07835 5.39804 4.92224 5.60741 4.77729 5.82547C4.63109 6.04228 4.49729 6.26653 4.37339 6.49697C4.2495 6.72741 4.138 6.96281 4.03764 7.2044C3.93729 7.44599 3.84932 7.6913 3.77375 7.94157C3.69694 8.19183 3.63375 8.44457 3.58295 8.70103C3.53216 8.95749 3.49375 9.21643 3.46773 9.47537C3.44172 9.73554 3.42933 9.99696 3.42933 10.2584C3.42933 10.5198 3.44172 10.78 3.46773 11.0401C3.49375 11.3003 3.53216 11.558 3.58295 11.8145C3.63375 12.0709 3.69694 12.3237 3.77375 12.5739C3.84932 12.8242 3.93729 13.0695 4.03764 13.3111C4.138 13.5527 4.2495 13.7893 4.37339 14.0198C4.49729 14.2502 4.63109 14.4732 4.77729 14.6913C4.92224 14.9081 5.07835 15.1175 5.24436 15.3194C5.41162 15.5214 5.58631 15.7146 5.77215 15.9005C5.95799 16.0851 6.15126 16.2598 6.35321 16.4258C6.5564 16.5918 6.76701 16.7467 6.98383 16.8916C7.20188 17.0378 7.42613 17.1716 7.65781 17.2943C7.88825 17.4182 8.12489 17.5297 8.36772 17.63C8.60931 17.7291 8.85586 17.8171 9.10612 17.8939C9.35763 17.9695 9.61161 18.0327 9.86806 18.0835C10.1258 18.1343 10.3835 18.1727 10.6449 18.1987C10.9051 18.2235 11.1665 18.2371 11.4291 18.2371C11.6905 18.2371 11.952 18.2235 12.2134 18.1987C12.4735 18.1727 12.7325 18.1343 12.9902 18.0835C13.2466 18.0327 13.5006 17.9695 13.7509 17.8939C14.0024 17.8171 14.2477 17.7291 14.4905 17.63C14.7321 17.5297 14.9688 17.4182 15.2004 17.2943C15.4309 17.1716 15.6551 17.0378 15.8732 16.8916C16.0912 16.7467 16.3018 16.5918 16.5038 16.4258C16.707 16.2598 16.9003 16.0851 17.0861 15.9005C17.2707 15.7146 17.4466 15.5214 17.6126 15.3194C17.7787 15.1175 17.9348 14.9081 18.081 14.6913C18.2259 14.4732 18.361 14.2502 18.4836 14.0198C18.6075 13.7893 18.719 13.5527 18.8194 13.3111C18.9197 13.0695 19.0077 12.8242 19.0845 12.5739C19.1601 12.3237 19.2245 12.0709 19.2753 11.8145C19.3261 11.558 19.3645 11.3003 19.3905 11.0401C19.4153 10.78 19.4289 10.5198 19.4289 10.2584C19.4289 9.99696 19.4153 9.73554 19.3893 9.47661C19.3633 9.21643 19.3248 8.95873 19.274 8.70227C19.222 8.44581 19.1588 8.19307 19.082 7.94281C19.0064 7.69254 18.9172 7.44723 18.8169 7.20564C18.7165 6.96529 18.605 6.72865 18.4811 6.49821C18.3585 6.26777 18.2234 6.04476 18.0772 5.82671C17.9323 5.60989 17.7762 5.40051 17.6102 5.19857C17.4441 4.99662 17.2682 4.80335 17.0824 4.61875C16.8978 4.43414 16.7045 4.25822 16.5013 4.09344C16.2994 3.92742 16.0888 3.77131 15.8707 3.62636C15.6539 3.4814 15.4296 3.3476 15.198 3.22371C14.9675 3.10105 14.7309 2.98955 14.4893 2.88919C14.2465 2.78884 14.0011 2.70088 13.7496 2.6253C13.4994 2.54849 13.2454 2.4853 12.9889 2.4345C12.7325 2.38247 12.4735 2.34406 12.2121 2.31804C11.952 2.29203 11.6905 2.27964 11.4291 2.27964Z" fill="#FDFDFD"/>
</g>
<path d="M11.4292 15.9575C11.2421 15.9575 11.055 15.9476 10.8692 15.9303C10.6821 15.9117 10.4975 15.8844 10.3142 15.8473C10.1308 15.8113 9.94868 15.7655 9.77027 15.7122C9.59063 15.6577 9.4147 15.5945 9.24249 15.5239C9.06903 15.452 8.90054 15.3727 8.73576 15.2848C8.56974 15.1968 8.40992 15.1002 8.25382 14.9973C8.09895 14.8933 7.94904 14.7818 7.80408 14.6641C7.65913 14.5451 7.52037 14.42 7.3878 14.2874C7.25647 14.1561 7.1301 14.0173 7.0124 13.8736C6.89347 13.7287 6.78196 13.58 6.67789 13.4239C6.57382 13.269 6.47718 13.1092 6.38922 12.9444C6.30126 12.7797 6.22073 12.6112 6.15011 12.4389C6.07825 12.2667 6.01506 12.0908 5.96055 11.9124C5.90604 11.734 5.86143 11.5531 5.82427 11.3697C5.78834 11.1864 5.76108 11.003 5.7425 10.8172C5.72391 10.6313 5.71524 10.4443 5.71524 10.2584C5.71524 10.0713 5.72391 9.8855 5.7425 9.69966C5.76108 9.51382 5.78834 9.32922 5.82427 9.14586C5.86143 8.9625 5.90604 8.78285 5.96055 8.60321C6.01506 8.4248 6.07825 8.24887 6.15011 8.07666C6.22073 7.90445 6.30126 7.73595 6.38922 7.57117C6.47718 7.4064 6.57382 7.24657 6.67789 7.09171C6.78196 6.93684 6.89347 6.78693 7.0124 6.64197C7.1301 6.49826 7.25647 6.3595 7.3878 6.22817C7.52037 6.0956 7.65913 5.97047 7.80408 5.85277C7.94904 5.73384 8.09895 5.62357 8.25382 5.5195C8.40992 5.41543 8.56974 5.32003 8.73576 5.23207C8.90054 5.1441 9.06903 5.06357 9.24249 4.99295C9.4147 4.9211 9.59063 4.85791 9.77027 4.80464C9.94868 4.75012 10.1308 4.70428 10.3142 4.66835C10.4975 4.63242 10.6821 4.60517 10.8692 4.58658C11.055 4.568 11.2421 4.55933 11.4292 4.55933C11.6163 4.55933 11.8034 4.568 11.9892 4.58658C12.175 4.60517 12.3596 4.63242 12.5442 4.66835C12.7276 4.70428 12.9085 4.75012 13.0881 4.80464C13.2665 4.85791 13.4425 4.9211 13.6159 4.99295C13.7881 5.06357 13.9579 5.1441 14.1226 5.23207C14.2874 5.32003 14.4485 5.41543 14.6034 5.5195C14.7595 5.62357 14.9094 5.73384 15.0543 5.85277C15.1993 5.97047 15.3368 6.0956 15.4694 6.22817C15.6019 6.3595 15.7271 6.49826 15.846 6.64197C15.9649 6.78693 16.0764 6.93684 16.1805 7.09171C16.2846 7.24657 16.38 7.4064 16.4679 7.57117C16.5572 7.73595 16.6364 7.90445 16.7083 8.07666C16.7802 8.24887 16.8433 8.4248 16.8966 8.60321C16.9511 8.78285 16.997 8.9625 17.0329 9.14586C17.0701 9.32922 17.0973 9.51382 17.1159 9.69966C17.1345 9.8855 17.1432 10.0713 17.1432 10.2584C17.1432 10.4443 17.1333 10.6313 17.1147 10.8159C17.0961 11.0018 17.0688 11.1864 17.0317 11.3697C16.9957 11.5519 16.9499 11.7328 16.8954 11.9112C16.8409 12.0908 16.7777 12.2655 16.7058 12.4377C16.6352 12.6099 16.5547 12.7784 16.4667 12.9432C16.3787 13.108 16.2821 13.2678 16.178 13.4227C16.074 13.5775 15.9625 13.7274 15.8435 13.8712C15.7258 14.0161 15.5995 14.1536 15.4669 14.2862C15.3356 14.4175 15.1968 14.5427 15.0518 14.6616C14.9081 14.7793 14.757 14.8908 14.6021 14.9949C14.446 15.0989 14.2862 15.1943 14.1214 15.2823C13.9566 15.3703 13.7869 15.4496 13.6147 15.5214C13.4412 15.5933 13.2653 15.6565 13.0869 15.7097C12.9085 15.7642 12.7264 15.8101 12.543 15.846C12.3596 15.8832 12.175 15.9104 11.9892 15.929C11.8021 15.9476 11.6163 15.9575 11.4292 15.9575ZM11.4292 6.83896C11.2037 6.83896 10.9807 6.86003 10.7602 6.90463C10.5396 6.94799 10.3253 7.01242 10.1172 7.09914C9.90903 7.18463 9.7108 7.28994 9.52372 7.41507C9.33664 7.53896 9.16319 7.68144 9.00461 7.84002C8.84603 7.99861 8.70355 8.17206 8.57842 8.3579C8.45328 8.54498 8.34798 8.74197 8.26125 8.94887C8.17576 9.15701 8.1101 9.37011 8.06674 9.59064C8.02214 9.81117 7.99983 10.0329 7.99983 10.2584C7.99983 10.4827 8.02214 10.7044 8.06674 10.925C8.1101 11.1455 8.17576 11.3586 8.26125 11.5667C8.34798 11.7736 8.45328 11.9706 8.57842 12.1577C8.70355 12.3448 8.84603 12.517 9.00461 12.6756C9.16319 12.8342 9.33664 12.9766 9.52372 13.1018C9.7108 13.2257 9.90903 13.331 10.1172 13.4177C10.3253 13.5032 10.5396 13.5676 10.7602 13.6122C10.9807 13.6556 11.2037 13.6779 11.4292 13.6779C11.6547 13.6779 11.8765 13.6556 12.0982 13.6122C12.3188 13.5676 12.5331 13.5032 12.7412 13.4177C12.9494 13.331 13.1464 13.2257 13.3334 13.1018C13.5205 12.9766 13.694 12.8342 13.8538 12.6756C14.0124 12.517 14.1549 12.3448 14.28 12.1577C14.4051 11.9706 14.5104 11.7736 14.5959 11.5667C14.6826 11.3586 14.7471 11.1455 14.7917 10.925C14.835 10.7044 14.8573 10.4827 14.8573 10.2584C14.8573 10.0329 14.835 9.81117 14.7917 9.59064C14.7471 9.37011 14.6826 9.15701 14.5959 8.94887C14.5104 8.74197 14.4051 8.54498 14.28 8.3579C14.1549 8.17206 14.0124 7.99861 13.8538 7.84002C13.694 7.68144 13.5205 7.53896 13.3334 7.41507C13.1464 7.28994 12.9494 7.18463 12.7412 7.09914C12.5331 7.01242 12.3188 6.94799 12.0982 6.90463C11.8765 6.86003 11.6547 6.83896 11.4292 6.83896Z" fill="#FDFDFD"/>
<mask id="mask3_340_1384" style="mask-type:luminance" maskUnits="userSpaceOnUse" x="21" y="0" width="22" height="21">
<path d="M21.6987 0H42.3145V20.6815H21.6987V0Z" fill="white"/>
</mask>
<g mask="url(#mask3_340_1384)">
<path d="M32.0004 20.5167C31.6634 20.5167 31.3276 20.5006 30.9919 20.4672C30.6561 20.4337 30.3241 20.3854 29.9933 20.3198C29.6625 20.2541 29.3367 20.1723 29.0145 20.0744C28.6924 19.9778 28.3752 19.8638 28.0643 19.7362C27.7521 19.6074 27.4485 19.4637 27.1512 19.3051C26.8538 19.1465 26.5652 18.9743 26.2852 18.7872C26.0052 18.6014 25.7351 18.4006 25.4749 18.1875C25.2147 17.9745 24.9657 17.749 24.7266 17.5123C24.4887 17.2745 24.2632 17.0254 24.0489 16.7665C23.8358 16.5063 23.6351 16.2362 23.448 15.9575C23.2609 15.6775 23.0875 15.39 22.9289 15.0939C22.7703 14.7978 22.6266 14.4943 22.4977 14.1833C22.3689 13.8736 22.2549 13.5577 22.157 13.2355C22.0592 12.9146 21.9774 12.5888 21.9117 12.2593C21.8461 11.9297 21.7965 11.5977 21.7643 11.2631C21.7308 10.9286 21.7147 10.5941 21.7147 10.2584C21.7147 9.92262 21.7308 9.58687 21.7643 9.25236C21.7965 8.91785 21.8461 8.58581 21.9117 8.25626C21.9774 7.9267 22.0592 7.6021 22.157 7.27998C22.2549 6.95909 22.3689 6.64316 22.4977 6.33219C22.6266 6.02122 22.7703 5.71892 22.9289 5.42157C23.0875 5.12547 23.2609 4.83804 23.448 4.55804C23.6351 4.27928 23.8358 4.00919 24.0489 3.75025C24.2632 3.49008 24.4887 3.24105 24.7266 3.00441C24.9657 2.76654 25.2147 2.54105 25.4749 2.32796C25.7351 2.11486 26.0052 1.91539 26.2852 1.72831C26.5652 1.54123 26.8538 1.36902 27.1512 1.21044C27.4485 1.05185 27.7521 0.909377 28.0643 0.780528C28.3752 0.651679 28.6924 0.538936 29.0145 0.441061C29.3367 0.343185 29.6625 0.262654 29.9933 0.19699C30.3241 0.131327 30.6561 0.0817695 30.9919 0.0483182C31.3276 0.0161061 31.6634 0 32.0004 0C32.3374 0 32.6731 0.0161061 33.0076 0.0483182C33.3434 0.0817695 33.6766 0.131327 34.0062 0.19699C34.337 0.262654 34.6628 0.343185 34.9862 0.441061C35.3083 0.538936 35.6242 0.651679 35.9365 0.780528C36.2474 0.909377 36.551 1.05185 36.8483 1.21044C37.1457 1.36902 37.4343 1.54123 37.7143 1.72831C37.9943 1.91539 38.2644 2.11486 38.5246 2.32796C38.786 2.54105 39.035 2.76654 39.2729 3.00441C39.5108 3.24105 39.7375 3.49008 39.9506 3.75025C40.1649 4.00919 40.3644 4.27928 40.5515 4.55804C40.7398 4.83804 40.912 5.12547 41.0706 5.42157C41.2292 5.71892 41.3741 6.02122 41.503 6.33219C41.6318 6.64316 41.7446 6.95909 41.8425 7.27998C41.9403 7.6021 42.0221 7.9267 42.0878 8.25626C42.1534 8.58581 42.203 8.91785 42.2364 9.25236C42.2686 9.58687 42.286 9.92262 42.286 10.2584C42.2848 10.5941 42.2686 10.9286 42.2352 11.2631C42.2017 11.5977 42.1522 11.9297 42.0853 12.258C42.0196 12.5876 41.9379 12.9134 41.84 13.2343C41.7421 13.5564 41.6281 13.8711 41.4993 14.1821C41.3704 14.4918 41.2267 14.7953 41.0669 15.0915C40.9083 15.3876 40.7348 15.675 40.5478 15.955C40.3607 16.2338 40.1612 16.5026 39.9469 16.7628C39.7338 17.0217 39.5071 17.2707 39.2692 17.5086C39.0313 17.7453 38.7823 17.9707 38.5221 18.1838C38.2619 18.3969 37.9918 18.5976 37.7119 18.7835C37.4319 18.9706 37.1432 19.1428 36.8458 19.3014C36.5497 19.4599 36.245 19.6037 35.934 19.7325C35.623 19.8613 35.3071 19.9741 34.9837 20.072C34.6616 20.1698 34.3358 20.2516 34.0062 20.3173C33.6754 20.3829 33.3434 20.4325 33.0076 20.4659C32.6731 20.4994 32.3361 20.5167 32.0004 20.5167ZM32.0004 2.27964C31.7377 2.27964 31.4763 2.29203 31.2161 2.31804C30.9547 2.34282 30.6958 2.38123 30.4393 2.43203C30.1828 2.48282 29.9289 2.54725 29.6774 2.62282C29.4271 2.6984 29.1806 2.78636 28.939 2.88672C28.6961 2.98583 28.4595 3.09857 28.2291 3.22123C27.9974 3.34388 27.7731 3.47893 27.5551 3.62388C27.337 3.76884 27.1276 3.92494 26.9245 4.08972C26.7225 4.25574 26.528 4.43167 26.3434 4.61627C26.1576 4.80087 25.9816 4.99414 25.8156 5.19609C25.6496 5.39804 25.4935 5.60741 25.3485 5.82547C25.2023 6.04228 25.0685 6.26653 24.9446 6.49697C24.8207 6.72741 24.7092 6.96281 24.6089 7.2044C24.5085 7.44599 24.4206 7.6913 24.345 7.94157C24.2682 8.19183 24.205 8.44457 24.1542 8.70103C24.1022 8.95749 24.0638 9.21643 24.039 9.47537C24.013 9.73554 24.0006 9.99696 24.0006 10.2584C24.0006 10.5198 24.013 10.78 24.039 11.0401C24.0638 11.3003 24.1022 11.558 24.1542 11.8145C24.205 12.0709 24.2682 12.3237 24.345 12.5739C24.4206 12.8242 24.5085 13.0695 24.6089 13.3111C24.7092 13.5527 24.8207 13.7893 24.9446 14.0198C25.0685 14.2502 25.2023 14.4732 25.3485 14.6913C25.4935 14.9081 25.6496 15.1175 25.8156 15.3194C25.9816 15.5214 26.1576 15.7146 26.3434 15.9005C26.528 16.0851 26.7225 16.2598 26.9245 16.4258C27.1276 16.5918 27.337 16.7467 27.5551 16.8916C27.7731 17.0378 27.9974 17.1716 28.2291 17.2943C28.4595 17.4182 28.6961 17.5297 28.939 17.63C29.1806 17.7291 29.4271 17.8171 29.6774 17.8939C29.9289 17.9695 30.1828 18.0327 30.4393 18.0835C30.6958 18.1343 30.9547 18.1727 31.2161 18.1987C31.4763 18.2235 31.7377 18.2371 32.0004 18.2371C32.2618 18.2371 32.5232 18.2235 32.7846 18.1987C33.0448 18.1727 33.3037 18.1343 33.5602 18.0835C33.8179 18.0327 34.0719 17.9695 34.3221 17.8939C34.5724 17.8171 34.8189 17.7291 35.0618 17.63C35.3034 17.5297 35.54 17.4182 35.7717 17.2943C36.0021 17.1716 36.2264 17.0378 36.4444 16.8916C36.6625 16.7467 36.8731 16.5918 37.075 16.4258C37.277 16.2598 37.4715 16.0851 37.6561 15.9005C37.8419 15.7146 38.0179 15.5214 38.1839 15.3194C38.3499 15.1175 38.506 14.9081 38.6522 14.6913C38.7972 14.4732 38.9322 14.2502 39.0549 14.0198C39.1787 13.7893 39.2903 13.5527 39.3906 13.3111C39.491 13.0695 39.5789 12.8242 39.6557 12.5739C39.7313 12.3237 39.7945 12.0709 39.8465 11.8145C39.8973 11.558 39.9357 11.3003 39.9618 11.0401C39.9865 10.78 40.0002 10.5198 40.0002 10.2584C39.9989 9.99696 39.9865 9.73554 39.9605 9.47661C39.9345 9.21643 39.8961 8.95873 39.8441 8.70227C39.7933 8.44581 39.7301 8.19307 39.6533 7.94281C39.5777 7.69254 39.4885 7.44723 39.3881 7.20564C39.2878 6.96529 39.1763 6.72865 39.0524 6.49821C38.9285 6.26777 38.7947 6.04476 38.6485 5.82671C38.5035 5.60989 38.3474 5.40051 38.1814 5.19857C38.0154 4.99662 37.8395 4.80335 37.6536 4.61875C37.469 4.43414 37.2745 4.25822 37.0726 4.09344C36.8706 3.92742 36.66 3.77131 36.4419 3.62636C36.2251 3.4814 35.9996 3.3476 35.7692 3.22371C35.5388 3.10105 35.3021 2.98955 35.0605 2.88919C34.8177 2.78884 34.5712 2.70088 34.3209 2.6253C34.0706 2.54849 33.8166 2.4853 33.5602 2.4345C33.3037 2.38247 33.0448 2.34406 32.7834 2.31804C32.5232 2.29203 32.2618 2.27964 32.0004 2.27964Z" fill="#FDFDFD"/>
</g>
<path d="M32.0004 15.9575C31.8133 15.9575 31.6262 15.9476 31.4404 15.9303C31.2533 15.9117 31.0687 15.8844 30.8853 15.8473C30.702 15.8113 30.5199 15.7655 30.3415 15.7122C30.1618 15.6577 29.9859 15.5945 29.8137 15.5239C29.6402 15.452 29.4717 15.3727 29.3057 15.2848C29.1409 15.1968 28.9811 15.1002 28.825 14.9973C28.6701 14.8933 28.519 14.7818 28.3753 14.6641C28.2303 14.5451 28.0916 14.42 27.959 14.2874C27.8277 14.1561 27.7013 14.0173 27.5824 13.8736C27.4647 13.7287 27.3531 13.58 27.2491 13.4239C27.145 13.269 27.0484 13.1092 26.9604 12.9444C26.8724 12.7797 26.7919 12.6112 26.7213 12.4389C26.6494 12.2667 26.5862 12.0908 26.5317 11.9124C26.4772 11.734 26.4326 11.5531 26.3955 11.3697C26.3595 11.1864 26.331 11.003 26.3137 10.8172C26.2951 10.6313 26.2852 10.4443 26.2852 10.2584C26.2852 10.0713 26.2951 9.8855 26.3137 9.69966C26.331 9.51382 26.3595 9.32922 26.3955 9.14586C26.4326 8.9625 26.4772 8.78285 26.5317 8.60321C26.5862 8.4248 26.6494 8.24887 26.7213 8.07666C26.7919 7.90445 26.8724 7.73595 26.9604 7.57117C27.0484 7.4064 27.145 7.24657 27.2491 7.09171C27.3531 6.93684 27.4647 6.78693 27.5824 6.64197C27.7013 6.49826 27.8277 6.3595 27.959 6.22817C28.0916 6.0956 28.2303 5.97047 28.3753 5.85277C28.519 5.73384 28.6701 5.62357 28.825 5.5195C28.9811 5.41543 29.1409 5.32003 29.3057 5.23207C29.4717 5.1441 29.6402 5.06357 29.8137 4.99295C29.9859 4.9211 30.1618 4.85791 30.3415 4.80464C30.5199 4.75012 30.702 4.70428 30.8853 4.66835C31.0687 4.63242 31.2533 4.60517 31.4404 4.58658C31.6262 4.568 31.8133 4.55933 32.0004 4.55933C32.1875 4.55933 32.3733 4.568 32.5604 4.58658C32.7462 4.60517 32.9308 4.63242 33.1142 4.66835C33.2988 4.70428 33.4797 4.75012 33.6593 4.80464C33.8377 4.85791 34.0137 4.9211 34.1871 4.99295C34.3593 5.06357 34.5291 5.1441 34.6938 5.23207C34.8586 5.32003 35.0184 5.41543 35.1745 5.5195C35.3306 5.62357 35.4806 5.73384 35.6255 5.85277C35.7692 5.97047 35.908 6.0956 36.0406 6.22817C36.1731 6.3595 36.2982 6.49826 36.4172 6.64197C36.5361 6.78693 36.6476 6.93684 36.7517 7.09171C36.8545 7.24657 36.9512 7.4064 37.0391 7.57117C37.1271 7.73595 37.2076 7.90445 37.2795 8.07666C37.3513 8.24887 37.4133 8.4248 37.4678 8.60321C37.5223 8.78285 37.5682 8.9625 37.6041 9.14586C37.6413 9.32922 37.6685 9.51382 37.6871 9.69966C37.7044 9.8855 37.7144 10.0713 37.7144 10.2584C37.7144 10.4443 37.7044 10.6313 37.6859 10.8159C37.6673 11.0018 37.64 11.1864 37.6028 11.3697C37.5669 11.5519 37.5211 11.7328 37.4666 11.9112C37.4121 12.0908 37.3489 12.2655 37.277 12.4377C37.2051 12.6099 37.1259 12.7784 37.0379 12.9432C36.9487 13.108 36.8533 13.2678 36.7492 13.4227C36.6452 13.5775 36.5336 13.7274 36.4147 13.8712C36.2958 14.0161 36.1706 14.1536 36.0381 14.2862C35.9067 14.4175 35.768 14.5427 35.623 14.6616C35.4781 14.7793 35.3282 14.8908 35.1733 14.9949C35.0172 15.0989 34.8574 15.1943 34.6926 15.2823C34.5278 15.3703 34.3581 15.4496 34.1859 15.5214C34.0124 15.5933 33.8365 15.6565 33.6581 15.7097C33.4784 15.7642 33.2976 15.8101 33.1142 15.846C32.9308 15.8832 32.7462 15.9104 32.5604 15.929C32.3733 15.9476 32.1875 15.9575 32.0004 15.9575ZM32.0004 6.83896C31.7749 6.83896 31.5519 6.86003 31.3314 6.90463C31.1108 6.94799 30.8965 7.01242 30.6884 7.09914C30.4802 7.18463 30.282 7.28994 30.0949 7.41507C29.9078 7.53896 29.7344 7.68144 29.5758 7.84002C29.416 7.99861 29.2747 8.17206 29.1496 8.3579C29.0245 8.54498 28.9192 8.74197 28.8324 8.94887C28.7457 9.15701 28.6813 9.37011 28.6379 9.59064C28.5933 9.81117 28.571 10.0329 28.571 10.2584C28.571 10.4827 28.5933 10.7044 28.6379 10.925C28.6813 11.1455 28.7457 11.3586 28.8324 11.5667C28.9192 11.7736 29.0245 11.9706 29.1496 12.1577C29.2747 12.3448 29.416 12.517 29.5758 12.6756C29.7344 12.8342 29.9078 12.9766 30.0949 13.1018C30.282 13.2257 30.4802 13.331 30.6884 13.4177C30.8965 13.5032 31.1108 13.5676 31.3314 13.6122C31.5519 13.6556 31.7749 13.6779 32.0004 13.6779C32.2246 13.6779 32.4476 13.6556 32.6694 13.6122C32.8899 13.5676 33.1043 13.5032 33.3124 13.4177C33.5206 13.331 33.7176 13.2257 33.9046 13.1018C34.0917 12.9766 34.2652 12.8342 34.4237 12.6756C34.5836 12.517 34.726 12.3448 34.8512 12.1577C34.9763 11.9706 35.0816 11.7736 35.1671 11.5667C35.2538 11.3586 35.3183 11.1455 35.3629 10.925C35.4062 10.7044 35.4285 10.4827 35.4285 10.2584C35.4285 10.0329 35.4062 9.81117 35.3629 9.59064C35.3183 9.37011 35.2538 9.15701 35.1671 8.94887C35.0816 8.74197 34.9763 8.54498 34.8512 8.3579C34.726 8.17206 34.5836 7.99861 34.4237 7.84002C34.2652 7.68144 34.0917 7.53896 33.9046 7.41507C33.7176 7.28994 33.5206 7.18463 33.3124 7.09914C33.1043 7.01242 32.8899 6.94799 32.6694 6.90463C32.4476 6.86003 32.2246 6.83896 32.0004 6.83896Z" fill="#FDFDFD"/>
<mask id="mask4_340_1384" style="mask-type:luminance" maskUnits="userSpaceOnUse" x="0" y="33" width="8" height="10">
<path d="M0 33.051H7.109V42.2489H0V33.051Z" fill="white"/>
</mask>
<g mask="url(#mask4_340_1384)">
<path d="M2.28583 42.1735H1.14354C0.992386 42.1735 0.846192 42.145 0.706192 42.0868C0.566193 42.0298 0.4423 41.9468 0.335751 41.8402C0.227964 41.7337 0.144955 41.6098 0.0879643 41.4698C0.0297346 41.331 0 41.1848 0 41.0337V34.1948C0 34.0436 0.0297346 33.8986 0.0879643 33.7586C0.144955 33.6186 0.227964 33.496 0.335751 33.3894C0.4423 33.2817 0.566193 33.1999 0.706192 33.1417C0.846192 33.0834 0.992386 33.0549 1.14354 33.0549H2.28583C2.43822 33.0549 2.58318 33.0834 2.72318 33.1417C2.86318 33.1999 2.98707 33.2817 3.09486 33.3894C3.20141 33.496 3.28441 33.6186 3.34264 33.7586C3.39963 33.8986 3.42937 34.0436 3.42937 34.1948C3.42937 34.3459 3.45786 34.4909 3.51609 34.6309C3.57432 34.7709 3.65609 34.8935 3.76388 35.0013C3.87043 35.1078 3.99432 35.1896 4.13432 35.2478C4.27432 35.3061 4.42052 35.3346 4.57167 35.3346H5.7152C5.86635 35.3346 6.01255 35.3631 6.15254 35.4213C6.29254 35.4795 6.4152 35.5613 6.52299 35.6691C6.62953 35.7756 6.71254 35.8983 6.77077 36.0383C6.829 36.1783 6.8575 36.3232 6.8575 36.4744C6.8575 36.6255 6.829 36.7717 6.77077 36.9105C6.71254 37.0505 6.62953 37.1731 6.52299 37.2809C6.4152 37.3875 6.29254 37.4693 6.15254 37.5275C6.01255 37.5857 5.86635 37.6142 5.7152 37.6142C5.86635 37.6142 6.01255 37.6439 6.15254 37.7009C6.29254 37.7592 6.4152 37.8409 6.52299 37.9487C6.62953 38.0553 6.71254 38.1779 6.77077 38.3179C6.829 38.4579 6.8575 38.6029 6.8575 38.754C6.8575 38.9052 6.829 39.0514 6.77077 39.1901C6.71254 39.3301 6.62953 39.4528 6.52299 39.5606C6.4152 39.6671 6.29254 39.7489 6.15254 39.8071C6.01255 39.8654 5.86635 39.8938 5.7152 39.8938H4.57167C4.42052 39.8938 4.27432 39.9236 4.13432 39.9806C3.99432 40.0388 3.87043 40.1206 3.76388 40.2284C3.65609 40.3349 3.57432 40.4576 3.51609 40.5976C3.45786 40.7376 3.42937 40.8825 3.42937 41.0337C3.42937 41.1848 3.39963 41.331 3.34264 41.4698C3.28441 41.6098 3.20141 41.7337 3.09486 41.8402C2.98707 41.9468 2.86318 42.0298 2.72318 42.0868C2.58318 42.145 2.43822 42.1735 2.28583 42.1735ZM2.28583 36.7408V38.4877C2.60052 38.2064 2.95362 37.9896 3.3476 37.8397C3.74158 37.6885 4.15043 37.6142 4.57167 37.6142C4.15043 37.6142 3.74158 37.5399 3.3476 37.3887C2.95362 37.2388 2.60052 37.0232 2.28583 36.7408Z" fill="#FDFDFD"/>
</g>
<path d="M37.7144 29.6351H5.71522C5.56283 29.6351 5.41788 29.6066 5.27788 29.5484C5.13788 29.4902 5.01398 29.4084 4.9062 29.3018C4.79965 29.194 4.71664 29.0714 4.65841 28.9314C4.60142 28.7914 4.57169 28.6464 4.57169 28.4953C4.57169 28.3441 4.60142 28.1992 4.65841 28.0592C4.71664 27.9192 4.79965 27.7965 4.9062 27.6887C5.01398 27.5822 5.13788 27.5004 5.27788 27.4422C5.41788 27.384 5.56283 27.3555 5.71522 27.3555H37.7144C37.8656 27.3555 38.0117 27.384 38.1517 27.4422C38.2917 27.5004 38.4156 27.5822 38.5222 27.6887C38.63 27.7965 38.7117 27.9192 38.77 28.0592C38.8282 28.1992 38.8567 28.3441 38.8567 28.4953C38.8567 28.6464 38.8282 28.7914 38.77 28.9314C38.7117 29.0714 38.63 29.194 38.5222 29.3018C38.4156 29.4084 38.2917 29.4902 38.1517 29.5484C38.0117 29.6066 37.8656 29.6351 37.7144 29.6351Z" fill="#FDFDFD"/>
<path d="M20.5712 23.9359H22.8571V28.4952H20.5712V23.9359Z" fill="#FDFDFD"/>
<path d="M16.0009 23.9359H18.2854V28.4952H16.0009V23.9359Z" fill="#FDFDFD"/>
<path d="M11.4292 23.9359H13.715V28.4952H11.4292V23.9359Z" fill="#FDFDFD"/>
<path d="M29.7146 23.9359H32.0004V28.4952H29.7146V23.9359Z" fill="#FDFDFD"/>
<path d="M25.1429 23.9359H27.4287V28.4952H25.1429V23.9359Z" fill="#FDFDFD"/>
<path d="M6.85751 25.0758H9.14335V28.4953H6.85751V25.0758Z" fill="#FDFDFD"/>
<path d="M34.2863 25.0758H36.5708V28.4953H34.2863V25.0758Z" fill="#FDFDFD"/>
<path d="M37.7144 47.8724H5.71522C5.56283 47.8724 5.41788 47.8439 5.27788 47.7857C5.13788 47.7287 5.01398 47.6457 4.9062 47.5391C4.79965 47.4326 4.71664 47.3087 4.65841 47.1687C4.60142 47.0299 4.57169 46.8837 4.57169 46.7326C4.57169 46.5814 4.60142 46.4365 4.65841 46.2965C4.71664 46.1577 4.79965 46.0338 4.9062 45.9273C5.01398 45.8207 5.13788 45.7377 5.27788 45.6795C5.41788 45.6225 5.56283 45.5928 5.71522 45.5928H37.7144C37.8656 45.5928 38.0117 45.6225 38.1517 45.6795C38.2917 45.7377 38.4156 45.8207 38.5222 45.9273C38.63 46.0338 38.7117 46.1577 38.77 46.2965C38.8282 46.4365 38.8567 46.5814 38.8567 46.7326C38.8567 46.8837 38.8282 47.0299 38.77 47.1687C38.7117 47.3087 38.63 47.4326 38.5222 47.5391C38.4156 47.6457 38.2917 47.7287 38.1517 47.7857C38.0117 47.8439 37.8656 47.8724 37.7144 47.8724Z" fill="#FDFDFD"/>
<path d="M20.5712 46.7327H22.8571V51.2919H20.5712V46.7327Z" fill="#FDFDFD"/>
<path d="M16.0009 46.7327H18.2854V51.2919H16.0009V46.7327Z" fill="#FDFDFD"/>
<path d="M11.4292 46.7327H13.715V51.2919H11.4292V46.7327Z" fill="#FDFDFD"/>
<path d="M29.7146 46.7327H32.0004V51.2919H29.7146V46.7327Z" fill="#FDFDFD"/>
<path d="M25.1429 46.7327H27.4287V51.2919H25.1429V46.7327Z" fill="#FDFDFD"/>
<path d="M6.85751 46.7327H9.14335V50.1521H6.85751V46.7327Z" fill="#FDFDFD"/>
<path d="M34.2863 46.7327H36.5708V50.1521H34.2863V46.7327Z" fill="#FDFDFD"/>
</svg>
