<svg width="44" height="31" viewBox="0 0 44 31" fill="none" xmlns="http://www.w3.org/2000/svg">
<mask id="mask0_340_1479" style="mask-type:luminance" maskUnits="userSpaceOnUse" x="0" y="0" width="44" height="31">
<path d="M0 0.666748H43.8308V30.3333H0V0.666748Z" fill="white"/>
</mask>
<g mask="url(#mask0_340_1479)">
<path d="M42.5763 27.3533C42.3231 26.807 42.0606 26.2417 41.7185 25.7334C41.3059 25.1215 40.8325 24.6824 40.2727 24.3918C39.0342 23.7474 37.4952 23.8412 36.007 23.9301C35.015 23.9908 34.0769 24.0478 33.2976 23.8884C31.7935 23.5794 30.379 22.3666 29.5144 20.643C29.2747 20.1654 29.0901 19.6761 28.962 19.1899C29.2753 17.9967 29.4409 16.744 29.4409 15.4521C29.4409 7.32119 22.8452 0.729248 14.7082 0.729248C6.57109 0.729248 -0.0251465 7.32119 -0.0251465 15.4521C-0.0251465 23.5837 6.57109 30.1756 14.7082 30.1756C20.8648 30.1756 26.1397 26.4017 28.3415 21.0422C28.366 21.0931 28.3905 21.144 28.4157 21.1936C28.8988 22.1575 29.5518 23.0153 30.3023 23.6769C30.7039 24.0301 31.1331 24.3274 31.5789 24.5617C32.0529 24.8106 32.5483 24.9878 33.0511 25.0908C33.9898 25.2833 35.0536 25.2196 36.0819 25.1564C37.4032 25.0761 38.7693 24.9945 39.7068 25.482C40.5609 25.9253 40.9987 26.8702 41.4622 27.8696C41.8552 28.7176 42.263 29.595 42.962 30.2504L43.802 29.354C43.2759 28.8617 42.9356 28.1289 42.5763 27.3533ZM19.9929 7.53089C21.687 6.55292 23.8533 7.13296 24.8324 8.82585C25.811 10.52 25.2304 12.6844 23.5356 13.663C21.8415 14.6397 19.6747 14.0603 18.6961 12.3668C17.7181 10.6733 18.2981 8.50763 19.9929 7.53089ZM3.90267 10.0019C4.88126 8.30836 7.04812 7.72832 8.74224 8.70506C10.4364 9.68303 11.017 11.8487 10.0384 13.5422C9.06047 15.2351 6.8936 15.8157 5.19948 14.8384C3.50474 13.8604 2.9247 11.6948 3.90267 10.0019ZM9.42161 23.3734C7.72748 24.3501 5.56062 23.7701 4.58265 22.0772C3.60407 20.3843 4.18472 18.218 5.87885 17.2401C7.57358 16.2627 9.73983 16.8434 10.7184 18.5363C11.6964 20.2304 11.1157 22.3954 9.42161 23.3734ZM10.4854 6.91651C10.4854 4.96119 12.0716 3.37559 14.0282 3.37559C15.9847 3.37559 17.5709 4.96119 17.5709 6.91651C17.5709 8.87184 15.9847 10.4568 14.0282 10.4568C12.0716 10.4568 10.4854 8.87123 10.4854 6.91651ZM17.1319 15.4515C17.1319 16.79 16.0467 17.8753 14.7069 17.8753C13.3684 17.8753 12.2826 16.79 12.2826 15.4515C12.2826 14.1136 13.3678 13.029 14.7069 13.029C16.0467 13.029 17.1319 14.1136 17.1319 15.4515ZM15.3863 27.5268C13.4298 27.5275 11.8442 25.9425 11.8442 23.9865C11.8442 22.0312 13.4298 20.4462 15.3863 20.4462C17.3429 20.4462 18.9291 22.0312 18.9291 23.9865C18.9291 25.9425 17.3429 27.5275 15.3863 27.5268ZM25.5112 20.9012C24.5326 22.5941 22.3664 23.1753 20.6716 22.1974C18.9775 21.22 18.3975 19.055 19.3748 17.3609C20.3528 15.6673 22.5197 15.0879 24.2144 16.0659C25.9085 17.0426 26.4898 19.2083 25.5112 20.9012Z" fill="#FDFDFD"/>
</g>
</svg>
