<svg width="36" height="37" viewBox="0 0 36 37" fill="none" xmlns="http://www.w3.org/2000/svg">
<mask id="mask0_340_1696" style="mask-type:luminance" maskUnits="userSpaceOnUse" x="0" y="0" width="36" height="37">
<path d="M0 0.552002H35.7789V36.448H0V0.552002Z" fill="white"/>
</mask>
<g mask="url(#mask0_340_1696)">
<path d="M29.3247 0.552002H6.46088C2.90343 0.552002 0.00915527 3.44506 0.00915527 7.00068V29.9993C0.00915527 33.5549 2.90343 36.448 6.46088 36.448H29.3247C32.8821 36.448 35.7764 33.5549 35.7764 29.9993V7.00068C35.7764 3.44506 32.8821 0.552002 29.3247 0.552002ZM33.6667 29.9993C33.6667 32.3921 31.7187 34.3389 29.3247 34.3389H6.46088C4.06688 34.3389 2.11885 32.3921 2.11885 29.9993V7.00068C2.11885 4.60789 4.06688 2.66109 6.46088 2.66109H29.3247C31.7187 2.66109 33.6667 4.60789 33.6667 7.00068V29.9993Z" fill="#FDFDFD"/>
</g>
<path d="M23.0633 7.6015C22.9145 7.15857 22.5045 6.87915 22.0616 6.87915H13.6215C13.1737 6.87915 12.7741 7.16223 12.6259 7.58503L5.24131 28.6753C5.00033 29.3623 5.51219 30.0785 6.23698 30.0785H10.3929C13.4031 30.0785 16.0936 28.1701 17.0881 25.3308L17.8422 23.1772L18.5956 25.3302C19.5901 28.1701 22.2806 30.0785 25.2908 30.0785H29.4467C30.1746 30.0785 30.6816 29.3586 30.4424 28.6753L23.0633 7.6015ZM15.0961 24.6341C14.3976 26.6291 12.5075 27.9694 10.3929 27.9694H7.72378L14.3701 8.98824H20.5748C20.3478 9.63677 15.3359 23.9501 15.0961 24.6341ZM25.2908 27.9694C23.1762 27.9694 21.2861 26.6291 20.5876 24.6341L18.9598 19.9845L22.0616 11.126L27.9599 27.9694H25.2908Z" fill="#FDFDFD"/>
</svg>
