<svg width="53" height="59" viewBox="0 0 53 59" fill="none" xmlns="http://www.w3.org/2000/svg">
<mask id="mask0_340_1929" style="mask-type:luminance" maskUnits="userSpaceOnUse" x="0" y="0" width="53" height="59">
<path d="M0 0H53V58.828H0V0Z" fill="white"/>
</mask>
<g mask="url(#mask0_340_1929)">
<path d="M45.2928 54.6724L43.1983 54.1487V6.94975C43.1983 6.4111 42.7587 5.97157 42.2191 5.97157H11.0364L11.6762 2.13994L50.9306 5.87145L45.2928 54.6724ZM41.2389 56.871H2.04156V7.92893H41.2389V56.871ZM10.9523 0.102484C10.4317 0.0404089 9.97614 0.411857 9.89605 0.916467L9.05002 5.97157H1.06138C0.521728 5.97157 0.0811958 6.4111 0.0811958 6.94975V57.8502C0.0811958 58.3889 0.521728 58.8284 1.06138 58.8284H42.2191C42.7587 58.8284 43.1983 58.3889 43.1983 57.8502V56.1672L45.9015 56.841C45.9816 56.86 46.0577 56.871 46.1388 56.871C46.337 56.871 46.5323 56.81 46.6975 56.6988C46.9268 56.5346 47.0799 56.2823 47.111 56.003L52.9901 5.10352C53.0211 4.84321 52.944 4.58289 52.7798 4.37664C52.6156 4.1704 52.3743 4.04424 52.11 4.01721L10.9523 0.102484Z" fill="#FDFDFD"/>
</g>
<path d="M5.96124 15.7588H4.00088V31.4207H39.2785V29.4633H5.96124V15.7588Z" fill="#FDFDFD"/>
<path d="M27.5922 21.4801L21.5139 17.4382L15.76 23.1851L12.8204 20.2486L7.22765 25.8343L8.61333 27.219L12.8204 23.0169L15.76 25.9535L21.7662 19.9542L27.4471 23.7428L39.7189 17.6144L38.8388 15.8623L27.5922 21.4801Z" fill="#FDFDFD"/>
<path d="M5.96124 13.8015C7.04055 13.8015 7.92061 12.9224 7.92061 11.8441C7.92061 10.7658 7.04055 9.88574 5.96124 9.88574C4.88194 9.88574 4.00088 10.7658 4.00088 11.8441C4.00088 12.9224 4.88194 13.8015 5.96124 13.8015Z" fill="#FDFDFD"/>
<path d="M37.319 13.8015C38.3983 13.8015 39.2784 12.9224 39.2784 11.8441C39.2784 10.7658 38.3983 9.88574 37.319 9.88574C36.2397 9.88574 35.3587 10.7658 35.3587 11.8441C35.3587 12.9224 36.2397 13.8015 37.319 13.8015Z" fill="#FDFDFD"/>
<path d="M5.96124 50.9971C4.88194 50.9971 4.00088 51.8771 4.00088 52.9544C4.00088 54.0327 4.88194 54.9128 5.96124 54.9128C7.04055 54.9128 7.92061 54.0327 7.92061 52.9544C7.92061 51.8771 7.04055 50.9971 5.96124 50.9971Z" fill="#FDFDFD"/>
<path d="M37.319 50.9971C36.2397 50.9971 35.3587 51.8771 35.3587 52.9544C35.3587 54.0327 36.2397 54.9128 37.319 54.9128C38.3983 54.9128 39.2784 54.0327 39.2784 52.9544C39.2784 51.8771 38.3983 50.9971 37.319 50.9971Z" fill="#FDFDFD"/>
<path d="M4.00088 35.3368H15.7601V33.3784H4.00088V35.3368Z" fill="#FDFDFD"/>
<path d="M21.6401 54.913H33.3993V52.9546H21.6401V54.913Z" fill="#FDFDFD"/>
<path d="M4.00088 39.2513H15.7601V37.2939H4.00088V39.2513Z" fill="#FDFDFD"/>
<path d="M4.00088 43.1668H15.7601V41.2095H4.00088V43.1668Z" fill="#FDFDFD"/>
<path d="M5.96124 45.125H4.00088V47.0834H5.96124V45.125Z" fill="#FDFDFD"/>
<path d="M7.92056 47.0834H9.88093V45.125H7.92056V47.0834Z" fill="#FDFDFD"/>
<path d="M13.8006 45.125H11.8402V47.0834H13.8006V45.125Z" fill="#FDFDFD"/>
<path d="M19.6798 42.1881C19.6798 38.7429 22.2409 35.8834 25.5599 35.4049V43.1672H33.3303C32.8517 46.4822 29.9882 49.0403 26.5401 49.0403C22.7575 49.0403 19.6798 45.9656 19.6798 42.1881ZM35.3587 42.1881V41.2099H27.5193V33.3784H26.5401C21.6742 33.3784 17.7204 37.3282 17.7204 42.1881C17.7204 47.0479 21.6742 50.9977 26.5401 50.9977C31.4049 50.9977 35.3587 47.0479 35.3587 42.1881Z" fill="#FDFDFD"/>
<path d="M28.5684 38.8881L30.3906 39.6149L32.1016 35.3368H39.2783V33.3784H30.777L28.5684 38.8881Z" fill="#FDFDFD"/>
<path d="M17.7204 54.913H19.6798V52.9546H17.7204V54.913Z" fill="#FDFDFD"/>
<path d="M13.8006 54.913H15.7599V52.9546H13.8006V54.913Z" fill="#FDFDFD"/>
</svg>
