<svg width="56" height="56" viewBox="0 0 56 56" fill="none" xmlns="http://www.w3.org/2000/svg">
<mask id="mask0_340_1924" style="mask-type:luminance" maskUnits="userSpaceOnUse" x="0" y="0" width="56" height="56">
<path d="M0 0H56V55.9991H0V0Z" fill="white"/>
</mask>
<g mask="url(#mask0_340_1924)">
<path fill-rule="evenodd" clip-rule="evenodd" d="M54.2902 18.3912C55.3958 21.3829 55.9848 24.6252 55.9848 27.9991C55.9848 43.4587 43.4587 55.9848 28 55.9848C21.5011 55.9848 15.5178 53.7737 10.7725 50.0605L7.89898 52.5509C7.64832 52.772 7.32428 52.8311 7.01453 52.7129C6.69049 52.5947 6.49893 52.3298 6.45509 51.9905L5.31999 41.7784C5.27615 41.4839 5.39433 41.2037 5.62974 41.0122C5.86514 40.8206 6.16059 40.7615 6.43984 40.8501L15.9009 43.8265C16.2106 43.9295 16.4174 44.1658 16.4908 44.4899C16.5499 44.7996 16.446 45.1084 16.2106 45.3295L13.705 47.5111C17.6993 50.4437 22.6505 52.182 28 52.182C41.3514 52.182 52.183 41.3505 52.183 27.9991C52.183 25.2876 51.7408 22.68 50.9154 20.2478C50.7982 19.8799 50.9154 19.4968 51.2252 19.2604L52.9493 17.9929C53.1847 17.8165 53.4506 17.7717 53.7308 17.8604C53.9957 17.9347 54.2016 18.1263 54.2902 18.3912ZM28 19.8647C32.4803 19.8647 36.1201 23.5044 36.1201 27.9991C36.1201 32.4794 32.4803 36.1191 28 36.1191C23.5054 36.1191 19.8656 32.4794 19.8656 27.9991C19.8656 23.5044 23.5054 19.8647 28 19.8647ZM32.6567 13.1599C33.5268 13.4401 34.3808 13.7937 35.1918 14.2063C35.4425 14.3388 35.5749 14.619 35.5158 14.8983C35.1766 16.4012 35.6045 18.0376 36.7682 19.2166C37.9471 20.3955 39.5835 20.8082 41.0865 20.4842C41.3667 20.4098 41.6459 20.5423 41.7784 20.7929C42.1911 21.604 42.5456 22.4589 42.8249 23.3424C42.9135 23.6083 42.8106 23.8875 42.5742 24.0505C41.2628 24.8749 40.4079 26.3341 40.4079 27.9991C40.4079 29.6498 41.2628 31.1089 42.5742 31.9342C42.8106 32.0963 42.9135 32.3765 42.8249 32.6567C42.5456 33.5259 42.1911 34.3808 41.7784 35.1909C41.6459 35.4415 41.3667 35.574 41.0865 35.5149C39.5835 35.1766 37.9471 35.6035 36.7682 36.7682C35.6045 37.9471 35.1766 39.5826 35.5158 41.0855C35.5749 41.3657 35.4425 41.6459 35.1918 41.7784C34.3808 42.1911 33.5268 42.5447 32.6567 42.8249C32.3765 42.9135 32.0972 42.8096 31.9352 42.5742C31.1098 41.2628 29.6507 40.4079 28 40.4079C26.335 40.4079 24.8759 41.2628 24.0505 42.5742C23.8885 42.8096 23.6083 42.9135 23.3433 42.8249C22.4589 42.5447 21.604 42.1911 20.7939 41.7784C20.5432 41.6459 20.4108 41.3657 20.4842 41.0855C20.8082 39.5826 20.3955 37.9471 19.2166 36.7682C18.0376 35.6035 16.4022 35.1766 14.8992 35.5149C14.619 35.574 14.3388 35.4415 14.2063 35.1909C13.7937 34.3808 13.4401 33.5259 13.1599 32.6567C13.0722 32.3765 13.1751 32.0963 13.4258 31.9342C14.7219 31.1089 15.5768 29.6498 15.5768 27.9991C15.5768 26.3341 14.7219 24.8749 13.4258 24.0505C13.1751 23.8875 13.0722 23.6083 13.1599 23.3424C13.4401 22.4589 13.7937 21.604 14.2063 20.7929C14.3388 20.5423 14.619 20.4098 14.8992 20.4842C16.4022 20.8082 18.0376 20.3955 19.2166 19.2166C20.3955 18.0376 20.8082 16.4012 20.4842 14.8983C20.4108 14.619 20.5432 14.3388 20.7939 14.2063C21.604 13.7937 22.4589 13.4401 23.3433 13.1599C23.6083 13.0712 23.8885 13.1742 24.0505 13.4248C24.8759 14.7219 26.335 15.5768 28 15.5768C29.6507 15.5768 31.1098 14.7219 31.9352 13.4248C32.0972 13.1742 32.3765 13.0712 32.6567 13.1599ZM28 0C34.4846 0 40.467 2.21015 45.2123 5.92423L48.0858 3.43293C48.3364 3.21277 48.6605 3.15368 48.9855 3.27091C49.2943 3.38909 49.4858 3.65404 49.5306 3.99333L50.6648 14.2063C50.7096 14.5008 50.5914 14.781 50.356 14.9726C50.1196 15.1642 49.8251 15.2223 49.5449 15.1346L40.0839 12.1573C39.7751 12.0543 39.5683 11.8189 39.4949 11.4939C39.4358 11.1851 39.5387 10.8754 39.7751 10.6543L42.2797 8.47367C38.2864 5.5411 33.3343 3.80176 28 3.80176C14.6343 3.80176 3.80272 14.6333 3.80272 27.9991C3.80272 30.6962 4.24494 33.3047 5.06934 35.736C5.20276 36.1048 5.06934 36.488 4.76054 36.7234L3.03645 37.9909C2.8001 38.1682 2.53514 38.2121 2.25494 38.1234C1.98999 38.05 1.78318 37.8585 1.6955 37.5935C0.604241 34.6019 0 31.3595 0 27.9991C0 12.5261 12.5261 0 28 0Z" fill="#FDFDFD"/>
</g>
</svg>
