<svg width="57" height="57" viewBox="0 0 57 57" fill="none" xmlns="http://www.w3.org/2000/svg">
<mask id="mask0_340_1912" style="mask-type:luminance" maskUnits="userSpaceOnUse" x="0" y="0" width="41" height="41">
<path d="M0 0H40.9857V40.726H0V0Z" fill="white"/>
</mask>
<g mask="url(#mask0_340_1912)">
<path fill-rule="evenodd" clip-rule="evenodd" d="M20.5151 40.6583C9.28476 40.6583 0.191895 31.5655 0.191895 20.334C0.191895 9.10263 9.28476 0.00976562 20.5151 0.00976562C31.7455 0.00976562 40.8383 9.10263 40.8383 20.334C40.8383 31.5655 31.7455 40.6583 20.5151 40.6583ZM20.5151 2.4187C4.58353 2.4187 -3.40666 21.7495 7.84703 33.0021C19.1028 44.2579 38.4305 36.2614 38.4305 20.334C38.4305 10.4333 30.4148 2.4187 20.5151 2.4187Z" fill="#FDFDFD"/>
</g>
<mask id="mask1_340_1912" style="mask-type:luminance" maskUnits="userSpaceOnUse" x="30" y="30" width="28" height="27">
<path d="M30.6716 30.4111H57.0002V56.6167H30.6716V30.4111Z" fill="white"/>
</mask>
<g mask="url(#mask1_340_1912)">
<path fill-rule="evenodd" clip-rule="evenodd" d="M50.3861 56.6069C48.6928 56.6069 47.1586 55.9315 46.1079 54.6942L30.7266 36.5986C30.1667 35.9412 36.733 30.5074 36.7796 30.5466L54.8742 45.9279C58.8926 49.343 56.2281 56.6059 50.3861 56.6059V56.6069Z" fill="#FDFDFD"/>
</g>
<path fill-rule="evenodd" clip-rule="evenodd" d="M19.616 18.7648H21.937C23.538 18.7648 23.538 21.197 21.937 21.197H19.616V22.7206H22.3801C23.9811 22.7206 23.9811 25.1518 22.3801 25.1518H18.3999C17.7287 25.1518 17.1838 24.6079 17.1838 23.9357V16.025C17.1838 15.3539 17.7287 14.8089 18.3999 14.8089H22.3801C23.9811 14.8089 23.9811 17.2412 22.3801 17.2412H19.616V18.7648ZM20.1663 35.869C11.4064 35.869 4.2803 28.7419 4.2803 19.9809C4.2803 18.3799 6.7115 18.3799 6.7115 19.9809C6.7115 27.3996 12.7476 33.4368 20.1663 33.4368C21.7673 33.4368 21.7673 35.869 20.1663 35.869ZM34.8372 21.196C34.1661 21.196 33.6211 20.651 33.6211 19.9798C33.6211 12.5611 27.585 6.52503 20.1663 6.52503C18.5653 6.52503 18.5653 4.09277 20.1663 4.09277C28.9273 4.09277 36.047 11.221 36.0534 19.9798C36.0534 20.651 35.5084 21.196 34.8372 21.196ZM12.2132 25.1518C10.0005 25.1518 8.29766 22.7471 9.8923 21.8576C11.1911 21.1345 11.4233 22.7206 12.2122 22.7206C12.9332 22.7206 13.1558 21.8438 12.8335 21.5087C12.1592 20.8079 9.01864 21.3762 9.01864 18.0035C9.01864 14.4643 13.9616 13.5864 15.2011 16.8785C15.7662 18.3767 13.4898 19.2334 12.9257 17.7352C12.632 16.9549 11.4509 17.1574 11.4509 18.0035C11.4509 19.5101 15.4068 18.0735 15.4068 21.9583C15.4057 23.7194 13.9743 25.1518 12.2132 25.1518ZM28.1077 25.1518C26.3402 25.1518 24.9015 23.7141 24.9015 21.9466V18.0162C24.9015 13.7963 31.314 13.7963 31.314 18.0162V21.9466C31.314 23.7141 29.8762 25.1518 28.1077 25.1518ZM28.1077 17.2422C27.6815 17.2422 27.3337 17.5889 27.3337 18.0162V21.9456C27.3337 22.9655 28.8817 22.9655 28.8817 21.9456V18.0162C28.8817 17.59 28.535 17.2422 28.1088 17.2422H28.1077Z" fill="#FDFDFD"/>
</svg>
