<svg width="68" height="59" viewBox="0 0 68 59" fill="none" xmlns="http://www.w3.org/2000/svg">
<path d="M11.3988 27.657L17.1437 41.5193L44.1142 42.3832L29.8631 7.98047L11.3988 27.657Z" fill="#FDFDFD"/>
<path d="M36.1789 5.36318C35.668 4.13369 34.2574 3.55123 33.0268 4.06102C31.7961 4.57197 31.2079 5.98139 31.7189 7.21203L45.9745 41.6148C46.4797 42.8512 47.896 43.4337 49.1267 42.9239C50.3573 42.4129 50.9398 41.0035 50.4288 39.7729L36.1789 5.36318Z" fill="#FDFDFD"/>
<path d="M43.4902 16.5432L42.752 16.8558L46.9537 27.0031L47.6977 26.6975C49.415 25.9835 50.9629 25.1254 48.9341 20.2409C46.9111 15.3495 45.2122 15.8362 43.4902 16.5432Z" fill="#FDFDFD"/>
<path d="M49.8464 11.671C50.1289 11.551 50.3746 11.3469 50.5315 11.0643L55.634 2.09915C56.0181 1.42674 55.7839 0.568628 55.1057 0.184556C54.4264 -0.199517 53.5683 0.0346173 53.1842 0.712799L48.0875 9.67219C47.7034 10.3504 47.9375 11.2085 48.6157 11.5925C49.0067 11.8152 49.4623 11.8267 49.8464 11.671Z" fill="#FDFDFD"/>
<mask id="mask0_340_1887" style="mask-type:luminance" maskUnits="userSpaceOnUse" x="54" y="25" width="14" height="7">
<path d="M54.491 25.5439H67.7686V31.1539H54.491V25.5439Z" fill="white"/>
</mask>
<g mask="url(#mask0_340_1887)">
<path d="M66.493 28.3338L56.5521 25.598C55.8013 25.3881 55.0273 25.8321 54.8232 26.5818C54.6191 27.3315 55.0573 28.0996 55.807 28.3096L65.7479 31.0465C66.0663 31.1307 66.3846 31.1007 66.6603 30.9865C67.0443 30.8251 67.3627 30.494 67.4826 30.0627C67.6868 29.3118 67.2427 28.5379 66.493 28.3338Z" fill="#FDFDFD"/>
</g>
<mask id="mask1_340_1887" style="mask-type:luminance" maskUnits="userSpaceOnUse" x="53" y="11" width="15" height="9">
<path d="M53.9004 11.666H67.7686V19.0476H53.9004V11.666Z" fill="white"/>
</mask>
<g mask="url(#mask1_340_1887)">
<path d="M65.6706 11.7904L54.8047 16.2851C54.0907 16.585 53.7482 17.4073 54.0423 18.1213C54.3433 18.841 55.1657 19.1835 55.8854 18.8837L66.7444 14.389C67.4652 14.0879 67.8066 13.2667 67.5068 12.5528C67.2127 11.8319 66.3903 11.4905 65.6706 11.7904Z" fill="#FDFDFD"/>
</g>
<mask id="mask2_340_1887" style="mask-type:luminance" maskUnits="userSpaceOnUse" x="0" y="28" width="16" height="18">
<path d="M0 28.2012H15.5163V45.3264H0V28.2012Z" fill="white"/>
</mask>
<g mask="url(#mask2_340_1887)">
<path d="M9.54416 28.4248L2.79118 31.2217C2.58703 31.3059 2.33444 31.5274 2.22718 31.7258L0.0957463 35.578C-0.0126707 35.7706 -0.0299714 36.0947 0.0530714 36.3046L3.00109 43.4221C3.08528 43.6251 3.33095 43.8419 3.54087 43.9077L7.77951 45.1256C7.98942 45.1856 8.32505 45.1683 8.53612 45.0841L15.2822 42.2872L9.54416 28.4248Z" fill="#FDFDFD"/>
</g>
<mask id="mask3_340_1887" style="mask-type:luminance" maskUnits="userSpaceOnUse" x="9" y="43" width="13" height="17">
<path d="M9.90619 43.5557H21.4214V59.0005H9.90619V43.5557Z" fill="white"/>
</mask>
<g mask="url(#mask3_340_1887)">
<path d="M15.8888 43.7393L10.1323 46.1221L15.3548 58.7481C15.4448 58.9522 15.6789 59.0537 15.883 58.9695L20.8956 56.8935C21.0997 56.8093 21.2012 56.5694 21.117 56.3652L15.8888 43.7393Z" fill="#FDFDFD"/>
</g>
</svg>
