<svg width="36" height="37" viewBox="0 0 36 37" fill="none" xmlns="http://www.w3.org/2000/svg">
<mask id="mask0_340_1870" style="mask-type:luminance" maskUnits="userSpaceOnUse" x="0" y="0" width="36" height="37">
<path d="M0 0.551758H35.7789V36.4478H0V0.551758Z" fill="white"/>
</mask>
<g mask="url(#mask0_340_1870)">
<path d="M29.3247 0.551758H6.46088C2.90343 0.551758 0.00915527 3.44481 0.00915527 7.00043V29.9991C0.00915527 33.5547 2.90343 36.4478 6.46088 36.4478H29.3247C32.8821 36.4478 35.7764 33.5547 35.7764 29.9991V7.00043C35.7764 3.44481 32.8821 0.551758 29.3247 0.551758ZM33.6667 29.9991C33.6667 32.3919 31.7187 34.3387 29.3247 34.3387H6.46088C4.06688 34.3387 2.11885 32.3919 2.11885 29.9991V7.00043C2.11885 4.60765 4.06688 2.66085 6.46088 2.66085H29.3247C31.7187 2.66085 33.6667 4.60765 33.6667 7.00043V29.9991Z" fill="#373535"/>
</g>
<path d="M23.0633 7.60126C22.9145 7.15833 22.5045 6.87891 22.0616 6.87891H13.6215C13.1737 6.87891 12.7741 7.16199 12.6259 7.58478L5.24131 28.6751C5.00033 29.362 5.51219 30.0783 6.23698 30.0783H10.3929C13.4031 30.0783 16.0936 28.1699 17.0881 25.3305L17.8422 23.1769L18.5956 25.3299C19.5901 28.1699 22.2806 30.0783 25.2908 30.0783H29.4467C30.1746 30.0783 30.6816 29.3584 30.4424 28.6751L23.0633 7.60126ZM15.0961 24.6338C14.3976 26.6288 12.5075 27.9692 10.3929 27.9692H7.72378L14.3701 8.988H20.5748C20.3478 9.63652 15.3359 23.9499 15.0961 24.6338ZM25.2908 27.9692C23.1762 27.9692 21.2861 26.6288 20.5876 24.6338L18.9598 19.9843L22.0616 11.1258L27.9599 27.9692H25.2908Z" fill="#373535"/>
</svg>
