<svg width="67" height="62" viewBox="0 0 67 62" fill="none" xmlns="http://www.w3.org/2000/svg">
<mask id="mask0_340_2018" style="mask-type:luminance" maskUnits="userSpaceOnUse" x="10" y="3" width="57" height="47">
<path d="M10.8619 3.32892H66.0889V49.9247H10.8619V3.32892Z" fill="white"/>
</mask>
<g mask="url(#mask0_340_2018)">
<path d="M13.6163 21.2233V8.50746C13.6163 7.86039 13.8802 7.27291 14.308 6.84507C14.7359 6.41724 15.3255 6.1533 15.9704 6.1533H61.0422C61.6892 6.1533 62.2767 6.41724 62.7046 6.84507C63.1324 7.27291 63.3963 7.86039 63.3963 8.50746V44.733C63.3963 45.378 63.1324 45.9676 62.7046 46.3954C62.2767 46.8211 61.6892 47.0872 61.0422 47.0872H41.2148C40.9828 48.0046 40.6912 48.9028 40.3421 49.7776H61.0422C62.4321 49.7776 63.6943 49.2115 64.6075 48.2983C65.5206 47.383 66.0889 46.123 66.0889 44.733V8.50746C66.0889 7.11753 65.5206 5.85743 64.6075 4.94216C63.6943 4.02902 62.4321 3.46283 61.0422 3.46283H15.9704C14.5805 3.46283 13.3204 4.02902 12.4051 4.94216C11.492 5.85743 10.9258 7.11753 10.9258 8.50746V22.2982C11.7964 21.8789 12.6946 21.5213 13.6163 21.2233Z" fill="#FDFDFD"/>
</g>
<mask id="mask1_340_2018" style="mask-type:luminance" maskUnits="userSpaceOnUse" x="10" y="14" width="57" height="4">
<path d="M10.8619 14.7136H66.0889V17.5169H10.8619V14.7136Z" fill="white"/>
</mask>
<g mask="url(#mask1_340_2018)">
<path d="M12.271 14.7987C11.526 14.7987 10.9258 15.4011 10.9258 16.1439C10.9258 16.8868 11.526 17.4892 12.271 17.4892H64.7437C65.4865 17.4892 66.0889 16.8868 66.0889 16.1439C66.0889 15.4011 65.4865 14.7987 64.7437 14.7987H12.271Z" fill="#FDFDFD"/>
</g>
<mask id="mask2_340_2018" style="mask-type:luminance" maskUnits="userSpaceOnUse" x="19" y="0" width="4" height="10">
<path d="M19.4889 0H22.7583V9.68484H19.4889V0Z" fill="white"/>
</mask>
<g mask="url(#mask2_340_2018)">
<path d="M22.3624 1.34524C22.3624 0.602376 21.76 0 21.015 0C20.2722 0 19.6698 0.602376 19.6698 1.34524V8.07354C19.6698 8.8164 20.2722 9.41877 21.015 9.41877C21.76 9.41877 22.3624 8.8164 22.3624 8.07354V1.34524Z" fill="#FDFDFD"/>
</g>
<mask id="mask3_340_2018" style="mask-type:luminance" maskUnits="userSpaceOnUse" x="30" y="0" width="5" height="10">
<path d="M30.9319 0H34.2013V9.68484H30.9319V0Z" fill="white"/>
</mask>
<g mask="url(#mask3_340_2018)">
<path d="M34.0226 1.34524C34.0226 0.602376 33.4202 0 32.6773 0C31.9323 0 31.33 0.602376 31.33 1.34524V8.07354C31.33 8.8164 31.9323 9.41877 32.6773 9.41877C33.4202 9.41877 34.0226 8.8164 34.0226 8.07354V1.34524Z" fill="#FDFDFD"/>
</g>
<mask id="mask4_340_2018" style="mask-type:luminance" maskUnits="userSpaceOnUse" x="42" y="0" width="5" height="10">
<path d="M42.9198 0H46.1892V9.68484H42.9198V0Z" fill="white"/>
</mask>
<g mask="url(#mask4_340_2018)">
<path d="M45.6827 1.34524C45.6827 0.602376 45.0803 0 44.3374 0C43.5946 0 42.9922 0.602376 42.9922 1.34524V8.07354C42.9922 8.8164 43.5946 9.41877 44.3374 9.41877C45.0803 9.41877 45.6827 8.8164 45.6827 8.07354V1.34524Z" fill="#FDFDFD"/>
</g>
<mask id="mask5_340_2018" style="mask-type:luminance" maskUnits="userSpaceOnUse" x="54" y="0" width="4" height="10">
<path d="M54.3628 0H57.6322V9.68484H54.3628V0Z" fill="white"/>
</mask>
<g mask="url(#mask5_340_2018)">
<path d="M57.3427 1.34524C57.3427 0.602376 56.7403 0 55.9975 0C55.2546 0 54.6522 0.602376 54.6522 1.34524V8.07354C54.6522 8.8164 55.2546 9.41877 55.9975 9.41877C56.7403 9.41877 57.3427 8.8164 57.3427 8.07354V1.34524Z" fill="#FDFDFD"/>
</g>
<mask id="mask6_340_2018" style="mask-type:luminance" maskUnits="userSpaceOnUse" x="0" y="21" width="41" height="41">
<path d="M0 21.3718H40.6444V61.9992H0V21.3718Z" fill="white"/>
</mask>
<g mask="url(#mask6_340_2018)">
<path d="M20.2615 21.525C25.8575 21.525 30.9234 23.794 34.5887 27.4594C38.2562 31.1269 40.5252 36.1906 40.5252 41.7866C40.5252 47.3804 38.2562 52.4463 34.5887 56.1116C30.9234 59.7791 25.8575 62.046 20.2615 62.046V59.3555C25.1146 59.3555 29.5079 57.3887 32.6879 54.2108C35.868 51.0308 37.8347 46.6375 37.8347 41.7866C37.8347 36.9335 35.868 32.5423 32.6879 29.3623C29.5079 26.1823 25.1146 24.2155 20.2615 24.2155V21.525ZM20.2615 21.525V24.2155C15.4106 24.2155 11.0173 26.1823 7.83727 29.3623C4.65724 32.5423 2.69047 36.9335 2.69047 41.7866C2.69047 46.6375 4.65724 51.0308 7.83727 54.2108C11.0173 57.3887 15.4106 59.3555 20.2615 59.3555V62.046C14.6677 62.046 9.60183 59.7791 5.93436 56.1116C2.26902 52.4463 0 47.3804 0 41.7866C0 36.1906 2.26902 31.1269 5.93436 27.4594C9.60183 23.794 14.6677 21.525 20.2615 21.525Z" fill="#FDFDFD"/>
</g>
<path d="M56.4211 20.1614H59.1116C59.482 20.1614 59.7842 20.4615 59.7842 20.834V26.3661C59.7842 26.7364 59.482 27.0387 59.1116 27.0387H56.4211V25.6934H58.439V21.5066H56.4211V20.1614ZM53.7307 20.1614H56.4211V21.5066H54.4033V25.6934H56.4211V27.0387H53.7307C53.3582 27.0387 53.0559 26.7364 53.0559 26.3661V20.834C53.0559 20.4615 53.3582 20.1614 53.7307 20.1614Z" fill="#FDFDFD"/>
<path d="M45.9061 20.1614H48.5965C48.969 20.1614 49.2691 20.4615 49.2691 20.834V26.3661C49.2691 26.7364 48.969 27.0387 48.5965 27.0387H45.9061V25.6934H47.9239V21.5066H45.9061V20.1614ZM43.2156 20.1614H45.9061V21.5066H43.8882V25.6934H45.9061V27.0387H43.2156C42.8431 27.0387 42.543 26.7364 42.543 26.3661V20.834C42.543 20.4615 42.8431 20.1614 43.2156 20.1614Z" fill="#FDFDFD"/>
<path d="M56.4211 28.7608H59.1116C59.482 28.7608 59.7842 29.0609 59.7842 29.4334V34.9655C59.7842 35.3359 59.482 35.6381 59.1116 35.6381H56.4211V34.2929H58.439V30.106H56.4211V28.7608ZM53.7307 28.7608H56.4211V30.106H54.4033V34.2929H56.4211V35.6381H53.7307C53.3582 35.6381 53.0559 35.3359 53.0559 34.9655V29.4334C53.0559 29.0609 53.3582 28.7608 53.7307 28.7608Z" fill="#FDFDFD"/>
<path d="M45.9061 28.7608H48.5965C48.969 28.7608 49.2691 29.0609 49.2691 29.4334V34.9655C49.2691 35.3359 48.969 35.6381 48.5965 35.6381H45.9061V34.2929H47.9239V30.106H45.9061V28.7608ZM43.2156 28.7608H45.9061V30.106H43.8882V34.2929H45.9061V35.6381H43.2156C42.8431 35.6381 42.543 35.3359 42.543 34.9655V29.4334C42.543 29.0609 42.8431 28.7608 43.2156 28.7608Z" fill="#FDFDFD"/>
<path d="M56.4211 37.3578H59.1116C59.482 37.3578 59.7842 37.66 59.7842 38.0304V43.5625C59.7842 43.935 59.482 44.2351 59.1116 44.2351H56.4211V42.8899H58.439V38.703H56.4211V37.3578ZM53.7307 37.3578H56.4211V38.703H54.4033V42.8899H56.4211V44.2351H53.7307C53.3582 44.2351 53.0559 43.935 53.0559 43.5625V38.0304C53.0559 37.66 53.3582 37.3578 53.7307 37.3578Z" fill="#FDFDFD"/>
<path d="M45.9061 37.3578H48.5965C48.969 37.3578 49.2691 37.66 49.2691 38.0304V43.5625C49.2691 43.935 48.969 44.2351 48.5965 44.2351H45.9061V42.8899H47.9239V38.703H45.9061V37.3578ZM43.2156 37.3578H45.9061V38.703H43.8882V42.8899H45.9061V44.2351H43.2156C42.8431 44.2351 42.543 43.935 42.543 43.5625V38.0304C42.543 37.66 42.8431 37.3578 43.2156 37.3578Z" fill="#FDFDFD"/>
<path d="M21.6877 28.2543C21.6877 27.5094 21.0874 26.907 20.3424 26.907C19.5996 26.907 18.9972 27.5094 18.9972 28.2543V41.7067C18.9972 42.4496 19.5996 43.0519 20.3424 43.0519C21.0874 43.0519 21.6877 42.4496 21.6877 41.7067V28.2543Z" fill="#FDFDFD"/>
<path d="M21.1896 40.6655C20.6149 40.1994 19.7698 40.2845 19.3016 40.8592C18.8354 41.4339 18.9227 42.2789 19.4974 42.7472L26.8132 48.6773C27.3879 49.1456 28.2308 49.0583 28.699 48.4836C29.1673 47.9089 29.0801 47.0639 28.5053 46.5977L21.1896 40.6655Z" fill="#FDFDFD"/>
</svg>
