<svg width="66" height="62" viewBox="0 0 66 62" fill="none" xmlns="http://www.w3.org/2000/svg">
<path d="M39.1155 51.9504C39.1686 51.917 39.2749 51.8599 39.4107 51.8599C39.4973 51.8599 39.5977 51.8835 39.702 51.9544C40.9912 52.8066 41.7825 53.9896 42.0561 55.4717C42.064 55.5051 42.0659 55.5386 42.0699 55.576C42.0974 56.0897 42.0069 56.5719 41.8474 56.751C41.8179 56.7825 41.7825 56.814 41.6782 56.818C41.6132 56.8219 41.5345 56.8061 41.4439 56.7707C40.9972 56.5975 39.4875 55.7748 38.8852 52.4937C38.8281 52.1787 39.0269 52.0095 39.1155 51.9504ZM40.8613 58.2646C41.133 58.369 41.4026 58.4221 41.6644 58.4221C41.6959 58.4221 41.7274 58.4221 41.7589 58.4201C42.2706 58.3945 42.7135 58.1879 43.0441 57.8218C43.6701 57.127 43.7075 56.0582 43.676 55.4854C43.6701 55.3831 43.6582 55.2788 43.6386 55.1804C43.2882 53.2829 42.2332 51.7064 40.5937 50.6199C39.8654 50.1377 38.96 50.1337 38.2317 50.612C37.5015 51.0923 37.1452 51.9248 37.3027 52.783C38.0349 56.7688 40.0347 57.9438 40.8613 58.2646Z" fill="#FDFDFD"/>
<mask id="mask0_340_2081" style="mask-type:luminance" maskUnits="userSpaceOnUse" x="0" y="0" width="66" height="62">
<path d="M0 0H66V61.5005H0V0Z" fill="white"/>
</mask>
<g mask="url(#mask0_340_2081)">
<path d="M64.3664 27.8903H60.1247V24.2943H64.3664V27.8903ZM40.381 25.5245C43.4752 19.2417 40.6842 15.4528 40.5641 15.2934C40.3948 15.069 40.1173 14.9509 39.8378 14.9804C39.5583 15.01 39.3142 15.1851 39.1942 15.439L33.3858 27.8903H30.8802V24.2943H33.2579C33.7027 24.2943 34.0629 23.9341 34.0629 23.4932C34.0629 23.0503 33.7027 22.6901 33.2579 22.6901H19.1828V6.81015H35.1218V17.1554C35.1218 17.5982 35.48 17.9565 35.9249 17.9565C36.3697 17.9565 36.7299 17.5982 36.7299 17.1554V6.81015H52.667V22.6901H43.5519C43.1091 22.6901 42.7489 23.0503 42.7489 23.4932C42.7489 23.9341 43.1091 24.2943 43.5519 24.2943H46.8192V27.8903H39.1509L40.381 25.5245ZM36.2162 44.4868C37.3105 46.2838 38.7336 47.7994 40.4421 48.9902C41.8257 49.9546 42.9378 51.045 43.7468 52.2299C44.7073 53.6353 45.1069 55.3103 44.8707 56.942C44.6955 58.1603 44.1975 59.0283 43.3886 59.5224C42.7981 59.8865 42.0423 59.9987 41.2648 59.8412C37.8302 59.1464 36.8165 56.1094 36.539 54.8359C36.3855 54.1273 36.2083 53.4286 36.0135 52.7653C34.7853 48.5493 32.1852 42.1485 32.0749 41.8768C31.8702 41.3769 31.8604 40.8179 32.0474 40.3081L32.7697 38.3241L36.2004 44.4612C36.2044 44.469 36.2103 44.4789 36.2162 44.4868ZM28.3844 29.4945L31.6931 36.5861L30.9865 38.519L26.2922 29.4945H28.3844ZM1.63566 24.2943H5.87532V27.8903H1.63566V24.2943ZM1.63566 1.60998H5.87532V5.20601H1.63566V1.60998ZM64.3664 5.20601H60.1247V1.60998H64.3664V5.20601ZM54.2751 22.6901V6.81015H64.3664V22.6901H54.2751ZM54.2751 24.2943H58.5167V27.8903H54.2751V24.2943ZM54.2751 5.20601V1.60998H58.5167V5.20601H54.2751ZM48.4273 1.60998H52.667V5.20601H48.4273V1.60998ZM30.8802 1.60998H35.1218V5.20601H30.8802V1.60998ZM13.3331 24.2943H17.5747V27.8903H13.3331V24.2943ZM11.725 24.2943V27.8903H7.48339V24.2943H11.725ZM11.725 5.20601H7.48339V1.60998H11.725V5.20601ZM17.5747 5.20601H13.3331V1.60998H17.5747V5.20601ZM1.63566 6.81015H17.5747V22.6901H1.63566V6.81015ZM23.4224 27.8903H19.1828V24.2943H23.4224V27.8903ZM31.3979 32.1516L30.1579 29.4945H32.6379L31.3979 32.1516ZM33.1969 35.85C33.1595 35.8106 33.1181 35.7752 33.0748 35.7457L32.2855 34.051L39.9244 17.6789C40.3436 19.0941 40.5562 21.5308 38.9442 24.8021L33.1969 35.85ZM29.2721 24.2943V27.8903H25.0305V24.2943H29.2721ZM19.1828 5.20601V1.60998H23.4224V5.20601H19.1828ZM25.0305 5.20601V1.60998H29.2721V5.20601H25.0305ZM36.7299 5.20601V1.60998H40.9696V5.20601H36.7299ZM42.5776 5.20601V1.60998H46.8192V5.20601H42.5776ZM52.667 24.2943V27.8903H48.4273V24.2943H52.667ZM65.1694 0.0078125H0.830642C0.387781 0.0078125 0.0275879 0.366037 0.0275879 0.808898V28.6934C0.0275879 29.1343 0.387781 29.4945 0.830642 29.4945H24.4794L28.7879 37.773L25.2057 43.6562C24.2275 45.2603 22.9579 46.6125 21.4325 47.6754C19.8874 48.752 18.6395 49.9802 17.7184 51.3285C16.5315 53.0664 16.0395 55.141 16.3327 57.1703C16.6398 59.3019 17.7145 60.3687 18.5628 60.8883C19.2379 61.3017 20.0272 61.5143 20.8538 61.5143C21.1825 61.5143 21.5171 61.4808 21.8518 61.4119C26.3355 60.5045 27.5597 56.4086 27.8294 55.1764C27.975 54.5033 28.1423 53.8419 28.3274 53.2121C28.8745 51.3304 29.5792 49.246 30.4157 47.0199L30.5082 46.7778C30.6637 46.3625 30.4551 45.9019 30.0378 45.7445C29.6225 45.589 29.1599 45.7976 29.0025 46.2129L28.91 46.455V46.457C28.0577 48.7225 27.3413 50.8443 26.7823 52.7653C26.5874 53.4286 26.4122 54.1273 26.2567 54.8359C25.9792 56.1094 24.9656 59.1464 21.5309 59.8412C20.7535 59.9987 19.9996 59.8865 19.4052 59.5224C18.5982 59.0283 18.1002 58.1603 17.9251 56.942C17.6889 55.3103 18.0884 53.6353 19.0489 52.2299C19.8579 51.045 20.97 49.9546 22.3556 48.9902C24.0641 47.7994 25.4852 46.2838 26.5815 44.4868L29.654 39.4381L30.3212 40.7234C30.2681 41.3159 30.3547 41.9182 30.583 42.4791C30.6932 42.7468 33.2638 49.0748 34.4703 53.2121C34.6534 53.8419 34.8207 54.5033 34.9663 55.1764C35.236 56.4086 36.4583 60.5045 40.944 61.4119C41.2786 61.4808 41.6132 61.5143 41.9419 61.5143C42.7686 61.5143 43.5598 61.3017 44.2329 60.8883C45.0813 60.3687 46.1559 59.3019 46.463 57.1703C46.7563 55.141 46.2642 53.0664 45.0773 51.3285C44.1581 49.9802 42.9083 48.752 41.3632 47.6754C39.8417 46.6164 38.5761 45.2682 37.5979 43.668L34.1515 37.4994L38.3163 29.4945H65.1694C65.6143 29.4945 65.9744 29.1343 65.9744 28.6934V0.808898C65.9744 0.366037 65.6143 0.0078125 65.1694 0.0078125Z" fill="#FDFDFD"/>
</g>
<path d="M23.9105 52.4937C23.3102 55.7748 21.8005 56.5975 21.3517 56.7707C21.2612 56.8061 21.1825 56.8219 21.1175 56.818C21.0152 56.814 20.9778 56.7825 20.9482 56.7491C20.7888 56.5719 20.6963 56.0897 20.7258 55.576C20.7278 55.5406 20.7317 55.5051 20.7396 55.4717C21.0132 53.9896 21.8044 52.8066 23.0917 51.9544C23.3594 51.7792 23.5916 51.8934 23.6802 51.9504C23.7688 52.0095 23.9676 52.1787 23.9105 52.4937ZM22.202 50.6199C20.5605 51.7064 19.5075 53.2829 19.1571 55.1804C19.1394 55.2768 19.1256 55.3792 19.1217 55.4835C19.0882 56.0582 19.1256 57.127 19.7515 57.8218C20.0822 58.1879 20.5251 58.3945 21.0368 58.4201C21.0683 58.4221 21.0998 58.4221 21.1313 58.4221C21.3931 58.4221 21.6627 58.369 21.9343 58.2646C22.761 57.9438 24.7608 56.7688 25.493 52.783C25.6504 51.9248 25.2942 51.0923 24.5659 50.612C23.8357 50.1337 22.9303 50.1377 22.202 50.6199Z" fill="#FDFDFD"/>
</svg>
