<svg width="71" height="68" viewBox="0 0 71 68" fill="none" xmlns="http://www.w3.org/2000/svg">
<mask id="mask0_340_2062" style="mask-type:luminance" maskUnits="userSpaceOnUse" x="0" y="0" width="71" height="66">
<path d="M0 0H70.8058V65.1755H0V0Z" fill="white"/>
</mask>
<g mask="url(#mask0_340_2062)">
<path d="M47.8868 60.7947L4.84907 60.8562C0.541499 60.6894 0.00305176 47.7959 0.00305176 44.852L0.0293888 42.0105C0.137663 40.0148 0.714153 33.173 1.5745 31.3762C2.06612 30.3491 3.50296 29.1083 4.67642 29.0527L9.67169 29.0556C11.2197 29.0556 10.7603 29.3424 11.7172 28.1602C13.8388 25.5294 14.07 27.0101 11.0207 25.0992C0.790238 18.6818 5.49872 2.8678 17.1778 2.71856C21.1166 2.66881 26.0416 4.7787 27.815 8.49223L27.8472 8.55953C30.1502 3.97396 34.0862 1.03006 39.3272 0.588179C50.4473 -0.570652 57.9563 12.4428 51.4803 22.1261C49.5811 24.9646 46.7221 26.4395 43.4417 27.0979C45.0921 28.4089 44.3254 28.7425 46.2627 29.0644C50.7487 29.8136 51.255 30.8729 51.9339 34.9376C52.5367 38.5487 52.8528 42.2008 52.8791 45.8587C53.1454 45.7855 53.4234 45.768 53.6956 45.7153C57.4296 44.9866 60.5871 42.4144 62.6765 39.3183C63.3876 38.2619 64.0753 37.0007 65.0498 36.1696C67.2767 34.2733 69.132 36.6115 69.5973 38.7974C69.8987 40.2167 70.0012 41.7238 70.1299 43.1694L70.5016 48.1061L70.5367 54.3714C70.5367 56.9027 70.803 62.571 68.617 64.2478C66.8612 65.5939 65.2576 63.7884 64.2655 62.4423L62.9282 60.6221C60.1511 56.9232 56.4844 55.4776 52.0129 54.8426C51.5096 57.4382 51.0297 60.5167 47.8868 60.7947ZM40.1378 3.58183C37.2261 3.71937 34.607 4.6675 32.6142 6.87396C29.2489 10.5992 28.7105 17.4527 32.661 20.9848C34.6568 22.7698 37.4895 23.8877 40.1847 23.7209L40.3749 23.7063C44.6941 23.4019 48.7208 20.6834 50.1401 16.5309C51.9895 11.1142 48.7618 5.30544 43.1695 3.88031C42.1395 3.61987 41.1913 3.58768 40.1378 3.58183ZM17.0402 5.58052C14.5206 5.7678 12.1708 6.83885 10.5145 8.78486C5.30851 14.8863 9.77411 24.1774 18.0205 23.7531C20.5226 23.5541 22.6676 22.527 24.3063 20.5868C29.5562 14.3742 25.0028 5.19132 17.0402 5.58052ZM28.0813 20.3966C27.3497 21.611 25.1315 24.552 23.7474 25.0261L28.8831 25.0173L33.1263 24.9558C31.4261 24.3179 28.9943 21.9212 28.0813 20.3966ZM16.5252 27.493C15.3605 27.7271 15.3693 28.3709 14.6728 28.9005L38.2972 28.9239C38.7215 28.9415 39.1487 29.0147 39.573 29.0527L41.4283 29.1054C40.887 28.5318 40.2285 27.5983 39.3741 27.5749L16.5252 27.493ZM17.9474 31.6835L10.7398 31.6952C8.56553 31.6923 6.35907 31.543 4.22576 32.0025C3.56441 33.4217 3.40639 35.2858 3.21032 36.828L2.70992 41.3872C2.44947 45.6187 2.67773 54.4241 5.0627 58.1201C6.11033 58.3044 7.29257 58.2079 8.35776 58.2079H34.7914L46.0842 58.2049C48.1297 58.202 48.396 58.2986 49.0164 56.0921C50.1898 51.9162 50.3478 47.7198 50.2366 43.4035C50.1927 41.7296 49.426 33.3837 48.4135 32.4414C47.4976 31.5928 45.1916 31.8971 44.0386 31.8415C43.5558 31.8152 43.0788 31.7245 42.593 31.7069L17.9474 31.6835ZM66.5773 38.4111C65.8428 39.251 65.3424 40.4011 64.6986 41.3287C62.179 44.9574 58.0588 47.8164 53.6429 48.507C53.441 48.5363 52.7709 48.4865 52.765 48.709C52.727 49.8795 52.8235 51.1905 52.604 52.3376C55.5011 52.7619 58.1846 53.3355 60.7364 54.8572C62.7175 56.1155 64.3182 57.7367 65.6438 59.6622C66.1003 60.3236 66.4983 61.102 67.0251 61.7019C67.6776 60.4611 67.7157 58.5678 67.7801 57.1953L67.7215 46.2625L67.306 41.9491C67.1831 40.8312 67.1919 39.4471 66.6885 38.4199L66.5773 38.4111Z" fill="#FDFDFD"/>
</g>
<path d="M40.3455 21.6728L39.5115 21.7313C35.6078 21.8367 31.8913 18.1348 31.8211 14.275C31.7304 9.4436 35.7278 5.70374 40.445 5.65399C44.6092 5.68618 48.3257 8.13846 48.8173 12.528C49.3499 17.3125 44.7877 21.1958 40.3455 21.6728ZM39.8773 8.39012C38.2064 8.61545 36.8017 9.39386 35.7658 10.7458C32.8014 14.6174 36.0731 19.6273 40.644 18.8752L40.8284 18.8401C48.7061 16.6834 47.1025 7.9102 39.8773 8.39012Z" fill="#FDFDFD"/>
<path d="M17.8712 21.7898C7.59099 21.8864 7.4037 7.76096 17.2069 7.07327C26.2347 6.52897 28.2773 20.6954 17.8712 21.7898ZM16.9377 9.82696C11.0792 10.5205 11.205 19.2117 18.0058 19.0947C23.879 18.1963 23.443 9.49335 16.9377 9.82696Z" fill="#FDFDFD"/>
<path d="M15.2287 36.2572C14.6112 36.342 10.9826 36.4561 10.4383 36.2103C9.60717 35.2885 9.59254 33.9161 10.9591 33.6352L14.2396 33.6293C14.6288 33.6352 15.1994 33.5854 15.5594 33.7346C16.727 34.2321 16.4343 35.9323 15.2287 36.2572Z" fill="#FDFDFD"/>
<mask id="mask1_340_2062" style="mask-type:luminance" maskUnits="userSpaceOnUse" x="11" y="64" width="31" height="5">
<path d="M11.1641 64.4279H41.1298V68.0009H11.1641V64.4279Z" fill="white"/>
</mask>
<g mask="url(#mask1_340_2062)">
<path d="M13.8301 67.5928L13.7511 67.6075C10.5175 67.9703 11.0618 65.1142 12.7239 64.9182C13.5258 64.8245 14.43 64.8977 15.2406 64.8977H38.4377C41.9874 64.7367 41.0129 67.4699 39.7838 67.5782C38.8884 67.6572 37.9373 67.5928 37.036 67.5928H13.8301Z" fill="#FDFDFD"/>
</g>
</svg>
