<svg width="59" height="59" viewBox="0 0 59 59" fill="none" xmlns="http://www.w3.org/2000/svg">
<mask id="mask0_340_2076" style="mask-type:luminance" maskUnits="userSpaceOnUse" x="0" y="0" width="59" height="59">
<path d="M0 0H59V58.9981H0V0Z" fill="white"/>
</mask>
<g mask="url(#mask0_340_2076)">
<path fill-rule="evenodd" clip-rule="evenodd" d="M4.61998 0.00976562H54.3781C56.9189 0.00976562 59 2.08703 59 4.62398V36.2618C59 36.4676 58.9846 36.6715 58.9577 36.8715C58.9134 37.2004 58.7192 37.4601 58.4172 37.5928C58.1133 37.7255 57.7883 37.6948 57.5171 37.5043C56.9016 37.0754 56.188 36.7811 55.4302 36.6388C54.9897 36.5561 54.6781 36.183 54.6781 35.7348V4.86248C54.6781 4.44703 54.3377 4.10659 53.9222 4.10659H9.28421C8.86875 4.10659 8.52831 4.44703 8.52831 4.86248V36.0253C8.52831 36.4407 8.86875 36.7811 9.28421 36.7811H32.086C32.2476 36.7811 32.386 36.8792 32.4361 37.0331C32.4861 37.187 32.4341 37.3505 32.3033 37.4447C31.3416 38.1525 30.7646 39.1104 30.5242 40.1625C30.4261 40.5856 30.0607 40.876 29.626 40.876H4.61998C2.08111 40.876 0 38.8007 0 36.2618V4.62398C0 2.08703 2.08111 0.00976562 4.61998 0.00976562ZM30.7108 9.1978C24.6521 9.1978 19.7436 14.1005 19.7436 20.1496C19.7436 26.2006 24.6521 31.1033 30.7108 31.1033C32.5592 31.1033 34.3017 30.6455 35.8308 29.8396C36.179 29.655 36.3655 29.2915 36.3117 28.901L36.2271 28.2721C35.8597 26.0255 36.9983 23.7559 39.3641 23.3174C39.7334 23.2501 40.0912 23.2347 40.4335 23.2636C40.8971 23.3039 41.3106 23.0001 41.4125 22.5481C41.5856 21.7768 41.676 20.9728 41.676 20.1496C41.676 14.1005 36.7675 9.1978 30.7108 9.1978ZM29.4144 14.3083L35.7924 18.8571C36.2232 19.1648 36.4579 19.6207 36.4579 20.1496C36.4579 20.6804 36.2232 21.1363 35.7924 21.4421L29.4144 25.9928C28.9163 26.3468 28.3046 26.391 27.7603 26.1121C27.2179 25.8332 26.8986 25.31 26.8986 24.6984V15.6027C26.8986 14.9911 27.2179 14.4679 27.7603 14.189C28.3046 13.9101 28.9163 13.9543 29.4144 14.3083ZM44.8515 37.564C47.2596 36.5792 48.4406 37.462 49.1388 38.4353C51.3449 37.6774 52.3316 38.6468 52.8317 39.1065C52.9259 39.1585 53.1894 39.4643 53.6645 39.3431C55.4129 38.9046 56.69 40.0028 56.817 41.1492L57.9652 51.4624C58.0479 52.2202 57.9883 52.8799 57.7998 53.6185L57.0862 56.4132C56.8593 57.3076 56.1207 57.9307 55.1994 58.0038L43.7687 58.9251C43.0012 58.9886 42.3127 58.6674 41.8664 58.0423L38.0312 52.6664C37.5446 51.9817 37.1888 51.3566 36.8502 50.5892L33.5362 43.0533C31.7513 39.5354 35.8193 37.7063 37.5292 40.7164L40.8663 46.4327L38.3293 27.9297C37.8504 24.9831 41.4183 24.3887 41.9838 27.2354L43.9629 37.162C44.0687 37.7024 44.5861 37.6736 44.8515 37.564ZM4.26416 18.2762C5.46435 18.2762 6.43566 19.2456 6.43566 20.4439C6.43566 21.6402 5.46435 22.6115 4.26416 22.6115C3.06396 22.6115 2.09265 21.6402 2.09265 20.4439C2.09265 19.2456 3.06396 18.2762 4.26416 18.2762Z" fill="#FDFDFD"/>
</g>
</svg>
