<svg width="37" height="23" viewBox="0 0 37 23" fill="none" xmlns="http://www.w3.org/2000/svg">
<path d="M11.7335 15.2918V7.76906L17.2055 11.5288L11.7335 15.2918ZM18.9303 10.919L11.4082 5.74909C11.1814 5.59458 10.8894 5.57825 10.6463 5.70324C10.4032 5.832 10.2518 6.08512 10.2518 6.36212V16.7019C10.2518 16.9789 10.4032 17.2288 10.6463 17.3576C10.7543 17.4166 10.8724 17.443 10.9911 17.443C11.1356 17.443 11.2832 17.4003 11.4082 17.3149L18.9303 12.1412C19.1306 12.0031 19.2518 11.7757 19.2518 11.532C19.2518 11.2851 19.1338 11.0578 18.9303 10.919Z" fill="#040606"/>
<mask id="mask0_340_1966" style="mask-type:luminance" maskUnits="userSpaceOnUse" x="0" y="0" width="37" height="23">
<path d="M0 0.244476H37V22.7555H0V0.244476Z" fill="white"/>
</mask>
<g mask="url(#mask0_340_1966)">
<path d="M35.5183 16.9332L28.223 13.5063V9.55246L35.5183 6.12933V16.9332ZM26.7413 18.6599C26.7413 20.0995 25.5755 21.2659 24.1397 21.2659H4.08327C2.64743 21.2659 1.47791 20.0963 1.47791 18.6599V4.40268C1.47791 2.96622 2.64743 1.79608 4.08327 1.79608H24.1397C25.5755 1.79608 26.7444 2.96622 26.7444 4.40268V13.9774L26.7413 18.6599ZM36.6583 4.33673C36.4448 4.19855 36.1753 4.18159 35.9454 4.29026L28.223 7.91187V4.40268C28.223 2.14907 26.3902 0.309998 24.1397 0.309998H4.08327C1.82965 0.309998 0 2.14907 0 4.40268V18.6599C0 20.9166 1.82965 22.7519 4.08327 22.7519H24.1397C26.3933 22.7519 28.2261 20.9166 28.2261 18.6599V15.1476L35.9454 18.7755C36.0472 18.8213 36.1521 18.8445 36.2607 18.8445C36.3989 18.8445 36.5365 18.805 36.6583 18.729C36.8687 18.5939 37 18.3565 37 18.1028V4.96295C37 4.7092 36.8687 4.47178 36.6583 4.33673Z" fill="#040606"/>
</g>
</svg>
