<svg width="37" height="23" viewBox="0 0 37 23" fill="none" xmlns="http://www.w3.org/2000/svg">
<path d="M11.7335 15.2918V7.76912L17.2055 11.5289L11.7335 15.2918ZM18.9303 10.919L11.4082 5.74915C11.1814 5.59464 10.8894 5.57831 10.6463 5.7033C10.4032 5.83206 10.2518 6.08519 10.2518 6.36218V16.7019C10.2518 16.9789 10.4032 17.2289 10.6463 17.3577C10.7543 17.4167 10.8724 17.4431 10.9911 17.4431C11.1356 17.4431 11.2832 17.4004 11.4082 17.3149L18.9303 12.1413C19.1306 12.0031 19.2518 11.7758 19.2518 11.5321C19.2518 11.2852 19.1338 11.0578 18.9303 10.919Z" fill="#FDFDFD"/>
<mask id="mask0_340_2103" style="mask-type:luminance" maskUnits="userSpaceOnUse" x="0" y="0" width="37" height="23">
<path d="M0 0.244507H37V22.7555H0V0.244507Z" fill="white"/>
</mask>
<g mask="url(#mask0_340_2103)">
<path d="M35.5183 16.9333L28.223 13.5064V9.55252L35.5183 6.12939V16.9333ZM26.7413 18.6599C26.7413 20.0995 25.5755 21.2659 24.1397 21.2659H4.08327C2.64743 21.2659 1.47791 20.0964 1.47791 18.6599V4.40275C1.47791 2.96629 2.64743 1.79614 4.08327 1.79614H24.1397C25.5755 1.79614 26.7444 2.96629 26.7444 4.40275V13.9775L26.7413 18.6599ZM36.6583 4.3368C36.4448 4.19861 36.1753 4.18166 35.9454 4.29032L28.223 7.91193V4.40275C28.223 2.14913 26.3902 0.310059 24.1397 0.310059H4.08327C1.82965 0.310059 0 2.14913 0 4.40275V18.6599C0 20.9167 1.82965 22.752 4.08327 22.752H24.1397C26.3933 22.752 28.2261 20.9167 28.2261 18.6599V15.1476L35.9454 18.7755C36.0472 18.8214 36.1521 18.8446 36.2607 18.8446C36.3989 18.8446 36.5365 18.805 36.6583 18.729C36.8687 18.594 37 18.3566 37 18.1028V4.96301C37 4.70926 36.8687 4.47184 36.6583 4.3368Z" fill="#FDFDFD"/>
</g>
</svg>
