<svg width="107" height="107" viewBox="0 0 107 107" fill="none" xmlns="http://www.w3.org/2000/svg">
<circle cx="53.5" cy="53.5" r="53.5" fill="#02554A"/>
<mask id="mask0_358_4236" style="mask-type:luminance" maskUnits="userSpaceOnUse" x="30" y="26" width="51" height="51">
<path d="M30.0779 26.8909H80.2754V76.9601H30.0779V26.8909Z" fill="white"/>
</mask>
<g mask="url(#mask0_358_4236)">
<path d="M74.3545 32.5651C70.7306 28.9368 65.9126 26.942 60.7908 26.942C55.6646 26.942 50.8465 28.9368 47.2212 32.5651C43.5958 36.1904 41.5996 41.0158 41.5996 46.145C41.5996 50.6048 43.1137 54.8287 45.8884 58.2418L42.1849 61.9497L41.3401 61.1049L30.1044 72.3465L34.6025 76.8476L45.8353 65.606L44.995 64.7612L48.6985 61.0548C52.1085 63.8353 56.3295 65.3465 60.7849 65.3465C65.9111 65.3465 70.7292 63.3488 74.3545 59.7205C81.8381 52.2339 81.8381 40.0516 74.3545 32.5651ZM72.2831 57.6447C69.2121 60.7186 65.1312 62.4097 60.7849 62.4097C56.443 62.4097 52.3621 60.7171 49.2897 57.6447C46.2216 54.5737 44.5306 50.4898 44.5306 46.1435C44.5306 41.7987 46.2216 37.7104 49.2926 34.6394C52.3607 31.5655 56.4416 29.8744 60.7864 29.8744C65.1297 29.8744 69.2106 31.5669 72.2816 34.6394C78.6182 40.9849 78.6182 51.3066 72.2831 57.6447Z" fill="#FDFDFD"/>
</g>
<path d="M60.7864 32.0635C57.0284 32.0635 53.4974 33.5304 50.8392 36.1871C50.4397 36.5867 50.4397 37.2398 50.8392 37.6408C51.2402 38.0404 51.8919 38.0404 52.2914 37.6408C54.5619 35.3689 57.5783 34.1201 60.7864 34.1201C63.999 34.1201 67.0139 35.3689 69.2859 37.6408C69.4834 37.8428 69.7473 37.9401 70.0127 37.9401C70.2722 37.9401 70.5361 37.8428 70.7395 37.6408C71.1391 37.2398 71.1391 36.5867 70.7395 36.1871C68.0799 33.5304 64.5459 32.0635 60.7864 32.0635Z" fill="#FDFDFD"/>
<path d="M27.4698 74.9869C26.3213 76.1309 26.3213 77.993 27.4698 79.1356L27.8178 79.4879C28.9648 80.632 30.821 80.632 31.9665 79.4879L33.5116 77.9429L29.0134 73.4418L27.4698 74.9869Z" fill="#FDFDFD"/>
</svg>
