<svg width="107" height="107" viewBox="0 0 107 107" fill="none" xmlns="http://www.w3.org/2000/svg">
<circle cx="53.5" cy="53.5" r="53.5" fill="#2F7F90"/>
<mask id="mask0_358_4196" style="mask-type:luminance" maskUnits="userSpaceOnUse" x="53" y="26" width="26" height="38">
<path d="M53.3137 26.1195H78.1214V63.6681H53.3137V26.1195Z" fill="white"/>
</mask>
<g mask="url(#mask0_358_4196)">
<path d="M77.5642 33.8629C78.0009 32.3434 77.818 30.7448 77.05 29.3622C76.2804 27.9778 75.0163 26.9758 73.4919 26.5407C71.9658 26.104 70.3623 26.2869 68.9763 27.0549C67.5887 27.8212 66.5834 29.0803 66.1467 30.6015C65.7165 32.0962 65.911 33.6701 66.6131 34.9967C65.3803 34.8319 64.1723 35.5801 63.818 36.8079C63.4439 38.1115 64.169 39.4662 65.438 39.9062L63.2643 45.8638L61.0971 46.9911C60.0869 47.5151 59.2843 48.3787 58.836 49.4219L58.1389 51.0386L55.9965 51.5165C54.9451 51.7505 54.1474 52.5877 53.9678 53.6474L53.3926 57.0308C53.3267 57.4181 53.564 57.7938 53.9431 57.9026L73.4046 63.463C73.4771 63.4845 73.5479 63.4944 73.6188 63.4944C73.9253 63.4944 74.2121 63.3114 74.3357 63.0148L75.6459 59.844C76.0562 58.8502 75.8239 57.7197 75.0575 56.9649L73.4936 55.4273L73.7622 53.687C73.9352 52.5647 73.7127 51.4078 73.1359 50.4305L71.8966 48.3309L73.2167 42.1343C73.4046 42.1772 73.5941 42.2035 73.7803 42.2035C74.8911 42.2035 75.9178 41.4751 76.2392 40.3561C76.427 39.7035 76.3479 39.0146 76.0167 38.4197C75.7464 37.9335 75.3311 37.566 74.8334 37.3419C76.132 36.5887 77.1324 35.3577 77.5625 33.8629H77.5642ZM66.9278 40.3479L69.3257 41.0318L71.7219 41.7174L70.4909 47.4937L64.9024 45.8968L66.9278 40.3479ZM74.2121 59.254L73.1656 61.787L55.039 56.6073L55.4971 53.9062C55.5713 53.4678 55.9009 53.1217 56.336 53.0245L58.6729 52.5037L65.4693 54.4451L72.2658 56.3881L73.9698 58.0641C74.2879 58.3756 74.3818 58.8436 74.2121 59.254ZM72.2312 53.453L72.0367 54.7153L59.754 51.205L60.2599 50.0317C60.5681 49.3148 61.1202 48.7215 61.814 48.3606L63.9729 47.2383L70.565 49.1236L71.7994 51.2149C72.1966 51.8857 72.3498 52.68 72.2312 53.453ZM74.7493 39.9326C74.5961 40.4632 74.0374 40.7681 73.5051 40.6198L72.8459 40.4319H72.8442L66.6609 38.6636H66.6576L65.9983 38.4757C65.466 38.3225 65.1562 37.7671 65.3095 37.2364C65.3836 36.9777 65.5534 36.7651 65.7874 36.6365C66.0231 36.5063 66.2933 36.4783 66.5521 36.5492L74.0605 38.6966C74.3176 38.7691 74.5318 38.9372 74.662 39.1712C74.7922 39.4069 74.8235 39.6771 74.7477 39.9342L74.7493 39.9326ZM76.0727 33.4394C75.58 35.1533 74.072 36.4025 72.2954 36.5805L69.5268 35.7911L69.1708 35.6889C67.7601 34.5979 67.1437 32.7406 67.6365 31.0267C67.9595 29.9044 68.7011 28.9732 69.7278 28.4063C70.7529 27.8394 71.9378 27.7042 73.0651 28.0273C74.1907 28.3486 75.1251 29.0902 75.6937 30.112C76.2622 31.1338 76.3974 32.3154 76.0727 33.4394Z" fill="#FDFDFD"/>
</g>
<mask id="mask1_358_4196" style="mask-type:luminance" maskUnits="userSpaceOnUse" x="28" y="19" width="33" height="70">
<path d="M28 19H60.0639V88.6372H28V19Z" fill="white"/>
</mask>
<g mask="url(#mask1_358_4196)">
<path d="M59.0042 76.5613L55.8993 74.0778C55.3785 73.6592 55.0275 73.0675 54.9154 72.41L54.7374 71.375C54.5133 70.055 53.4207 69.0744 52.0825 68.987L51.504 68.9475L50.2318 66.7408C48.62 63.949 47.529 60.9233 46.9851 57.7475L46.0161 52.0882L47.5702 51.8245C48.3761 51.6877 49.0056 51.1126 49.2133 50.3248C49.4209 49.5354 49.1572 48.7262 48.5228 48.2121L45.9024 46.0861L45.4344 43.3487L46.8995 34.6472C47.061 33.6897 46.789 32.7157 46.1578 31.9774C45.525 31.2391 44.5972 30.832 43.6298 30.8271L42.0724 30.8403L41.6011 30.5073C40.9682 30.0607 40.5364 29.4032 40.3766 28.6517L41.6456 28.4341C42.0674 28.3633 42.3509 27.9645 42.28 27.5442L41.5384 23.2083C41.4659 22.7864 41.0638 22.5046 40.6436 22.5754L38.4682 22.9462L38.1072 20.8368C38.0644 20.5846 37.8979 20.3704 37.6639 20.2632L35.187 19.1409C34.8985 19.0091 34.5591 19.0668 34.33 19.286L32.3688 21.1647C32.1826 21.341 32.0969 21.5981 32.1414 21.8519L32.5023 23.9614L30.3269 24.3322C29.905 24.4031 29.6216 24.8019 29.6924 25.2221L30.4341 29.5581C30.5066 29.9783 30.907 30.2634 31.3289 30.1893L32.5979 29.975C32.6984 30.7381 32.5106 31.5011 32.0607 32.1323L31.7278 32.6003L30.2544 33.103C29.3332 33.4178 28.6015 34.1165 28.2504 35.0229C27.8994 35.9293 27.9686 36.9379 28.4399 37.7883L32.7133 45.5142L33.183 48.2516L31.4179 51.1225C30.9911 51.8163 31.0092 52.6683 31.4674 53.344C31.8579 53.9192 32.4858 54.2471 33.1615 54.2471C33.2785 54.2471 33.3988 54.2372 33.5175 54.2175L35.0699 53.9521L36.039 59.6114C36.5828 62.7872 36.5581 66.0025 35.9665 69.17L35.5001 71.6717L34.9645 71.8991C33.7334 72.4248 33.028 73.7119 33.2538 75.0287L33.4318 76.0653C33.5439 76.7229 33.4104 77.3969 33.0577 77.9638L30.9548 81.3324C30.4753 82.1004 30.4917 83.0447 30.9977 83.7962C31.352 84.3202 31.8876 84.6482 32.4809 84.7537L32.7265 86.1891C32.9737 87.6278 34.2294 88.6463 35.6451 88.6463C35.8099 88.6463 35.9764 88.6315 36.1445 88.6035L56.5272 85.1377C58.1373 84.8641 59.2234 83.3364 58.9498 81.7312L58.7059 80.304C59.2316 80.0074 59.6255 79.5163 59.7853 78.9015C60.0128 78.0264 59.7145 77.1299 59.0075 76.563L59.0042 76.5613ZM44.2939 45.8702L34.6283 47.5133L34.3498 45.885L44.0154 44.242L44.2939 45.8702ZM31.8332 28.5347L31.352 25.7215L33.5257 25.3507C33.9476 25.2782 34.2327 24.8794 34.1602 24.4591L33.7383 21.9937L35.0254 20.7626L36.6487 21.4976L37.0706 23.9647C37.1432 24.3849 37.5453 24.6684 37.9655 24.5959L40.1409 24.2267L40.6221 27.0383L39.3515 27.2558C38.9296 27.3267 38.6445 27.7255 38.717 28.1457L38.8274 28.7901C38.9807 29.6833 39.3828 30.4942 39.9893 31.1418L36.8927 31.6692L33.796 32.1949C34.152 31.3824 34.2624 30.4859 34.1108 29.5927L34.0004 28.95C33.9361 28.5726 33.6081 28.3056 33.2357 28.3056C33.1928 28.3056 33.15 28.3105 33.1055 28.3188L31.8349 28.533L31.8332 28.5347ZM29.6974 35.5783C29.8836 35.0987 30.2693 34.7296 30.7571 34.5631L32.4084 33.9995L41.8977 32.3861L43.643 32.3713H43.6578C44.167 32.3713 44.6483 32.5921 44.9795 32.9794C45.3124 33.37 45.4558 33.8841 45.3717 34.3901L43.9759 42.6796L33.8702 44.3985L29.7979 37.0401C29.5491 36.5902 29.5145 36.0579 29.699 35.5783H29.6974ZM33.2571 52.6914C32.9671 52.7408 32.8056 52.5562 32.7512 52.4755C32.6968 52.3947 32.5847 52.1789 32.738 51.9284L34.4717 49.1086L44.9713 47.3238L47.5438 49.4102C47.7713 49.5964 47.7383 49.837 47.7136 49.9326C47.6889 50.0265 47.5999 50.2523 47.3082 50.3018L33.2571 52.6914ZM48.887 67.5121L49.8132 69.1172L37.1514 71.2695L37.4909 69.4501C38.1155 66.1046 38.1402 62.7048 37.5667 59.351L36.5993 53.6917L44.4884 52.3502L45.4574 58.0096C46.0309 61.3649 47.1846 64.5621 48.887 67.5137V67.5121ZM32.2848 82.9326C32.2238 82.842 32.0409 82.5157 32.27 82.1465L34.3728 78.7779C34.9266 77.8897 35.1342 76.8333 34.9595 75.8033L34.7815 74.7667C34.6761 74.1569 35.004 73.5619 35.5742 73.318L36.4048 72.9637L51.0788 70.4686L51.982 70.5279C52.6 70.5691 53.1059 71.024 53.2097 71.6338L53.3877 72.6687C53.5641 73.6987 54.1112 74.6266 54.9286 75.2825L58.0335 77.7661C58.373 78.038 58.3087 78.4055 58.2823 78.5126C58.2543 78.6181 58.1307 78.9708 57.7006 79.0433L33.0083 83.2424C32.5798 83.3117 32.3458 83.0232 32.2831 82.9326H32.2848ZM56.2668 83.6132L35.8824 87.079C35.1161 87.2092 34.386 86.6917 34.2558 85.9287L34.035 84.635L57.1996 80.6962L57.4204 81.9883C57.5506 82.753 57.0331 83.483 56.2668 83.6132Z" fill="#FDFDFD"/>
</g>
<path d="M53.0763 47.3869C53.1488 47.4067 53.2197 47.4166 53.2905 47.4166C53.6284 47.4166 53.9382 47.1974 54.0354 46.8563L55.2879 42.5022C55.4066 42.0918 55.1693 41.6633 54.7573 41.5463C54.3453 41.4293 53.9168 41.665 53.7981 42.077L52.5456 46.4327C52.427 46.8414 52.6659 47.2699 53.0763 47.3869Z" fill="#FDFDFD"/>
<path d="M55.3209 48.6178C55.466 48.8584 55.7214 48.9903 55.9834 48.9903C56.1202 48.9903 56.2586 48.954 56.3855 48.8782L58.8872 47.3703C59.2548 47.1494 59.3718 46.6748 59.1493 46.3089C58.9284 45.9431 58.4522 45.8261 58.0847 46.0469L55.583 47.5565C55.2155 47.7773 55.0984 48.2519 55.3209 48.6178Z" fill="#FDFDFD"/>
<path d="M49.276 45.6729C49.3946 45.9811 49.688 46.1689 49.9994 46.1689C50.0917 46.1689 50.1857 46.1525 50.278 46.1179C50.6768 45.9646 50.8762 45.518 50.7229 45.1192L49.833 42.8169C49.6797 42.418 49.2315 42.2203 48.8326 42.3719C48.4322 42.5268 48.2328 42.9734 48.3877 43.3723L49.276 45.6745V45.6729Z" fill="#FDFDFD"/>
</svg>
