<svg width="107" height="107" viewBox="0 0 107 107" fill="none" xmlns="http://www.w3.org/2000/svg">
<circle cx="53.5" cy="53.5" r="53.5" fill="#373535"/>
<path d="M72.6453 53.0654V51.2535C72.6453 49.9171 73.144 48.6805 74.0131 47.862C76.1161 45.8834 77.3226 43.078 77.3226 40.1675C77.3226 37.145 76.0436 34.2686 73.8136 32.275C71.615 30.3114 68.7947 29.4136 65.8609 29.7429C61.0743 30.2841 57.2619 34.2262 56.7932 39.1181C56.4803 42.3948 57.6472 45.5636 59.9948 47.8087C60.8994 48.675 61.42 49.928 61.42 51.2494V53.0654C61.42 53.5805 61.8395 54 62.3546 54H71.7106C72.2272 54 72.6453 53.5805 72.6453 53.0654ZM70.7746 52.1294H63.2906V51.2494C63.2906 49.4197 62.5596 47.672 61.2874 46.4559C59.3567 44.6098 58.396 42.0013 58.6557 39.2957C59.0396 35.2811 62.1579 32.0454 66.0713 31.6027C68.4653 31.3349 70.7705 32.0673 72.566 33.6715C74.3998 35.3098 75.452 37.6765 75.452 40.1675C75.452 42.5643 74.4599 44.8722 72.7314 46.501C71.4879 47.6707 70.7746 49.4033 70.7746 51.2535V52.1294Z" fill="#FDFDFD"/>
<path d="M62.3546 54.9362H71.7106V56.8069H62.3546V54.9362Z" fill="#FDFDFD"/>
<path d="M71.5795 59.2223L71.6615 58.9736C71.7571 58.6894 71.7079 58.3751 71.533 58.1305C71.3581 57.8859 71.0753 57.7424 70.7747 57.7424H63.2907C62.99 57.7424 62.7086 57.8859 62.5323 58.1305C62.356 58.3751 62.3082 58.6894 62.4025 58.9736L62.4858 59.2223C63.1239 61.1339 64.9072 62.4198 66.9227 62.4198H67.1427C69.1582 62.4198 70.9427 61.1339 71.5795 59.2223ZM67.1427 60.5491H66.9227C66.1042 60.5491 65.3512 60.1952 64.8306 59.6131H69.2347C68.7141 60.1952 67.9612 60.5491 67.1427 60.5491Z" fill="#FDFDFD"/>
<path d="M52.0652 38.0975H54.8719V39.9681H52.0652V38.0975Z" fill="#FDFDFD"/>
<mask id="mask0_358_4212" style="mask-type:luminance" maskUnits="userSpaceOnUse" x="79" y="37" width="3" height="4">
<path d="M79.1249 37.943H81.9999V40.0418H79.1249V37.943Z" fill="white"/>
</mask>
<g mask="url(#mask0_358_4212)">
<path d="M79.1945 38.0976H81.9999V39.9683H79.1945V38.0976Z" fill="#FDFDFD"/>
</g>
<path d="M55.7861 29.1106L57.1102 27.7878L59.0943 29.7719L57.7716 31.0946L55.7861 29.1106Z" fill="#FDFDFD"/>
<path d="M74.9696 29.7719L76.955 27.7878L78.2778 29.1106L76.2923 31.0946L74.9696 29.7719Z" fill="#FDFDFD"/>
<path d="M66.0973 25H67.9679V27.8067H66.0973V25Z" fill="#FDFDFD"/>
<mask id="mask1_358_4212" style="mask-type:luminance" maskUnits="userSpaceOnUse" x="24" y="48" width="16" height="35">
<path d="M24 48.4371H39.2467V82.9999H24V48.4371Z" fill="white"/>
</mask>
<g mask="url(#mask1_358_4212)">
<path d="M26.3707 82.9686C26.4514 82.9905 26.532 83 26.6126 83C26.8763 83 27.1332 82.888 27.3122 82.6857L32.8654 76.4261C32.9611 76.3168 33.0308 76.187 33.069 76.0476L38.8791 54.3594C39.5473 51.8684 38.0634 49.2981 35.5724 48.6299C33.0786 47.9631 30.5111 49.4471 29.8429 51.9381L24.0314 73.6262C23.9931 73.767 23.9904 73.9132 24.0191 74.0553L25.6957 82.2526C25.7668 82.5997 26.0278 82.8771 26.3707 82.9686ZM30.4605 76.3168L29.7663 77.0997L26.3653 76.1883L26.1548 75.1635L30.4605 76.3168ZM27.1551 80.0444L26.7848 78.2366L28.3794 78.6643L27.1551 80.0444ZM31.5031 74.6593L29.6953 74.1742L34.538 56.1016L36.3444 56.5854L31.5031 74.6593ZM35.0873 50.4377C36.5822 50.8381 37.4717 52.3808 37.0713 53.8743L36.8295 54.7789L31.4074 53.3264L31.6493 52.4232C32.051 50.9283 33.5924 50.0387 35.0873 50.4377ZM30.9237 55.1328L32.7315 55.6179L27.8889 73.6905L26.0811 73.2054L30.9237 55.1328Z" fill="#FDFDFD"/>
</g>
<path d="M67.968 70.8385V68.0319H66.0973V70.8385C66.0973 74.45 63.1595 77.3879 59.5493 77.3879H57.6773C54.0672 77.3879 51.1293 74.45 51.1293 70.8385V53.9999C51.1293 49.3581 47.3525 45.5812 42.7093 45.5812H41.7747V47.4519H42.7093C46.3208 47.4519 49.2587 50.3897 49.2587 53.9999V70.8385C49.2587 75.4803 53.0355 79.2585 57.6773 79.2585H59.5493C64.1911 79.2585 67.968 75.4803 67.968 70.8385Z" fill="#FDFDFD"/>
<path d="M66.0973 64.2906H67.9679V66.1612H66.0973V64.2906Z" fill="#FDFDFD"/>
<path d="M71.8514 37.9392L69.113 37.521L67.8805 34.8934C67.7261 34.5654 67.3954 34.355 67.0333 34.355C66.6698 34.355 66.3392 34.5654 66.1861 34.8934L64.9536 37.521L62.2152 37.9392C61.8682 37.9924 61.5812 38.2343 61.4692 38.5664C61.3585 38.8984 61.4418 39.266 61.6864 39.5174L63.6951 41.5766L63.2182 44.4953C63.1608 44.8492 63.3098 45.2045 63.6035 45.4109C63.896 45.6172 64.2813 45.6377 64.5942 45.4655L67.0333 44.1168L69.471 45.4641C69.6132 45.542 69.7676 45.5817 69.9233 45.5817C70.1119 45.5817 70.3018 45.5229 70.4617 45.4095C70.7555 45.2032 70.9044 44.8479 70.847 44.494L70.3702 41.5753L72.3788 39.516C72.6248 39.266 72.7081 38.8984 72.5961 38.5664C72.484 38.2329 72.1971 37.9924 71.8514 37.9392ZM68.7017 40.6078C68.494 40.821 68.3998 41.1189 68.4476 41.4113L68.6908 42.8952L67.4856 42.2298C67.3449 42.1519 67.1891 42.1123 67.0333 42.1123C66.8762 42.1123 66.7218 42.1519 66.5797 42.2298L65.3745 42.8952L65.6177 41.4113C65.6655 41.1189 65.5712 40.821 65.3635 40.6078L64.2963 39.5147L65.7284 39.296C66.0372 39.2482 66.3023 39.0501 66.4334 38.7686L67.0333 37.4923L67.6318 38.7686C67.7644 39.0501 68.0294 39.2482 68.3369 39.296L69.7689 39.5147L68.7017 40.6078Z" fill="#FDFDFD"/>
<path d="M38.0319 45.5812H39.9039V47.4519H38.0319V45.5812Z" fill="#FDFDFD"/>
</svg>
