<svg width="24" height="25" viewBox="0 0 24 25" fill="none" xmlns="http://www.w3.org/2000/svg">
<path d="M7.99846 2.5C4.91126 2.5 2.40002 5.11829 2.40002 8.33496V16.6683C2.40002 19.8841 4.91359 22.5 8.00159 22.5H16.0016C19.0888 22.5 21.6 19.8817 21.6 16.665V8.33171C21.6 5.11587 19.0865 2.5 15.9985 2.5H7.99846ZM17.6 5.83333C18.0416 5.83333 18.4 6.20667 18.4 6.66667C18.4 7.12667 18.0416 7.5 17.6 7.5C17.1584 7.5 16.8 7.12667 16.8 6.66667C16.8 6.20667 17.1584 5.83333 17.6 5.83333ZM12 7.5C14.6472 7.5 16.8 9.7425 16.8 12.5C16.8 15.2575 14.6472 17.5 12 17.5C9.35282 17.5 7.20002 15.2575 7.20002 12.5C7.20002 9.7425 9.35282 7.5 12 7.5ZM12 9.16667C11.1513 9.16667 10.3374 9.51786 9.73728 10.143C9.13717 10.7681 8.80002 11.6159 8.80002 12.5C8.80002 13.3841 9.13717 14.2319 9.73728 14.857C10.3374 15.4821 11.1513 15.8333 12 15.8333C12.8487 15.8333 13.6626 15.4821 14.2628 14.857C14.8629 14.2319 15.2 13.3841 15.2 12.5C15.2 11.6159 14.8629 10.7681 14.2628 10.143C13.6626 9.51786 12.8487 9.16667 12 9.16667Z" fill="white"/>
</svg>
