<svg width="26" height="27" viewBox="0 0 26 27" fill="none" xmlns="http://www.w3.org/2000/svg">
<path d="M20.8 3.6001H5.20001C4.24234 3.6001 3.46667 4.4056 3.46667 5.4001V21.6001C3.46667 22.5946 4.24234 23.4001 5.20001 23.4001H20.8C21.7577 23.4001 22.5333 22.5946 22.5333 21.6001V5.4001C22.5333 4.4056 21.7577 3.6001 20.8 3.6001ZM9.49347 19.8001H6.93681V11.2573H9.49347V19.8001ZM8.18914 10.036C7.36494 10.036 6.69847 9.3421 6.69847 8.488C6.69847 7.6339 7.36581 6.9409 8.18914 6.9409C9.01074 6.9409 9.67894 7.6348 9.67894 8.488C9.67894 9.3421 9.01074 10.036 8.18914 10.036ZM19.0701 19.8001H16.5152V15.6457C16.5152 14.6548 16.4979 13.3804 15.1866 13.3804C13.8563 13.3804 13.6517 14.4595 13.6517 15.5737V19.8001H11.0968V11.2573H13.5495V12.4246H13.5841C13.9256 11.7532 14.7593 11.0449 16.003 11.0449C18.5917 11.0449 19.0701 12.8143 19.0701 15.1147V19.8001Z" fill="white"/>
</svg>
