<svg width="161" height="40" viewBox="0 0 161 40" fill="none" xmlns="http://www.w3.org/2000/svg">
<g filter="url(#filter0_d_358_4248)">
<path d="M4 14C4 8.47715 8.47715 4 14 4H152V26C152 31.5228 147.523 36 142 36H14C8.47716 36 4 31.5228 4 26V14Z" fill="white" shape-rendering="crispEdges"/>
<path d="M15.284 28.268C14.612 28.268 14.024 28.1653 13.52 27.96C13.0253 27.764 12.6427 27.484 12.372 27.12C12.1013 26.756 11.966 26.3313 11.966 25.846C11.966 25.4727 12.022 25.1507 12.134 24.88C12.2553 24.6 12.4093 24.3573 12.596 24.152C12.792 23.9467 12.9927 23.7553 13.198 23.578C13.4033 23.4007 13.5993 23.2233 13.786 23.046C13.982 22.8687 14.136 22.6727 14.248 22.458C14.3693 22.234 14.43 21.9727 14.43 21.674H15.83C15.83 22.0287 15.7693 22.3367 15.648 22.598C15.536 22.8593 15.3867 23.0927 15.2 23.298C15.0133 23.5033 14.8127 23.6993 14.598 23.886C14.3833 24.0633 14.1827 24.2407 13.996 24.418C13.8093 24.5953 13.6553 24.7867 13.534 24.992C13.422 25.1973 13.366 25.4307 13.366 25.692C13.366 26.0747 13.5433 26.4013 13.898 26.672C14.2527 26.9427 14.7427 27.078 15.368 27.078C15.9373 27.078 16.4273 26.98 16.838 26.784C17.258 26.5973 17.6033 26.3267 17.874 25.972L18.896 26.7C18.5133 27.1947 18.0187 27.5773 17.412 27.848C16.8053 28.128 16.096 28.268 15.284 28.268ZM15.13 20.302C14.8687 20.302 14.6493 20.218 14.472 20.05C14.304 19.8727 14.22 19.6627 14.22 19.42C14.22 19.168 14.304 18.9533 14.472 18.776C14.6493 18.5987 14.8687 18.51 15.13 18.51C15.4007 18.51 15.62 18.5987 15.788 18.776C15.956 18.9533 16.04 19.168 16.04 19.42C16.04 19.6627 15.956 19.8727 15.788 20.05C15.62 20.218 15.4007 20.302 15.13 20.302ZM20.4954 26V16.2H21.6434L28.1254 24.25H27.5234V16.2H28.9234V26H27.7754L21.2934 17.95H21.8954V26H20.4954ZM34.9647 26.084C34.1714 26.084 33.4714 25.9207 32.8647 25.594C32.2674 25.2673 31.8007 24.8193 31.4647 24.25C31.1381 23.6807 30.9747 23.0273 30.9747 22.29C30.9747 21.5527 31.1334 20.8993 31.4507 20.33C31.7774 19.7607 32.2207 19.3173 32.7807 19C33.3501 18.6733 33.9894 18.51 34.6987 18.51C35.4174 18.51 36.0521 18.6687 36.6027 18.986C37.1534 19.3033 37.5827 19.7513 37.8907 20.33C38.2081 20.8993 38.3667 21.5667 38.3667 22.332C38.3667 22.388 38.3621 22.4533 38.3527 22.528C38.3527 22.6027 38.3481 22.6727 38.3387 22.738H32.0247V21.772H37.6387L37.0927 22.108C37.1021 21.632 37.0041 21.2073 36.7987 20.834C36.5934 20.4607 36.3087 20.1713 35.9447 19.966C35.5901 19.7513 35.1747 19.644 34.6987 19.644C34.2321 19.644 33.8167 19.7513 33.4527 19.966C33.0887 20.1713 32.8041 20.4653 32.5987 20.848C32.3934 21.2213 32.2907 21.6507 32.2907 22.136V22.36C32.2907 22.8547 32.4027 23.298 32.6267 23.69C32.8601 24.0727 33.1821 24.3713 33.5927 24.586C34.0034 24.8007 34.4747 24.908 35.0067 24.908C35.4454 24.908 35.8421 24.8333 36.1967 24.684C36.5607 24.5347 36.8781 24.3107 37.1487 24.012L37.8907 24.88C37.5547 25.272 37.1347 25.5707 36.6307 25.776C36.1361 25.9813 35.5807 26.084 34.9647 26.084ZM43.467 26.084C42.711 26.084 42.0343 25.9207 41.437 25.594C40.849 25.2673 40.387 24.8193 40.051 24.25C39.715 23.6807 39.547 23.0273 39.547 22.29C39.547 21.5527 39.715 20.8993 40.051 20.33C40.387 19.7607 40.849 19.3173 41.437 19C42.0343 18.6733 42.711 18.51 43.467 18.51C44.139 18.51 44.7363 18.6453 45.259 18.916C45.791 19.1773 46.2017 19.5693 46.491 20.092L45.469 20.75C45.2263 20.386 44.9277 20.12 44.573 19.952C44.2277 19.7747 43.8543 19.686 43.453 19.686C42.9677 19.686 42.5337 19.7933 42.151 20.008C41.7683 20.2227 41.465 20.526 41.241 20.918C41.017 21.3007 40.905 21.758 40.905 22.29C40.905 22.822 41.017 23.284 41.241 23.676C41.465 24.068 41.7683 24.3713 42.151 24.586C42.5337 24.8007 42.9677 24.908 43.453 24.908C43.8543 24.908 44.2277 24.824 44.573 24.656C44.9277 24.4787 45.2263 24.208 45.469 23.844L46.491 24.488C46.2017 25.0013 45.791 25.398 45.259 25.678C44.7363 25.9487 44.139 26.084 43.467 26.084ZM51.4257 26.084C50.6323 26.084 49.9323 25.9207 49.3257 25.594C48.7283 25.2673 48.2617 24.8193 47.9257 24.25C47.599 23.6807 47.4357 23.0273 47.4357 22.29C47.4357 21.5527 47.5943 20.8993 47.9117 20.33C48.2383 19.7607 48.6817 19.3173 49.2417 19C49.811 18.6733 50.4503 18.51 51.1597 18.51C51.8783 18.51 52.513 18.6687 53.0637 18.986C53.6143 19.3033 54.0437 19.7513 54.3517 20.33C54.669 20.8993 54.8277 21.5667 54.8277 22.332C54.8277 22.388 54.823 22.4533 54.8137 22.528C54.8137 22.6027 54.809 22.6727 54.7997 22.738H48.4857V21.772H54.0997L53.5537 22.108C53.563 21.632 53.465 21.2073 53.2597 20.834C53.0543 20.4607 52.7697 20.1713 52.4057 19.966C52.051 19.7513 51.6357 19.644 51.1597 19.644C50.693 19.644 50.2777 19.7513 49.9137 19.966C49.5497 20.1713 49.265 20.4653 49.0597 20.848C48.8543 21.2213 48.7517 21.6507 48.7517 22.136V22.36C48.7517 22.8547 48.8637 23.298 49.0877 23.69C49.321 24.0727 49.643 24.3713 50.0537 24.586C50.4643 24.8007 50.9357 24.908 51.4677 24.908C51.9063 24.908 52.303 24.8333 52.6577 24.684C53.0217 24.5347 53.339 24.3107 53.6097 24.012L54.3517 24.88C54.0157 25.272 53.5957 25.5707 53.0917 25.776C52.597 25.9813 52.0417 26.084 51.4257 26.084ZM58.8219 26.084C58.2059 26.084 57.6179 26 57.0579 25.832C56.5073 25.664 56.0733 25.4587 55.7559 25.216L56.3159 24.152C56.6333 24.3667 57.0253 24.5487 57.4919 24.698C57.9586 24.8473 58.4346 24.922 58.9199 24.922C59.5453 24.922 59.9933 24.8333 60.2639 24.656C60.5439 24.4787 60.6839 24.2313 60.6839 23.914C60.6839 23.6807 60.5999 23.4987 60.4319 23.368C60.2639 23.2373 60.0399 23.1393 59.7599 23.074C59.4893 23.0087 59.1859 22.9527 58.8499 22.906C58.5139 22.85 58.1779 22.7847 57.8419 22.71C57.5059 22.626 57.1979 22.514 56.9179 22.374C56.6379 22.2247 56.4139 22.024 56.2459 21.772C56.0779 21.5107 55.9939 21.1653 55.9939 20.736C55.9939 20.288 56.1199 19.896 56.3719 19.56C56.6239 19.224 56.9786 18.9673 57.4359 18.79C57.9026 18.6033 58.4533 18.51 59.0879 18.51C59.5733 18.51 60.0633 18.5707 60.5579 18.692C61.0619 18.804 61.4726 18.9673 61.7899 19.182L61.2159 20.246C60.8799 20.022 60.5299 19.868 60.1659 19.784C59.8019 19.7 59.4379 19.658 59.0739 19.658C58.4859 19.658 58.0473 19.756 57.7579 19.952C57.4686 20.1387 57.3239 20.3813 57.3239 20.68C57.3239 20.932 57.4079 21.128 57.5759 21.268C57.7533 21.3987 57.9773 21.5013 58.2479 21.576C58.5279 21.6507 58.8359 21.716 59.1719 21.772C59.5079 21.8187 59.8439 21.884 60.1799 21.968C60.5159 22.0427 60.8193 22.15 61.0899 22.29C61.3699 22.43 61.5939 22.626 61.7619 22.878C61.9393 23.13 62.0279 23.466 62.0279 23.886C62.0279 24.334 61.8973 24.7213 61.6359 25.048C61.3746 25.3747 61.0059 25.6313 60.5299 25.818C60.0539 25.9953 59.4846 26.084 58.8219 26.084ZM63.7076 26V18.58H65.0516V26H63.7076ZM64.3796 17.152C64.1183 17.152 63.8989 17.068 63.7216 16.9C63.5536 16.732 63.4696 16.5267 63.4696 16.284C63.4696 16.032 63.5536 15.822 63.7216 15.654C63.8989 15.486 64.1183 15.402 64.3796 15.402C64.6409 15.402 64.8556 15.486 65.0236 15.654C65.2009 15.8127 65.2896 16.0133 65.2896 16.256C65.2896 16.508 65.2056 16.7227 65.0376 16.9C64.8696 17.068 64.6503 17.152 64.3796 17.152ZM70.1658 26.084C69.4191 26.084 68.8404 25.8833 68.4298 25.482C68.0191 25.0807 67.8138 24.5067 67.8138 23.76V16.956H69.1578V23.704C69.1578 24.1053 69.2558 24.4133 69.4518 24.628C69.6571 24.8427 69.9464 24.95 70.3198 24.95C70.7398 24.95 71.0898 24.8333 71.3698 24.6L71.7898 25.566C71.5844 25.7433 71.3371 25.874 71.0478 25.958C70.7678 26.042 70.4738 26.084 70.1658 26.084ZM66.5538 19.686V18.58H71.2858V19.686H66.5538ZM78.0206 26V24.432L77.9506 24.138V21.464C77.9506 20.8947 77.7826 20.456 77.4466 20.148C77.12 19.8307 76.6253 19.672 75.9626 19.672C75.524 19.672 75.0946 19.7467 74.6746 19.896C74.2546 20.036 73.9 20.2273 73.6106 20.47L73.0506 19.462C73.4333 19.154 73.8906 18.9207 74.4226 18.762C74.964 18.594 75.5286 18.51 76.1166 18.51C77.134 18.51 77.918 18.7573 78.4686 19.252C79.0193 19.7467 79.2946 20.5027 79.2946 21.52V26H78.0206ZM75.5846 26.084C75.034 26.084 74.5486 25.9907 74.1286 25.804C73.718 25.6173 73.4006 25.3607 73.1766 25.034C72.9526 24.698 72.8406 24.32 72.8406 23.9C72.8406 23.4987 72.934 23.1347 73.1206 22.808C73.3166 22.4813 73.6293 22.22 74.0586 22.024C74.4973 21.828 75.0853 21.73 75.8226 21.73H78.1746V22.696H75.8786C75.2066 22.696 74.754 22.808 74.5206 23.032C74.2873 23.256 74.1706 23.5267 74.1706 23.844C74.1706 24.208 74.3153 24.502 74.6046 24.726C74.894 24.9407 75.2953 25.048 75.8086 25.048C76.3126 25.048 76.7513 24.936 77.1246 24.712C77.5073 24.488 77.7826 24.1613 77.9506 23.732L78.2166 24.656C78.0393 25.0947 77.7266 25.4447 77.2786 25.706C76.8306 25.958 76.266 26.084 75.5846 26.084ZM83.9098 26.084C83.2938 26.084 82.7058 26 82.1458 25.832C81.5951 25.664 81.1611 25.4587 80.8438 25.216L81.4038 24.152C81.7211 24.3667 82.1131 24.5487 82.5798 24.698C83.0465 24.8473 83.5225 24.922 84.0078 24.922C84.6331 24.922 85.0811 24.8333 85.3518 24.656C85.6318 24.4787 85.7718 24.2313 85.7718 23.914C85.7718 23.6807 85.6878 23.4987 85.5198 23.368C85.3518 23.2373 85.1278 23.1393 84.8478 23.074C84.5771 23.0087 84.2738 22.9527 83.9378 22.906C83.6018 22.85 83.2658 22.7847 82.9298 22.71C82.5938 22.626 82.2858 22.514 82.0058 22.374C81.7258 22.2247 81.5018 22.024 81.3338 21.772C81.1658 21.5107 81.0818 21.1653 81.0818 20.736C81.0818 20.288 81.2078 19.896 81.4598 19.56C81.7118 19.224 82.0665 18.9673 82.5238 18.79C82.9905 18.6033 83.5411 18.51 84.1758 18.51C84.6611 18.51 85.1511 18.5707 85.6458 18.692C86.1498 18.804 86.5605 18.9673 86.8778 19.182L86.3038 20.246C85.9678 20.022 85.6178 19.868 85.2538 19.784C84.8898 19.7 84.5258 19.658 84.1618 19.658C83.5738 19.658 83.1351 19.756 82.8458 19.952C82.5565 20.1387 82.4118 20.3813 82.4118 20.68C82.4118 20.932 82.4958 21.128 82.6638 21.268C82.8411 21.3987 83.0651 21.5013 83.3358 21.576C83.6158 21.6507 83.9238 21.716 84.2598 21.772C84.5958 21.8187 84.9318 21.884 85.2678 21.968C85.6038 22.0427 85.9071 22.15 86.1778 22.29C86.4578 22.43 86.6818 22.626 86.8498 22.878C87.0271 23.13 87.1158 23.466 87.1158 23.886C87.1158 24.334 86.9851 24.7213 86.7238 25.048C86.4625 25.3747 86.0938 25.6313 85.6178 25.818C85.1418 25.9953 84.5725 26.084 83.9098 26.084ZM91.2672 26L95.7053 16.2H97.0913L101.543 26H100.073L96.1113 16.984H96.6713L92.7093 26H91.2672ZM93.1573 23.55L93.5353 22.43H99.0513L99.4573 23.55H93.1573ZM102.748 28.8C102.394 28.8 102.048 28.7393 101.712 28.618C101.376 28.506 101.087 28.338 100.844 28.114L101.418 27.106C101.605 27.2833 101.81 27.4187 102.034 27.512C102.258 27.6053 102.496 27.652 102.748 27.652C103.075 27.652 103.346 27.568 103.56 27.4C103.775 27.232 103.976 26.9333 104.162 26.504L104.624 25.482L104.764 25.314L107.676 18.58H108.992L105.394 26.742C105.18 27.2647 104.937 27.6753 104.666 27.974C104.405 28.2727 104.116 28.4827 103.798 28.604C103.481 28.7347 103.131 28.8 102.748 28.8ZM104.512 26.238L101.124 18.58H102.524L105.408 25.188L104.512 26.238ZM113.369 26.084C112.734 26.084 112.174 25.9673 111.689 25.734C111.213 25.5007 110.839 25.146 110.569 24.67C110.307 24.1847 110.177 23.578 110.177 22.85V18.58H111.521V22.696C111.521 23.424 111.693 23.97 112.039 24.334C112.393 24.698 112.888 24.88 113.523 24.88C113.989 24.88 114.395 24.7867 114.741 24.6C115.086 24.404 115.352 24.124 115.539 23.76C115.725 23.3867 115.819 22.9387 115.819 22.416V18.58H117.163V26H115.889V23.998L116.099 24.53C115.856 25.0247 115.492 25.4073 115.007 25.678C114.521 25.9487 113.975 26.084 113.369 26.084ZM122.787 26.084C122.069 26.084 121.425 25.9253 120.855 25.608C120.295 25.2907 119.852 24.8473 119.525 24.278C119.199 23.7087 119.035 23.046 119.035 22.29C119.035 21.534 119.199 20.876 119.525 20.316C119.852 19.7467 120.295 19.3033 120.855 18.986C121.425 18.6687 122.069 18.51 122.787 18.51C123.413 18.51 123.977 18.65 124.481 18.93C124.985 19.21 125.387 19.63 125.685 20.19C125.993 20.75 126.147 21.45 126.147 22.29C126.147 23.13 125.998 23.83 125.699 24.39C125.41 24.95 125.013 25.3747 124.509 25.664C124.005 25.944 123.431 26.084 122.787 26.084ZM122.899 24.908C123.366 24.908 123.786 24.8007 124.159 24.586C124.542 24.3713 124.841 24.068 125.055 23.676C125.279 23.2747 125.391 22.8127 125.391 22.29C125.391 21.758 125.279 21.3007 125.055 20.918C124.841 20.526 124.542 20.2227 124.159 20.008C123.786 19.7933 123.366 19.686 122.899 19.686C122.423 19.686 121.999 19.7933 121.625 20.008C121.252 20.2227 120.953 20.526 120.729 20.918C120.505 21.3007 120.393 21.758 120.393 22.29C120.393 22.8127 120.505 23.2747 120.729 23.676C120.953 24.068 121.252 24.3713 121.625 24.586C121.999 24.8007 122.423 24.908 122.899 24.908ZM125.433 26V23.998L125.517 22.276L125.377 20.554V15.612H126.721V26H125.433ZM133.87 26V24.432L133.8 24.138V21.464C133.8 20.8947 133.632 20.456 133.296 20.148C132.97 19.8307 132.475 19.672 131.812 19.672C131.374 19.672 130.944 19.7467 130.524 19.896C130.104 20.036 129.75 20.2273 129.46 20.47L128.9 19.462C129.283 19.154 129.74 18.9207 130.272 18.762C130.814 18.594 131.378 18.51 131.966 18.51C132.984 18.51 133.768 18.7573 134.318 19.252C134.869 19.7467 135.144 20.5027 135.144 21.52V26H133.87ZM131.434 26.084C130.884 26.084 130.398 25.9907 129.978 25.804C129.568 25.6173 129.25 25.3607 129.026 25.034C128.802 24.698 128.69 24.32 128.69 23.9C128.69 23.4987 128.784 23.1347 128.97 22.808C129.166 22.4813 129.479 22.22 129.908 22.024C130.347 21.828 130.935 21.73 131.672 21.73H134.024V22.696H131.728C131.056 22.696 130.604 22.808 130.37 23.032C130.137 23.256 130.02 23.5267 130.02 23.844C130.02 24.208 130.165 24.502 130.454 24.726C130.744 24.9407 131.145 25.048 131.658 25.048C132.162 25.048 132.601 24.936 132.974 24.712C133.357 24.488 133.632 24.1613 133.8 23.732L134.066 24.656C133.889 25.0947 133.576 25.4447 133.128 25.706C132.68 25.958 132.116 26.084 131.434 26.084ZM138.893 22.906C138.893 22.542 138.954 22.2247 139.075 21.954C139.197 21.6833 139.346 21.4407 139.523 21.226C139.71 21.0113 139.911 20.8153 140.125 20.638C140.34 20.4513 140.541 20.2693 140.727 20.092C140.914 19.9053 141.063 19.7093 141.175 19.504C141.297 19.2987 141.357 19.0607 141.357 18.79C141.357 18.342 141.18 17.978 140.825 17.698C140.471 17.418 139.981 17.278 139.355 17.278C138.795 17.278 138.31 17.3713 137.899 17.558C137.489 17.7447 137.139 18.02 136.849 18.384L135.827 17.656C136.219 17.1613 136.719 16.7787 137.325 16.508C137.932 16.228 138.641 16.088 139.453 16.088C140.125 16.088 140.709 16.1907 141.203 16.396C141.698 16.592 142.081 16.8767 142.351 17.25C142.631 17.614 142.771 18.0573 142.771 18.58C142.771 18.972 142.711 19.308 142.589 19.588C142.468 19.868 142.314 20.1153 142.127 20.33C141.941 20.5447 141.74 20.7453 141.525 20.932C141.32 21.1187 141.124 21.3053 140.937 21.492C140.751 21.6787 140.597 21.884 140.475 22.108C140.354 22.332 140.293 22.598 140.293 22.906H138.893ZM139.607 26.084C139.346 26.084 139.127 25.9953 138.949 25.818C138.781 25.6407 138.697 25.4307 138.697 25.188C138.697 24.9267 138.781 24.712 138.949 24.544C139.127 24.376 139.346 24.292 139.607 24.292C139.869 24.292 140.083 24.376 140.251 24.544C140.419 24.712 140.503 24.9267 140.503 25.188C140.503 25.4307 140.419 25.6407 140.251 25.818C140.083 25.9953 139.869 26.084 139.607 26.084Z" fill="black"/>
<path d="M146.366 5.56209C145.981 4.89542 146.462 4.06209 147.232 4.06209L155.892 4.06209C156.662 4.06209 157.143 4.89542 156.758 5.56209L152.428 13.0621C152.043 13.7288 151.081 13.7288 150.696 13.0621L146.366 5.56209Z" fill="white"/>
</g>
<defs>
<filter id="filter0_d_358_4248" x="0" y="0" width="160.894" height="40" filterUnits="userSpaceOnUse" color-interpolation-filters="sRGB">
<feFlood flood-opacity="0" result="BackgroundImageFix"/>
<feColorMatrix in="SourceAlpha" type="matrix" values="0 0 0 0 0 0 0 0 0 0 0 0 0 0 0 0 0 0 127 0" result="hardAlpha"/>
<feOffset/>
<feGaussianBlur stdDeviation="2"/>
<feComposite in2="hardAlpha" operator="out"/>
<feColorMatrix type="matrix" values="0 0 0 0 0 0 0 0 0 0 0 0 0 0 0 0 0 0 0.25 0"/>
<feBlend mode="normal" in2="BackgroundImageFix" result="effect1_dropShadow_358_4248"/>
<feBlend mode="normal" in="SourceGraphic" in2="effect1_dropShadow_358_4248" result="shape"/>
</filter>
</defs>
</svg>
