<svg width="80" height="52" viewBox="0 0 80 52" fill="none" xmlns="http://www.w3.org/2000/svg">
<mask id="mask0_340_1257" style="mask-type:luminance" maskUnits="userSpaceOnUse" x="0" y="0" width="80" height="52">
<path d="M0 0H79.2363V52H0V0Z" fill="white"/>
</mask>
<g mask="url(#mask0_340_1257)">
<path d="M3.70387 36.8486C3.3031 36.771 2.91202 36.6417 2.51448 36.5383C0.917865 36.1214 0.901705 36.1149 0.652839 37.7536C0.426598 39.2403 0.242372 40.7302 0.0355225 42.2202V47.149C0.0840022 47.4205 0.145411 47.692 0.180963 47.9635C0.326404 49.0527 0.494469 50.1419 0.604358 51.2375C0.678694 51.968 0.853224 52.01 2.062 51.9518C2.70517 51.9227 2.53064 51.4315 2.55004 51.0339C2.67608 48.5873 2.67932 46.1213 2.98313 43.694C3.22876 41.7548 3.81699 39.8511 4.31149 37.9507C4.48278 37.3075 4.3632 36.9779 3.70387 36.8486ZM50.9883 0.210386C50.3516 0.00353669 49.8992 0.317043 49.6277 0.908503C49.5533 1.0701 49.4758 1.23171 49.395 1.39331C44.7376 10.8987 40.077 20.4041 35.4197 29.9094C33.4223 33.985 31.4023 38.0477 29.4405 42.1394C27.3009 46.5964 30.2291 51.5123 34.9963 51.5252C38.1992 51.5349 40.6168 49.4535 41.3925 46.0599C43.364 37.4691 45.3452 28.8817 47.3329 20.2942C48.768 14.079 50.203 7.86381 51.6412 1.6454C51.7964 0.976375 51.6638 0.439859 50.9883 0.210386ZM35.2419 48.1057C34.8315 48.0993 34.4372 48.0152 34.0623 47.8504C33.6841 47.6888 33.3512 47.4593 33.0668 47.1652C32.7791 46.8711 32.5626 46.535 32.4107 46.1536C32.2588 45.7722 32.1844 45.3779 32.1877 44.9674C32.1941 44.557 32.2782 44.1659 32.4365 43.7877C32.5981 43.4096 32.8244 43.0799 33.1185 42.7923C33.4126 42.5046 33.7487 42.2849 34.1301 42.1297C34.5083 41.9778 34.9058 41.9002 35.3163 41.9035C35.7267 41.9067 36.121 41.9875 36.4992 42.1459C36.8773 42.3042 37.2135 42.5305 37.5011 42.8214C37.792 43.1122 38.015 43.4451 38.1702 43.8233C38.3253 44.2047 38.4029 44.599 38.4029 45.0094C38.4029 45.4231 38.3221 45.8239 38.1605 46.2053C37.9989 46.5899 37.7694 46.926 37.472 47.2169C37.1747 47.5078 36.8321 47.7308 36.4475 47.8859C36.0596 48.0411 35.6589 48.1122 35.2419 48.1057ZM74.5369 31.1311C74.7437 31.0471 74.8988 30.8338 75.0572 30.6948C74.9635 30.4556 74.915 30.3102 74.8471 30.1745C71.9189 23.9625 67.7884 18.7137 62.3683 14.4798C61.8867 14.1048 61.5571 14.0822 61.1498 14.5832C58.9521 17.2625 56.7446 19.929 54.521 22.5857C54.104 23.0769 54.2107 23.3743 54.6082 23.8171C55.594 24.8933 56.5701 25.989 57.4459 27.1558C59.3043 29.6412 60.707 32.3625 61.654 35.3166C61.8059 35.7788 61.9546 36.1957 62.6172 35.9242C66.5893 34.3179 70.5647 32.731 74.5369 31.1311ZM76.948 35.5138C76.7249 34.7866 76.4114 34.6605 75.7262 34.8609C71.6345 36.0503 67.5363 37.217 63.4316 38.3579C62.7561 38.5454 62.5978 38.8492 62.6915 39.5085C62.8854 40.9048 63.06 42.3075 63.1278 43.7134C63.27 46.4703 62.921 49.1884 62.2713 51.9033C62.4362 51.9324 62.5978 51.9551 62.7658 51.9648C67.908 51.9648 73.0501 51.9583 78.1923 51.9777C78.9518 51.9777 79.0035 51.5575 79.0229 50.9951C79.2071 45.7173 78.5155 40.5557 76.948 35.5105V35.5138ZM34.7216 13.187C34.6149 11.6065 34.4501 9.35378 34.3144 7.10429C34.2788 6.54515 34.0719 6.32214 33.4934 6.39648C30.3196 6.79078 27.2459 7.57616 24.2692 8.74939C21.2925 9.91938 18.5098 11.4449 15.9209 13.3195C15.3682 13.7138 15.3488 14.0467 15.7238 14.58C16.674 15.918 17.6048 17.2722 18.4904 18.6523C18.8782 19.2599 19.2143 19.3343 19.8543 18.982C21.926 17.8281 24.1076 16.9361 26.3959 16.3123C28.6842 15.6885 31.0145 15.3459 33.3868 15.2845C34.8379 15.2425 34.8476 15.4429 34.7216 13.187ZM13.0379 16.8262C12.5952 16.2832 12.2299 16.2929 11.8033 16.7971C10.1808 18.7137 8.45171 20.543 6.95851 22.5566C4.84154 25.4137 3.31926 28.6005 2.1525 31.9618C1.93272 32.5952 2.06523 32.9088 2.69224 33.1156C3.49379 33.3806 4.27594 33.7038 5.06132 34.0173C5.53319 34.2048 5.82407 34.082 6.05032 33.6198C8.4 28.7847 11.687 24.7156 15.9759 21.4609C16.1504 21.3284 16.2797 21.141 16.4574 20.9503C16.2861 20.7111 16.1698 20.5172 16.0243 20.3459C15.0289 19.1727 14.0108 18.0188 13.0379 16.8262ZM57.9469 11.5225C56.0756 10.5432 54.1848 9.59618 52.2294 8.60395C52.1196 8.94654 52.0646 9.08229 52.0291 9.22773C51.3794 12.017 50.7298 14.8062 50.0834 17.5987C49.5824 19.748 49.5857 19.735 51.4117 21.0278C51.8739 21.3575 52.1777 21.3284 52.4783 20.8468C52.9566 20.0873 53.4576 19.344 53.9521 18.5974C55.2869 16.5644 56.625 14.5315 57.9631 12.5018C58.1861 12.1656 58.4382 11.781 57.9469 11.5225ZM39.8476 15.8275C39.8896 15.834 39.9381 15.7952 40.0383 15.7596L44.5728 6.50637C42.472 6.37708 40.5101 6.23488 38.5451 6.17024C38.3705 6.17024 38.0409 6.63241 38.0247 6.89744C37.8825 8.99179 37.7855 11.0894 37.7015 13.187C37.6142 15.4558 37.6272 15.4591 39.8476 15.8275Z" fill="#FDFDFD"/>
</g>
</svg>
