<svg width="41" height="41" viewBox="0 0 41 41" fill="none" xmlns="http://www.w3.org/2000/svg">
<mask id="mask0_340_2128" style="mask-type:luminance" maskUnits="userSpaceOnUse" x="0" y="-1" width="41" height="43">
<path d="M0 -0.00378418H41V41.0039H0V-0.00378418Z" fill="white"/>
</mask>
<g mask="url(#mask0_340_2128)">
<path d="M38.7808 11.1859L38.0443 12.439C37.0237 14.1675 35.2284 15.3509 33.2103 15.6481L25.9608 11.5451C25.2215 9.69551 25.3712 7.58972 26.3841 5.86888L27.1262 4.61376C28.9786 1.46655 33.1017 0.38407 36.3206 2.20515C39.5402 4.02414 40.6304 8.04708 38.7808 11.1859ZM31.6239 24.7841C29.4979 23.5798 23.7388 20.3219 18.6981 17.4699L22.46 11.0857L35.3857 18.3971L31.6239 24.7841ZM25.2633 25.6982C22.845 24.2363 21.6358 23.2624 21.3156 22.8642L22.2818 21.0167L26.7022 23.5179L25.2633 25.6982ZM25.9114 29.4656C25.3016 29.215 24.7593 29.9613 25.1262 30.468C25.5111 30.995 24.9556 31.7058 24.343 31.4573C23.736 31.2066 23.1881 31.948 23.5578 32.4576C23.9427 32.9866 23.3872 33.6974 22.7746 33.4468C22.1627 33.1934 21.6225 33.9431 21.9894 34.4464C22.3075 34.8857 22.0569 35.6222 21.106 35.405C19.3699 35.0047 15.0037 32.798 15.2954 32.9505C15.2926 32.9484 15.2898 32.9505 15.285 32.9484C13.4792 32.1395 13.2933 32.4082 11.4945 30.5892C10.9808 30.0699 10.4872 29.5742 9.91642 29.3438V22.4277C14.5826 22.3992 16.5457 22.0971 18.1294 21.8513C18.9306 21.7274 19.61 21.6244 20.4962 21.575L20.0855 22.3581C19.9637 22.5363 19.9101 22.748 19.9379 22.97C19.9818 23.332 20.0904 24.1848 25.1262 27.1635C26.2992 27.8555 26.6507 28.411 26.6507 28.411C27.09 29.1732 26.4439 29.6821 25.9114 29.4656ZM16.1865 39.4614L13.4458 37.9111L15.2822 34.4005C16.4531 34.9428 17.4632 35.4468 18.538 35.9041L16.1865 39.4614ZM8.59307 32.4054H6.6091V21.8228H8.59307V32.4054ZM36.9722 1.05305C33.1352 -1.11957 28.2031 0.174534 25.9838 3.94199L25.2452 5.19712C24.279 6.84068 23.9636 8.77314 24.3145 10.6123L22.5449 9.61267C22.2324 9.43446 21.8321 9.54028 21.6483 9.85284L17.2174 17.3794C17.0288 17.6941 17.1374 18.1076 17.4604 18.2885L20.8993 20.2342C19.7005 20.2704 18.8659 20.3992 17.9282 20.544C16.3856 20.7842 14.4761 21.0786 9.90319 21.1051C9.87465 20.7661 9.60107 20.5002 9.25509 20.5002H6.6091V19.8388C6.6091 19.4748 6.31464 19.1775 5.94778 19.1775H0.656488C-0.219244 19.1775 -0.21646 20.5002 0.656488 20.5002H5.28645V33.7287H0.656488C-0.219244 33.7287 -0.21646 35.0514 0.656488 35.0514H5.94778C6.31464 35.0514 6.6091 34.7541 6.6091 34.39V33.7287H9.25509C9.61917 33.7287 9.91642 33.4315 9.91642 33.0667V30.9017C10.1155 31.0779 10.332 31.2944 10.5541 31.5171C12.2234 33.2115 12.7197 33.3229 14.0709 33.868L11.9756 37.8672C11.8099 38.1826 11.9261 38.5724 12.2366 38.7485L16.073 40.9184C16.3779 41.0889 16.7601 40.9963 16.9515 40.7067L19.7959 36.3949C20.3542 36.5884 20.9459 36.7722 21.4499 36.7722C22.7106 36.7722 23.4596 35.8081 23.4283 34.7722C24.3639 34.5759 25.0252 33.7649 24.9967 32.7827C25.9323 32.5864 26.5936 31.7726 26.5651 30.7911C27.9733 30.4966 28.588 28.8711 27.7819 27.7211C27.681 27.5638 27.3044 27.0396 26.3841 26.4013L27.8543 24.1715L31.5389 26.2537C31.8487 26.4319 32.249 26.3261 32.4328 26.0163L36.8664 18.4904C37.0551 18.1723 36.9437 17.7616 36.6235 17.5778L34.8873 16.5963C36.6778 15.9739 38.2197 14.7466 39.1838 13.1107L39.9196 11.8556C42.1445 8.08049 40.8371 3.2389 36.9722 1.05305Z" fill="#FDFDFD"/>
</g>
</svg>
