<svg width="45" height="45" viewBox="0 0 45 45" fill="none" xmlns="http://www.w3.org/2000/svg">
<circle cx="22.5" cy="22.5" r="22.5" fill="#02554A"/>
<path d="M32.3612 19.5597L19.5597 32.3603C19.4232 32.4969 19.2611 32.6052 19.0827 32.6791C18.9043 32.753 18.7131 32.791 18.52 32.791C18.3269 32.791 18.1357 32.753 17.9573 32.6791C17.7789 32.6052 17.6168 32.4969 17.4803 32.3603L12.6389 27.5198C12.5023 27.3833 12.394 27.2212 12.3201 27.0428C12.2462 26.8644 12.2081 26.6732 12.2081 26.4801C12.2081 26.287 12.2462 26.0958 12.3201 25.9174C12.394 25.739 12.5023 25.5769 12.6389 25.4404L15.3192 22.7601C15.3533 22.7259 15.3938 22.6988 15.4384 22.6803C15.4831 22.6618 15.5309 22.6523 15.5792 22.6523C15.6275 22.6523 15.6753 22.6618 15.7199 22.6803C15.7646 22.6988 15.8051 22.7259 15.8392 22.7601L19.0396 25.9605C19.1111 26.0319 19.1965 26.0878 19.2905 26.1248C19.3846 26.1617 19.4852 26.1788 19.5862 26.1751C19.6872 26.1714 19.7863 26.1469 19.8774 26.1032C19.9685 26.0595 20.0496 25.9975 20.1156 25.921C20.2363 25.7754 20.2977 25.5896 20.2875 25.4007C20.2772 25.2118 20.1962 25.0337 20.0605 24.902L16.8785 21.72C16.8097 21.6511 16.7711 21.5577 16.7711 21.4604C16.7711 21.3631 16.8097 21.2697 16.8785 21.2008L18.2567 19.8225C18.2909 19.7884 18.3314 19.7612 18.376 19.7428C18.4206 19.7243 18.4685 19.7147 18.5168 19.7147C18.5651 19.7147 18.6129 19.7243 18.6575 19.7428C18.7021 19.7612 18.7427 19.7884 18.7768 19.8225L21.9772 23.0229C22.0487 23.0943 22.1341 23.1503 22.2281 23.1872C22.3222 23.2241 22.4228 23.2413 22.5238 23.2376C22.6248 23.2338 22.7239 23.2094 22.815 23.1656C22.906 23.1219 22.9871 23.0599 23.0532 22.9834C23.1739 22.8378 23.2353 22.652 23.225 22.4631C23.2148 22.2742 23.1338 22.0961 22.998 21.9644L19.8197 18.7796C19.751 18.7107 19.7124 18.6174 19.7124 18.5201C19.7124 18.4227 19.751 18.3294 19.8197 18.2605L21.198 16.8822C21.2669 16.8135 21.3603 16.7749 21.4576 16.7749C21.5549 16.7749 21.6483 16.8135 21.7172 16.8822L24.9175 20.0826C24.989 20.1541 25.0745 20.2102 25.1686 20.2472C25.2628 20.2842 25.3635 20.3014 25.4646 20.2977C25.5657 20.294 25.6649 20.2695 25.7561 20.2256C25.8472 20.1818 25.9284 20.1197 25.9944 20.0431C26.115 19.8973 26.1763 19.7115 26.1659 19.5226C26.1555 19.3337 26.0742 19.1557 25.9384 19.024L22.7601 15.8393C22.6913 15.7704 22.6527 15.677 22.6527 15.5797C22.6527 15.4824 22.6913 15.389 22.7601 15.3201L25.4404 12.6398C25.5769 12.5033 25.739 12.395 25.9174 12.321C26.0958 12.2471 26.287 12.2091 26.48 12.2091C26.6731 12.2091 26.8643 12.2471 27.0427 12.321C27.2211 12.395 27.3832 12.5033 27.5197 12.6398L32.3612 17.4804C32.4977 17.6169 32.6061 17.779 32.68 17.9574C32.7539 18.1358 32.7919 18.327 32.7919 18.5201C32.7919 18.7131 32.7539 18.9043 32.68 19.0827C32.6061 19.2611 32.4977 19.4232 32.3612 19.5597Z" fill="white"/>
</svg>
