<svg width="92" height="46" viewBox="0 0 92 46" fill="none" xmlns="http://www.w3.org/2000/svg">
<mask id="mask0_340_1262" style="mask-type:luminance" maskUnits="userSpaceOnUse" x="38" y="6" width="54" height="40">
<path d="M38.8966 6.46558H92V45.4027H38.8966V6.46558Z" fill="white"/>
</mask>
<g mask="url(#mask0_340_1262)">
<path d="M41.0704 15.6162C40.6275 16.4677 40.2096 17.4845 39.9569 18.3266C39.8478 18.6884 39.723 19.1531 39.6731 19.3777C39.3799 20.7126 39.2677 21.798 39.2801 23.1391C39.2864 23.6444 39.3519 24.4834 39.4298 25.0292C39.5733 26.0678 39.8696 27.2624 40.2158 28.2043C40.7835 29.7545 41.5383 31.1393 42.502 32.4025C43.5905 33.8247 44.8444 34.9881 46.4101 36.0173C46.6908 36.2045 47.6234 36.7378 47.9165 36.8813C49.2608 37.5394 50.4554 37.948 51.8339 38.2256C53.6367 38.5905 55.4738 38.6341 57.3202 38.3534C58.5179 38.1725 59.8341 37.8045 60.9382 37.3491C61.9862 36.9125 62.8408 36.454 63.7671 35.8302C64.7776 35.1503 65.6697 34.3861 66.4931 33.4972C67.0233 32.9233 67.5504 32.259 67.9652 31.6352L68.0401 31.5229L69.0038 32.075L69.9645 32.627L69.7992 32.9171C69.6682 33.1416 69.6245 33.229 69.6089 33.2851C69.5341 33.5534 69.6027 33.8465 69.7867 34.0524C69.8584 34.1335 69.8615 34.1366 70.2265 34.3487C70.4261 34.4672 74.8051 36.9842 79.9545 39.941C88.1511 44.6475 89.3301 45.3212 89.4081 45.3461C89.5172 45.3836 89.7013 45.396 89.8104 45.3742C89.9133 45.3524 90.035 45.3025 90.1286 45.237C90.2845 45.1278 90.2533 45.1777 91.1453 43.6151L91.9625 42.1929L91.975 42.0993C91.9968 41.9621 91.9906 41.8498 91.9531 41.7219C91.9157 41.594 91.8752 41.5129 91.7878 41.41L91.7286 41.3383L89.9071 40.2841C88.9059 39.7039 84.5019 37.1776 80.126 34.6668L72.1633 30.1007L72.076 30.0851C71.8203 30.0352 71.5707 30.1038 71.368 30.2722C71.2931 30.3346 71.2869 30.3471 71.106 30.6527L70.9189 30.9646L70.8222 30.8991C70.766 30.8617 70.3356 30.6122 69.8647 30.3408L69.0069 29.848L69.1068 29.6391C69.2253 29.3989 69.3594 29.0995 69.5122 28.719C69.6183 28.457 69.6463 28.3852 69.7773 28.011C70.1454 26.9692 70.4167 25.7653 70.5415 24.6144C70.5727 24.3368 70.6226 23.6351 70.6288 23.398C70.635 23.1235 70.635 23.0331 70.635 22.8616C70.6226 20.3664 70.0144 17.9024 68.8728 15.6942C68.4237 14.8271 67.881 13.985 67.2759 13.2146C66.309 11.9857 65.1488 10.8972 63.8669 10.0177C63.1589 9.53423 62.376 9.0851 61.6088 8.72642C58.8079 7.41646 55.664 6.96732 52.5919 7.44141C50.7267 7.72835 48.9208 8.34902 47.2959 9.25352C45.9578 10.0021 44.8319 10.8598 43.7278 11.9733C43.4814 12.2197 43.1009 12.647 42.8389 12.9682C42.6642 13.1772 42.5831 13.2832 42.3242 13.6201C41.9812 14.0723 41.373 15.0392 41.0704 15.6162ZM45.3496 16.3679C46.0545 15.3449 46.8311 14.5121 47.7887 13.7604C48.9208 12.8684 50.2027 12.2041 51.5907 11.783C51.8558 11.705 51.8683 11.6988 52.1614 11.6302C52.8663 11.4555 53.4714 11.3619 54.195 11.3152C56.1132 11.1873 58.0251 11.5397 59.7967 12.3507C60.2957 12.5783 61.0411 12.9963 61.4466 13.2707C62.6193 14.0723 63.5238 14.9363 64.3285 16.0185C65.6884 17.8494 66.4868 20.1075 66.5835 22.3906C66.6677 24.3587 66.2498 26.2955 65.364 28.064C65.2424 28.3104 64.8275 29.0309 64.6965 29.2305C64.4813 29.5517 64.2599 29.8636 64.1071 30.0539C64.0665 30.1069 63.9917 30.1973 63.948 30.2535C63.3616 30.9864 62.5039 31.788 61.6836 32.365C61.2064 32.705 60.7542 32.9763 60.2115 33.2508C57.2828 34.7417 53.8207 34.9101 50.7454 33.7062C50.1497 33.4754 49.8347 33.3194 49.1672 32.9389C48.5154 32.5646 48.2659 32.3993 47.7606 32.0032C45.4494 30.2036 43.9087 27.5774 43.4595 24.6737C43.2724 23.4791 43.2786 22.2627 43.472 21.0619C43.6529 19.9422 44.0178 18.8007 44.5169 17.8026C44.5792 17.681 44.6447 17.5531 44.6603 17.5157C44.7446 17.3472 45.2124 16.5675 45.3496 16.3679Z" fill="#FDFDFD"/>
</g>
<mask id="mask1_340_1262" style="mask-type:luminance" maskUnits="userSpaceOnUse" x="0" y="9" width="41" height="29">
<path d="M0 9.65912H40.4935V37.605H0V9.65912Z" fill="white"/>
</mask>
<g mask="url(#mask1_340_1262)">
<path d="M8.7082 9.88133C7.82554 9.90316 7.52612 9.92811 7.34834 9.99985C7.22358 10.0466 6.95847 10.109 6.75885 10.1371C6.56236 10.1652 6.27229 10.2244 6.11635 10.265C5.46136 10.4552 4.65043 10.7203 4.55375 10.7765C4.49761 10.8139 4.30111 10.9012 4.12333 10.9761C3.94243 11.0478 3.7397 11.1507 3.66172 11.2006C3.58999 11.2537 3.32799 11.4283 3.08783 11.5843C2.04298 12.2611 1.03556 13.4775 0.630093 14.5567C0.570833 14.7251 0.486621 14.9372 0.446075 15.0214C0.411766 15.1149 0.364982 15.274 0.343149 15.3801C0.327553 15.4923 0.268294 15.7387 0.215271 15.9384C0.0873934 16.4405 6.27041e-05 17.9438 0.0686802 18.6331C0.156011 19.522 0.212152 19.9337 0.293245 20.1365C0.333792 20.2488 0.427361 20.5357 0.499097 20.7759C0.692473 21.4246 1.40983 22.563 1.88392 22.9654C1.93382 23.0122 2.10848 23.1587 2.26755 23.2929C2.81025 23.7638 3.85198 24.3814 4.47577 24.6059C4.66291 24.6746 4.85629 24.7557 4.91243 24.7931C4.96857 24.8274 5.10892 24.8773 5.2212 24.9085C5.33349 24.9334 5.58924 25.0114 5.78574 25.0738C6.56236 25.3139 8.83608 25.8411 9.6283 25.9689C9.7437 25.9845 9.98386 26.0407 10.1679 26.0906C10.3519 26.1467 10.7574 26.234 11.0661 26.2964C11.378 26.3557 11.7211 26.4492 11.8334 26.4992C11.9457 26.5553 12.1578 26.6239 12.295 26.652C12.6443 26.73 13.4272 27.1136 13.6892 27.3382C13.9886 27.6001 14.235 27.9464 14.4034 28.3674C14.5375 28.6949 14.5531 28.7822 14.5531 29.3374C14.5531 29.8957 14.5375 29.983 14.4034 30.3199C14.0292 31.2462 13.1933 31.8794 11.9613 32.1757C11.8646 32.1975 11.5527 32.2599 11.2689 32.316C10.3519 32.4844 8.04386 32.4221 6.9647 32.2037C6.76821 32.1663 6.5031 32.1164 6.37522 32.1008C6.24422 32.079 5.99471 32.0228 5.81069 31.9729C5.62667 31.9168 5.27111 31.8232 5.01535 31.764C4.76272 31.7016 4.44458 31.5924 4.31359 31.5269C4.17947 31.4677 4.036 31.4084 3.99857 31.4084C3.88629 31.4084 3.14398 31.1651 3.066 31.1027C3.03169 31.0778 2.85703 31.0061 2.67613 30.9437C2.33928 30.8376 2.26755 30.8064 1.21022 30.3105C0.817231 30.1203 0.555239 30.0298 0.499097 30.0485C0.414886 30.0797 0.411766 30.1671 0.442956 31.2712C0.461669 31.9261 0.477264 33.0833 0.477264 33.8505C0.477264 35.4506 0.45855 35.3851 0.991893 35.5317C1.14472 35.5722 1.35369 35.6439 1.45038 35.6814C1.55019 35.7219 1.72485 35.7781 1.83713 35.8093C1.94941 35.8342 2.21453 35.9059 2.42661 35.9683C2.63559 36.0245 2.94748 36.1056 3.11902 36.1461C3.28745 36.1866 3.57439 36.2646 3.75841 36.3208C3.94243 36.3769 4.24185 36.4486 4.42587 36.4736C4.60989 36.5048 4.85005 36.5516 4.96545 36.5765C5.07773 36.6015 5.25239 36.6264 5.34908 36.6264C5.44577 36.6264 5.69217 36.6888 5.88554 36.7543C6.14754 36.8479 6.35339 36.8822 6.64033 36.8822C6.85554 36.8822 7.31715 36.9196 7.66647 36.9633C8.19981 37.035 8.65518 37.0475 10.5796 37.0194C12.6131 36.9945 12.9063 36.9789 13.2712 36.8915C13.4958 36.8354 13.8171 36.7761 13.9886 36.7605C14.157 36.7387 14.4221 36.6888 14.5781 36.642C14.7309 36.5952 14.9867 36.5297 15.1426 36.4923C15.9473 36.3052 17.1263 35.7843 17.8842 35.2728C18.3863 34.9391 19.191 34.1375 19.5404 33.6135C20.0082 32.9242 20.5259 31.764 20.5259 31.4053C20.5259 31.3398 20.5821 31.1807 20.6413 31.0528C20.71 30.925 20.7973 30.7129 20.8316 30.5756C20.9096 30.2856 20.972 30.2325 21.0312 30.401C21.0593 30.4727 21.0998 31.8232 21.1185 33.4045C21.1497 35.7063 21.1716 36.2896 21.2277 36.3457C21.2776 36.4019 21.602 36.4112 22.8995 36.3925C23.7759 36.38 26.1588 36.3457 28.1892 36.3208C30.2197 36.2896 32.5371 36.2584 33.3418 36.2428C34.1464 36.2272 35.8993 36.2022 37.2436 36.1866C38.5878 36.1679 39.7138 36.1367 39.7512 36.1149C39.8011 36.0837 39.8011 35.5878 39.7606 33.7414C39.7294 32.4595 39.6888 31.3834 39.6701 31.3523C39.6389 31.3024 38.3976 31.3086 34.4459 31.3834C33.741 31.399 31.9881 31.424 30.5472 31.4396C27.9397 31.4708 27.9335 31.4708 27.7962 31.3647C27.7089 31.293 27.6528 31.1901 27.6309 31.0622C27.6153 30.9593 27.5997 29.615 27.5904 28.0742L27.5748 25.2765L27.6933 25.1611L27.8087 25.0426L31.486 25.0021C33.5071 24.9802 35.9118 24.9459 36.8288 24.9241L38.4943 24.8898L38.5099 22.5412C38.5192 20.7571 38.5068 20.177 38.46 20.1209C38.407 20.0554 38.2604 20.0491 37.5461 20.0772C37.0814 20.0897 35.341 20.1178 33.6755 20.1334C32.0131 20.1489 30.0294 20.1739 29.2653 20.1895C27.8306 20.2176 27.6559 20.2051 27.553 20.0148C27.4812 19.8807 27.45 19.0417 27.4407 16.9395L27.4313 15.1804L27.5686 15.0588C27.6964 14.9496 27.7526 14.9403 28.3327 14.9403C28.6758 14.9403 29.4306 14.9247 30.0107 14.9153C30.5877 14.8997 32.8334 14.8654 35.0073 14.8374C38.198 14.7968 38.9652 14.7719 39.0245 14.7157C39.0806 14.6596 39.0838 14.2416 39.0526 12.311C39.0245 10.24 39.0089 9.96866 38.9372 9.93747C38.8904 9.91876 38.1262 9.91252 37.2405 9.93435C36.3516 9.94994 33.4665 9.99361 30.831 10.0248C21.2028 10.1433 20.9439 10.1527 20.8628 10.2369C20.8004 10.3024 20.7973 10.7016 20.8316 13.15C20.8784 16.1879 20.9969 24.843 21 25.7319C21.0125 26.5709 20.9033 26.9046 20.7755 26.4337C20.7443 26.3151 20.6788 26.1717 20.6258 26.1155C20.5696 26.0594 20.4636 25.8036 20.3762 25.5541C19.9209 24.1568 18.9103 23.0777 17.2698 22.2387C16.961 22.0796 16.5462 21.8924 16.3465 21.8145C16.15 21.7427 15.9567 21.6616 15.9192 21.6305C15.8849 21.5993 15.7321 21.5431 15.5762 21.5026C15.4233 21.4683 15.1707 21.4059 15.0241 21.3653C14.8744 21.3279 14.6841 21.2624 14.603 21.2219C14.5157 21.1751 14.3005 21.1127 14.1165 21.0846C13.4272 20.9724 12.9219 20.8725 12.6662 20.8008C12.5165 20.7603 12.2607 20.7104 12.0892 20.6948C11.9207 20.6729 11.6556 20.6293 11.4997 20.5918C11.3468 20.5575 11.116 20.5107 10.9882 20.4952C10.5796 20.439 9.03569 20.1053 8.44933 19.9493C8.11248 19.8558 7.8037 19.7341 7.22046 19.4659C6.87737 19.3099 6.40017 18.8702 6.24422 18.5708C6.17873 18.4398 6.09139 18.1372 6.05085 17.9033C5.98847 17.5384 5.98847 17.4011 6.04149 17.0113C6.11635 16.4686 6.20992 16.2347 6.47503 15.8822C6.95223 15.2491 7.92846 14.7968 9.14174 14.6502C10.7948 14.4506 11.2564 14.435 11.9893 14.5567C12.2451 14.5972 12.6131 14.6346 12.8096 14.6346C13.0092 14.6346 13.3056 14.6596 13.474 14.6908C13.6455 14.7157 13.9824 14.7719 14.2225 14.8124C14.4689 14.8498 14.7153 14.906 14.7777 14.9372C14.8338 14.9715 15.0491 15.0276 15.2549 15.065C15.7664 15.1617 16.8425 15.4674 17.4226 15.6888C17.6222 15.7606 17.8998 15.8604 18.037 15.9134C18.1805 15.9633 18.4269 16.06 18.586 16.1317C18.8698 16.2565 18.8854 16.2596 18.929 16.1723C18.9602 16.1161 18.9696 15.1461 18.9509 13.5898C18.9259 11.4159 18.9103 11.0852 18.8386 10.9979C18.7824 10.9262 18.6483 10.8856 18.3863 10.8544C18.1867 10.8295 17.9934 10.7921 17.9622 10.7734C17.931 10.7515 17.7407 10.7172 17.5473 10.6891C17.3508 10.6642 17.1294 10.6143 17.0545 10.5737C16.9703 10.5332 16.7707 10.4864 16.6023 10.4708C16.4339 10.449 16.1001 10.4053 15.86 10.3648C13.2089 9.91876 11.5558 9.80647 8.7082 9.88133Z" fill="#FDFDFD"/>
</g>
<mask id="mask2_340_1262" style="mask-type:luminance" maskUnits="userSpaceOnUse" x="38" y="0" width="41" height="33">
<path d="M38.8966 0H78.0208V32.0161H38.8966V0Z" fill="white"/>
</mask>
<g mask="url(#mask2_340_1262)">
<path d="M76.6703 0.00897217C76.271 0.00897217 74.618 0.695144 69.1037 3.05932C64.9461 4.84648 61.6181 6.34982 61.7211 6.39349C61.8271 6.44027 63.396 6.68043 65.2174 6.90499C67.0389 7.12956 68.5454 7.34165 68.5766 7.35724C68.6015 7.3822 67.6939 9.19431 66.2436 12.0294C65.6572 13.1741 64.9835 14.4841 64.2474 15.9094C64.2474 15.9126 64.2474 15.9126 64.2474 15.9126C63.4926 17.3722 62.6724 18.9567 61.8115 20.6097L60.4704 23.1797L54.4913 19.0939L48.5248 15.0049L47.0651 16.7328C45.8487 18.1956 44.5917 19.7177 43.4658 21.0931C43.4658 21.0931 43.4658 21.0931 43.4658 21.0963C41.3792 23.6382 39.7355 25.678 39.5796 25.9151C39.5702 25.9275 39.5671 25.9369 39.5702 25.9369C39.5702 25.9369 39.5733 25.9338 39.5765 25.9307C39.5796 25.9307 39.5827 25.9275 39.5827 25.9275C39.6451 25.8808 39.6919 25.8527 39.7262 25.8527C39.826 25.8527 39.8353 26.0928 39.8353 26.8757V26.9911C39.9507 27.4184 40.0786 27.8301 40.2158 28.2044C40.2782 28.3759 40.3437 28.5475 40.4123 28.7159L43.3753 25.2694C43.4253 25.2071 43.4783 25.1478 43.5313 25.0885C46.2011 21.9852 48.4062 19.4682 48.4811 19.4682C48.4811 19.4682 48.4811 19.4682 48.4842 19.4682C48.5715 19.4682 49.3793 20.1855 50.287 21.0776C57.8286 28.379 60.8446 31.2235 61.063 31.2235C61.0692 31.2235 61.0723 31.2235 61.0755 31.2204C61.169 31.1268 63.1308 27.6866 66.5274 21.6639H66.5305C67.3789 20.1575 68.3146 18.4919 69.3376 16.6767C69.5185 16.3523 69.7025 16.028 69.8865 15.6973C71.4398 12.9308 72.7934 10.5729 72.8838 10.4668C72.8963 10.4544 72.9119 10.4481 72.9337 10.4481C73.1209 10.4481 73.6698 11.0875 75.1607 13.0525C76.3053 14.5527 77.2597 15.7722 77.3128 15.7722C77.3907 15.7129 76.8636 0.277203 76.7732 0.0526376C76.7607 0.0245672 76.7295 0.00897217 76.6703 0.00897217Z" fill="#FDFDFD"/>
</g>
</svg>
