<svg width="62" height="64" viewBox="0 0 62 64" fill="none" xmlns="http://www.w3.org/2000/svg">
<path d="M15.2849 49.3431C14.9006 48.741 14.5173 48.1378 14.1123 47.5031C14.7231 47.0915 15.3361 46.7311 15.9665 46.4034C17.0378 47.7709 17.0966 48.3926 15.2849 49.3431ZM8.91015 45.5313C8.2841 45.9483 7.64499 46.3457 7.00588 46.7431C6.74566 46.9075 6.45823 46.9532 6.06082 46.8542C5.73637 46.7518 5.44893 46.4992 5.34115 46.0626C5.22247 45.5912 5.35857 45.1872 5.74073 44.9205C6.39726 44.4632 7.07447 44.031 7.76802 43.6281C8.28737 43.3265 8.95479 43.5334 9.25093 44.0331C9.55252 44.5405 9.41643 45.1938 8.91015 45.5313ZM30.5267 36.096C30.1902 35.569 29.8538 35.042 29.5174 34.514C30.4864 34.1155 31.168 33.1628 31.168 32.0512C31.168 30.5803 29.9736 29.388 28.5026 29.388C27.8069 29.388 27.1765 29.6548 26.7007 30.0914C25.5586 28.296 24.4154 26.4995 23.2711 24.7041C22.3162 23.206 20.5742 22.6551 19.0303 23.3508C17.4538 24.0618 16.7243 25.708 17.2229 27.4381C17.2578 27.5633 17.261 27.6623 17.2044 27.7875C16.3519 29.6635 15.2827 31.4045 13.9827 33.005C12.208 35.1901 10.0653 36.9398 7.67874 38.4172C5.64491 39.6791 3.6285 40.9693 1.61754 42.2693C-0.00146902 43.3146 -0.470731 45.2243 0.509166 46.8454C1.31268 48.1738 2.14668 49.4879 3.01988 50.7737C4.00631 52.2273 5.92473 52.6192 7.43812 51.7264C7.77782 51.5272 8.09466 51.2898 8.50077 51.0165C8.5748 51.1864 8.614 51.3214 8.68477 51.4346C9.95428 53.4347 11.2303 55.4293 12.4955 57.4305C12.8787 58.038 13.3523 58.5367 14.0067 58.8525C14.0067 58.8525 15.0138 59.3805 16.3127 59.0473C16.3584 59.0354 16.4031 59.0234 16.4488 59.0103C16.5272 58.9864 16.6078 58.9602 16.6873 58.9287C16.7961 58.8873 16.9039 58.8481 17.0095 58.7915C18.6819 57.8976 19.2981 55.7919 18.3161 54.1566C17.7292 53.1778 17.077 52.2392 16.439 51.2572C17.5376 50.6474 18.4924 49.9855 18.8332 48.7475C19.1751 47.5042 18.7766 46.4306 18.0319 45.4246C21.0108 44.2106 24.0528 43.6347 27.2113 43.6651C27.4237 43.6673 27.5706 43.7381 27.7274 43.8764C28.384 44.4491 29.1483 44.7408 30.0291 44.7049C32.6215 44.5993 34.1011 41.8316 32.7456 39.5964C32.0303 38.4162 31.267 37.2631 30.5267 36.096Z" fill="#FDFDFD"/>
<path d="M42.1145 30.7721C41.8543 27.4492 40.5543 24.5846 38.2613 22.1751C37.0419 20.8969 35.6091 19.9018 33.9824 19.1984C33.4707 18.9763 32.9579 18.7237 32.4048 18.6508C31.6862 18.5561 30.9208 19.1375 30.7618 19.8158C30.5876 20.5594 31.0166 21.3847 31.7396 21.6482C32.5246 21.9345 33.2715 22.2764 33.9868 22.7163C35.792 23.8246 37.1366 25.3369 38.0261 27.2445C39.1966 29.7585 39.3653 32.3508 38.5281 35.0009C38.2613 35.8458 38.5488 36.6515 39.2456 36.9999C40.256 37.504 41.25 36.9683 41.5625 35.7652C41.8064 34.8202 42.0437 33.8751 42.1014 32.8952C42.158 32.1897 42.1711 31.482 42.1145 30.7721Z" fill="#FDFDFD"/>
<path d="M31.0297 24.3621C30.0019 23.9886 29.0928 24.5232 28.8892 25.4498C28.7073 26.2805 29.1156 26.9686 30.163 27.3714C31.8659 28.0258 32.7859 29.3454 33.106 31.095C33.253 31.9007 33.0973 32.6966 32.8567 33.4729C32.75 34.3929 33.1408 34.9058 33.793 35.1954C34.5192 35.5198 35.3957 35.1975 35.7299 34.4604C36.0195 33.8159 36.135 33.1158 36.2068 32.3972C36.3799 30.6312 35.9368 29.0209 35.0244 27.5533C34.0826 26.0344 32.7249 24.9761 31.0297 24.3621Z" fill="#FDFDFD"/>
<path d="M11.9533 13.6184C11.9533 10.547 11.9533 7.56698 11.9533 4.46397C14.4444 6.01112 16.8408 7.4973 19.3265 9.04009C16.8419 10.584 14.4259 12.0832 11.9533 13.6184ZM13.9218 0C8.92434 0 4.87302 4.04806 4.87302 9.04118C4.87302 14.0343 8.92434 18.0834 13.9218 18.0834C18.9193 18.0834 22.9695 14.0343 22.9695 9.04118C22.9695 4.04806 18.9193 0 13.9218 0Z" fill="#FDFDFD"/>
<mask id="mask0_340_1621" style="mask-type:luminance" maskUnits="userSpaceOnUse" x="38" y="45" width="19" height="19">
<path d="M38.0414 45.6709H56.4373V63.9993H38.0414V45.6709Z" fill="white"/>
</mask>
<g mask="url(#mask0_340_1621)">
<path d="M45.3776 55.0703C45.3776 55.2979 45.3417 55.5189 45.2774 55.7258C46.2617 56.2299 47.2361 56.7285 48.2139 57.2272C48.6222 56.6643 49.2841 56.2974 50.0332 56.2974C51.2755 56.2974 52.2804 57.3023 52.2804 58.5435C52.2804 59.7836 51.2755 60.7897 50.0332 60.7897C48.792 60.7897 47.786 59.7836 47.786 58.5435C47.786 58.2986 47.8241 58.0656 47.897 57.8456C46.9237 57.347 45.9503 56.8494 44.9737 56.3507C44.5686 56.9343 43.8925 57.3165 43.1282 57.3165C41.887 57.3165 40.881 56.3105 40.881 55.0703C40.881 53.8291 41.887 52.8231 43.1282 52.8231C43.8098 52.8231 44.4206 53.128 44.8321 53.607C45.8686 52.9842 46.9062 52.3593 47.9493 51.7332C47.8437 51.4741 47.786 51.191 47.786 50.8949C47.786 49.6548 48.792 48.6498 50.0332 48.6498C51.2755 48.6498 52.2804 49.6548 52.2804 50.8949C52.2804 52.1361 51.2755 53.1421 50.0332 53.1421C49.3375 53.1421 48.7169 52.8253 48.3031 52.3299C47.2677 52.9527 46.2345 53.5755 45.2012 54.1971C45.3134 54.4661 45.3776 54.7611 45.3776 55.0703ZM47.2525 45.8386C42.2539 45.8386 38.2037 49.8856 38.2037 54.8809C38.2037 59.874 42.2539 63.9221 47.2525 63.9221C52.2499 63.9221 56.3002 59.874 56.3002 54.8809C56.3002 49.8856 52.2499 45.8386 47.2525 45.8386Z" fill="#FDFDFD"/>
</g>
<path d="M53.073 17.3635C52.9478 17.3635 52.7769 17.3777 52.5591 17.4027C52.5896 17.9841 52.6027 18.5895 52.6027 19.2232C52.6027 19.9178 52.6168 20.6048 52.6473 21.2875C52.8346 21.3256 53.0229 21.343 53.2124 21.343C53.8384 21.343 54.3001 21.1514 54.6006 20.7627C54.9022 20.3751 55.0513 19.9025 55.0513 19.3451C55.0513 18.7876 54.888 18.3184 54.5636 17.9373C54.238 17.5551 53.7415 17.3635 53.073 17.3635Z" fill="#FDFDFD"/>
<path d="M47.9449 17.2993C47.9449 17.4115 47.6868 18.2215 47.1729 19.7284H48.7593C48.2628 18.2302 48.0146 17.4202 48.0146 17.2993H47.9449Z" fill="#FDFDFD"/>
<mask id="mask1_340_1621" style="mask-type:luminance" maskUnits="userSpaceOnUse" x="43" y="10" width="19" height="19">
<path d="M43.3372 10.2732H61.6765V28.6691H43.3372V10.2732Z" fill="white"/>
</mask>
<g mask="url(#mask1_340_1621)">
<path d="M58.088 22.3049C57.6187 22.3049 57.2072 22.2548 56.8555 22.1525L57.0036 21.2956C57.3672 21.4252 57.7287 21.4927 58.088 21.4927C58.4386 21.4927 58.6792 21.4622 58.8142 21.4034C58.9492 21.3457 59.0178 21.2499 59.0178 21.1138C59.0178 20.9004 58.7728 20.699 58.2851 20.5073C57.8572 20.3386 57.5458 20.1731 57.352 20.0108C57.0852 19.7844 56.9524 19.5067 56.9524 19.1779C56.9524 18.7936 57.0961 18.4822 57.3835 18.247C57.671 18.0119 58.088 17.8943 58.6378 17.8943C59.1517 17.8943 59.5567 17.9389 59.8496 18.0293L59.7015 18.8916C59.3727 18.7642 59.0189 18.7 58.6378 18.7C58.1729 18.7 57.9399 18.8186 57.9399 19.0571C57.9399 19.1779 57.9911 19.277 58.088 19.3511C58.1882 19.4251 58.3896 19.5187 58.6944 19.6309C59.1169 19.7866 59.4217 19.9433 59.6144 20.1067C59.8866 20.3386 60.0238 20.6369 60.0238 20.9995C60.0238 21.8716 59.3793 22.3049 58.088 22.3049ZM55.4488 21.3174C54.9197 21.9314 54.1793 22.2396 53.2266 22.2396C52.7965 22.2396 52.2042 22.2232 51.4486 22.1884C51.4857 21.3119 51.5042 20.3222 51.5042 19.2226C51.5042 18.1654 51.4857 17.2639 51.4486 16.5181H52.2097C52.336 16.5181 52.5211 16.5137 52.7682 16.5061C53.0154 16.4974 53.1754 16.493 53.2527 16.493C54.3001 16.493 55.0623 16.7532 55.5326 17.2758C56.0052 17.7985 56.2414 18.4245 56.2414 19.1572C56.2414 19.9825 55.9769 20.7022 55.4488 21.3174ZM49.3767 22.1884C49.3767 21.9968 49.245 21.4535 48.9815 20.5596H46.9683C46.6961 21.4393 46.5579 21.9826 46.5579 22.1884H45.247C45.247 22.0741 45.5856 21.1454 46.265 19.4C46.9433 17.6569 47.2819 16.6955 47.2819 16.5181H48.9281C48.9281 16.6836 49.2363 17.6308 49.8514 19.3609C50.4644 21.0876 50.7725 22.0316 50.7725 22.1884H49.3767ZM52.6354 10.3567C47.6379 10.3567 43.5877 14.4058 43.5877 19.399C43.5877 24.3921 47.6379 28.4412 52.6354 28.4412C57.6318 28.4412 61.6842 24.3921 61.6842 19.399C61.6842 14.4058 57.6318 10.3567 52.6354 10.3567Z" fill="#FDFDFD"/>
</g>
</svg>
