<svg width="41" height="43" viewBox="0 0 41 43" fill="none" xmlns="http://www.w3.org/2000/svg">
<path d="M41.0052 17.9762C41.0052 17.7681 40.9946 17.5614 40.9741 17.3546C40.9543 17.1479 40.9232 16.9425 40.883 16.739C40.8427 16.5349 40.7918 16.3341 40.7317 16.1353C40.6709 15.9365 40.6009 15.741 40.5216 15.5488C40.4417 15.3572 40.3532 15.1696 40.2548 14.9866C40.157 14.803 40.05 14.6253 39.9344 14.4523C39.8188 14.2799 39.6953 14.1134 39.5632 13.9529C39.4318 13.7924 39.2917 13.6385 39.1451 13.4912C38.9978 13.3446 38.8439 13.2052 38.6834 13.0737C38.5222 12.9416 38.3558 12.8181 38.1827 12.7025C38.0096 12.5876 37.8313 12.4806 37.6477 12.3828C37.4647 12.2851 37.2765 12.1959 37.0849 12.1166C36.8927 12.0374 36.6972 11.9674 36.4977 11.9072C36.2989 11.8465 36.0974 11.7963 35.8933 11.756C35.6892 11.715 35.4838 11.6846 35.277 11.6642C35.0696 11.6444 34.8622 11.6338 34.6541 11.6338C34.4461 11.6338 34.2387 11.6444 34.0319 11.6642C33.8252 11.6846 33.6191 11.715 33.4157 11.756C33.2115 11.7963 33.0101 11.8465 32.8106 11.9072C32.6118 11.9674 32.4163 12.0374 32.2241 12.1166C32.0318 12.1959 31.8442 12.2851 31.6606 12.3828C31.477 12.4806 31.2993 12.5876 31.1263 12.7025C30.9532 12.8181 30.7861 12.9416 30.6256 13.0737C30.4651 13.2052 30.3112 13.3446 30.1639 13.4912C30.0166 13.6385 29.8772 13.7924 29.7451 13.9529C29.613 14.1134 29.4895 14.2799 29.3739 14.4523C29.2583 14.6253 29.1519 14.803 29.0535 14.9866C28.9557 15.1696 28.8666 15.3572 28.7873 15.5488C28.7074 15.741 28.6374 15.9365 28.5773 16.1353C28.5165 16.3341 28.4663 16.5349 28.426 16.739C28.385 16.9425 28.3547 17.1479 28.3342 17.3546C28.3137 17.5614 28.3038 17.7681 28.3038 17.9762C28.3038 18.1836 28.3137 18.391 28.3342 18.5978C28.3547 18.8045 28.385 19.0099 28.426 19.2134C28.4663 19.4168 28.5165 19.6183 28.5773 19.8171C28.6374 20.0159 28.7074 20.2114 28.7873 20.403C28.8666 20.5952 28.9557 20.7828 29.0535 20.9658C29.1519 21.1487 29.2583 21.3271 29.3739 21.4995C29.4895 21.6725 29.613 21.839 29.7451 21.9995C29.8772 22.16 30.0166 22.3139 30.1639 22.4606C30.3112 22.6079 30.4651 22.7466 30.6256 22.8787C30.7861 23.0101 30.9532 23.1343 31.1263 23.2492C31.2993 23.3648 31.477 23.4712 31.6606 23.5696C31.8442 23.6673 32.0318 23.7559 32.2241 23.8358C32.4163 23.915 32.6118 23.9851 32.8106 24.0452C33.0101 24.1053 33.2115 24.1561 33.4157 24.1964C33.6191 24.2367 33.8252 24.2671 34.0319 24.2876C34.2387 24.3081 34.4461 24.318 34.6541 24.318C34.8622 24.318 35.0696 24.3081 35.277 24.2876C35.4838 24.2671 35.6892 24.2367 35.8933 24.1964C36.0974 24.1561 36.2989 24.1053 36.4977 24.0452C36.6972 23.9851 36.8927 23.915 37.0849 23.8358C37.2765 23.7559 37.4647 23.6673 37.6477 23.5696C37.8313 23.4712 38.0096 23.3648 38.1827 23.2492C38.3558 23.1343 38.5222 23.0101 38.6834 22.8787C38.8439 22.7466 38.9978 22.6079 39.1451 22.4606C39.2917 22.3139 39.4318 22.16 39.5632 21.9995C39.6953 21.839 39.8188 21.6725 39.9344 21.4995C40.05 21.3271 40.157 21.1487 40.2548 20.9658C40.3532 20.7828 40.4417 20.5952 40.5216 20.403C40.6009 20.2114 40.6709 20.0159 40.7317 19.8171C40.7918 19.6183 40.8427 19.4168 40.883 19.2134C40.9232 19.0099 40.9543 18.8045 40.9741 18.5978C40.9946 18.391 41.0052 18.1836 41.0052 17.9762ZM36.065 15.1577H37.4766V16.5673H36.065V15.1577ZM31.8317 15.1577H33.2426V16.5673H31.8317V15.1577ZM31.1263 18.681H32.5371C32.5371 18.8204 32.551 18.9578 32.5781 19.0938C32.6052 19.2299 32.6455 19.362 32.6983 19.4901C32.7518 19.6183 32.8172 19.7405 32.8945 19.8554C32.9718 19.971 33.059 20.078 33.1574 20.1758C33.2558 20.2742 33.3628 20.362 33.4784 20.4393C33.594 20.5159 33.7155 20.5813 33.8443 20.6342C33.9725 20.6877 34.1052 20.7273 34.2413 20.7544C34.3774 20.7815 34.5154 20.7954 34.6541 20.7954C34.7935 20.7954 34.9309 20.7815 35.0676 20.7544C35.2037 20.7273 35.3358 20.6877 35.4646 20.6342C35.5928 20.5813 35.715 20.5159 35.8306 20.4393C35.9461 20.362 36.0532 20.2742 36.1509 20.1758C36.2493 20.078 36.3372 19.971 36.4145 19.8554C36.4917 19.7405 36.5571 19.6183 36.61 19.4901C36.6635 19.362 36.7031 19.2299 36.7309 19.0938C36.7579 18.9578 36.7712 18.8204 36.7712 18.681H38.182C38.1807 18.7959 38.1735 18.9095 38.1602 19.0231C38.1477 19.1368 38.1299 19.2497 38.1061 19.3613C38.0823 19.4736 38.0532 19.5839 38.0189 19.6929C37.9839 19.8019 37.9443 19.9096 37.8993 20.0146C37.8544 20.1196 37.8049 20.2227 37.7494 20.3231C37.6946 20.4235 37.6351 20.5206 37.5704 20.615C37.5063 20.7095 37.437 20.8013 37.3636 20.8891C37.2903 20.977 37.213 21.0609 37.1318 21.1408C37.0499 21.2214 36.9647 21.2974 36.8755 21.3694C36.787 21.4414 36.6945 21.5094 36.5988 21.5721C36.5036 21.6355 36.4052 21.6937 36.3035 21.7472C36.2024 21.8007 36.0987 21.8489 35.993 21.8925C35.8867 21.9354 35.779 21.9737 35.6694 22.0068C35.5597 22.0398 35.4488 22.0675 35.3365 22.0893C35.2242 22.1118 35.1106 22.1283 34.997 22.1389C34.8827 22.1501 34.7684 22.156 34.6541 22.156C34.5392 22.156 34.4249 22.1501 34.3113 22.1389C34.1971 22.1283 34.0841 22.1118 33.9718 22.0893C33.8595 22.0675 33.7486 22.0398 33.6389 22.0068C33.5286 21.9737 33.4209 21.9354 33.3153 21.8925C33.2089 21.8489 33.1059 21.8007 33.0041 21.7472C32.9031 21.6937 32.8047 21.6355 32.7089 21.5721C32.6138 21.5094 32.5213 21.4414 32.4321 21.3694C32.3436 21.2974 32.2577 21.2214 32.1765 21.1408C32.0953 21.0609 32.0173 20.977 31.944 20.8891C31.8707 20.8013 31.802 20.7095 31.7372 20.615C31.6732 20.5206 31.6131 20.4235 31.5582 20.3231C31.5034 20.2227 31.4532 20.1196 31.4083 20.0146C31.3634 19.9096 31.3238 19.8019 31.2894 19.6929C31.2551 19.5839 31.226 19.4736 31.2022 19.3613C31.1784 19.2497 31.1599 19.1368 31.1474 19.0231C31.1348 18.9095 31.1276 18.7959 31.1263 18.681Z" fill="#373535"/>
<mask id="mask0_340_1486" style="mask-type:luminance" maskUnits="userSpaceOnUse" x="17" y="25" width="18" height="18">
<path d="M17.6783 25.6687H34.757V42.641H17.6783V25.6687Z" fill="white"/>
</mask>
<g mask="url(#mask0_340_1486)">
<path d="M26.1867 42.6412C26.4642 42.6412 26.7409 42.6273 27.017 42.6002C27.2925 42.5731 27.5666 42.5328 27.8387 42.4787C28.1109 42.4245 28.3797 42.3571 28.6446 42.2772C28.9101 42.1966 29.171 42.1035 29.4273 41.9972C29.6836 41.8915 29.9339 41.7732 30.1783 41.6424C30.4227 41.5117 30.6605 41.3696 30.891 41.2157C31.1216 41.0618 31.3442 40.8974 31.5582 40.7217C31.7728 40.546 31.9783 40.3604 32.1745 40.1642C32.3706 39.9687 32.5562 39.7632 32.7319 39.5492C32.9083 39.3352 33.0734 39.1133 33.2273 38.8827C33.3812 38.6529 33.5239 38.4151 33.6547 38.1714C33.7855 37.927 33.9037 37.6766 34.0094 37.421C34.1158 37.1647 34.2089 36.9045 34.2895 36.6396C34.3701 36.3747 34.4374 36.1059 34.4916 35.8344C34.5458 35.5629 34.5861 35.2895 34.6138 35.0134C34.6409 34.7379 34.6541 34.4618 34.6541 34.1851C34.6541 33.9076 34.6409 33.6315 34.6138 33.3561C34.5861 33.0806 34.5458 32.8065 34.4916 32.535C34.4374 32.2636 34.3701 31.9954 34.2895 31.7299C34.2089 31.465 34.1158 31.2047 34.0094 30.9484C33.9037 30.6928 33.7855 30.4431 33.6547 30.1987C33.5239 29.9543 33.3812 29.7172 33.2273 29.4867C33.0734 29.2568 32.9083 29.0342 32.7319 28.8202C32.5562 28.6062 32.3706 28.4014 32.1745 28.2053C31.9783 28.0097 31.7728 27.8235 31.5582 27.6478C31.3442 27.4721 31.1216 27.3076 30.891 27.1537C30.6605 26.9998 30.4227 26.8578 30.1783 26.727C29.9339 26.5962 29.6836 26.478 29.4273 26.3723C29.171 26.2666 28.9101 26.1728 28.6446 26.0929C28.3797 26.0123 28.1109 25.9449 27.8387 25.8908C27.5666 25.8373 27.2925 25.7963 27.017 25.7692C26.7409 25.7421 26.4642 25.7283 26.1867 25.7283C25.9093 25.7283 25.6326 25.7421 25.3571 25.7692C25.081 25.7963 24.8069 25.8373 24.5348 25.8908C24.2626 25.9449 23.9944 26.0123 23.7289 26.0929C23.4634 26.1728 23.2025 26.2666 22.9462 26.3723C22.6899 26.478 22.4395 26.5969 22.1951 26.727C21.9508 26.8578 21.713 26.9998 21.4824 27.1537C21.2519 27.3076 21.0293 27.4721 20.8153 27.6478C20.6006 27.8235 20.3952 28.0097 20.1997 28.2053C20.0035 28.4014 19.8172 28.6062 19.6415 28.8202C19.4652 29.0342 19.3007 29.2568 19.1461 29.4867C18.9922 29.7172 18.8496 29.9543 18.7194 30.1987C18.5886 30.4431 18.4698 30.6928 18.3641 30.9484C18.2577 31.2047 18.1646 31.465 18.084 31.7299C18.0034 31.9954 17.936 32.2636 17.8819 32.535C17.8277 32.8065 17.7874 33.0806 17.7603 33.3561C17.7326 33.6315 17.7194 33.9076 17.7194 34.1851C17.7194 34.4618 17.7326 34.7379 17.7603 35.0134C17.7874 35.2895 17.8277 35.5629 17.8819 35.8344C17.936 36.1059 18.0034 36.3747 18.084 36.6396C18.1646 36.9045 18.2577 37.1647 18.3641 37.421C18.4698 37.6766 18.5886 37.927 18.7194 38.1714C18.8496 38.4151 18.9922 38.6529 19.1461 38.8827C19.3007 39.1133 19.4652 39.3352 19.6415 39.5492C19.8172 39.7632 20.0035 39.9687 20.1997 40.1642C20.3952 40.3604 20.6006 40.546 20.8153 40.7217C21.0293 40.8974 21.2519 41.0618 21.4824 41.2157C21.713 41.3696 21.9508 41.5117 22.1951 41.6424C22.4395 41.7732 22.6899 41.8915 22.9462 41.9972C23.2025 42.1035 23.4634 42.1966 23.7289 42.2772C23.9944 42.3571 24.2626 42.4245 24.5348 42.4787C24.8069 42.5328 25.081 42.5731 25.3571 42.6002C25.6326 42.6273 25.9093 42.6412 26.1867 42.6412ZM21.9362 31.2351C21.9884 31.1777 22.0439 31.1235 22.1027 31.0713C22.1608 31.0198 22.2216 30.9709 22.285 30.9253C22.3484 30.8804 22.4138 30.8381 22.4818 30.7992C22.5492 30.7609 22.6192 30.7258 22.6905 30.6941C22.7619 30.6631 22.8345 30.6354 22.9092 30.6116C22.9832 30.5871 23.0585 30.5673 23.1351 30.5515C23.211 30.5356 23.2883 30.5231 23.3663 30.5151C23.4436 30.5072 23.5215 30.5033 23.5994 30.5033C23.6774 30.5033 23.7553 30.5072 23.8326 30.5151C23.9105 30.5231 23.9878 30.5356 24.0638 30.5515C24.1404 30.5673 24.2157 30.5871 24.2897 30.6116C24.3643 30.6354 24.437 30.6631 24.5083 30.6941C24.5797 30.7258 24.6497 30.7609 24.7171 30.7992C24.7851 30.8381 24.8505 30.8804 24.9139 30.9253C24.9773 30.9709 25.0381 31.0198 25.0962 31.0713C25.155 31.1235 25.2105 31.1777 25.2627 31.2351L26.1867 32.216L27.1108 31.2351C27.1637 31.1777 27.2191 31.1235 27.2773 31.0713C27.3354 31.0198 27.3962 30.9709 27.4596 30.926C27.523 30.8804 27.5884 30.8381 27.6564 30.7998C27.7245 30.7609 27.7938 30.7258 27.8651 30.6948C27.9365 30.6631 28.0091 30.6354 28.0838 30.6116C28.1578 30.5878 28.2331 30.568 28.3097 30.5515C28.3856 30.5356 28.4629 30.5237 28.5402 30.5158C28.6182 30.5072 28.6961 30.5033 28.774 30.5033C28.852 30.5033 28.9299 30.5072 29.0072 30.5158C29.0851 30.5237 29.1618 30.5356 29.2384 30.5515C29.3144 30.568 29.3897 30.5878 29.4643 30.6116C29.5383 30.6354 29.6109 30.6631 29.6823 30.6948C29.7536 30.7258 29.8236 30.7609 29.891 30.7998C29.959 30.8381 30.0244 30.8804 30.0878 30.926C30.1512 30.9709 30.212 31.0198 30.2701 31.0713C30.3289 31.1235 30.3844 31.1777 30.4366 31.2351C30.5469 31.3547 30.6447 31.4828 30.7305 31.6202C30.8164 31.7576 30.8884 31.9023 30.9472 32.0529C31.0066 32.2041 31.0509 32.3587 31.0806 32.5179C31.111 32.6771 31.1255 32.8382 31.1255 33.0001C31.1255 33.1619 31.111 33.3224 31.0806 33.4816C31.0509 33.6408 31.0066 33.796 30.9472 33.9466C30.8884 34.0979 30.8164 34.2419 30.7305 34.3792C30.6447 34.5166 30.5469 34.6454 30.4366 34.7643L26.1867 39.2744L21.9362 34.7643C21.8259 34.6454 21.7282 34.5166 21.6423 34.3792C21.5564 34.2419 21.4844 34.0979 21.4256 33.9466C21.3668 33.796 21.3219 33.6408 21.2922 33.4816C21.2618 33.3224 21.2473 33.1619 21.2473 33.0001C21.2473 32.8382 21.2618 32.6771 21.2922 32.5179C21.3219 32.3587 21.3668 32.2041 21.4256 32.0529C21.4844 31.9023 21.5564 31.7576 21.6423 31.6202C21.7282 31.4828 21.8259 31.3547 21.9362 31.2351Z" fill="#373535"/>
</g>
<path d="M8.54592 28.5467C8.36097 28.5467 8.17668 28.5553 7.99239 28.5737C7.80811 28.5916 7.6258 28.6187 7.44415 28.655C7.26317 28.6907 7.08416 28.7356 6.90714 28.7891C6.73012 28.8426 6.5564 28.9047 6.38532 28.9753C6.2149 29.046 6.04779 29.1253 5.88464 29.2118C5.72149 29.299 5.56296 29.3941 5.40972 29.4965C5.25581 29.5989 5.10719 29.7092 4.96452 29.8261C4.82118 29.943 4.68445 30.0672 4.55367 30.1973C4.42354 30.3281 4.29936 30.4648 4.18179 30.6075C4.06488 30.7502 3.95457 30.8982 3.85219 31.0521C3.74914 31.2053 3.65403 31.3638 3.56684 31.5263C3.47965 31.6895 3.40104 31.8559 3.33037 32.0263C3.25969 32.1974 3.19694 32.3711 3.14344 32.5475C3.08993 32.7245 3.04502 32.9029 3.00869 33.0845C2.97302 33.2655 2.94594 33.4478 2.92744 33.6314C2.90961 33.8151 2.90036 33.9993 2.90036 34.1843C2.90036 34.3686 2.90961 34.5529 2.92744 34.7365C2.94594 34.9201 2.97302 35.1031 3.00869 35.2841C3.04502 35.4651 3.08993 35.6441 3.14344 35.8204C3.19694 35.9975 3.25969 36.1712 3.33037 36.3416C3.40104 36.512 3.47965 36.6791 3.56684 36.8416C3.65403 37.0048 3.74914 37.1626 3.85219 37.3159C3.95457 37.4698 4.06488 37.6177 4.18179 37.7604C4.29936 37.9031 4.42354 38.0398 4.55367 38.1706C4.68445 38.3014 4.82118 38.4249 4.96452 38.5418C5.10719 38.6594 5.25581 38.769 5.40972 38.8714C5.56296 38.9745 5.72149 39.0689 5.88464 39.1561C6.04779 39.2433 6.2149 39.3219 6.38532 39.3926C6.5564 39.4633 6.73012 39.5254 6.90714 39.5789C7.08416 39.6324 7.26317 39.6773 7.44415 39.7136C7.6258 39.7493 7.80811 39.7764 7.99239 39.7948C8.17668 39.8127 8.36097 39.8219 8.54592 39.8219C8.73087 39.8219 8.91516 39.8127 9.09878 39.7948C9.28307 39.7764 9.46604 39.7493 9.64702 39.7136C9.82867 39.6773 10.0077 39.6324 10.1847 39.5789C10.3611 39.5254 10.5354 39.4633 10.7059 39.3926C10.8769 39.3219 11.044 39.2433 11.2065 39.1561C11.3697 39.0689 11.5282 38.9745 11.6821 38.8714C11.836 38.769 11.984 38.6594 12.1273 38.5418C12.27 38.4249 12.4067 38.3014 12.5375 38.1706C12.6683 38.0398 12.7925 37.9031 12.9094 37.7604C13.027 37.6177 13.1366 37.4698 13.2397 37.3159C13.342 37.1626 13.4372 37.0048 13.5243 36.8416C13.6115 36.6791 13.6908 36.512 13.7615 36.3416C13.8321 36.1712 13.8942 35.9975 13.9477 35.8204C14.0012 35.6441 14.0462 35.4651 14.0825 35.2841C14.1188 35.1031 14.1459 34.9201 14.1637 34.7365C14.1816 34.5529 14.1908 34.3686 14.1908 34.1843C14.1908 33.9993 14.1822 33.8151 14.1637 33.6314C14.1459 33.4478 14.1188 33.2655 14.0825 33.0839C14.0468 32.9029 14.0019 32.7239 13.9477 32.5475C13.8942 32.3705 13.8321 32.1974 13.7615 32.0263C13.6908 31.8559 13.6115 31.6895 13.5243 31.5263C13.4372 31.3632 13.3427 31.2053 13.2397 31.0521C13.1373 30.8982 13.027 30.7502 12.91 30.6075C12.7925 30.4648 12.6683 30.3281 12.5375 30.1973C12.4067 30.0665 12.27 29.943 12.1273 29.8261C11.984 29.7085 11.836 29.5989 11.6821 29.4965C11.5282 29.3935 11.3703 29.299 11.2072 29.2118C11.044 29.1246 10.8769 29.046 10.7059 28.9753C10.5354 28.9047 10.3617 28.8426 10.1847 28.7891C10.0077 28.7356 9.82867 28.6907 9.64702 28.6543C9.46604 28.6187 9.28307 28.5916 9.09878 28.5737C8.91516 28.5553 8.73087 28.546 8.54592 28.5467ZM11.3684 34.8884H9.25203V37.0028H7.84047V34.8884H5.72347V33.4795H7.84047V31.3658H9.25203V33.4795H11.3684V34.8884Z" fill="#373535"/>
<mask id="mask1_340_1486" style="mask-type:luminance" maskUnits="userSpaceOnUse" x="0" y="0" width="26" height="26">
<path d="M0 0.359131H25.626V25.8371H0V0.359131Z" fill="white"/>
</mask>
<g mask="url(#mask1_340_1486)">
<path d="M25.4806 13.0433C25.4806 12.8359 25.4753 12.6285 25.4654 12.4211C25.4555 12.2137 25.4397 12.0069 25.4198 11.8002C25.3994 11.5934 25.3736 11.3874 25.3432 11.1826C25.3128 10.9772 25.2772 10.7724 25.2369 10.569C25.1959 10.3655 25.1504 10.1627 25.1002 9.96127C25.0493 9.75981 24.9938 9.56033 24.9337 9.36151C24.8736 9.16269 24.8082 8.96585 24.7382 8.77033C24.6682 8.57482 24.5935 8.38128 24.5136 8.18906C24.4343 7.99751 24.3498 7.80794 24.2613 7.62035C24.1721 7.43276 24.079 7.24715 23.9812 7.06418C23.8828 6.88121 23.7804 6.70023 23.6734 6.52255C23.5671 6.3442 23.4554 6.16916 23.3398 5.99676C23.2249 5.8237 23.1053 5.65395 22.9812 5.48749C22.8576 5.32038 22.7295 5.15723 22.5974 4.99672C22.466 4.83621 22.3299 4.679 22.1905 4.5251C22.0511 4.3712 21.9078 4.22126 21.7605 4.07462C21.6139 3.92732 21.4633 3.78464 21.3094 3.64527C21.1548 3.5059 20.9976 3.36983 20.8371 3.23839C20.6766 3.10694 20.5128 2.9788 20.3456 2.85528C20.1785 2.73176 20.0088 2.6122 19.8357 2.49661C19.6633 2.38168 19.4876 2.27071 19.3093 2.1637C19.1309 2.05736 18.9499 1.95497 18.767 1.85722C18.5834 1.7588 18.3977 1.66566 18.2102 1.57715C18.0219 1.48798 17.8323 1.40409 17.6401 1.32483C17.4479 1.24556 17.2544 1.17026 17.0582 1.10091C16.8627 1.03089 16.6652 0.965498 16.4663 0.90539C16.2675 0.845282 16.0674 0.789797 15.8659 0.739597C15.6638 0.688736 15.461 0.643159 15.2576 0.602867C15.0535 0.562574 14.8487 0.526906 14.6433 0.496521C14.4372 0.466137 14.2311 0.440376 14.0244 0.4199C13.8176 0.400084 13.6102 0.384892 13.4028 0.374323C13.1954 0.364415 12.9873 0.359131 12.7793 0.359131C12.5719 0.359131 12.3638 0.364415 12.1564 0.374323C11.9483 0.384892 11.7416 0.400084 11.5348 0.4199C11.3274 0.440376 11.1213 0.466137 10.9159 0.496521C10.7105 0.526906 10.5057 0.562574 10.3016 0.602867C10.0975 0.643159 9.89472 0.688736 9.69326 0.739597C9.4918 0.789797 9.29166 0.845282 9.09218 0.90539C8.89336 0.965498 8.69652 1.03089 8.50034 1.10091C8.30483 1.17026 8.11063 1.24556 7.91908 1.32483C7.72686 1.40409 7.53663 1.48798 7.34904 1.57715C7.16079 1.66566 6.97518 1.7588 6.79221 1.85722C6.60858 1.95497 6.42826 2.05736 6.24991 2.1637C6.07157 2.27071 5.89587 2.38168 5.72281 2.49661C5.55041 2.6122 5.37999 2.73176 5.21354 2.85528C5.04643 2.9788 4.88261 3.10694 4.72211 3.23839C4.56094 3.36983 4.40373 3.5059 4.24983 3.64527C4.09592 3.78464 3.94532 3.92732 3.79802 4.07462C3.65138 4.22126 3.50805 4.3712 3.36868 4.5251C3.22864 4.679 3.09324 4.83621 2.96113 4.99672C2.82968 5.15723 2.70154 5.32038 2.57802 5.48749C2.45384 5.65395 2.33429 5.8237 2.21869 5.99676C2.1031 6.16916 1.99213 6.3442 1.88512 6.52255C1.77812 6.70023 1.67574 6.88121 1.57798 7.06418C1.48022 7.24715 1.38642 7.43276 1.29791 7.62035C1.20874 7.80794 1.12485 7.99751 1.04493 8.18906C0.965665 8.38128 0.891025 8.57482 0.821009 8.77033C0.750992 8.96585 0.6856 9.16269 0.624831 9.36151C0.564723 9.56033 0.509238 9.75981 0.459038 9.96127C0.408177 10.1627 0.3626 10.3655 0.322308 10.569C0.282016 10.7724 0.246347 10.9772 0.215962 11.1826C0.184917 11.3874 0.159817 11.5934 0.139341 11.8002C0.118864 12.0069 0.103672 12.2137 0.0937641 12.4211C0.0831956 12.6285 0.0779114 12.8359 0.0779114 13.0433C0.0779114 13.2514 0.0831956 13.4588 0.0937641 13.6662C0.103672 13.8729 0.118864 14.0803 0.139341 14.2871C0.159817 14.4932 0.184917 14.6993 0.215962 14.9047C0.246347 15.1101 0.282016 15.3142 0.322308 15.5183C0.3626 15.7218 0.408177 15.9239 0.459038 16.1253C0.509238 16.3268 0.564723 16.5269 0.624831 16.7258C0.6856 16.9239 0.750992 17.1214 0.821009 17.3169C0.891025 17.5125 0.965665 17.706 1.04493 17.8976C1.12485 18.0891 1.20874 18.2793 1.29791 18.4669C1.38642 18.6545 1.48022 18.8395 1.57798 19.0231C1.67574 19.2061 1.77812 19.3864 1.88512 19.5647C1.99213 19.7424 2.1031 19.9181 2.21869 20.0905C2.33429 20.2629 2.45384 20.4327 2.57802 20.5998C2.70154 20.7662 2.82968 20.93 2.96113 21.0906C3.09324 21.2511 3.22864 21.4076 3.36868 21.5615C3.50805 21.7154 3.65138 21.866 3.79802 22.0127C3.94532 22.1593 4.09592 22.3026 4.24983 22.442C4.40373 22.5814 4.56094 22.7168 4.72211 22.8489C4.88261 22.9803 5.04643 23.1078 5.21354 23.2313C5.37999 23.3555 5.55041 23.4751 5.72281 23.59C5.89587 23.7056 6.07157 23.8166 6.24991 23.9229C6.42826 24.0299 6.60858 24.1323 6.79221 24.2301C6.97518 24.3278 7.16079 24.421 7.34904 24.5101C7.53663 24.5986 7.72686 24.6825 7.91908 24.7624C8.11063 24.8417 8.30483 24.9164 8.50034 24.9864C8.69652 25.0564 8.89336 25.1211 9.09218 25.1819C9.29166 25.242 9.4918 25.2975 9.69326 25.3477C9.89472 25.3979 10.0975 25.4435 10.3016 25.4844C10.5057 25.5247 10.7105 25.5604 10.9159 25.5908C11.1213 25.6211 11.3274 25.6462 11.5348 25.6667C11.7416 25.6872 11.9483 25.7024 12.1564 25.7123C12.3638 25.7229 12.5719 25.7275 12.7793 25.7275C12.9873 25.7275 13.1954 25.7229 13.4028 25.7123C13.6102 25.7024 13.8176 25.6872 14.0244 25.6667C14.2311 25.6462 14.4372 25.6211 14.6433 25.5908C14.8487 25.5604 15.0535 25.5247 15.2576 25.4844C15.461 25.4435 15.6638 25.3979 15.8659 25.3477C16.0674 25.2975 16.2675 25.242 16.4663 25.1819C16.6652 25.1211 16.8627 25.0564 17.0582 24.9864C17.2544 24.9164 17.4479 24.8417 17.6401 24.7624C17.8323 24.6825 18.0219 24.5986 18.2102 24.5101C18.3977 24.421 18.5834 24.3278 18.767 24.2301C18.9499 24.1323 19.1309 24.0299 19.3093 23.9229C19.4876 23.8166 19.6633 23.7056 19.8357 23.59C20.0088 23.4751 20.1785 23.3555 20.3456 23.2313C20.5128 23.1078 20.6766 22.9803 20.8371 22.8489C20.9976 22.7168 21.1548 22.5814 21.3094 22.442C21.4633 22.3026 21.6139 22.1593 21.7605 22.0127C21.9078 21.866 22.0511 21.7154 22.1905 21.5615C22.3299 21.4076 22.466 21.2511 22.5974 21.0906C22.7295 20.93 22.8576 20.7662 22.9812 20.5998C23.1053 20.4327 23.2249 20.2629 23.3398 20.0905C23.4554 19.9181 23.5671 19.7424 23.6734 19.5647C23.7804 19.3864 23.8828 19.2061 23.9812 19.0231C24.079 18.8395 24.1721 18.6545 24.2613 18.4669C24.3498 18.2793 24.4343 18.0891 24.5136 17.8976C24.5935 17.706 24.6682 17.5125 24.7382 17.3169C24.8082 17.1214 24.8736 16.9239 24.9337 16.7258C24.9938 16.5269 25.0493 16.3268 25.1002 16.1253C25.1504 15.9239 25.1959 15.7218 25.2369 15.5183C25.2772 15.3142 25.3128 15.1101 25.3432 14.9047C25.3736 14.6993 25.3994 14.4932 25.4198 14.2871C25.4397 14.0803 25.4555 13.8729 25.4654 13.6662C25.4753 13.4588 25.4806 13.2514 25.4806 13.0433ZM7.84047 17.9762C7.84047 18.0224 7.83585 18.068 7.8266 18.1135C7.81802 18.1591 7.80414 18.2027 7.78697 18.2456C7.76914 18.2886 7.74734 18.3289 7.72158 18.3678C7.69582 18.4062 7.66675 18.4418 7.63373 18.4742C7.6007 18.5072 7.56569 18.5363 7.52672 18.562C7.48841 18.5878 7.44746 18.6096 7.40518 18.6274C7.36225 18.6453 7.31799 18.6585 7.27242 18.6677C7.22684 18.6763 7.18126 18.6809 7.13503 18.6809H5.01802C4.97179 18.6809 4.92555 18.677 4.88063 18.6677C4.83506 18.6585 4.7908 18.6453 4.74787 18.6274C4.70493 18.6096 4.66464 18.5878 4.62567 18.562C4.58736 18.5369 4.55169 18.5072 4.51866 18.4749C4.4863 18.4418 4.45657 18.4062 4.43081 18.3678C4.40505 18.3295 4.38325 18.2886 4.36542 18.2456C4.34825 18.2034 4.33437 18.1591 4.32579 18.1135C4.31654 18.068 4.31192 18.0224 4.31192 17.9762V10.2248C4.31192 10.1786 4.31654 10.133 4.32579 10.0874C4.33437 10.0419 4.34825 9.9976 4.36542 9.95533C4.38325 9.91239 4.40505 9.87144 4.43081 9.83313C4.45657 9.79482 4.4863 9.75915 4.51866 9.72612C4.55169 9.69376 4.58736 9.66469 4.62567 9.63893C4.66464 9.61317 4.70493 9.59137 4.74787 9.57354C4.7908 9.5557 4.83506 9.54249 4.88063 9.53325C4.92555 9.52466 4.97179 9.52003 5.01802 9.52003H7.13503C7.18126 9.52003 7.22684 9.52466 7.27242 9.53325C7.31799 9.54249 7.36225 9.5557 7.40518 9.57354C7.44746 9.59137 7.48841 9.61317 7.52672 9.63893C7.56569 9.66469 7.6007 9.69376 7.63373 9.72678C7.66675 9.75915 7.69582 9.79482 7.72158 9.83313C7.74734 9.8721 7.76914 9.91239 7.78697 9.95533C7.80414 9.99826 7.81802 10.0419 7.8266 10.0874C7.83585 10.133 7.84047 10.1786 7.84047 10.2248V17.9762ZM21.2473 15.5104C21.2473 15.5797 21.24 15.6484 21.2268 15.7165C21.2129 15.7845 21.1931 15.8506 21.1667 15.9146C21.1396 15.9787 21.1072 16.0395 21.0683 16.0976C21.03 16.1551 20.9864 16.2086 20.9368 16.2575C20.8879 16.3063 20.8344 16.3506 20.7763 16.3889C20.7188 16.4279 20.6581 16.4602 20.5933 16.4867C20.5293 16.5131 20.4632 16.5336 20.3952 16.5468C20.3272 16.5606 20.2578 16.5672 20.1884 16.5672H19.483C19.5523 16.5672 19.6217 16.5738 19.6897 16.5877C19.7578 16.6009 19.8238 16.6207 19.8879 16.6478C19.9526 16.6742 20.0134 16.7066 20.0709 16.7456C20.129 16.7839 20.1825 16.8275 20.2314 16.877C20.2809 16.9259 20.3245 16.9794 20.3635 17.0369C20.4018 17.0943 20.4342 17.1558 20.4612 17.2198C20.4877 17.2839 20.5075 17.35 20.5213 17.418C20.5346 17.486 20.5418 17.5547 20.5418 17.6241C20.5418 17.6934 20.5346 17.7621 20.5213 17.8302C20.5075 17.8982 20.4877 17.9643 20.4612 18.0283C20.4342 18.0931 20.4018 18.1538 20.3635 18.2113C20.3245 18.2694 20.2809 18.3223 20.2314 18.3718C20.1825 18.4207 20.129 18.4643 20.0709 18.5033C20.0134 18.5416 19.9526 18.5739 19.8879 18.601C19.8238 18.6274 19.7578 18.6473 19.6897 18.6611C19.6217 18.6743 19.5523 18.6809 19.483 18.6809H10.6629L9.85641 17.9781H9.25203V10.2248H10.8221C10.9654 10.2248 11.1075 10.2143 11.2482 10.1925C11.3895 10.1713 11.5282 10.139 11.6643 10.0967C11.801 10.0537 11.9331 10.0016 12.0613 9.93881C12.1901 9.87606 12.3129 9.80406 12.4298 9.72282C12.5474 9.64157 12.6577 9.5524 12.7614 9.45398C12.8658 9.35622 12.9609 9.2512 13.0488 9.13825C13.1366 9.02596 13.2152 8.90772 13.2852 8.78288C13.3552 8.6587 13.4147 8.52924 13.4649 8.39581L14.5475 5.51391C14.5786 5.42871 14.6182 5.34746 14.6651 5.27018C14.712 5.19224 14.7655 5.12024 14.8263 5.05286C14.887 4.98549 14.9537 4.92406 15.0257 4.86924C15.0984 4.81441 15.175 4.76751 15.2563 4.72722C15.3382 4.68693 15.4227 4.65522 15.5099 4.63078C15.5978 4.60701 15.6863 4.59115 15.7768 4.58455C15.8672 4.57728 15.9577 4.5786 16.0482 4.58851C16.1381 4.59908 16.2266 4.61757 16.3131 4.644C16.4003 4.67108 16.4835 4.70609 16.5634 4.74902C16.6434 4.79129 16.7187 4.84149 16.7893 4.8983C16.86 4.95577 16.9241 5.01852 16.9829 5.08787C17.041 5.15723 17.0925 5.23187 17.1368 5.31047C17.181 5.38973 17.2174 5.4723 17.2464 5.55817C17.2748 5.6447 17.2953 5.73255 17.3065 5.82238C17.3184 5.91221 17.3217 6.00205 17.3165 6.09254C17.3112 6.18303 17.2973 6.2722 17.2748 6.36005L16.3078 10.2248H21.6C21.6694 10.2248 21.738 10.2314 21.8067 10.2453C21.8748 10.2585 21.9408 10.279 22.0049 10.3054C22.069 10.3318 22.1304 10.3649 22.1879 10.4032C22.246 10.4415 22.2995 10.4857 22.3484 10.5346C22.3973 10.5835 22.4415 10.637 22.4798 10.6945C22.5188 10.7526 22.5512 10.8134 22.5776 10.8774C22.6047 10.9415 22.6245 11.0076 22.6384 11.0756C22.6516 11.1436 22.6582 11.2123 22.6582 11.2817C22.6582 11.3517 22.6516 11.4204 22.6384 11.4884C22.6245 11.5565 22.6047 11.6225 22.5776 11.6866C22.5512 11.7506 22.5188 11.8114 22.4798 11.8695C22.4415 11.927 22.3973 11.9805 22.3484 12.0294C22.2995 12.0783 22.246 12.1225 22.1879 12.1608C22.1304 12.1991 22.069 12.2322 22.0049 12.2586C21.9408 12.285 21.8748 12.3055 21.8067 12.3187C21.738 12.3326 21.6694 12.3392 21.6 12.3392H20.8945C20.9639 12.3392 21.0326 12.3458 21.1013 12.3597C21.1693 12.3729 21.2354 12.3927 21.2995 12.4198C21.3635 12.4462 21.425 12.4786 21.4824 12.5169C21.5405 12.5558 21.5941 12.5994 21.6429 12.6483C21.6925 12.6979 21.7361 12.7514 21.7744 12.8088C21.8133 12.8663 21.8457 12.9277 21.8721 12.9918C21.8992 13.0559 21.919 13.1219 21.9329 13.1899C21.9461 13.258 21.9527 13.3267 21.9527 13.396C21.9527 13.4654 21.9461 13.5341 21.9329 13.6021C21.919 13.6702 21.8992 13.7362 21.8721 13.8003C21.8457 13.8643 21.8133 13.9258 21.7744 13.9832C21.7361 14.0407 21.6925 14.0942 21.6429 14.1438C21.5941 14.1926 21.5405 14.2362 21.4824 14.2752C21.425 14.3135 21.3635 14.3459 21.2995 14.3723C21.2354 14.3994 21.1693 14.4192 21.1013 14.4331C21.0326 14.4463 20.9639 14.4529 20.8945 14.4529H20.1884C20.2578 14.4529 20.3272 14.4601 20.3952 14.4734C20.4632 14.4872 20.5293 14.507 20.5933 14.5335C20.6581 14.5599 20.7188 14.5929 20.7763 14.6312C20.8344 14.6695 20.8879 14.7138 20.9368 14.7627C20.9864 14.8115 21.03 14.8651 21.0683 14.9225C21.1072 14.9806 21.1396 15.0414 21.1667 15.1055C21.1931 15.1696 21.2129 15.2356 21.2268 15.3036C21.24 15.3717 21.2473 15.4404 21.2473 15.5104Z" fill="#373535"/>
</g>
</svg>
