<svg width="50" height="70" viewBox="0 0 50 70" fill="none" xmlns="http://www.w3.org/2000/svg">
<mask id="mask0_340_1528" style="mask-type:luminance" maskUnits="userSpaceOnUse" x="0" y="0" width="42" height="70">
<path d="M0 0H41.332V69.3678H0V0Z" fill="white"/>
</mask>
<g mask="url(#mask0_340_1528)">
<path fill-rule="evenodd" clip-rule="evenodd" d="M34.5509 69.3663H6.66225C3.00344 69.3663 0.035553 66.3604 0.035553 62.704V6.65128C0.035553 2.99603 3.00344 0.0305176 6.66225 0.0305176H34.5509C38.2097 0.0305176 41.2191 2.99603 41.2191 6.65128V33.5403C41.2191 34.5969 39.5927 34.5969 39.5927 33.5403V6.65128C39.5927 3.88877 37.3158 1.65573 34.5509 1.65573H6.66225C3.89737 1.65573 1.66195 3.88877 1.66195 6.65128V62.704C1.66195 65.4665 3.89737 67.7411 6.66225 67.7411H34.5509C37.3158 67.7411 39.5927 65.4665 39.5927 62.704V46.9041C39.5927 45.8476 41.2191 45.8476 41.2191 46.9041V62.704C41.2191 66.3604 38.2097 69.3663 34.5509 69.3663Z" fill="#FDFDFD"/>
</g>
<path fill-rule="evenodd" clip-rule="evenodd" d="M40.4059 10.4292H0.848765C-0.249352 10.4292 -0.249352 8.80396 0.848765 8.80396H40.4059C41.4625 8.80396 41.4625 10.4292 40.4059 10.4292Z" fill="#FDFDFD"/>
<path fill-rule="evenodd" clip-rule="evenodd" d="M40.4059 60.5925H0.848765C-0.249352 60.5925 -0.249352 58.9685 0.848765 58.9685H40.4059C41.4625 58.9685 41.4625 60.5925 40.4059 60.5925Z" fill="#FDFDFD"/>
<path fill-rule="evenodd" clip-rule="evenodd" d="M27.8436 6.36816H13.371C13.0457 6.36816 12.7608 6.16397 12.6385 5.88024L10.6868 1.16842C10.2808 0.153407 11.7849 -0.455603 12.1909 0.51905L13.8992 4.74295H27.3153L29.0224 0.51905C29.4284 -0.455603 30.9325 0.153407 30.5265 1.16842L28.6164 5.88024C28.4941 6.16397 28.1688 6.36816 27.8436 6.36816Z" fill="#FDFDFD"/>
<path fill-rule="evenodd" clip-rule="evenodd" d="M27.0706 64.979H14.1829C13.086 64.979 13.086 63.355 14.1829 63.355H27.0706C28.1284 63.355 28.1284 64.979 27.0706 64.979Z" fill="#FDFDFD"/>
<path fill-rule="evenodd" clip-rule="evenodd" d="M4.99554 27.3672C4.54799 27.3672 4.18234 27.0016 4.18234 26.554V18.187C4.18234 17.1304 5.80874 17.1304 5.80874 18.187V26.554C5.80874 27.0016 5.4431 27.3672 4.99554 27.3672Z" fill="#FDFDFD"/>
<path fill-rule="evenodd" clip-rule="evenodd" d="M15.5256 27.3674C10.8091 27.3674 10.8091 17.4155 15.5256 17.4155C20.2007 17.4155 20.2007 27.3674 15.5256 27.3674ZM15.5256 19.0407C14.5902 19.0407 13.574 20.4214 13.574 22.3707C13.574 24.3616 14.5902 25.7422 15.5256 25.7422C16.4196 25.7422 17.4358 24.3616 17.4358 22.3707C17.4358 20.4214 16.4196 19.0407 15.5256 19.0407Z" fill="#FDFDFD"/>
<path fill-rule="evenodd" clip-rule="evenodd" d="M23.0865 27.3678C20.2813 27.3678 19.3055 23.671 20.9722 23.671C22.3149 23.671 21.2571 25.7426 23.0865 25.7426C23.7775 25.7426 24.3473 25.1739 24.3473 24.483C24.3473 22.2488 20.1602 24.1173 20.1602 20.2995C20.1602 16.4816 25.9737 16.4816 25.9737 20.2995C25.9737 21.356 24.3473 21.356 24.3473 20.2995C24.3473 18.6339 21.7854 18.6339 21.7854 20.2995C21.7854 22.5337 25.9737 20.6651 25.9737 24.483C25.9737 26.0678 24.6726 27.3678 23.0865 27.3678Z" fill="#FDFDFD"/>
<path fill-rule="evenodd" clip-rule="evenodd" d="M32.071 27.3676C31.6246 27.3676 31.2578 27.002 31.2578 26.5544V18.2681C31.2578 17.2127 32.8842 17.2127 32.8842 18.2681V26.5544C32.8842 27.002 32.5185 27.3676 32.071 27.3676Z" fill="#FDFDFD"/>
<path fill-rule="evenodd" clip-rule="evenodd" d="M36.2178 19.0815H27.8839C26.8274 19.0815 26.8274 17.4563 27.8839 17.4563H36.2178C37.3159 17.4563 37.3159 19.0815 36.2178 19.0815Z" fill="#FDFDFD"/>
<path fill-rule="evenodd" clip-rule="evenodd" d="M7.63815 24.0763C5.93102 24.0763 4.18234 24.4016 4.18234 23.2643V18.1869C4.18234 17.0496 5.93102 17.3749 7.63815 17.3749C12.0282 17.3749 12.0282 24.0763 7.63815 24.0763ZM5.80874 22.4523C7.0695 22.4523 9.34528 22.7764 9.34528 20.7048C9.34528 18.6748 7.0695 18.9989 5.80874 18.9989V22.4523Z" fill="#FDFDFD"/>
<path fill-rule="evenodd" clip-rule="evenodd" d="M45.3659 51.9817C44.6738 51.9817 44.0648 51.7371 43.6173 51.2907L36.9906 44.67L34.9985 47.9596C33.9004 49.7071 32.4378 49.6655 31.868 47.7981L26.5828 30.6568C26.1768 29.3165 26.7858 28.5045 28.2911 28.9912L45.4467 34.2313C47.358 34.8403 47.3164 36.3029 45.569 37.3583L42.7637 39.0642L49.2681 45.6043C50.244 46.5789 50.244 48.1626 49.2681 49.1384C47.9266 50.4787 46.8285 51.9817 45.3659 51.9817ZM36.8279 42.558C37.0309 42.558 37.2339 42.6388 37.3966 42.8014L44.7558 50.1131C45.081 50.4372 45.6497 50.4372 45.975 50.1131L48.1296 47.9596C48.4549 47.6355 48.4549 47.1072 48.1296 46.7416L40.8524 39.5118C40.4867 39.1462 40.5687 38.4956 41.015 38.2522L44.9991 35.815C44.9588 35.7746 44.9588 35.7746 44.9588 35.7746L28.2911 30.6568L33.4125 47.3102V47.3506L36.137 42.9237L36.8279 42.558Z" fill="#FDFDFD"/>
</svg>
