<svg width="74" height="71" viewBox="0 0 74 71" fill="none" xmlns="http://www.w3.org/2000/svg">
<path d="M69.9612 26.3014C69.9612 25.2387 69.269 24.3367 68.313 24.0189L68.3105 19.8646C68.3105 19.5681 68.1359 19.3006 67.8658 19.1787C67.5957 19.0581 67.2792 19.1096 67.0593 19.3093L66.2101 20.0819C64.6185 21.5253 62.6626 22.5077 60.5546 22.9222C60.4994 22.9323 60.4491 22.9499 60.4014 22.9712H55.5499C53.7886 22.9712 52.354 24.4046 52.354 26.1695V26.4447C52.354 28.1606 53.7108 29.5638 55.4054 29.6392V33.933C55.4054 34.9392 56.2219 35.7557 57.2269 35.7557H57.3475C58.3525 35.7557 59.169 34.9392 59.169 33.933V29.643H60.4705C60.4981 29.6505 60.5232 29.6593 60.5521 29.6643C62.6613 30.0789 64.616 31.0613 66.2076 32.5046L67.0581 33.2772C67.1975 33.4041 67.3784 33.4719 67.5605 33.4719C67.6636 33.4719 67.7666 33.4506 67.8645 33.4079C68.1346 33.2873 68.3092 33.0184 68.3092 32.7232L68.3105 28.589C69.269 28.2662 69.9612 27.3617 69.9612 26.3014ZM53.8527 26.4409V26.1645C53.8527 25.2274 54.6152 24.4649 55.5511 24.4649H59.9516V26.1042C59.9516 26.1281 59.9542 26.152 59.9554 26.1733V26.4019C59.9542 26.4258 59.9516 26.4472 59.9516 26.471V28.138H55.5511C54.6152 28.1418 53.8527 27.3793 53.8527 26.4409ZM57.6741 33.9292C57.6741 34.1076 57.5284 34.2533 57.35 34.2533H57.2294C57.0498 34.2533 56.9041 34.1076 56.9041 33.9292V29.6455H57.6754V33.9292H57.6741ZM61.4503 28.324V24.2563C63.4213 23.7727 65.2579 22.8418 66.8169 21.5391L66.8181 24.5641C66.8144 24.5917 66.8131 24.6206 66.8131 24.6483V27.9546C66.8131 27.9835 66.8144 28.0112 66.8181 28.0388L66.8169 31.0399C65.2579 29.7372 63.4213 28.8063 61.4503 28.324ZM68.313 26.7989V26.4723C68.313 26.4409 68.3105 26.412 68.3067 26.3831V26.1947C68.3105 26.1645 68.313 26.1344 68.313 26.1042V25.799C68.4085 25.9434 68.4625 26.1143 68.4625 26.2989C68.465 26.4836 68.4085 26.657 68.313 26.7989Z" fill="#FDFDFD"/>
<mask id="mask0_340_1550" style="mask-type:luminance" maskUnits="userSpaceOnUse" x="69" y="25" width="5" height="2">
<path d="M69.8695 25.3384H73.8882V26.9463H69.8695V25.3384Z" fill="white"/>
</mask>
<g mask="url(#mask0_340_1550)">
<path d="M73.1294 25.3525H70.7187C70.3054 25.3525 69.9712 25.6867 69.9712 26.1012C69.9712 26.5158 70.3054 26.8512 70.7187 26.8512H73.1294C73.5427 26.8512 73.8768 26.5158 73.8768 26.1012C73.8768 25.6867 73.5427 25.3525 73.1294 25.3525Z" fill="#FDFDFD"/>
</g>
<path d="M70.4788 25.1782C70.6358 25.1782 70.7954 25.1305 70.9285 25.0275L72.8493 23.5703C73.1772 23.3203 73.2438 22.8505 72.9938 22.5213C72.7438 22.1922 72.274 22.1269 71.9461 22.3769L70.0253 23.8341C69.6975 24.0828 69.6309 24.5539 69.8821 24.883C70.0291 25.0752 70.2527 25.1782 70.4788 25.1782Z" fill="#FDFDFD"/>
<path d="M72.8518 28.6319L70.931 27.1747C70.6006 26.9259 70.1321 26.99 69.8833 27.3191C69.6346 27.647 69.6987 28.1181 70.0278 28.3668L71.9473 29.824C72.083 29.927 72.2413 29.976 72.3983 29.976C72.6244 29.976 72.8467 29.873 72.995 29.6783C73.2437 29.3517 73.1796 28.8806 72.8518 28.6319Z" fill="#FDFDFD"/>
<mask id="mask1_340_1550" style="mask-type:luminance" maskUnits="userSpaceOnUse" x="26" y="61" width="14" height="11">
<path d="M26.4546 61.0349H39.6398V71.0005H26.4546V61.0349Z" fill="white"/>
</mask>
<g mask="url(#mask1_340_1550)">
<path d="M38.7832 61.179H27.4596C27.0463 61.179 26.7109 61.5144 26.7109 61.9277V70.2539C26.7109 70.2702 26.7109 70.2853 26.7134 70.2991C26.7134 70.3029 26.7134 70.3066 26.7134 70.3104C26.7134 70.323 26.716 70.3355 26.7172 70.3481C26.7172 70.3518 26.7172 70.3531 26.7197 70.3569C26.7235 70.3908 26.731 70.4222 26.7386 70.4523V70.4549C26.7524 70.5038 26.7712 70.5516 26.7951 70.5968V70.5993C26.7951 70.5993 26.7951 70.5993 26.7951 70.6006C26.8102 70.6295 26.8278 70.6571 26.8453 70.6847C26.8479 70.686 26.8491 70.6898 26.8516 70.6923C26.8592 70.7036 26.8667 70.7136 26.8768 70.7249C26.878 70.7275 26.878 70.7287 26.8805 70.7287C26.8906 70.7413 26.9006 70.7526 26.9094 70.7626C26.9132 70.7664 26.9157 70.7677 26.9195 70.7714C26.927 70.7802 26.9345 70.789 26.9446 70.7965C26.9471 70.7991 26.9509 70.8028 26.9521 70.8053C26.9647 70.8141 26.9735 70.8242 26.986 70.8342C26.9873 70.8355 26.9898 70.838 26.9911 70.838C27.0011 70.8455 27.0124 70.8531 27.0225 70.8619C27.025 70.8631 27.0288 70.8656 27.03 70.8669C27.0551 70.8845 27.0828 70.9021 27.1117 70.9171C27.1117 70.9171 27.1142 70.9171 27.1142 70.9197C27.1569 70.9435 27.2034 70.9611 27.2524 70.9737C27.2536 70.9737 27.2536 70.9737 27.2561 70.9737C27.2863 70.9837 27.3202 70.99 27.3503 70.9938C27.3529 70.9938 27.3566 70.9938 27.3591 70.9938C27.3717 70.995 27.3843 70.9975 27.3981 70.9975C27.4019 70.9975 27.4056 70.9975 27.4094 70.9975C27.4245 71.0001 27.4408 71.0001 27.4559 71.0001H38.7794C39.1927 71.0001 39.5268 70.6646 39.5268 70.2501V61.9277C39.5306 61.5144 39.1965 61.179 38.7832 61.179ZM38.0345 62.6776V66.6561L36.2431 65.3596C35.9391 65.1398 35.522 65.1787 35.2633 65.4488L33.8701 66.9123L32.1089 64.1738C31.9745 63.9627 31.7458 63.8346 31.4971 63.8283C31.2471 63.8233 31.0122 63.9414 30.869 64.1436L28.2096 67.901V62.6751H38.0345V62.6776ZM31.4481 65.9161L33.1 68.4864C33.1076 68.5002 33.1151 68.5115 33.1227 68.5253L33.7545 69.5052H28.9081L31.4481 65.9161ZM38.0345 69.5052H35.5346L34.7017 68.2075L35.8951 66.955L38.0345 68.5014V69.5052Z" fill="#FDFDFD"/>
</g>
<path d="M35.3072 64.2103C35.3072 64.2933 35.2921 64.3737 35.2607 64.4503C35.2281 64.5269 35.1828 64.5948 35.125 64.6538C35.066 64.7116 34.9982 64.7568 34.9215 64.7895C34.8449 64.8209 34.7645 64.8372 34.6816 64.8372C34.5987 64.8372 34.5196 64.8209 34.4429 64.7895C34.3663 64.7568 34.2985 64.7116 34.2394 64.6538C34.1804 64.5948 34.1351 64.5269 34.1037 64.4503C34.0723 64.3737 34.056 64.2933 34.056 64.2103C34.056 64.1274 34.0723 64.047 34.1037 63.9704C34.1351 63.8938 34.1804 63.8259 34.2394 63.7669C34.2985 63.7091 34.3663 63.6639 34.4429 63.6312C34.5196 63.5998 34.5987 63.5835 34.6816 63.5835C34.7645 63.5835 34.8449 63.5998 34.9215 63.6312C34.9982 63.6639 35.066 63.7091 35.125 63.7669C35.1828 63.8259 35.2281 63.8938 35.2607 63.9704C35.2921 64.047 35.3072 64.1274 35.3072 64.2103Z" fill="#FDFDFD"/>
<mask id="mask2_340_1550" style="mask-type:luminance" maskUnits="userSpaceOnUse" x="0" y="19" width="14" height="15">
<path d="M0 19.5498H13.9126V33.6998H0V19.5498Z" fill="white"/>
</mask>
<g mask="url(#mask2_340_1550)">
<path d="M2.0401 31.5891C2.67575 32.2247 3.41817 32.7272 4.24351 33.0752C5.09899 33.437 6.00723 33.6204 6.94312 33.6204C7.88025 33.6204 8.7885 33.437 9.64272 33.0752C10.4693 32.7247 11.2092 32.2247 11.8474 31.5891C12.4843 30.9522 12.9843 30.2097 13.3322 29.3832C13.694 28.5264 13.8762 27.6182 13.8762 26.681C13.8762 25.7452 13.694 24.8344 13.3322 23.9789C13.091 23.4073 12.7782 22.8772 12.3976 22.3936C12.483 22.4539 12.5798 22.4853 12.679 22.4853C12.8235 22.4853 12.9654 22.4225 13.0596 22.2994C13.2857 22.0142 13.5207 21.7303 13.7593 21.4539C13.9352 21.2492 13.9113 20.9439 13.7091 20.7668C13.5056 20.5922 13.2003 20.6148 13.0232 20.817C12.7757 21.1034 12.5333 21.3986 12.2984 21.6951C12.1815 21.8408 12.1639 22.0356 12.2356 22.1951C12.1137 22.0494 11.9831 21.9087 11.8474 21.773C11.2117 21.1361 10.4693 20.6349 9.64272 20.2869C8.7885 19.9251 7.88025 19.7417 6.94312 19.7417C6.00723 19.7417 5.09899 19.9251 4.24351 20.2869C3.41817 20.6361 2.67701 21.1361 2.0401 21.773C1.4032 22.4086 0.903229 23.1523 0.555257 23.9789C0.193467 24.8344 0.0113153 25.7426 0.0113153 26.681C0.0113153 27.6169 0.193467 28.5264 0.555257 29.3832C0.903229 30.2097 1.4032 30.9522 2.0401 31.5891ZM3.09784 22.8345C4.12417 21.8082 5.48967 21.2416 6.94186 21.2416C8.39404 21.2416 9.75955 21.8082 10.7859 22.8345C11.8122 23.8621 12.3775 25.2301 12.3775 26.6823C12.3775 28.1357 11.8122 29.5038 10.7859 30.5301C9.75955 31.5577 8.39404 32.1242 6.94186 32.1242C5.48967 32.1242 4.12417 31.5577 3.09784 30.5301C2.07151 29.5038 1.50621 28.1357 1.50621 26.6823C1.50621 25.2301 2.07151 23.8633 3.09784 22.8345Z" fill="#FDFDFD"/>
</g>
<path d="M4.23466 30.6532C4.35149 30.7197 4.47963 30.7549 4.60776 30.7549C4.73589 30.7549 4.86654 30.721 4.98086 30.6532L10.7293 27.3305C10.9604 27.1961 11.1024 26.9498 11.1024 26.6823C11.1024 26.416 10.9604 26.1672 10.7293 26.0353L4.98086 22.7126C4.74971 22.5782 4.46329 22.5782 4.23215 22.7126C4.00101 22.847 3.85905 23.0933 3.85905 23.3596V30.005C3.86157 30.2713 4.00352 30.5188 4.23466 30.6532ZM5.35772 24.6573L8.86131 26.6823L5.35772 28.7073V24.6573Z" fill="#FDFDFD"/>
<path d="M29.2811 12.8625C29.6467 13.3487 29.9281 13.8838 30.1203 14.4516C30.315 15.0245 30.4117 15.6174 30.4117 16.2141V16.2907C30.4117 16.7053 30.7459 17.0395 31.1604 17.0395H35.0245C35.4378 17.0395 35.772 16.7053 35.772 16.2907V16.2141C35.772 15.6174 35.87 15.0245 36.0634 14.4542C36.2556 13.8864 36.5383 13.3537 36.9013 12.8688C37.5257 12.0385 37.856 11.0473 37.856 10.0046C37.856 8.73335 37.3624 7.53618 36.4642 6.63799C35.566 5.73728 34.3726 5.24107 33.1038 5.2373C33.1 5.2373 33.0962 5.2373 33.0937 5.2373C31.8325 5.2373 30.6454 5.72346 29.7497 6.60407C28.8515 7.4897 28.3477 8.67431 28.3302 9.94058C28.3163 11.0033 28.6455 12.0146 29.2811 12.8625ZM29.8276 9.96068C29.8389 9.09138 30.1831 8.27735 30.7986 7.67311C31.4129 7.06761 32.2269 6.73471 33.0937 6.73471C33.0962 6.73471 33.0975 6.73471 33.1013 6.73471C33.9731 6.73723 34.7909 7.07766 35.4064 7.69446C36.0232 8.31127 36.3611 9.13157 36.3611 10.0034C36.3611 10.7169 36.1363 11.3965 35.7079 11.9656C35.2494 12.5774 34.8914 13.252 34.6489 13.9718C34.4756 14.4831 34.3638 15.0082 34.311 15.542H31.8777C31.825 15.0082 31.7119 14.4831 31.5373 13.9693C31.2948 13.252 30.9368 12.5774 30.4783 11.9643C30.0424 11.3827 29.8175 10.6905 29.8276 9.96068Z" fill="#FDFDFD"/>
<path d="M35.7859 18.391C35.7859 17.9765 35.4517 17.6423 35.0372 17.6423H31.1529C30.7384 17.6423 30.4042 17.9765 30.4042 18.391C30.4042 18.8056 30.7384 19.141 31.1529 19.141H35.0372C35.4492 19.141 35.7859 18.8056 35.7859 18.391Z" fill="#FDFDFD"/>
<path d="M31.5938 19.6848C31.1793 19.6848 30.8451 20.019 30.8451 20.4335C30.8451 20.8481 31.1793 21.1835 31.5938 21.1835H31.8602C31.9041 21.5189 32.433 21.784 33.0762 21.784C33.7219 21.784 34.2482 21.5189 34.2934 21.1835H34.5711C34.9856 21.1835 35.3198 20.8481 35.3198 20.4335C35.3198 20.019 34.9856 19.6848 34.5711 19.6848H31.5938Z" fill="#FDFDFD"/>
<path d="M39.2781 9.73336C39.2781 10.1467 39.6122 10.4821 40.0268 10.4821H42.097C42.5103 10.4821 42.8445 10.1467 42.8445 9.73336C42.8445 9.31881 42.5103 8.9834 42.097 8.9834H40.0268C39.6147 8.9834 39.2781 9.31881 39.2781 9.73336Z" fill="#FDFDFD"/>
<path d="M24.1482 10.4821H26.2172C26.6317 10.4821 26.9659 10.1467 26.9659 9.73336C26.9659 9.31881 26.6317 8.9834 26.2172 8.9834H24.1482C23.7336 8.9834 23.3995 9.31881 23.3995 9.73336C23.3995 10.1454 23.7362 10.4821 24.1482 10.4821Z" fill="#FDFDFD"/>
<path d="M37.4767 14.0899C37.1853 14.3826 37.1853 14.8574 37.4767 15.1489L38.9402 16.6136C39.0859 16.7593 39.2781 16.8335 39.4691 16.8335C39.6613 16.8335 39.8522 16.7593 39.9979 16.6136C40.2894 16.3222 40.2894 15.8473 39.9979 15.5546L38.5344 14.0899C38.243 13.7972 37.7681 13.7972 37.4767 14.0899Z" fill="#FDFDFD"/>
<path d="M27.7109 5.37538C27.8566 5.5211 28.0488 5.59521 28.2385 5.59521C28.4294 5.59521 28.6216 5.5211 28.7673 5.37538C29.0588 5.08268 29.0588 4.60908 28.7673 4.31639L27.3038 2.85164C27.0124 2.5602 26.5388 2.5602 26.2474 2.85164C25.9559 3.14434 25.9559 3.61793 26.2474 3.91063L27.7109 5.37538Z" fill="#FDFDFD"/>
<mask id="mask3_340_1550" style="mask-type:luminance" maskUnits="userSpaceOnUse" x="32" y="0" width="3" height="4">
<path d="M32.2433 0H34.1729V3.79126H32.2433V0Z" fill="white"/>
</mask>
<g mask="url(#mask3_340_1550)">
<path d="M33.1227 3.57017C33.5373 3.57017 33.8714 3.23476 33.8714 2.82146V0.748704C33.8714 0.334153 33.5373 0 33.1227 0C32.7094 0 32.3753 0.334153 32.3753 0.748704V2.82146C32.3753 3.23476 32.7094 3.57017 33.1227 3.57017Z" fill="#FDFDFD"/>
</g>
<path d="M38.0056 5.59521C38.1978 5.59521 38.3887 5.5211 38.5344 5.37538L39.9979 3.91063C40.2894 3.61793 40.2894 3.14434 39.9979 2.85164C39.7065 2.5602 39.2316 2.5602 38.9402 2.85164L37.4767 4.31639C37.1853 4.60908 37.1853 5.08393 37.4767 5.37538C37.6224 5.5211 37.8134 5.59521 38.0056 5.59521Z" fill="#FDFDFD"/>
<path d="M26.7775 16.8333C26.9697 16.8333 27.1607 16.7591 27.3064 16.6134L28.7699 15.1487C29.0613 14.8572 29.0613 14.3824 28.7699 14.0897C28.4785 13.7982 28.0036 13.7982 27.7122 14.0897L26.2487 15.5544C25.9572 15.8471 25.9572 16.322 26.2487 16.6134C26.3944 16.7591 26.5853 16.8333 26.7775 16.8333Z" fill="#FDFDFD"/>
<path d="M31.1818 11.2454L31.776 11.6349C32.0247 11.7969 32.3463 11.7969 32.595 11.6349L32.7809 11.513L32.9681 11.6349C33.2169 11.7969 33.5372 11.7969 33.7859 11.6349L33.9731 11.513L34.159 11.6349C34.2859 11.7165 34.4278 11.758 34.5673 11.758C34.8122 11.758 35.0509 11.6374 35.1954 11.4175C35.4203 11.0708 35.3235 10.606 34.9768 10.3799L34.3826 9.99174C34.1339 9.82969 33.8136 9.82969 33.5648 9.99174L33.3776 10.1136L33.1917 9.99174C32.943 9.82969 32.6214 9.82969 32.3727 9.99174L32.1868 10.1136L31.9996 9.99174C31.6541 9.76562 31.1893 9.86235 30.9645 10.2091C30.7383 10.557 30.8351 11.0206 31.1818 11.2454Z" fill="#FDFDFD"/>
<path d="M61.4478 49.448H54.3062C53.8917 49.448 53.5575 49.7834 53.5575 50.198V55.6638C53.2058 55.5243 52.8176 55.4502 52.4169 55.4502C51.7485 55.4502 51.1104 55.6575 50.623 56.0356C50.0866 56.4514 49.7788 57.0431 49.7788 57.6611C49.7788 58.2805 50.0866 58.8734 50.623 59.2905C51.1104 59.6673 51.746 59.8758 52.4169 59.8758C53.0877 59.8758 53.7233 59.6673 54.2107 59.2905C54.7471 58.8734 55.0537 58.2817 55.0537 57.6611V53.2669H60.7003V55.6638C60.3486 55.5243 59.9592 55.4502 59.5597 55.4502C58.8901 55.4502 58.2532 55.6575 57.7658 56.0356C57.2294 56.4514 56.9216 57.0431 56.9216 57.6611C56.9216 58.2805 57.2294 58.8734 57.7658 59.2905C58.2532 59.6673 58.8889 59.8758 59.5597 59.8758C60.2293 59.8758 60.8649 59.6673 61.3536 59.2905C61.89 58.8734 62.1965 58.2817 62.1965 57.6611V50.198C62.1965 49.7834 61.8623 49.448 61.4478 49.448ZM52.4169 58.3772C51.7448 58.3772 51.2762 58.0003 51.2762 57.6611C51.2762 57.3232 51.7448 56.9464 52.4169 56.9464C53.0889 56.9464 53.5575 57.3232 53.5575 57.6611C53.5575 58.0003 53.0889 58.3772 52.4169 58.3772ZM55.0537 51.7707V50.9442H60.7003V51.7707H55.0537ZM59.5597 58.3772C58.8864 58.3772 58.4178 58.0003 58.4178 57.6611C58.4178 57.3232 58.8864 56.9464 59.5597 56.9464C60.2318 56.9464 60.7003 57.3232 60.7003 57.6611C60.7003 58.0003 60.2318 58.3772 59.5597 58.3772Z" fill="#FDFDFD"/>
<path d="M28.8226 36.7909H40.3748C40.7881 36.7909 41.1222 36.4555 41.1222 36.0422C41.1222 35.6276 40.7881 35.2922 40.3748 35.2922H28.8226C28.4081 35.2922 28.0739 35.6276 28.0739 36.0422C28.0739 36.4555 28.4106 36.7909 28.8226 36.7909Z" fill="#FDFDFD"/>
<path d="M28.8226 40.891H40.3748C40.7881 40.891 41.1222 40.5568 41.1222 40.1423C41.1222 39.7277 40.7881 39.3936 40.3748 39.3936H28.8226C28.4081 39.3936 28.0739 39.7277 28.0739 40.1423C28.0739 40.5568 28.4106 40.891 28.8226 40.891Z" fill="#FDFDFD"/>
<path d="M20.548 37.0973C19.048 36.5043 17.3434 37.2417 16.7504 38.7454C16.4628 39.4728 16.4766 40.2692 16.7881 40.989C17.0984 41.7063 17.67 42.2603 18.3973 42.5492C18.7453 42.6874 19.1109 42.7553 19.4739 42.7553C19.8684 42.7553 20.2628 42.6736 20.6359 42.5116C21.3532 42.2 21.9072 41.6284 22.1949 40.9011C22.7878 39.3974 22.0491 37.6915 20.548 37.0973ZM20.8017 40.3484C20.661 40.7051 20.3909 40.9853 20.0392 41.136C19.69 41.288 19.3005 41.2943 18.945 41.1536C18.5895 41.0142 18.3094 40.7428 18.1574 40.3911C18.0066 40.0406 18.0004 39.6524 18.1411 39.2956C18.3622 38.7341 18.9023 38.3912 19.4714 38.3912C19.6473 38.3912 19.8231 38.4251 19.9965 38.4929C20.7314 38.7806 21.0907 39.6135 20.8017 40.3484Z" fill="#FDFDFD"/>
<path d="M52.0048 36.5849C52.04 36.5334 52.0664 36.4819 52.0877 36.4266L53.8025 33.9544C54.0374 33.614 53.9545 33.1467 53.614 32.9117L50.9986 31.0953C50.8353 30.9822 50.6343 30.937 50.4383 30.9721C50.2436 31.0073 50.069 31.1179 49.9559 31.2812L48.1407 33.9004L45.2451 38.0748V34.1604C45.2451 33.9619 45.166 33.771 45.0253 33.6316L39.459 28.0602C39.4477 28.0477 39.4364 28.0389 39.4238 28.0263C39.42 28.0251 39.4188 28.0213 39.415 28.0188C39.4025 28.0087 39.3912 27.9999 39.3798 27.9924C39.3773 27.9899 39.3761 27.9899 39.3761 27.9874C39.3623 27.9786 39.3497 27.971 39.3371 27.961C39.3334 27.9585 39.3283 27.9547 39.3246 27.9535C39.3133 27.9447 39.2994 27.9371 39.2881 27.9321C39.2856 27.9296 39.2844 27.9296 39.2819 27.9271C39.2693 27.9195 39.2555 27.9145 39.2391 27.9057C39.2354 27.9045 39.2316 27.902 39.2253 27.9007C39.2128 27.8944 39.1989 27.8881 39.1851 27.8844C39.1826 27.8844 39.1814 27.8831 39.1814 27.8831C39.1663 27.8768 39.1525 27.8731 39.1361 27.8693C39.1324 27.8668 39.1286 27.8668 39.1223 27.8655C39.1098 27.8618 39.0959 27.858 39.0796 27.8555C39.0784 27.8555 39.0758 27.8555 39.0746 27.8542C39.0583 27.8505 39.0432 27.8479 39.0281 27.8454C39.0243 27.8454 39.0181 27.8442 39.0143 27.8442C39.0005 27.8417 38.9867 27.8417 38.9728 27.8404C38.9716 27.8404 38.9678 27.8404 38.9653 27.8404C38.9515 27.8404 38.9402 27.8379 38.9264 27.8379H24.6959C24.2826 27.8379 23.9472 28.1733 23.9472 28.5866V33.8728C23.7337 33.7459 23.4636 33.7308 23.235 33.8451L21.8293 34.5423L21.3569 34.3551L20.8067 32.8841C20.6987 32.5902 20.4185 32.398 20.1057 32.398C20.102 32.398 20.0982 32.398 20.0932 32.398L18.6045 32.4218C18.288 32.4268 18.0104 32.6291 17.9073 32.9306L17.4061 34.4192L16.9388 34.6215L15.5105 33.9695C15.2228 33.8376 14.8836 33.9016 14.6638 34.1315L13.6274 35.2018C13.4076 35.4292 13.3536 35.7709 13.4955 36.0548L14.1915 37.4618L14.0043 37.9341L12.5358 38.4856C12.238 38.5961 12.0433 38.8813 12.0496 39.1991L12.0722 40.689C12.0785 41.0068 12.2808 41.2844 12.5822 41.3874L14.0683 41.8899L14.2706 42.356L13.6199 43.7856C13.488 44.0745 13.552 44.4149 13.7807 44.6348L14.8497 45.6711C15.0771 45.891 15.42 45.945 15.7027 45.803L17.1084 45.1071L17.5807 45.2943L18.131 46.764C18.239 47.058 18.5191 47.2502 18.8319 47.2502C18.8357 47.2502 18.8407 47.2502 18.8445 47.2502L20.3331 47.2276C20.6497 47.2213 20.9273 47.0191 21.0303 46.7176L21.5315 45.2302L21.9988 45.0267L23.4272 45.6787C23.5955 45.7553 23.7802 45.7666 23.9497 45.7164V53.4433C23.9497 53.8566 24.2839 54.192 24.6984 54.192H44.4952C44.9085 54.192 45.2426 53.8566 45.2426 53.4433V46.3306L52.0048 36.5849ZM42.1083 46.3771L42.4362 46.6045L42.1021 46.7351L42.1083 46.3771ZM43.8269 45.7465L42.4237 44.7704L48.9434 35.3689L50.3466 36.345L43.8269 45.7465ZM50.7587 32.7522L52.1443 33.7145L51.182 35.1026L49.7964 34.1391L50.7587 32.7522ZM42.4098 33.1705H39.6763V30.4094L42.4098 33.1705ZM23.2601 42.5545L23.8706 43.7856L23.5691 44.0971L22.3192 43.528C22.127 43.4401 21.9046 43.4376 21.7112 43.5217L20.6346 43.9891C20.4399 44.072 20.2904 44.2353 20.2226 44.4363L19.7829 45.739L19.3495 45.7465L18.8696 44.4589C18.7955 44.2604 18.6397 44.1034 18.4437 44.0255L17.3534 43.5934C17.1574 43.5155 16.935 43.5255 16.7466 43.6185L15.5168 44.2303L15.2052 43.9288L15.7755 42.6776C15.8622 42.4841 15.8647 42.263 15.7806 42.0683L15.3145 40.9905C15.2303 40.7958 15.0683 40.6463 14.8673 40.5784L13.5659 40.1388L13.5571 39.7054L14.8447 39.2242C15.0419 39.1501 15.2002 38.9943 15.2781 38.7984L15.709 37.7067C15.7869 37.5108 15.7768 37.2884 15.6838 37.1L15.0733 35.8689L15.3748 35.5573L16.6247 36.1277C16.8169 36.2143 17.038 36.2169 17.2328 36.1327L18.3093 35.6666C18.504 35.5825 18.6535 35.4192 18.7214 35.2194L19.161 33.9155L19.5944 33.9079L20.0743 35.1955C20.1484 35.394 20.3042 35.5511 20.5002 35.6289L21.5906 36.0611C21.5906 36.0611 21.5906 36.0611 21.5918 36.0611C21.5994 36.0648 21.6082 36.0674 21.6157 36.0711C21.6308 36.0762 21.6446 36.0812 21.6597 36.0849C21.6697 36.0887 21.681 36.09 21.6936 36.0925C21.6948 36.0925 21.6948 36.0925 21.6948 36.0925C21.7049 36.0937 21.7162 36.0963 21.7262 36.0975C21.7288 36.0975 21.7288 36.0975 21.73 36.0975C21.7401 36.1 21.7514 36.1025 21.7614 36.1038C21.7627 36.1038 21.7652 36.1038 21.7677 36.1038C21.7765 36.1063 21.7865 36.1063 21.7966 36.1076C21.7978 36.1076 21.8016 36.1076 21.8041 36.1076C21.8142 36.1076 21.8217 36.1101 21.8318 36.1101C21.8355 36.1101 21.8393 36.1101 21.8406 36.1101C21.8481 36.1101 21.8569 36.1101 21.8644 36.1101C21.8682 36.1101 21.8745 36.1101 21.8782 36.1101C21.8833 36.1101 21.8921 36.1101 21.8971 36.1101C21.9034 36.1101 21.9084 36.1101 21.9147 36.1101C21.921 36.1101 21.9247 36.1101 21.9297 36.1076C21.9385 36.1076 21.9461 36.1063 21.9511 36.1063C21.9561 36.1063 21.9599 36.1038 21.9637 36.1038C21.9712 36.1025 21.9813 36.1025 21.9888 36.1C21.99 36.1 21.9951 36.0975 21.9963 36.0975C22.0064 36.0963 22.0164 36.0937 22.024 36.0925C22.0252 36.0925 22.0277 36.0925 22.029 36.09C22.039 36.0887 22.0491 36.0862 22.0591 36.0824C22.0604 36.0824 22.0629 36.0812 22.0642 36.0812C22.0742 36.0787 22.0843 36.0749 22.0931 36.0711C22.0956 36.0711 22.0981 36.0686 22.0993 36.0686C22.1094 36.0648 22.1194 36.0636 22.1282 36.0598C22.132 36.0573 22.1358 36.0548 22.1408 36.0548C22.1483 36.051 22.1571 36.0498 22.1659 36.046C22.1747 36.0422 22.1873 36.036 22.1961 36.0322L23.4272 35.4217L23.7374 35.7232L23.1684 36.9731C23.0804 37.1666 23.0792 37.3876 23.1621 37.5824L23.6294 38.6602C23.6972 38.8172 23.8116 38.9378 23.9497 39.0157V40.5018C23.8254 40.5847 23.7224 40.7053 23.6646 40.8523L23.2324 41.9439C23.1571 42.1437 23.1659 42.3635 23.2601 42.5545ZM25.4484 52.6934V44.2529C25.5451 44.0506 25.5489 43.8119 25.4484 43.6034V29.3403H38.1827V33.9217C38.1827 34.335 38.5168 34.6704 38.9301 34.6704H43.749V40.1538C43.749 40.179 43.7502 40.2053 43.7527 40.2305L41.0996 44.0531C41.0154 43.7303 40.724 43.4903 40.3748 43.4903H28.8226C28.4081 43.4903 28.0739 43.8245 28.0739 44.239C28.0739 44.6536 28.4081 44.9878 28.8226 44.9878H40.3748C40.4665 44.9878 40.5519 44.9727 40.6335 44.9413C40.6335 44.945 40.6335 44.9476 40.6335 44.9513L40.5908 47.6208C40.5217 47.5994 40.4489 47.5894 40.3748 47.5894H28.8226C28.4081 47.5894 28.0739 47.9235 28.0739 48.3381C28.0739 48.7526 28.4081 49.0868 28.8226 49.0868H40.3748C40.7165 49.0868 41.0041 48.8582 41.0933 48.5466C41.1712 48.5742 41.2529 48.5868 41.337 48.5868C41.4275 48.5868 41.5217 48.5692 41.6084 48.5366L43.749 47.6987V52.6934H25.4484Z" fill="#FDFDFD"/>
<path d="M40.8471 13.0534C41.0632 13.0534 41.2592 12.9077 41.3169 12.6891C41.3848 12.4291 41.2303 12.164 40.969 12.0962C40.6034 12.0007 40.2303 11.9115 39.8635 11.8324C39.601 11.7759 39.3422 11.9404 39.2856 12.203C39.2304 12.4655 39.3949 12.7243 39.6575 12.7808C40.013 12.8587 40.3723 12.9442 40.724 13.0359C40.7655 13.0472 40.8057 13.0534 40.8471 13.0534Z" fill="#FDFDFD"/>
<path d="M46.73 15.4185C47.348 15.7552 47.9598 16.1233 48.5515 16.5077C48.6332 16.5629 48.7261 16.5881 48.8153 16.5881C48.9748 16.5881 49.1306 16.5102 49.2236 16.3682C49.3718 16.1421 49.3077 15.8406 49.0816 15.6949C48.4698 15.2942 47.8355 14.9148 47.1948 14.5643C46.9599 14.4362 46.6634 14.5241 46.5353 14.759C46.4071 14.9952 46.4951 15.2904 46.73 15.4185Z" fill="#FDFDFD"/>
<path d="M50.3241 17.7731C50.8793 18.2053 51.4258 18.6663 51.9471 19.1412C52.04 19.2266 52.1569 19.2668 52.2724 19.2668C52.4056 19.2668 52.5375 19.214 52.633 19.1072C52.8139 18.9088 52.8001 18.6022 52.6016 18.4213C52.0614 17.9289 51.4961 17.4515 50.9208 17.0043C50.7085 16.8398 50.4032 16.8787 50.2386 17.0898C50.0728 17.3021 50.1118 17.6073 50.3241 17.7731Z" fill="#FDFDFD"/>
<path d="M42.5091 13.0534C42.4186 13.3059 42.553 13.5847 42.8055 13.6739C43.4701 13.9076 44.1333 14.1701 44.779 14.4565C44.8431 14.4854 44.9084 14.4993 44.975 14.4993C45.1609 14.4993 45.3381 14.3912 45.4197 14.2091C45.529 13.9641 45.4185 13.6764 45.1735 13.5671C44.5052 13.2707 43.818 12.9993 43.1284 12.7556C42.8734 12.6664 42.5983 12.7983 42.5091 13.0534Z" fill="#FDFDFD"/>
<path d="M54.2258 21.4899C54.3213 21.603 54.457 21.6595 54.5951 21.6595C54.7082 21.6595 54.8213 21.6206 54.9117 21.5427C55.1165 21.3681 55.1391 21.0603 54.9645 20.8555C54.7195 20.5704 54.4632 20.284 54.207 20.0076C54.0236 19.8116 53.717 19.7991 53.5211 19.985C53.3239 20.1671 53.3151 20.4749 53.4972 20.6709C53.7447 20.9397 53.9896 21.2136 54.2258 21.4899Z" fill="#FDFDFD"/>
<path d="M14.9352 19.9712C15.0583 19.9712 15.1826 19.9247 15.2756 19.8305C15.7894 19.3267 16.3296 18.8368 16.881 18.3758C17.0871 18.2024 17.1147 17.8971 16.9438 17.6911C16.7705 17.4851 16.4652 17.4575 16.2592 17.6283C15.6876 18.1069 15.1274 18.6144 14.596 19.1358C14.405 19.3255 14.4013 19.632 14.5897 19.8254C14.6827 19.9222 14.8095 19.9712 14.9352 19.9712Z" fill="#FDFDFD"/>
<path d="M18.3634 17.1105C18.4613 17.1105 18.5581 17.0816 18.6435 17.0214C19.2327 16.6068 19.8444 16.2123 20.465 15.8468C20.6962 15.7099 20.774 15.4121 20.6384 15.181C20.5014 14.9499 20.205 14.872 19.9738 15.0076C19.3319 15.3858 18.6963 15.7965 18.0857 16.2237C17.8659 16.3782 17.8144 16.6809 17.9677 16.9008C18.0606 17.0389 18.2101 17.1105 18.3634 17.1105Z" fill="#FDFDFD"/>
<path d="M22.2136 14.8513C22.284 14.8513 22.3556 14.8362 22.4234 14.8023C23.0716 14.4908 23.7412 14.2018 24.412 13.9431C24.6633 13.8451 24.7876 13.5649 24.6922 13.3149C24.5954 13.0637 24.3153 12.9393 24.064 13.0348C23.3681 13.3011 22.6747 13.6001 22.0039 13.9255C21.7627 14.0423 21.6597 14.3312 21.7765 14.5749C21.8581 14.7483 22.0327 14.8513 22.2136 14.8513Z" fill="#FDFDFD"/>
<path d="M26.5174 13.2319C26.8666 13.1315 27.2222 13.036 27.5764 12.948C27.8364 12.884 27.996 12.6214 27.9319 12.3614C27.8679 12.1001 27.6053 11.9406 27.3453 12.0046C26.9772 12.0951 26.6079 12.1943 26.2473 12.3011C25.9886 12.3765 25.8403 12.6453 25.917 12.9041C25.9785 13.1164 26.1732 13.2546 26.383 13.2546C26.4257 13.252 26.4722 13.2458 26.5174 13.2319Z" fill="#FDFDFD"/>
<path d="M7.50592 46.9325C7.56998 47.1423 7.76219 47.278 7.96946 47.278C8.01594 47.278 8.06368 47.273 8.11141 47.2566C8.36894 47.1788 8.51466 46.9062 8.43677 46.6499C8.33125 46.3019 8.23075 45.9451 8.13905 45.5922C8.07122 45.3309 7.80615 45.1751 7.54612 45.2429C7.28608 45.312 7.13031 45.5758 7.19814 45.8371C7.29362 46.2002 7.39663 46.5695 7.50592 46.9325Z" fill="#FDFDFD"/>
<path d="M6.3514 37.5645C6.33005 38.0029 6.32 38.4463 6.32 38.886C6.32 39.131 6.32377 39.3797 6.33005 39.6234C6.33758 39.8872 6.5524 40.0957 6.81495 40.0957C6.81872 40.0957 6.82374 40.0957 6.82877 40.0957C7.0976 40.0882 7.30864 39.8659 7.3011 39.597C7.29608 39.3621 7.29105 39.1209 7.29105 38.886C7.29105 38.4614 7.3011 38.033 7.3212 37.6109C7.33251 37.3434 7.12649 37.1147 6.85766 37.1034C6.59134 37.0896 6.36271 37.2981 6.3514 37.5645Z" fill="#FDFDFD"/>
<path d="M6.74968 43.7701C6.79239 44.005 6.9959 44.1709 7.22704 44.1709C7.25719 44.1709 7.28357 44.1696 7.31246 44.1633C7.57753 44.1168 7.75465 43.8631 7.70566 43.5993C7.59134 42.9511 7.49713 42.2878 7.43181 41.6321C7.40417 41.3657 7.16549 41.171 6.89917 41.1987C6.63285 41.2263 6.43814 41.465 6.46578 41.7313C6.53361 42.4122 6.62908 43.0993 6.74968 43.7701Z" fill="#FDFDFD"/>
<path d="M7.0122 36.0066C7.25214 36.0066 7.46318 35.8257 7.49333 35.5807C7.53856 35.2189 7.59132 34.8521 7.65161 34.4928C7.69558 34.2278 7.51469 33.9778 7.25088 33.9338C6.98708 33.8899 6.73583 34.0708 6.69312 34.3346C6.63031 34.7089 6.57629 35.0858 6.52981 35.4614C6.49715 35.7277 6.68558 35.9714 6.9519 36.0041C6.97326 36.0041 6.9921 36.0066 7.0122 36.0066Z" fill="#FDFDFD"/>
<path d="M26.0413 64.3947C25.6934 64.2854 25.3429 64.1686 24.9987 64.0467C24.7462 63.9575 24.4686 64.0869 24.3769 64.3407C24.2877 64.5932 24.4183 64.872 24.6708 64.9625C25.0263 65.0894 25.3894 65.2125 25.7499 65.323C25.7976 65.3381 25.8466 65.3444 25.8931 65.3444C26.1016 65.3444 26.2913 65.21 26.3579 65.0014C26.4408 64.7464 26.2976 64.4751 26.0413 64.3947Z" fill="#FDFDFD"/>
<path d="M18.9487 60.9619C18.337 60.5436 17.7365 60.0939 17.1611 59.6278C16.9526 59.4582 16.6461 59.4897 16.4765 59.6969C16.3082 59.9055 16.3383 60.2132 16.5469 60.3816C17.1436 60.8665 17.7654 61.3313 18.401 61.7647C18.4839 61.8212 18.5794 61.8513 18.6749 61.8513C18.8307 61.8513 18.9814 61.7772 19.0769 61.639C19.2264 61.4154 19.1711 61.1114 18.9487 60.9619Z" fill="#FDFDFD"/>
<path d="M22.8807 63.1827C22.2086 62.8737 21.5391 62.5333 20.8946 62.1702C20.661 62.0371 20.3632 62.1212 20.2313 62.3549C20.0994 62.5873 20.1836 62.885 20.416 63.0182C21.0843 63.395 21.779 63.7493 22.4762 64.0684C22.5428 64.0973 22.6106 64.1136 22.6784 64.1136C22.8631 64.1136 23.0377 64.0081 23.1194 63.8284C23.2312 63.5835 23.1231 63.2958 22.8807 63.1827Z" fill="#FDFDFD"/>
<mask id="mask4_340_1550" style="mask-type:luminance" maskUnits="userSpaceOnUse" x="0" y="47" width="16" height="16">
<path d="M0 47.5273H15.8421V62.9637H0V47.5273Z" fill="white"/>
</mask>
<g mask="url(#mask4_340_1550)">
<path d="M14.6726 57.3267C14.5256 57.171 14.2982 57.1358 14.1136 57.2237V48.3486C14.1136 47.9353 13.7794 47.5999 13.3649 47.5999H0.788899C0.374348 47.5999 0.0401945 47.9353 0.0401945 48.3486V58.0151C0.0401945 58.4297 0.374348 58.7651 0.788899 58.7651H3.65684V62.0212C3.65684 62.3302 3.84527 62.6066 4.13295 62.7197C4.22088 62.7548 4.31384 62.7699 4.40555 62.7699C4.61156 62.7699 4.8113 62.6845 4.95577 62.5287L8.41539 58.7664H13.3649C13.7367 58.7664 14.0457 58.4963 14.1035 58.1395C14.3234 58.3656 14.547 58.5917 14.7718 58.8091C14.8673 58.9008 14.9879 58.946 15.111 58.946C15.2366 58.946 15.3648 58.8945 15.4602 58.7978C15.6474 58.6056 15.6411 58.2953 15.4489 58.1094C15.1839 57.8518 14.9264 57.5918 14.6726 57.3267ZM12.6174 57.2652H8.08626C7.87647 57.2652 7.67799 57.3519 7.53604 57.5064L5.15425 60.0992V58.0139C5.15425 57.5993 4.81884 57.2652 4.40555 57.2652H1.53635V49.096H12.6174V57.2652Z" fill="#FDFDFD"/>
</g>
<path d="M50.2323 60.0682C49.9421 60.2906 49.6469 60.5104 49.3479 60.7202C49.1281 60.876 49.0753 61.1787 49.2311 61.3973C49.3266 61.5317 49.4761 61.6033 49.6281 61.6033C49.7248 61.6033 49.8215 61.5744 49.9082 61.5141C50.2172 61.2955 50.5237 61.0682 50.8227 60.8383C51.035 60.675 51.0752 60.3697 50.9119 60.1561C50.7486 59.9413 50.4458 59.9049 50.2323 60.0682Z" fill="#FDFDFD"/>
<path d="M47.7777 61.7494C47.2564 62.0647 46.72 62.3662 46.1798 62.6439C45.9411 62.767 45.8482 63.0609 45.97 63.2996C46.0554 63.4667 46.2263 63.5647 46.4021 63.5647C46.4775 63.5647 46.5529 63.5471 46.6232 63.5094C47.1823 63.2217 47.7388 62.9089 48.2789 62.5836C48.5088 62.4441 48.5817 62.1464 48.4422 61.9165C48.3066 61.6854 48.0088 61.6112 47.7777 61.7494Z" fill="#FDFDFD"/>
<path d="M44.4826 63.4448C43.9249 63.6848 43.3508 63.9084 42.7792 64.1081C42.5267 64.1986 42.3923 64.4749 42.479 64.7274C42.5493 64.9272 42.7377 65.054 42.9387 65.054C42.9902 65.054 43.0455 65.044 43.097 65.0264C43.6925 64.8191 44.2866 64.5867 44.8658 64.3405C45.1132 64.235 45.2276 63.9486 45.1208 63.7023C45.0153 63.4536 44.7301 63.338 44.4826 63.4448Z" fill="#FDFDFD"/>
<path d="M40.9853 64.6649C40.6336 64.7604 40.2755 64.8496 39.92 64.9325C39.6575 64.9928 39.4942 65.2528 39.5545 65.5141C39.6047 65.739 39.8057 65.8923 40.0281 65.8923C40.0632 65.8923 40.1009 65.8885 40.1373 65.8809C40.5067 65.798 40.8785 65.7038 41.2416 65.6046C41.5003 65.5355 41.6536 65.2667 41.5833 65.0079C41.5091 64.7466 41.2428 64.5958 40.9853 64.6649Z" fill="#FDFDFD"/>
<path d="M61.2468 34.2458C61.2016 33.982 60.9503 33.8023 60.6865 33.8475C60.4227 33.8915 60.2431 34.1428 60.2883 34.4078C60.3486 34.7671 60.4026 35.1327 60.4478 35.4944C60.478 35.7407 60.689 35.9216 60.929 35.9216C60.9491 35.9216 60.9704 35.919 60.9918 35.9165C61.2581 35.8839 61.4465 35.6414 61.4139 35.3739C61.3649 34.9995 61.3083 34.6201 61.2468 34.2458Z" fill="#FDFDFD"/>
<path d="M60.4165 45.1963C60.4516 45.2038 60.4868 45.2076 60.522 45.2076C60.7443 45.2076 60.9453 45.0531 60.9956 44.8244C61.1614 44.0644 61.2971 43.2881 61.3976 42.5143C61.4327 42.2479 61.2443 42.0042 60.9805 41.9691C60.7142 41.9339 60.4705 42.1223 60.4353 42.3874C60.3386 43.1323 60.2079 43.8835 60.0471 44.6172C59.9893 44.8797 60.1539 45.1385 60.4165 45.1963Z" fill="#FDFDFD"/>
<path d="M61.1011 40.5822C61.1086 40.5822 61.1137 40.5822 61.1225 40.5822C61.38 40.5822 61.5961 40.3774 61.6074 40.1174C61.625 39.7091 61.635 39.2958 61.635 38.8863C61.635 38.5157 61.6275 38.1401 61.6136 37.7708C61.6036 37.5032 61.3762 37.2922 61.1086 37.3047C60.8398 37.3135 60.6325 37.5422 60.6413 37.8097C60.6552 38.1665 60.6627 38.5283 60.6627 38.8863C60.6627 39.2808 60.6552 39.6815 60.6376 40.0747C60.625 40.3423 60.8323 40.5709 61.1011 40.5822Z" fill="#FDFDFD"/>
<path d="M59.4529 46.8621C59.3437 47.21 59.2268 47.5605 59.1025 47.9022C59.0108 48.156 59.1439 48.4336 59.3964 48.5253C59.4504 48.5441 59.5045 48.5542 59.5597 48.5542C59.7595 48.5542 59.9466 48.4298 60.0157 48.2313C60.1439 47.8758 60.2645 47.5115 60.3775 47.151C60.4567 46.8947 60.316 46.6221 60.0584 46.543C59.8047 46.4626 59.5321 46.6045 59.4529 46.8621Z" fill="#FDFDFD"/>
<path d="M2.96716 56.6428C3.35533 56.7848 3.78496 56.5825 3.92565 56.1956L4.21835 55.3866H5.90168L6.19563 56.1956C6.30618 56.4984 6.59385 56.6893 6.89912 56.6893C6.98454 56.6893 7.06996 56.6755 7.15413 56.6454C7.49331 56.5222 7.68802 56.178 7.63903 55.8338C8.00458 56.3878 8.63269 56.7534 9.34371 56.7534C9.67033 56.7534 9.9781 56.6755 10.252 56.5398C10.3763 56.6328 10.5308 56.6881 10.6992 56.6881C11.1125 56.6881 11.4466 56.3527 11.4466 55.9381V50.8705C11.4466 50.4572 11.1125 50.1218 10.6992 50.1218C10.2846 50.1218 9.95046 50.4572 9.95046 50.8705V52.7536C9.75826 52.6933 9.5535 52.6632 9.34371 52.6632C8.21689 52.6632 7.3011 53.5814 7.3011 54.707C7.3011 54.7635 7.30362 54.8201 7.30864 54.8741L5.7635 50.6168C5.65672 50.3203 5.37533 50.1218 5.06001 50.1218C4.74596 50.1218 4.46331 50.3191 4.35653 50.6168L2.51995 55.6844C2.37799 56.0725 2.57899 56.5034 2.96716 56.6428ZM9.34622 54.1606C9.64772 54.1606 9.89142 54.4055 9.89142 54.707C9.89142 55.0085 9.64772 55.2535 9.34622 55.2535C9.04473 55.2535 8.79977 55.0085 8.79977 54.707C8.79977 54.4055 9.04473 54.1606 9.34622 54.1606ZM5.36025 53.888H4.7648L5.06253 53.0677L5.36025 53.888Z" fill="#FDFDFD"/>
</svg>
