<svg width="71" height="40" viewBox="0 0 71 40" fill="none" xmlns="http://www.w3.org/2000/svg">
<mask id="mask0_340_1545" style="mask-type:luminance" maskUnits="userSpaceOnUse" x="0" y="0" width="71" height="40">
<path d="M0 0H70.1706V40H0V0Z" fill="white"/>
</mask>
<g mask="url(#mask0_340_1545)">
<path d="M20.0286 38.3236C20.0286 39.2291 19.2937 39.9652 18.3834 39.9652C17.4767 39.9652 16.7418 39.2327 16.7418 38.3236C16.7418 33.8819 18.3309 29.8065 20.9723 26.6355C20.1706 25.5987 19.1708 24.723 18.0255 24.0728C16.5927 23.2604 14.9272 22.7939 13.1508 22.7939C10.4259 22.7939 7.95991 23.8939 6.17633 25.6739C4.39275 27.4539 3.29038 29.9151 3.29038 32.6328C3.29038 33.5383 2.55548 34.2744 1.64519 34.2744C0.738487 34.2744 0 33.5419 0 32.6328C0 29.0096 1.4734 25.7299 3.8523 23.3558C4.92842 22.2821 6.19303 21.3933 7.59007 20.7395C7.42424 20.5975 7.26199 20.4496 7.10689 20.2945C5.56072 18.7519 4.60391 16.6176 4.60391 14.2625C4.60391 11.9075 5.56072 9.77432 7.10689 8.23173C8.65187 6.68914 10.7898 5.73471 13.1508 5.73471C15.5106 5.73471 17.645 6.68914 19.1947 8.23173C20.7397 9.77432 21.6965 11.9075 21.6965 14.2625C21.6965 16.6176 20.7397 18.7483 19.1947 20.2945C19.0384 20.4496 18.8762 20.5975 18.7115 20.7395C19.0289 20.8886 19.3438 21.0497 19.6481 21.225C21.0475 22.0208 22.2894 23.0647 23.3059 24.2971C24.8318 23.0182 26.5724 21.985 28.4658 21.2513C27.8836 20.8492 27.3371 20.3959 26.8408 19.8972C24.7316 17.7939 23.4276 14.8841 23.4276 11.6736C23.4276 8.46318 24.7316 5.55337 26.8408 3.44886C28.9489 1.34554 31.8647 0.0439453 35.0823 0.0439453C38.2999 0.0439453 41.2157 1.34554 43.3238 3.44886C45.4319 5.55337 46.7371 8.46318 46.7371 11.6736C46.7371 14.8841 45.4319 17.7939 43.3238 19.8972C42.8239 20.3959 42.2811 20.8492 41.6989 21.2513C43.5886 21.9814 45.3293 23.0182 46.8587 24.2971C47.8752 23.0647 49.116 22.0208 50.5166 21.225C50.8208 21.0497 51.1358 20.8886 51.4531 20.7395C51.2873 20.5975 51.125 20.4496 50.9699 20.2945C49.4238 18.7519 48.4681 16.6176 48.4681 14.2625C48.4681 11.9075 49.4238 9.77432 50.9699 8.23173C52.5161 6.68914 54.654 5.73471 57.0138 5.73471C59.3737 5.73471 61.5128 6.68914 63.0577 8.23173C64.6039 9.77432 65.5607 11.9075 65.5607 14.2625C65.5607 16.6176 64.6039 18.7483 63.0577 20.2945C62.9026 20.4496 62.744 20.5975 62.5746 20.7395C63.9716 21.3909 65.2362 22.2821 66.3111 23.3558C68.6912 25.7299 70.1646 29.0096 70.1646 32.6328C70.1646 33.5383 69.4297 34.2744 68.5194 34.2744C67.6127 34.2744 66.8743 33.5419 66.8743 32.6328C66.8743 29.9151 65.7719 27.4539 63.9883 25.6739C62.2035 23.8939 59.7375 22.7939 57.0138 22.7939C55.2362 22.7939 53.5719 23.2604 52.1379 24.0728C50.9926 24.723 49.994 25.5987 49.1923 26.6355C51.8337 29.8065 53.4228 33.8784 53.4228 38.3236C53.4228 39.2291 52.6879 39.9652 51.7812 39.9652C50.8745 39.9652 50.136 39.2327 50.136 38.3236C50.136 34.179 48.4514 30.4233 45.7301 27.7092C43.01 24.9938 39.246 23.3129 35.0919 23.3129C30.9377 23.3129 27.1749 24.9938 24.4536 27.7092C21.7335 30.4233 20.0477 34.179 20.0477 38.3236H20.0286ZM9.42973 17.9752C10.3794 18.9237 11.6941 19.5107 13.1472 19.5107C14.6003 19.5107 15.9139 18.9237 16.8647 17.9752C17.8144 17.028 18.4037 15.7132 18.4037 14.2661C18.4037 12.8166 17.8144 11.5054 16.8647 10.5569C15.9139 9.60968 14.5968 9.02152 13.1472 9.02152C11.6941 9.02152 10.3794 9.60968 9.42973 10.5569C8.48008 11.5054 7.89072 12.8166 7.89072 14.2661C7.89072 15.7156 8.48008 17.028 9.42973 17.9752ZM57.0043 19.5107C58.4574 19.5107 59.7709 18.9237 60.7206 17.9752C61.6714 17.028 62.2608 15.7132 62.2608 14.2661C62.2608 12.8166 61.6714 11.5054 60.7206 10.5569C59.7709 9.60968 58.4574 9.02152 57.0043 9.02152C55.5512 9.02152 54.2365 9.60968 53.2868 10.5569C52.3371 11.5054 51.7478 12.8166 51.7478 14.2661C51.7478 15.7156 52.3371 17.028 53.2868 17.9752C54.2365 18.9237 55.5548 19.5107 57.0043 19.5107ZM35.0752 20.0296C37.3861 20.0296 39.4774 19.0955 40.9938 17.5827C42.5066 16.0723 43.4467 13.9857 43.4467 11.6772C43.4467 9.37108 42.5101 7.28446 40.9938 5.7717C39.481 4.26132 37.3861 3.32717 35.0752 3.32717C32.7654 3.32717 30.6729 4.26132 29.1577 5.7717C27.645 7.28088 26.7048 9.37108 26.7048 11.6772C26.7048 13.9821 27.6414 16.07 29.1577 17.5827C30.6705 19.0919 32.7654 20.0296 35.0752 20.0296Z" fill="#FDFDFD"/>
</g>
</svg>
