<svg width="30" height="35" viewBox="0 0 30 35" fill="none" xmlns="http://www.w3.org/2000/svg">
<mask id="mask0_340_2587" style="mask-type:luminance" maskUnits="userSpaceOnUse" x="0" y="0" width="30" height="35">
<path d="M0 0.09021H30V34.9099H0V0.09021Z" fill="white"/>
</mask>
<g mask="url(#mask0_340_2587)">
<path d="M29.7404 5.27586L25.5856 0.393382C25.422 0.201401 25.1927 0.0953369 24.9403 0.0953369C24.6879 0.0953369 24.4586 0.201401 24.2944 0.393382L20.1402 5.27586C19.9239 5.53006 19.8771 5.87551 20.0169 6.1777C20.1574 6.47989 20.4518 6.66773 20.7854 6.66773H22.1755V17.1645C20.9496 15.9782 19.4309 15.0918 17.7392 14.6231V10.316H19.1293C19.4629 10.316 19.7574 10.1281 19.8978 9.82593C20.0383 9.52374 19.9908 9.1777 19.7752 8.9241L15.6203 4.04221C15.4568 3.85023 15.2275 3.74416 14.975 3.74416C14.722 3.74416 14.4927 3.85023 14.3292 4.04221L10.1749 8.9241C9.95865 9.17829 9.91125 9.52374 10.0517 9.82593C10.1915 10.1281 10.486 10.316 10.8202 10.316H12.2103V14.6231C10.5186 15.0918 9.00053 15.9788 7.77398 17.1645V13.9648H9.16407C9.49766 13.9648 9.79215 13.7769 9.93258 13.4742C10.0724 13.172 10.0256 12.8265 9.80934 12.5729L5.65508 7.69103C5.49154 7.49846 5.26223 7.39239 5.00922 7.39239C4.7562 7.39239 4.52689 7.49846 4.36335 7.69044L0.209098 12.5729C-0.00717701 12.8271 -0.0539872 13.1726 0.0858508 13.4742C0.226281 13.7769 0.520771 13.9648 0.854367 13.9648H2.24445V19.8326C2.24445 20.4643 2.75996 20.9786 3.39278 20.9786H5.27171C4.85279 22.0997 4.62348 23.3114 4.62348 24.5765C4.62407 30.2713 9.26717 34.9038 14.975 34.9038C20.6829 34.9038 25.326 30.2713 25.326 24.5765C25.326 23.3114 25.0967 22.0997 24.6778 20.9786H26.5561C27.1895 20.9786 27.705 20.4643 27.705 19.8326V6.66773H29.0945C29.4287 6.66773 29.7232 6.47989 29.8631 6.1777C30.0035 5.87551 29.9567 5.53006 29.7404 5.27586ZM12.7554 9.22806H11.3464L14.975 4.96419L18.6037 9.22806H17.1947C16.8937 9.22806 16.6495 9.4716 16.6495 9.77201V14.3843C16.1044 14.2954 15.5451 14.2486 14.975 14.2486C14.405 14.2486 13.8457 14.2954 13.3005 14.3843V9.77201C13.3005 9.4716 13.0564 9.22806 12.7554 9.22806ZM3.39397 19.8907C3.36256 19.8907 3.33531 19.8635 3.33531 19.8326V13.4208C3.33531 13.1204 3.09118 12.8769 2.79018 12.8769H1.38113L5.00981 8.61301L8.63849 12.8769H7.22944C6.92843 12.8769 6.68431 13.1204 6.68431 13.4208V18.3993C6.33294 18.8674 6.02067 19.3663 5.75225 19.8907H3.39397ZM14.975 33.8165C9.86859 33.8165 5.71433 29.6711 5.71433 24.5765C5.71433 19.4813 9.86859 15.3365 14.975 15.3365C20.0815 15.3365 24.2358 19.4813 24.2358 24.5765C24.2358 29.6711 20.0815 33.8165 14.975 33.8165ZM27.1599 5.57983C26.8589 5.57983 26.6148 5.82336 26.6148 6.12378V19.8326C26.6148 19.8635 26.5875 19.8907 26.5561 19.8907H24.1978C23.9294 19.3663 23.6172 18.8674 23.2658 18.3993V6.12378C23.2658 5.82336 23.0217 5.57983 22.7207 5.57983H21.3116L24.9403 1.31596L28.569 5.57983H27.1599ZM14.975 16.5613C10.5459 16.5613 6.94206 20.1568 6.94206 24.5765C6.94206 28.9956 10.5459 32.5911 14.975 32.5911C19.4042 32.5911 23.008 28.9956 23.008 24.5765C23.008 20.1568 19.4042 16.5613 14.975 16.5613ZM14.975 31.5032C11.1467 31.5032 8.03233 28.396 8.03233 24.5765C8.03233 20.7564 11.1467 17.6492 14.975 17.6492C18.8034 17.6492 21.9178 20.757 21.9178 24.5765C21.9178 28.396 18.8034 31.5032 14.975 31.5032ZM17.9051 26.2599C17.9774 26.8542 17.8174 27.3969 17.4424 27.8295C17.0163 28.3207 16.3171 28.6543 15.5202 28.758V29.3037C15.5202 29.6041 15.2761 29.8477 14.975 29.8477C14.674 29.8477 14.4299 29.6041 14.4299 29.3037V28.7497C13.2377 28.566 12.3152 27.8016 12.0438 26.7179C11.9709 26.4264 12.1487 26.1307 12.4408 26.0584C12.7335 25.9861 13.0292 26.1633 13.102 26.4542C13.3391 27.4052 14.3037 27.7228 15.0598 27.7033C15.7116 27.6879 16.3225 27.458 16.6181 27.1179C16.7912 26.9182 16.8581 26.68 16.8226 26.3908C16.7378 25.6934 16.1429 25.2911 14.8933 25.0861C12.8052 24.7442 12.3187 23.6788 12.2784 22.8457C12.2221 21.6914 13.0292 20.7244 14.2871 20.44C14.3339 20.4293 14.3819 20.4198 14.4299 20.411V19.8486C14.4299 19.5482 14.674 19.3047 14.975 19.3047C15.2761 19.3047 15.5202 19.5482 15.5202 19.8486V20.4068C16.3948 20.552 17.2498 21.0699 17.6823 22.0961C17.7985 22.3734 17.6681 22.6922 17.3902 22.8084C17.1129 22.9245 16.7935 22.7941 16.6768 22.5174C16.278 21.5694 15.3098 21.3235 14.5283 21.5006C13.9429 21.6334 13.3308 22.0422 13.3669 22.7929C13.3799 23.0519 13.4131 23.7416 15.0704 24.013C15.7169 24.1184 17.6841 24.4408 17.9051 26.2599Z" fill="#FDFDFD"/>
</g>
</svg>
