<svg width="56" height="56" viewBox="0 0 56 56" fill="none" xmlns="http://www.w3.org/2000/svg">
<g id="WhatsApp">
<path id="Vector" d="M28 5.6001C15.6296 5.6001 5.59998 15.6297 5.59998 28.0001C5.59998 32.2024 6.78035 36.1202 8.79373 39.4808L5.8005 50.4001L16.9531 47.4725C20.2148 49.3269 23.9801 50.4001 28 50.4001C40.3704 50.4001 50.4 40.3705 50.4 28.0001C50.4 15.6297 40.3704 5.6001 28 5.6001ZM20.3328 17.5511C20.6968 17.5511 21.0708 17.5489 21.3937 17.5657C21.7932 17.5751 22.228 17.6043 22.6442 18.5246C23.1389 19.6184 24.216 22.3626 24.3541 22.6407C24.4923 22.9189 24.5902 23.2465 24.3979 23.6105C24.215 23.9838 24.1198 24.2098 23.851 24.5402C23.5729 24.8613 23.2681 25.26 23.0161 25.5027C22.738 25.7808 22.4508 26.0858 22.7719 26.6402C23.0929 27.1946 24.208 29.0121 25.8562 30.4793C27.9749 32.3721 29.7625 32.9537 30.3187 33.2319C30.875 33.51 31.1971 33.4667 31.5182 33.0933C31.8486 32.7293 32.9058 31.4803 33.2791 30.9241C33.6431 30.3678 34.0147 30.464 34.5187 30.647C35.0302 30.8299 37.7578 32.1735 38.314 32.4517C38.8703 32.7298 39.235 32.8675 39.375 33.0933C39.5187 33.3267 39.5189 34.4374 39.0578 35.7329C38.5967 37.0265 36.3326 38.2775 35.3172 38.3652C34.2924 38.4604 33.336 38.8258 28.6562 36.9834C23.0114 34.7602 19.4515 28.9786 19.1734 28.6053C18.8953 28.2413 16.913 25.5994 16.913 22.8741C16.913 20.1394 18.3468 18.8001 18.8489 18.2438C19.3604 17.6876 19.9595 17.5511 20.3328 17.5511Z" fill="#FDFDFD"/>
</g>
</svg>
