<svg width="89" height="58" viewBox="0 0 89 58" fill="none" xmlns="http://www.w3.org/2000/svg">
<mask id="mask0_340_2315" style="mask-type:luminance" maskUnits="userSpaceOnUse" x="71" y="49" width="6" height="9">
<path d="M71.0591 49.0419H76.4408V57.3458H71.0591V49.0419Z" fill="white"/>
</mask>
<g mask="url(#mask0_340_2315)">
<path d="M75.2381 53.7738C73.8672 53.7738 72.6824 52.7498 72.4797 51.3893L72.1598 49.2225L71.2829 54.4255C71.0667 55.7109 71.9316 56.9287 73.214 57.145C73.3476 57.1675 73.4797 57.178 73.6089 57.178C74.7396 57.178 75.7367 56.3626 75.9304 55.2109L76.2022 53.6027C76.0265 53.6672 75.8418 53.7153 75.6511 53.7438C75.5144 53.7633 75.3748 53.7738 75.2381 53.7738Z" fill="#FDFDFD"/>
</g>
<mask id="mask1_340_2315" style="mask-type:luminance" maskUnits="userSpaceOnUse" x="26" y="41" width="7" height="17">
<path d="M26.8518 41.7382H32.2336V57.3459H26.8518V41.7382Z" fill="white"/>
</mask>
<g mask="url(#mask1_340_2315)">
<path d="M29.1404 51.7471L30.4483 43.5213C29.5563 43.3441 28.825 42.6789 28.5728 41.7885C28.376 41.9026 28.2424 42.1143 28.2424 42.3561C28.2424 42.7194 28.5397 43.0168 28.9031 43.0168H29.319L27.0771 57.1154L28.2574 57.3031L28.9301 53.0685H31.5775L32.052 51.7471H29.1404Z" fill="#FDFDFD"/>
</g>
<mask id="mask2_340_2315" style="mask-type:luminance" maskUnits="userSpaceOnUse" x="36" y="49" width="4" height="9">
<path d="M36.4619 49.0419H39.5372V57.3458H36.4619V49.0419Z" fill="white"/>
</mask>
<g mask="url(#mask2_340_2315)">
<path d="M37.4336 51.7467H37.2594L36.7864 53.0681H37.6438L38.3165 57.3026L39.4968 57.1149L38.2174 49.0738L37.3795 51.4118L37.4336 51.7467Z" fill="#FDFDFD"/>
</g>
<path d="M56.6692 41.6973L56.6712 41.6953H56.6692V41.6973Z" fill="#FDFDFD"/>
<mask id="mask3_340_2315" style="mask-type:luminance" maskUnits="userSpaceOnUse" x="50" y="52" width="2" height="6">
<path d="M50.3008 52.8867H51.8384V57.3464H50.3008V52.8867Z" fill="white"/>
</mask>
<g mask="url(#mask3_340_2315)">
<path d="M51.0981 53.1031L50.46 57.1154L51.6402 57.3031L51.7528 56.5914C51.3444 56.1034 51.0981 55.4772 51.0981 54.7925V53.1031Z" fill="#FDFDFD"/>
</g>
<mask id="mask4_340_2315" style="mask-type:luminance" maskUnits="userSpaceOnUse" x="61" y="52" width="2" height="6">
<path d="M61.4487 52.8867H62.9864V57.3464H61.4487V52.8867Z" fill="white"/>
</mask>
<g mask="url(#mask4_340_2315)">
<path d="M61.5872 56.5914L61.6998 57.3031L62.8785 57.1154L62.2404 53.1031V54.7925C62.2404 55.4772 61.9941 56.1034 61.5872 56.5914Z" fill="#FDFDFD"/>
</g>
<path d="M35.2128 42.9297C35.2263 42.8906 35.2429 42.8531 35.2579 42.8156L31.5159 43.5033L34.5897 44.667L35.2128 42.9297Z" fill="#FDFDFD"/>
<path d="M39.5794 38.8706C39.1785 38.1859 38.3931 37.8255 37.6123 37.9697L34.8133 38.4832C34.513 38.9352 34.0024 39.222 33.4348 39.222C33.3027 39.222 33.1705 39.2055 33.0414 39.1755L29.3279 38.27C29.2018 38.6244 29.0982 39.0073 29.0411 39.4533C28.975 39.6935 28.9375 40.0509 28.9375 40.5675C28.9375 40.8302 28.9675 41.0615 29.0156 41.2702L29.0486 41.2507C29.0531 41.3198 29.0621 41.3873 29.0741 41.4564C29.2618 42.482 30.2439 43.1607 31.2695 42.973L35.6572 42.1667C36.1137 41.6321 36.7909 41.3047 37.5192 41.3047C37.8015 41.3047 38.0808 41.3528 38.3466 41.4489C38.9637 41.6696 39.4563 42.1186 39.7356 42.7117C40.0149 43.3049 40.0479 43.9701 39.8257 44.5873L39.3451 45.9312L42.1712 50.7544C42.5226 51.3535 43.1532 51.6869 43.8004 51.6869C44.1248 51.6869 44.4521 51.6028 44.7524 51.4271C45.6504 50.9 45.9522 49.7423 45.4252 48.8443L39.5794 38.8706Z" fill="#FDFDFD"/>
<mask id="mask5_340_2315" style="mask-type:luminance" maskUnits="userSpaceOnUse" x="31" y="41" width="9" height="17">
<path d="M31.0801 41.7382H39.5371V57.3459H31.0801V41.7382Z" fill="white"/>
</mask>
<g mask="url(#mask5_340_2315)">
<path d="M39.294 44.3963C39.6454 43.4143 39.1363 42.3331 38.1558 41.9817C37.1767 41.6304 36.0956 42.1394 35.7442 43.1199L31.5487 54.8235C31.1973 55.8055 31.7064 56.8867 32.6869 57.2381C32.8971 57.3132 33.1119 57.3492 33.3236 57.3492C34.0969 57.3492 34.8222 56.8702 35.0985 56.0999L39.294 44.3963Z" fill="#FDFDFD"/>
</g>
<path d="M26.4058 35.9785C26.3202 36.6017 26.7196 37.1888 27.3308 37.3375L33.1435 38.7535C33.2411 38.776 33.3387 38.788 33.4348 38.788C33.9874 38.788 34.489 38.4111 34.6241 37.851C34.7848 37.1918 34.3809 36.5281 33.7231 36.3689L28.9886 35.2157C29.2168 33.63 29.4481 32.2275 29.6343 31.1584C30.1328 32.4588 30.5397 33.8748 30.4541 34.8823C30.4466 34.9634 30.4361 35.0415 30.4271 35.1196L33.8253 35.947C34.2562 36.0521 34.6211 36.3179 34.8509 36.6963C35.0656 37.0492 35.1377 37.4591 35.0641 37.8615L37.5102 37.4126C37.6559 37.3855 37.806 37.372 37.9532 37.372C38.0027 37.372 38.0523 37.3735 38.1018 37.3765C37.7745 36.6542 37.4381 35.9395 37.348 34.8823C37.2324 33.5174 38.0177 31.4061 38.713 29.8445C38.2355 29.6718 37.7084 29.3504 37.1844 28.7798C36.5942 28.1356 36.3645 27.2767 36.2669 26.3893L35.7819 26.4613C35.2127 26.3802 34.5866 26.3307 33.9003 26.3307C30.9031 26.3307 29.0021 27.2692 28.3504 27.6521C27.9855 27.8038 27.7017 28.1296 27.6191 28.5456C27.6131 28.5786 26.9689 31.8371 26.4058 35.9785Z" fill="#FDFDFD"/>
<path d="M61.8843 26.2152C61.3588 25.7632 60.8437 25.6296 60.4743 25.604C60.4203 25.598 60.3677 25.595 60.3122 25.595H53.0279C52.9723 25.595 52.9182 25.598 52.8657 25.604C52.4963 25.6296 51.9812 25.7632 51.4557 26.2152C49.4826 27.9105 48.7212 33.1466 49.1297 42.2223C49.1657 43.0317 49.8324 43.6639 50.6358 43.6639C50.6583 43.6639 50.6808 43.6639 50.7034 43.6624C50.8415 43.6564 50.9737 43.6308 51.0983 43.5903V42.1142C51.0983 40.5676 52.3566 39.3077 53.9018 39.3077C55.2082 39.3077 56.3059 40.2087 56.6152 41.422H56.7248C57.0342 40.2087 58.1318 39.3077 59.4382 39.3077C60.9834 39.3077 62.2417 40.5676 62.2417 42.1142V43.5903C62.3664 43.6308 62.4985 43.6564 62.6351 43.6624C62.6592 43.6639 62.6817 43.6639 62.7042 43.6639C63.5061 43.6639 64.1743 43.0317 64.2103 42.2223C64.6188 33.1466 63.8575 27.9105 61.8843 26.2152Z" fill="#FDFDFD"/>
<mask id="mask6_340_2315" style="mask-type:luminance" maskUnits="userSpaceOnUse" x="51" y="39" width="6" height="19">
<path d="M51.4541 39.4324H56.4515V57.3466H51.4541V39.4324Z" fill="white"/>
</mask>
<g mask="url(#mask6_340_2315)">
<path d="M56.2321 42.1144C56.2321 40.8246 55.1885 39.7809 53.9016 39.7809C52.6147 39.7809 51.5696 40.8246 51.5696 42.1144V54.7925C51.5696 56.0824 52.6147 57.126 53.9016 57.126C55.1885 57.126 56.2321 56.0824 56.2321 54.7925V42.1144Z" fill="#FDFDFD"/>
</g>
<mask id="mask7_340_2315" style="mask-type:luminance" maskUnits="userSpaceOnUse" x="56" y="39" width="6" height="19">
<path d="M56.8359 39.4324H61.8333V57.3466H56.8359V39.4324Z" fill="white"/>
</mask>
<g mask="url(#mask7_340_2315)">
<path d="M61.7702 42.1144C61.7702 40.8246 60.7251 39.7809 59.4382 39.7809C58.1513 39.7809 57.1062 40.8246 57.1062 42.1144V54.7925C57.1062 56.0824 58.1513 57.126 59.4382 57.126C60.7251 57.126 61.7702 56.0824 61.7702 54.7925V42.1144Z" fill="#FDFDFD"/>
</g>
<path d="M60.9128 20.2717C60.9128 20.551 60.8858 20.8273 60.8317 21.1006C60.7762 21.3739 60.6966 21.6397 60.59 21.8965C60.4834 22.1547 60.3527 22.3995 60.1981 22.6308C60.0434 22.8635 59.8662 23.0782 59.6695 23.2749C59.4728 23.4717 59.2581 23.6473 59.0268 23.8035C58.7956 23.9582 58.5508 24.0888 58.294 24.1954C58.0358 24.302 57.7715 24.3831 57.4982 24.4372C57.2249 24.4913 56.9486 24.5183 56.6693 24.5183C56.3915 24.5183 56.1152 24.4913 55.8419 24.4372C55.5686 24.3831 55.3043 24.302 55.0461 24.1954C54.7893 24.0888 54.5445 23.9582 54.3133 23.8035C54.082 23.6473 53.8673 23.4717 53.6706 23.2749C53.4724 23.0782 53.2967 22.8635 53.142 22.6308C52.9873 22.3995 52.8567 22.1547 52.7501 21.8965C52.6435 21.6397 52.5639 21.3739 52.5083 21.1006C52.4543 20.8273 52.4272 20.551 52.4272 20.2717C52.4272 19.9924 52.4543 19.7161 52.5083 19.4428C52.5639 19.1696 52.6435 18.9038 52.7501 18.6455C52.8567 18.3887 52.9873 18.144 53.142 17.9112C53.2967 17.68 53.4724 17.4652 53.6706 17.2685C53.8673 17.0718 54.082 16.8946 54.3133 16.7399C54.5445 16.5853 54.7893 16.4546 55.0461 16.348C55.3043 16.2414 55.5686 16.1603 55.8419 16.1063C56.1152 16.0522 56.3915 16.0237 56.6693 16.0237C56.9486 16.0237 57.2249 16.0522 57.4982 16.1063C57.7715 16.1603 58.0358 16.2414 58.294 16.348C58.5508 16.4546 58.7956 16.5853 59.0268 16.7399C59.2581 16.8946 59.4728 17.0718 59.6695 17.2685C59.8662 17.4652 60.0434 17.68 60.1981 17.9112C60.3527 18.144 60.4834 18.3887 60.59 18.6455C60.6966 18.9038 60.7762 19.1696 60.8317 19.4428C60.8858 19.7161 60.9128 19.9924 60.9128 20.2717Z" fill="#FDFDFD"/>
<path d="M20.5825 28.0561L14.8058 29.5442L8.95103 26.3819C8.86394 26.3338 8.77234 26.2963 8.68074 26.2677C8.53959 26.1957 8.38943 26.1386 8.23176 26.0995C6.62054 25.7046 4.29154 26.5906 3.35304 29.358C2.45357 32.0729 2.06166 34.1136 2.09169 36.5733C2.1037 37.5703 2.18329 38.635 2.32894 39.8438C2.62476 41.3289 3.27345 42.1593 4.0618 42.6172C4.22397 42.7644 4.40717 42.8935 4.61289 42.9941L11.8116 46.5259L13.7592 54.995C14.01 56.0867 14.98 56.8255 16.0536 56.8255C16.2293 56.8255 16.4065 56.8059 16.5852 56.7654C17.8526 56.4726 18.6454 55.2067 18.3526 53.9364L16.1527 44.3726C15.9936 43.6804 15.5311 43.0963 14.8929 42.7839L9.02912 39.9053C8.9165 38.8257 8.94202 37.695 9.04413 36.5718C9.06516 36.3405 9.08768 36.1108 9.11471 35.881L6.06194 31.666C5.75711 31.2456 5.63398 30.732 5.71507 30.2185C5.79766 29.7064 6.07395 29.2559 6.4929 28.9511C6.82626 28.7078 7.22118 28.5802 7.63262 28.5802C8.25279 28.5802 8.84142 28.8805 9.20631 29.3836L10.0472 30.5458C10.0592 30.5053 10.0697 30.4632 10.0787 30.4227L13.8943 32.4829C14.1151 32.603 14.3613 32.6646 14.6106 32.6646C14.7367 32.6646 14.8629 32.6481 14.986 32.6165L21.3348 30.9798C22.1412 30.7726 22.6277 29.9497 22.419 29.1418C22.2117 28.3339 21.3889 27.8459 20.5825 28.0561Z" fill="#FDFDFD"/>
<mask id="mask8_340_2315" style="mask-type:luminance" maskUnits="userSpaceOnUse" x="76" y="42" width="13" height="16">
<path d="M76.8254 42.507H88.4689V57.1146H76.8254V42.507Z" fill="white"/>
</mask>
<g mask="url(#mask8_340_2315)">
<path d="M86.7854 44.2988C87.0977 44.2988 87.353 44.0435 87.353 43.7312V43.6831C87.353 43.3708 87.0977 43.1155 86.7854 43.1155H80.6198L80.9742 42.8257H76.8538L77.3988 46.5001L77.543 45.6382L79.1767 44.2988H79.2834L77.2757 56.9243L78.3313 57.0925L78.935 53.3009H86.7373L87.3395 57.0925L88.3966 56.9243L86.389 44.2988H86.7854ZM86.5496 52.1176H79.1227L80.366 44.2988H85.3063L86.5496 52.1176Z" fill="#FDFDFD"/>
</g>
<path d="M15.4216 21.4431C15.4216 21.7224 15.3946 21.9987 15.339 22.272C15.285 22.5453 15.2054 22.8111 15.0988 23.0679C14.9922 23.3262 14.8615 23.5709 14.7069 23.8022C14.5507 24.0349 14.375 24.2496 14.1783 24.4464C13.9816 24.6431 13.7669 24.8203 13.5356 24.9749C13.3044 25.1296 13.0596 25.2602 12.8028 25.3668C12.5445 25.4735 12.2788 25.5545 12.007 25.6086C11.7337 25.6627 11.4574 25.6897 11.1781 25.6897C10.9003 25.6897 10.624 25.6627 10.3507 25.6086C10.0774 25.5545 9.81312 25.4735 9.55484 25.3668C9.29807 25.2602 9.0533 25.1296 8.82206 24.9749C8.58931 24.8203 8.37608 24.6431 8.17937 24.4464C7.98115 24.2496 7.80547 24.0349 7.6508 23.8022C7.49614 23.5709 7.3655 23.3262 7.25888 23.0679C7.15227 22.8111 7.07118 22.5453 7.01712 22.272C6.96306 21.9987 6.93604 21.7224 6.93604 21.4431C6.93604 21.1638 6.96306 20.8875 7.01712 20.6143C7.07118 20.341 7.15227 20.0752 7.25888 19.8184C7.3655 19.5601 7.49614 19.3154 7.6508 19.0841C7.80547 18.8514 7.98115 18.6366 8.17937 18.4399C8.37608 18.2432 8.58931 18.066 8.82206 17.9114C9.0533 17.7567 9.29807 17.6261 9.55484 17.5194C9.81312 17.4128 10.0774 17.3317 10.3507 17.2777C10.624 17.2236 10.9003 17.1966 11.1781 17.1966C11.4574 17.1966 11.7337 17.2236 12.007 17.2777C12.2788 17.3317 12.5445 17.4128 12.8028 17.5194C13.0596 17.6261 13.3044 17.7567 13.5356 17.9114C13.7669 18.066 13.9816 18.2432 14.1783 18.4399C14.375 18.6366 14.5507 18.8514 14.7069 19.0841C14.8615 19.3154 14.9922 19.5601 15.0988 19.8184C15.2054 20.0752 15.285 20.341 15.339 20.6143C15.3946 20.8875 15.4216 21.1638 15.4216 21.4431Z" fill="#FDFDFD"/>
<mask id="mask9_340_2315" style="mask-type:luminance" maskUnits="userSpaceOnUse" x="0" y="42" width="13" height="16">
<path d="M0 42.8912H12.6285V57.1145H0V42.8912Z" fill="white"/>
</mask>
<g mask="url(#mask9_340_2315)">
<path d="M8.24696 45.2611L8.63588 47.7057L7.89709 49.7689C7.59827 50.6023 7.79948 51.4928 8.34306 52.1174H1.91168L3.15501 44.2986H6.28736L4.42236 43.3841C4.2692 43.309 4.12505 43.2189 3.9869 43.1153H1.67442C1.36359 43.1153 1.10831 43.3706 1.10831 43.6829V43.731C1.10831 44.0433 1.36359 44.2986 1.67442 44.2986H2.07235L0.0646973 56.9241L1.12033 57.0923L1.72397 53.3007H9.52633L10.1285 57.0923L11.1856 56.9241L10.5429 52.8833C11.3403 52.7361 12.0415 52.1805 12.3358 51.3606L12.4214 51.1174L11.4349 46.8243L8.24696 45.2611Z" fill="#FDFDFD"/>
</g>
<path d="M10.828 37.9396L9.38942 38.1348C9.38191 38.6379 9.39543 39.1349 9.43747 39.6229L15.0835 42.3934C15.2187 42.4595 15.3433 42.5376 15.4634 42.6232L16.1527 40.6951C16.4305 39.9203 16.2848 39.0553 15.7668 38.4141C15.7247 38.3631 15.6767 38.3165 15.6316 38.2685L11.7439 38.1949C11.4196 38.1874 11.1058 38.0973 10.828 37.9396Z" fill="#FDFDFD"/>
<path d="M8.85499 29.6374C8.36546 28.9631 7.42245 28.813 6.74823 29.3025C6.07401 29.792 5.92385 30.7365 6.41187 31.4108L10.5608 37.1364C10.8386 37.5208 11.2801 37.7506 11.7531 37.7596L19.9864 37.9172C19.9969 37.9172 20.0059 37.9172 20.0164 37.9172C20.8363 37.9172 21.5075 37.261 21.5241 36.4366C21.5391 35.6033 20.8769 34.914 20.045 34.8975L12.5625 34.7548L8.85499 29.6374Z" fill="#FDFDFD"/>
<path d="M81.3752 20.6202C81.3752 20.8995 81.3482 21.1758 81.2926 21.4491C81.2386 21.7224 81.159 21.9882 81.0524 22.2449C80.9458 22.5032 80.8151 22.748 80.6605 22.9792C80.5043 23.212 80.3286 23.4267 80.1319 23.6234C79.9352 23.8201 79.7205 23.9973 79.4892 24.152C79.258 24.3067 79.0132 24.4373 78.7564 24.5439C78.4982 24.6505 78.2324 24.7316 77.9606 24.7857C77.6873 24.8397 77.411 24.8668 77.1317 24.8668C76.8539 24.8668 76.5776 24.8397 76.3043 24.7857C76.031 24.7316 75.7667 24.6505 75.5085 24.5439C75.2517 24.4373 75.0069 24.3067 74.7757 24.152C74.5429 23.9973 74.3297 23.8201 74.133 23.6234C73.9348 23.4267 73.7591 23.212 73.6044 22.9792C73.4497 22.748 73.3191 22.5032 73.2125 22.2449C73.1059 21.9882 73.0248 21.7224 72.9707 21.4491C72.9167 21.1758 72.8896 20.8995 72.8896 20.6202C72.8896 20.3409 72.9167 20.0646 72.9707 19.7913C73.0248 19.518 73.1059 19.2522 73.2125 18.9955C73.3191 18.7372 73.4497 18.4924 73.6044 18.2612C73.7591 18.0284 73.9348 17.8137 74.133 17.617C74.3297 17.4203 74.5429 17.2431 74.7757 17.0884C75.0069 16.9338 75.2517 16.8031 75.5085 16.6965C75.7667 16.5899 76.031 16.5088 76.3043 16.4547C76.5776 16.4007 76.8539 16.3737 77.1317 16.3737C77.411 16.3737 77.6873 16.4007 77.9606 16.4547C78.2324 16.5088 78.4982 16.5899 78.7564 16.6965C79.0132 16.8031 79.258 16.9338 79.4892 17.0884C79.7205 17.2431 79.9352 17.4203 80.1319 17.617C80.3286 17.8137 80.5043 18.0284 80.6605 18.2612C80.8151 18.4924 80.9458 18.7372 81.0524 18.9955C81.159 19.2522 81.2386 19.518 81.2926 19.7913C81.3482 20.0646 81.3752 20.3409 81.3752 20.6202Z" fill="#FDFDFD"/>
<path d="M78.6452 32.175L79.2023 28.8564C79.36 27.9164 80.1633 27.2332 81.1153 27.2332C81.2235 27.2332 81.3316 27.2422 81.4397 27.2602C81.9502 27.3458 82.3977 27.6266 82.6995 28.05C82.9999 28.472 83.1185 28.987 83.0329 29.4991L81.8076 36.8134C81.6499 37.7549 80.8451 38.4367 79.893 38.4367C79.8225 38.4367 79.7504 38.4337 79.6783 38.4247C79.1542 38.3676 78.5521 38.3376 77.9364 38.3376C75.4663 38.3376 73.5322 38.7865 72.7619 39.5373C72.397 39.8932 71.9165 40.0884 71.4074 40.0884C71.3594 40.0884 71.3113 40.0854 71.2648 40.0809C71.2663 40.18 71.2723 40.2791 71.2873 40.3782L72.9091 51.3265C73.0832 52.4977 74.0893 53.3401 75.238 53.3401C75.3537 53.3401 75.4693 53.3311 75.5864 53.3146C76.8748 53.1224 77.7638 51.9226 77.573 50.6342L76.3507 42.3919H82.7701C83.5179 42.3919 84.1846 42.042 84.6156 41.4969C85.1922 41.0014 85.6517 40.2356 85.8875 39.0523C86.3935 34.8613 86.1292 32.3807 84.8619 28.5666C83.9248 25.7991 81.5959 24.9132 79.9846 25.3081C79.5822 25.4072 79.2353 25.6204 78.9485 25.9163C78.8689 25.9778 78.7939 26.0484 78.7248 26.1265L77.7547 27.2407L75.0533 30.3445L68.9583 28.2272C68.1715 27.9539 67.3126 28.3714 67.0393 29.1582C66.766 29.9466 67.1819 30.807 67.9688 31.0803L75.0278 33.5324C75.1885 33.5895 75.3567 33.6165 75.5218 33.6165C75.9498 33.6165 76.3673 33.4333 76.6586 33.0985L78.0701 31.4767L78.4305 31.0623C78.501 31.4212 78.5746 31.7936 78.6452 32.175Z" fill="#FDFDFD"/>
<path d="M39.9488 28.322L40.0854 28.3025L43.6518 27.771C43.9656 27.7244 44.2494 27.5577 44.4431 27.3055L49.1867 21.1338C49.5996 20.5963 49.499 19.8259 48.963 19.413C48.4254 19.0001 47.6566 19.1007 47.2436 19.6382L42.8019 25.4164L39.3677 25.9285C39.3692 27.3895 39.674 28.0382 39.9488 28.322Z" fill="#FDFDFD"/>
<path d="M36.5747 23.8832C36.6888 25.3608 36.4711 27.3609 37.5027 28.4856C39.4503 30.6074 41.5736 29.0217 40.7176 29.0412C39.8617 29.0607 38.8061 28.5367 38.9457 25.3743C39.0449 23.1234 38.3001 21.9732 37.3585 21.3695C37.354 22.3005 37.0657 23.1669 36.5747 23.8832Z" fill="#FDFDFD"/>
<path d="M34.4229 17.5988C34.6692 17.7009 34.9034 17.8256 35.1241 17.9742C35.3449 18.1214 35.5506 18.2896 35.7383 18.4788C35.926 18.6665 36.0942 18.8722 36.2428 19.0929C36.39 19.3152 36.5161 19.5494 36.6167 19.7957C36.7188 20.0419 36.7954 20.2957 36.848 20.557C36.9005 20.8183 36.9261 21.0811 36.9261 21.3483C36.9261 21.6141 36.9005 21.8784 36.848 22.1397C36.7954 22.401 36.7188 22.6547 36.6167 22.901C36.5161 23.1473 36.39 23.3815 36.2428 23.6023C36.0942 23.8245 35.926 24.0302 35.7383 24.2179C35.5506 24.4071 35.3449 24.5753 35.1241 24.7225C34.9034 24.8711 34.6692 24.9957 34.4229 25.0979C34.1766 25.2 33.9244 25.2765 33.6631 25.3291C33.4018 25.3802 33.1375 25.4072 32.8717 25.4072C32.6059 25.4072 32.3417 25.3802 32.0804 25.3291C31.8206 25.2765 31.5668 25.2 31.3206 25.0979C31.0743 24.9957 30.8416 24.8711 30.6193 24.7225C30.3986 24.5753 30.1929 24.4071 30.0052 24.2179C29.8175 24.0302 29.6493 23.8245 29.5006 23.6023C29.3535 23.3815 29.2288 23.1473 29.1267 22.901C29.0246 22.6547 28.948 22.401 28.8955 22.1397C28.8444 21.8784 28.8174 21.6141 28.8174 21.3483C28.8174 21.0811 28.8444 20.8183 28.8955 20.557C28.948 20.2957 29.0246 20.0419 29.1267 19.7957C29.2288 19.5494 29.3535 19.3152 29.5006 19.0929C29.6493 18.8722 29.8175 18.6665 30.0052 18.4788C30.1929 18.2896 30.3986 18.1214 30.6193 17.9742C30.8416 17.8256 31.0743 17.7009 31.3206 17.5988C31.5668 17.4967 31.8206 17.4201 32.0804 17.3676C32.3417 17.3165 32.6059 17.2895 32.8717 17.2895C33.1375 17.2895 33.4018 17.3165 33.6631 17.3676C33.9244 17.4201 34.1766 17.4967 34.4229 17.5988Z" fill="#FDFDFD"/>
<path d="M71.4075 39.6546C71.7859 39.6546 72.1658 39.512 72.4586 39.2267C73.8206 37.8992 77.6392 37.7656 79.7264 37.9938C80.5178 38.0824 81.2475 37.5329 81.3797 36.743L82.605 29.4287C82.7431 28.6058 82.189 27.8265 81.3677 27.6883C80.5448 27.5502 79.767 28.1058 79.6303 28.9286L78.6302 34.896C76.4604 34.8255 72.4631 35.0071 70.3549 37.0629C69.7572 37.644 69.7452 38.6005 70.3263 39.1981C70.6222 39.5015 71.0141 39.6546 71.4075 39.6546Z" fill="#FDFDFD"/>
<path d="M15.6618 17.7145C15.7038 17.7686 15.7669 17.7971 15.8315 17.7971C15.869 17.7971 15.908 17.7866 15.9426 17.7656C16.0657 17.6935 18.8842 15.9802 19.7326 14.0566H29.7604C30.9196 14.0566 31.8626 13.1121 31.8626 11.9514V3.82016C31.8626 2.65942 30.9196 1.7149 29.7604 1.7149H12.7622C11.6029 1.7149 10.6599 2.65942 10.6599 3.82016V11.9514C10.6599 13.1121 11.6029 14.0566 12.7622 14.0566H17.4096C17.3916 15.6453 15.6933 17.4112 15.6753 17.4292C15.6002 17.5073 15.5942 17.6289 15.6618 17.7145ZM17.8346 13.8224C17.8256 13.7098 17.731 13.6227 17.6184 13.6227H12.7622C11.8417 13.6227 11.0939 12.8734 11.0939 11.9514V3.82016C11.0939 2.89817 11.8417 2.14887 12.7622 2.14887H29.7604C30.6809 2.14887 31.4287 2.89817 31.4287 3.82016V11.9514C31.4287 12.8734 30.6809 13.6227 29.7604 13.6227H19.5885C19.4984 13.6227 19.4188 13.6782 19.3858 13.7608C18.9713 14.8269 17.8151 15.8721 16.9111 16.5658C17.4126 15.812 17.9142 14.7939 17.8346 13.8224Z" fill="#FDFDFD"/>
<path d="M38.1108 17.7371C38.1528 17.7911 38.2159 17.8197 38.2804 17.8197C38.3195 17.8197 38.357 17.8107 38.3916 17.7896C38.4772 17.7386 40.3947 16.5733 41.0089 15.2459H52.6463C53.4812 15.2459 54.1615 14.5657 54.1615 13.7293V6.78435C54.1615 5.94795 53.4812 5.26923 52.6463 5.26923H36.6362C35.8013 5.26923 35.1226 5.94795 35.1226 6.78435V13.7293C35.1226 14.5657 35.8013 15.2459 36.6362 15.2459H39.297C39.24 16.2925 38.1378 17.4398 38.1258 17.4518C38.0492 17.5299 38.0432 17.653 38.1108 17.7371ZM39.7265 15.0117C39.7175 14.899 39.6229 14.8119 39.5103 14.8119H36.6362C36.0415 14.8119 35.5565 14.3269 35.5565 13.7293V6.78435C35.5565 6.18821 36.0415 5.70319 36.6362 5.70319H52.6463C53.2425 5.70319 53.7275 6.18821 53.7275 6.78435V13.7293C53.7275 14.3269 53.2425 14.8119 52.6463 14.8119H40.8662C40.7761 14.8119 40.6965 14.866 40.6635 14.9501C40.4277 15.5567 39.8331 16.1574 39.282 16.6124C39.5523 16.1349 39.7715 15.5643 39.7265 15.0117Z" fill="#FDFDFD"/>
<mask id="mask10_340_2315" style="mask-type:luminance" maskUnits="userSpaceOnUse" x="56" y="0" width="22" height="17">
<path d="M56.4514 0H77.9785V16.3675H56.4514V0Z" fill="white"/>
</mask>
<g mask="url(#mask10_340_2315)">
<path d="M77.7696 10.238V2.10525C77.7696 0.944511 76.8251 0 75.6659 0H58.6692C57.5099 0 56.5654 0.944511 56.5654 2.10525V10.238C56.5654 11.3987 57.5099 12.3417 58.6692 12.3417H68.6954C69.5453 14.2653 72.3639 15.9786 72.4855 16.0522C72.5215 16.0732 72.5591 16.0822 72.5981 16.0822C72.6612 16.0822 72.7257 16.0537 72.7678 16.0011C72.8354 15.9155 72.8293 15.7924 72.7528 15.7143C72.7347 15.6963 71.0379 13.9304 71.0199 12.3417H75.6659C76.8251 12.3417 77.7696 11.3987 77.7696 10.238ZM70.595 12.1075C70.5139 13.0805 71.0154 14.0971 71.5169 14.8509C70.613 14.1572 69.4582 13.1135 69.0423 12.0459C69.0093 11.9633 68.9297 11.9078 68.8396 11.9078H58.6692C57.7487 11.9078 56.9994 11.1585 56.9994 10.238V2.10525C56.9994 1.18477 57.7487 0.435466 58.6692 0.435466H75.6659C76.5864 0.435466 77.3357 1.18477 77.3357 2.10525V10.238C77.3357 11.1585 76.5864 11.9078 75.6659 11.9078H70.8112C70.6986 11.9078 70.604 11.9948 70.595 12.1075Z" fill="#FDFDFD"/>
</g>
</svg>
