<svg width="57" height="57" viewBox="0 0 57 57" fill="none" xmlns="http://www.w3.org/2000/svg">
<path d="M47.5004 38.0019C46.9566 38.0009 46.4178 38.0469 45.882 38.1399C45.3472 38.2318 44.8234 38.3698 44.3116 38.5527C43.7998 38.7356 43.3079 38.9616 42.8351 39.2295C42.3623 39.4974 41.9165 39.8032 41.4966 40.1481L37.868 36.5295C38.1059 36.2526 38.3318 35.9667 38.5447 35.6708C38.7566 35.3739 38.9556 35.069 39.1415 34.7551C39.3274 34.4412 39.4984 34.1194 39.6553 33.7905C39.8122 33.4616 39.9542 33.1257 40.0811 32.7839C40.2081 32.442 40.319 32.0951 40.416 31.7432C40.512 31.3914 40.5919 31.0365 40.6569 30.6776C40.7209 30.3188 40.7699 29.9579 40.8019 29.594C40.8349 29.2312 40.8509 28.8673 40.8509 28.5025C40.8509 28.1376 40.8349 27.7737 40.8019 27.4109C40.7699 27.047 40.7209 26.6861 40.6569 26.3273C40.5919 25.9684 40.512 25.6135 40.416 25.2617C40.319 24.9098 40.2081 24.5629 40.0811 24.221C39.9542 23.8792 39.8122 23.5433 39.6553 23.2144C39.4984 22.8855 39.3274 22.5637 39.1415 22.2498C38.9556 21.9359 38.7566 21.631 38.5447 21.3341C38.3318 21.0382 38.1059 20.7523 37.868 20.4754L40.9458 17.3986C41.4826 17.8174 42.0654 18.1573 42.6942 18.4182C43.3229 18.6791 43.9747 18.852 44.6504 18.937V21.0362C44.5025 21.0742 44.3575 21.1212 44.2156 21.1772C44.0737 21.2322 43.9347 21.2961 43.8008 21.3691C43.6658 21.4411 43.5369 21.521 43.4119 21.609C43.2869 21.697 43.168 21.792 43.055 21.8939C42.9411 21.9969 42.8341 22.1058 42.7341 22.2208C42.6342 22.3357 42.5412 22.4567 42.4553 22.5827C42.3703 22.7086 42.2923 22.8396 42.2223 22.9755C42.1524 23.1115 42.0904 23.2504 42.0374 23.3944C41.9844 23.5373 41.9404 23.6832 41.9045 23.8312C41.8695 23.9801 41.8425 24.1301 41.8255 24.281C41.8085 24.433 41.7995 24.5849 41.8005 24.7379C41.8015 24.8908 41.8115 25.0427 41.8305 25.1937C41.8505 25.3456 41.8785 25.4956 41.9155 25.6435C41.9534 25.7915 41.9994 25.9364 42.0534 26.0794C42.1084 26.2213 42.1714 26.3603 42.2433 26.4952C42.3143 26.6301 42.3943 26.7601 42.4812 26.8851C42.5682 27.01 42.6632 27.13 42.7641 27.2439C42.8661 27.3579 42.9741 27.4648 43.088 27.5658C43.203 27.6668 43.3229 27.7607 43.4489 27.8467C43.5748 27.9337 43.7058 28.0126 43.8407 28.0826C43.9757 28.1536 44.1146 28.2156 44.2576 28.2695C44.4005 28.3235 44.5465 28.3685 44.6944 28.4055C44.8424 28.4415 44.9923 28.4695 45.1443 28.4875C45.2952 28.5055 45.4471 28.5144 45.6001 28.5144C45.753 28.5144 45.905 28.5055 46.0569 28.4875C46.2079 28.4695 46.3578 28.4415 46.5057 28.4055C46.6547 28.3685 46.7996 28.3235 46.9426 28.2695C47.0855 28.2156 47.2245 28.1536 47.3594 28.0826C47.4954 28.0126 47.6253 27.9337 47.7513 27.8467C47.8772 27.7607 47.9972 27.6668 48.1121 27.5658C48.2261 27.4648 48.3351 27.3579 48.436 27.2439C48.538 27.13 48.632 27.01 48.7189 26.8851C48.8069 26.7601 48.8859 26.6301 48.9578 26.4952C49.0288 26.3603 49.0918 26.2213 49.1468 26.0794C49.2017 25.9364 49.2477 25.7915 49.2847 25.6435C49.3217 25.4956 49.3507 25.3456 49.3697 25.1937C49.3887 25.0427 49.3987 24.8908 49.3997 24.7379C49.4007 24.5849 49.3927 24.433 49.3747 24.281C49.3577 24.1301 49.3307 23.9801 49.2957 23.8312C49.2597 23.6832 49.2157 23.5373 49.1628 23.3944C49.1098 23.2504 49.0478 23.1115 48.9788 22.9755C48.9089 22.8396 48.8309 22.7086 48.7449 22.5827C48.6589 22.4567 48.566 22.3357 48.466 22.2208C48.3661 22.1058 48.2591 21.9969 48.1461 21.8939C48.0322 21.792 47.9132 21.697 47.7883 21.609C47.6643 21.521 47.5344 21.4411 47.4004 21.3691C47.2655 21.2961 47.1275 21.2322 46.9856 21.1772C46.8426 21.1212 46.6977 21.0742 46.5497 21.0362V18.937C46.7836 18.908 47.0166 18.868 47.2465 18.8171C47.4764 18.7661 47.7043 18.7051 47.9282 18.6331C48.1531 18.5612 48.3731 18.4782 48.59 18.3862C48.8069 18.2933 49.0188 18.1913 49.2267 18.0793C49.4337 17.9664 49.6356 17.8454 49.8315 17.7135C50.0274 17.5825 50.2174 17.4436 50.4003 17.2946C50.5832 17.1457 50.7582 16.9887 50.9271 16.8238C51.095 16.6589 51.256 16.4869 51.4079 16.307C51.5599 16.1271 51.7038 15.9401 51.8388 15.7472C51.9737 15.5533 52.0997 15.3543 52.2156 15.1494C52.3326 14.9445 52.4385 14.7346 52.5355 14.5197C52.6325 14.3047 52.7194 14.0858 52.7964 13.8629C52.8724 13.64 52.9384 13.4141 52.9943 13.1852C53.0493 12.9552 53.0943 12.7243 53.1283 12.4914C53.1623 12.2575 53.1853 12.0236 53.1973 11.7877C53.2093 11.5528 53.2103 11.3168 53.2013 11.0819C53.1913 10.846 53.1703 10.6111 53.1393 10.3782C53.1073 10.1443 53.0653 9.91237 53.0113 9.68345C52.9583 9.45354 52.8954 9.22662 52.8204 9.00271C52.7464 8.77879 52.6615 8.55887 52.5675 8.34295C52.4725 8.12803 52.3676 7.91611 52.2536 7.71019C52.1397 7.50426 52.0157 7.30334 51.8827 7.10941C51.7498 6.91448 51.6078 6.72655 51.4569 6.54462C51.307 6.36369 51.148 6.18975 50.9821 6.02282C50.8151 5.85588 50.6412 5.69794 50.4593 5.54699C50.2783 5.39705 50.0904 5.2551 49.8955 5.12215C49.7006 4.9892 49.5006 4.86525 49.2937 4.75129C49.0878 4.63633 48.8769 4.53237 48.6609 4.43741C48.445 4.34244 48.2251 4.25847 48.0012 4.1835C47.7783 4.10953 47.5514 4.04555 47.3214 3.99257C47.0915 3.93959 46.8606 3.89761 46.6267 3.86562C46.3928 3.83363 46.1589 3.81364 45.923 3.80364C45.6871 3.79364 45.4521 3.79464 45.2162 3.80764C44.9813 3.81964 44.7464 3.84263 44.5135 3.87661C44.2806 3.9106 44.0487 3.95458 43.8197 4.01056C43.5908 4.06554 43.3649 4.13152 43.142 4.20849C42.9191 4.28546 42.7002 4.37143 42.4852 4.46839C42.2703 4.56536 42.0604 4.67232 41.8555 4.78827C41.6496 4.90523 41.4506 5.03018 41.2577 5.16613C41.0648 5.30108 40.8778 5.44403 40.6979 5.59697C40.518 5.74892 40.345 5.90886 40.1801 6.0778C40.0152 6.24573 39.8582 6.42167 39.7103 6.6046C39.5613 6.78753 39.4214 6.97746 39.2904 7.17339C39.1595 7.36931 39.0375 7.57024 38.9256 7.77816C38.8136 7.98509 38.7106 8.19701 38.6187 8.41393C38.5257 8.63085 38.4437 8.85176 38.3718 9.07568C38.2998 9.3006 38.2388 9.52751 38.1878 9.75843C38.1369 9.98834 38.0969 10.2203 38.0679 10.4542H35.9687C35.9297 10.3062 35.8827 10.1613 35.8277 10.0193C35.7717 9.87738 35.7078 9.73943 35.6358 9.60448C35.5638 9.47053 35.4828 9.34058 35.3949 9.21563C35.3069 9.09067 35.2119 8.97172 35.11 8.85876C35.008 8.7448 34.8991 8.63884 34.7841 8.53788C34.6692 8.43792 34.5482 8.34495 34.4222 8.25898C34.2953 8.17402 34.1643 8.09604 34.0284 8.02607C33.8934 7.9561 33.7535 7.89512 33.6105 7.84214C33.4676 7.78816 33.3217 7.74417 33.1727 7.70919C33.0248 7.6732 32.8748 7.64721 32.7229 7.62922C32.5709 7.61222 32.419 7.60423 32.267 7.60423C32.1141 7.60523 31.9622 7.61522 31.8102 7.63522C31.6593 7.65421 31.5093 7.6822 31.3614 7.71918C31.2134 7.75717 31.0685 7.80315 30.9255 7.85813C30.7836 7.91211 30.6447 7.97609 30.5097 8.04706C30.3748 8.11904 30.2448 8.19801 30.1198 8.28497C29.9939 8.37194 29.8749 8.46691 29.761 8.56787C29.647 8.66983 29.5391 8.77779 29.4381 8.89275C29.3371 9.00671 29.2442 9.12666 29.1572 9.25261C29.0712 9.37857 28.9923 9.50952 28.9213 9.64447C28.8513 9.77942 28.7883 9.91937 28.7344 10.0613C28.6804 10.2043 28.6354 10.3502 28.5994 10.4982C28.5624 10.6461 28.5354 10.796 28.5174 10.948C28.4985 11.0999 28.4895 11.2519 28.4895 11.4038C28.4895 11.5568 28.4985 11.7087 28.5174 11.8606C28.5354 12.0116 28.5624 12.1615 28.5994 12.3105C28.6354 12.4584 28.6804 12.6044 28.7344 12.7463C28.7883 12.8893 28.8513 13.0282 28.9213 13.1642C28.9923 13.2991 29.0712 13.4301 29.1572 13.555C29.2442 13.681 29.3371 13.8019 29.4381 13.9159C29.5391 14.0308 29.647 14.1388 29.761 14.2398C29.8749 14.3417 29.9939 14.4357 30.1198 14.5237C30.2448 14.6106 30.3748 14.6896 30.5097 14.7616C30.6447 14.8325 30.7836 14.8955 30.9255 14.9505C31.0685 15.0055 31.2134 15.0515 31.3614 15.0884C31.5093 15.1264 31.6593 15.1544 31.8102 15.1734C31.9622 15.1924 32.1141 15.2024 32.267 15.2034C32.419 15.2044 32.5709 15.1964 32.7229 15.1794C32.8748 15.1614 33.0248 15.1354 33.1727 15.0994C33.3217 15.0645 33.4676 15.0195 33.6105 14.9665C33.7535 14.9135 33.8934 14.8525 34.0284 14.7826C34.1643 14.7126 34.2953 14.6346 34.4222 14.5486C34.5482 14.4637 34.6692 14.3707 34.7841 14.2697C34.8991 14.1698 35.008 14.0628 35.11 13.9499C35.2119 13.8369 35.3069 13.718 35.3949 13.593C35.4828 13.468 35.5638 13.3381 35.6358 13.2041C35.7078 13.0692 35.7717 12.9312 35.8277 12.7893C35.8827 12.6474 35.9297 12.5014 35.9687 12.3545H38.0679C38.1519 13.0292 38.3248 13.682 38.5857 14.3107C38.8476 14.9395 39.1875 15.5223 39.6063 16.0591L36.5285 19.1359C36.2526 18.898 35.9667 18.6731 35.6698 18.4602C35.3739 18.2473 35.069 18.0483 34.7551 17.8634C34.4412 17.6775 34.1194 17.5065 33.7905 17.3496C33.4606 17.1927 33.1257 17.0507 32.7839 16.9238C32.442 16.7968 32.0951 16.6848 31.7432 16.5889C31.3914 16.4929 31.0355 16.412 30.6766 16.348C30.3178 16.283 29.9569 16.235 29.594 16.202C29.2302 16.17 28.8663 16.154 28.5024 16.154C28.1376 16.154 27.7737 16.17 27.4099 16.202C27.047 16.235 26.6861 16.283 26.3273 16.348C25.9684 16.412 25.6125 16.4929 25.2607 16.5889C24.9088 16.6848 24.5619 16.7968 24.22 16.9238C23.8782 17.0507 23.5433 17.1927 23.2144 17.3496C22.8845 17.5065 22.5637 17.6775 22.2488 17.8634C21.9349 18.0483 21.63 18.2473 21.3341 18.4602C21.0372 18.6731 20.7513 18.898 20.4754 19.1359L16.8558 15.5083C16.9827 15.3523 17.1047 15.1934 17.2216 15.0295C17.3386 14.8665 17.4506 14.7006 17.5565 14.5297C17.6625 14.3597 17.7634 14.1858 17.8584 14.0098C17.9544 13.8329 18.0433 13.654 18.1273 13.471C18.2113 13.2891 18.2892 13.1042 18.3612 12.9173C18.4342 12.7293 18.5002 12.5404 18.5602 12.3495C18.6201 12.1575 18.6741 11.9646 18.7221 11.7697C18.7701 11.5747 18.8121 11.3788 18.848 11.1809C18.883 10.984 18.913 10.785 18.936 10.5861C18.958 10.3862 18.975 10.1863 18.985 9.98634C18.996 9.78542 19 9.58549 18.997 9.38457C18.995 9.18364 18.986 8.98371 18.971 8.78379C18.956 8.58286 18.934 8.38394 18.906 8.18501C18.879 7.98608 18.845 7.78916 18.8041 7.59223C18.7641 7.3953 18.7181 7.20038 18.6651 7.00645C18.6121 6.81352 18.5532 6.62159 18.4892 6.43166C18.4242 6.24173 18.3532 6.0538 18.2763 5.86887C18.2003 5.68294 18.1173 5.50001 18.0293 5.32008C17.9404 5.14014 17.8464 4.96221 17.7475 4.78827C17.6475 4.61434 17.5425 4.4434 17.4326 4.27547C17.3226 4.10753 17.2067 3.94359 17.0857 3.78365C16.9647 3.62371 16.8398 3.46677 16.7088 3.31482C16.5779 3.16288 16.4429 3.01493 16.303 2.87099C16.163 2.72704 16.0181 2.58809 15.8692 2.45314C15.7202 2.31919 15.5673 2.18924 15.4103 2.06429C15.2534 1.93933 15.0924 1.81938 14.9285 1.70442C14.7636 1.59046 14.5956 1.48051 14.4237 1.37654C14.2518 1.27258 14.0778 1.17362 13.8999 1.08065C13.722 0.987689 13.541 0.900721 13.3581 0.819751C13.1742 0.737782 12.9882 0.66181 12.8003 0.592836C12.6124 0.522862 12.4224 0.458885 12.2295 0.400907C12.0376 0.343928 11.8436 0.291948 11.6487 0.246964C11.4528 0.200981 11.2559 0.161996 11.0579 0.129008C10.86 0.0960205 10.6611 0.0700301 10.4622 0.049038C10.2622 0.0290454 10.0623 0.0150507 9.86139 0.00705369C9.66146 -0.000943332 9.46054 -0.00194314 9.25961 0.00305494C9.05968 0.00805327 8.85876 0.0200488 8.65883 0.0370424C8.45891 0.0550358 8.25998 0.0790269 8.06206 0.110015C7.86313 0.140004 7.6662 0.17699 7.47028 0.218975C7.27435 0.261959 7.07942 0.310941 6.88649 0.36692C6.69357 0.421899 6.50264 0.482876 6.31371 0.549852C6.12478 0.617826 5.93785 0.690799 5.75391 0.76977C5.56898 0.84874 5.38705 0.933709 5.20812 1.02467C5.02918 1.11464 4.85325 1.21161 4.68031 1.31257C4.50738 1.41453 4.33844 1.52149 4.1715 1.63445C4.00557 1.74741 3.84363 1.86436 3.68468 1.98732C3.52574 2.11027 3.3708 2.23822 3.22086 2.37117C3.06991 2.50312 2.92397 2.64107 2.78202 2.78202C2.64007 2.92397 2.50312 3.07091 2.37017 3.22086C2.23722 3.3718 2.11027 3.52674 1.98732 3.68469C1.86436 3.84363 1.74641 4.00657 1.63445 4.1725C1.52149 4.33844 1.41453 4.50838 1.31257 4.68131C1.21061 4.85425 1.11464 5.03018 1.02368 5.20912C0.932709 5.38805 0.84874 5.56998 0.76877 5.75392C0.6898 5.93885 0.616826 6.12578 0.549852 6.31471C0.481877 6.50364 0.4209 6.69457 0.36592 6.88749C0.31094 7.08042 0.261959 7.27435 0.218975 7.47128C0.175991 7.6672 0.139004 7.86413 0.109016 8.06206C0.0790266 8.26098 0.0550356 8.45991 0.0370424 8.65983C0.0190489 8.85976 0.0080531 9.05969 0.00305502 9.26061C-0.00194305 9.46154 -0.000943489 9.66146 0.00705353 9.86239C0.014051 10.0623 0.0280458 10.2632 0.0490379 10.4622C0.0690307 10.6621 0.0960205 10.861 0.129008 11.0589C0.161996 11.2569 0.200981 11.4538 0.245965 11.6487C0.291947 11.8447 0.342929 12.0386 0.400907 12.2305C0.458886 12.4224 0.521862 12.6124 0.591836 12.8013C0.66181 12.9892 0.737782 13.1752 0.818751 13.3581C0.900721 13.542 0.987689 13.722 1.08065 13.8999C1.17362 14.0778 1.27158 14.2528 1.37654 14.4237C1.48051 14.5956 1.58946 14.7636 1.70442 14.9285C1.81938 15.0934 1.93833 15.2544 2.06329 15.4113C2.18824 15.5683 2.31819 15.7212 2.45314 15.8702C2.58709 16.0191 2.72604 16.163 2.86999 16.303C3.01393 16.4429 3.16188 16.5789 3.31482 16.7098C3.46677 16.8398 3.62271 16.9657 3.78365 17.0867C3.94359 17.2077 4.10753 17.3226 4.27547 17.4336C4.4424 17.5435 4.61334 17.6485 4.78827 17.7475C4.96221 17.8474 5.13914 17.9414 5.31908 18.0293C5.50001 18.1183 5.68294 18.2003 5.86787 18.2773C6.0538 18.3542 6.24073 18.4242 6.43066 18.4892C6.62059 18.5542 6.81252 18.6131 7.00645 18.6651C7.20038 18.7181 7.3953 18.7651 7.59123 18.8051C7.78816 18.845 7.98608 18.879 8.18501 18.907C8.38294 18.935 8.58286 18.956 8.78279 18.971C8.98271 18.986 9.18364 18.995 9.38356 18.998C9.58449 19 9.78541 18.996 9.98534 18.986C10.1863 18.976 10.3862 18.959 10.5851 18.936C10.785 18.913 10.983 18.884 11.1809 18.848C11.3778 18.8131 11.5737 18.7711 11.7687 18.7231C11.9636 18.6751 12.1575 18.6211 12.3485 18.5612C12.5404 18.5002 12.7293 18.4342 12.9163 18.3622C13.1042 18.2903 13.2881 18.2123 13.471 18.1283C13.653 18.0443 13.8329 17.9544 14.0088 17.8594C14.1858 17.7644 14.3587 17.6635 14.5296 17.5565C14.6996 17.4506 14.8665 17.3396 15.0295 17.2226C15.1924 17.1057 15.3513 16.9837 15.5073 16.8568L19.1359 20.4754C18.898 20.7523 18.6721 21.0382 18.4602 21.3341C18.2473 21.631 18.0483 21.9359 17.8624 22.2498C17.6765 22.5637 17.5055 22.8855 17.3486 23.2144C17.1917 23.5433 17.0497 23.8792 16.9228 24.221C16.7958 24.5629 16.6848 24.9098 16.5879 25.2617C16.4919 25.6135 16.4119 25.9684 16.347 26.3273C16.283 26.6861 16.234 27.047 16.202 27.4109C16.169 27.7737 16.153 28.1376 16.153 28.5025C16.153 28.8673 16.169 29.2312 16.202 29.594C16.234 29.9579 16.283 30.3188 16.347 30.6776C16.4119 31.0365 16.4919 31.3914 16.5879 31.7432C16.6848 32.0951 16.7958 32.442 16.9228 32.7839C17.0497 33.1257 17.1917 33.4616 17.3486 33.7905C17.5055 34.1194 17.6765 34.4412 17.8624 34.7551C18.0483 35.069 18.2473 35.3739 18.4602 35.6708C18.6721 35.9667 18.898 36.2526 19.1359 36.5295L16.0581 39.6073C15.5213 39.1875 14.9385 38.8476 14.3097 38.5867C13.681 38.3258 13.0292 38.1529 12.3535 38.0679V35.9687C12.5014 35.9307 12.6463 35.8837 12.7883 35.8277C12.9302 35.7727 13.0692 35.7088 13.2031 35.6358C13.3381 35.5638 13.467 35.4839 13.592 35.3959C13.717 35.3079 13.8359 35.213 13.9489 35.111C14.0628 35.008 14.1698 34.9001 14.2697 34.7841C14.3697 34.6692 14.4627 34.5482 14.5486 34.4222C14.6336 34.2963 14.7116 34.1653 14.7816 34.0294C14.8515 33.8934 14.9135 33.7545 14.9665 33.6105C15.0195 33.4676 15.0635 33.3217 15.0994 33.1737C15.1344 33.0248 15.1614 32.8748 15.1784 32.7239C15.1954 32.5719 15.2044 32.42 15.2034 32.2671C15.2024 32.1141 15.1924 31.9622 15.1734 31.8112C15.1534 31.6593 15.1254 31.5103 15.0884 31.3614C15.0515 31.2134 15.0045 31.0685 14.9505 30.9265C14.8955 30.7836 14.8325 30.6447 14.7606 30.5097C14.6896 30.3758 14.6096 30.2448 14.5227 30.1199C14.4357 29.9949 14.3407 29.8749 14.2398 29.761C14.1378 29.647 14.0298 29.5401 13.9159 29.4391C13.8009 29.3381 13.681 29.2442 13.555 29.1582C13.4291 29.0712 13.2981 28.9933 13.1632 28.9223C13.0282 28.8513 12.8893 28.7893 12.7463 28.7354C12.6034 28.6814 12.4574 28.6364 12.3095 28.5994C12.1615 28.5634 12.0116 28.5364 11.8596 28.5174C11.7087 28.4995 11.5568 28.4905 11.4038 28.4905C11.2509 28.4905 11.0989 28.4995 10.947 28.5174C10.796 28.5364 10.6461 28.5634 10.4981 28.5994C10.3492 28.6364 10.2043 28.6814 10.0613 28.7354C9.91837 28.7893 9.77942 28.8513 9.64447 28.9223C9.50852 28.9933 9.37857 29.0712 9.25261 29.1582C9.12666 29.2442 9.00671 29.3381 8.89175 29.4391C8.77779 29.5401 8.66883 29.647 8.56787 29.761C8.46591 29.8749 8.37194 29.9949 8.28497 30.1199C8.19701 30.2448 8.11803 30.3758 8.04706 30.5097C7.97509 30.6447 7.91211 30.7836 7.85713 30.9265C7.80215 31.0685 7.75617 31.2134 7.71918 31.3614C7.6822 31.5103 7.65321 31.6593 7.63421 31.8112C7.61522 31.9622 7.60523 32.1141 7.60423 32.2671C7.60323 32.42 7.61122 32.5719 7.62922 32.7239C7.64621 32.8748 7.6732 33.0248 7.70819 33.1737C7.74417 33.3217 7.78816 33.4676 7.84114 33.6105C7.89412 33.7545 7.9561 33.8934 8.02607 34.0294C8.09504 34.1653 8.17301 34.2963 8.25898 34.4222C8.34495 34.5482 8.43792 34.6692 8.53788 34.7841C8.63784 34.9001 8.7448 35.008 8.85776 35.111C8.97172 35.213 9.09067 35.3079 9.21563 35.3959C9.33958 35.4839 9.46953 35.5638 9.60448 35.6358C9.73843 35.7088 9.87638 35.7727 10.0193 35.8277C10.1613 35.8837 10.3062 35.9307 10.4542 35.9687V38.0679C10.2203 38.0969 9.98734 38.1369 9.75743 38.1878C9.52751 38.2388 9.2996 38.3008 9.07568 38.3728C8.85076 38.4448 8.63085 38.5267 8.41393 38.6187C8.19701 38.7117 7.98508 38.8136 7.77716 38.9266C7.57024 39.0385 7.36831 39.1605 7.17239 39.2914C6.97646 39.4224 6.78753 39.5623 6.6036 39.7103C6.42067 39.8592 6.24573 40.0162 6.07679 40.1811C5.90886 40.346 5.74792 40.518 5.59597 40.6979C5.44403 40.8778 5.30008 41.0648 5.16513 41.2577C5.03018 41.4516 4.90423 41.6506 4.78827 41.8555C4.67132 42.0604 4.56536 42.2703 4.46839 42.4852C4.37143 42.7002 4.28446 42.9191 4.20749 43.142C4.13152 43.3649 4.06554 43.5908 4.00956 43.8208C3.95458 44.0497 3.9096 44.2806 3.87561 44.5135C3.84163 44.7474 3.81863 44.9813 3.80664 45.2172C3.79464 45.4521 3.79364 45.6881 3.80264 45.923C3.81264 46.1589 3.83363 46.3938 3.86462 46.6267C3.89661 46.8606 3.93859 47.0925 3.99257 47.3224C4.04555 47.5514 4.10953 47.7783 4.1835 48.0022C4.25747 48.2261 4.34244 48.446 4.43641 48.6619C4.53137 48.8779 4.63633 49.0888 4.75029 49.2947C4.86425 49.5006 4.9882 49.7016 5.12115 49.8955C5.2541 50.0904 5.39605 50.2784 5.54699 50.4603C5.69694 50.6412 5.85588 50.8152 6.02182 50.9821C6.18875 51.149 6.36269 51.307 6.54462 51.4579C6.72555 51.6089 6.91448 51.7498 7.10841 51.8828C7.30334 52.0157 7.50326 52.1397 7.71019 52.2546C7.91611 52.3686 8.12703 52.4725 8.34295 52.5675C8.55887 52.6625 8.77879 52.7464 9.00271 52.8214C9.22562 52.8954 9.45254 52.9594 9.68245 53.0123C9.91237 53.0653 10.1433 53.1073 10.3772 53.1393C10.6111 53.1713 10.846 53.1913 11.0809 53.2013C11.3168 53.2113 11.5518 53.2103 11.7877 53.1983C12.0226 53.1853 12.2575 53.1623 12.4904 53.1283C12.7243 53.0943 12.9552 53.0503 13.1841 52.9943C13.4131 52.9394 13.639 52.8734 13.8619 52.7964C14.0848 52.7204 14.3037 52.6335 14.5187 52.5365C14.7336 52.4395 14.9435 52.3326 15.1494 52.2166C15.3543 52.0997 15.5533 51.9747 15.7462 51.8398C15.9391 51.7048 16.1261 51.5609 16.306 51.4089C16.4859 51.256 16.6589 51.096 16.8238 50.9271C16.9887 50.7592 17.1457 50.5832 17.2936 50.4003C17.4426 50.2174 17.5825 50.0274 17.7135 49.8315C17.8444 49.6356 17.9664 49.4347 18.0783 49.2267C18.1903 49.0198 18.2932 48.8079 18.3852 48.591C18.4782 48.3741 18.5602 48.1531 18.6321 47.9292C18.7041 47.7043 18.7651 47.4774 18.8161 47.2465C18.867 47.0166 18.907 46.7846 18.936 46.5507H21.0352C21.0742 46.6987 21.1212 46.8436 21.1762 46.9856C21.2322 47.1275 21.2961 47.2665 21.3681 47.4004C21.4411 47.5354 21.521 47.6643 21.609 47.7893C21.697 47.9142 21.7919 48.0332 21.8939 48.1461C21.9959 48.2601 22.1048 48.3661 22.2198 48.467C22.3347 48.567 22.4557 48.66 22.5827 48.7459C22.7086 48.8309 22.8396 48.9089 22.9755 48.9788C23.1105 49.0488 23.2504 49.1098 23.3934 49.1638C23.5363 49.2167 23.6822 49.2607 23.8312 49.2957C23.9791 49.3317 24.1291 49.3577 24.281 49.3757C24.433 49.3927 24.5849 49.4017 24.7379 49.4007C24.8898 49.3997 25.0417 49.3897 25.1937 49.3697C25.3446 49.3507 25.4946 49.3227 25.6425 49.2857C25.7905 49.2477 25.9354 49.2018 26.0784 49.1478C26.2213 49.0928 26.3592 49.0298 26.4942 48.9578C26.6291 48.8869 26.7591 48.8069 26.8851 48.7199C27.01 48.633 27.13 48.538 27.2439 48.437C27.3569 48.3351 27.4648 48.2271 27.5658 48.1122C27.6668 47.9982 27.7607 47.8782 27.8467 47.7523C27.9327 47.6263 28.0116 47.4954 28.0826 47.3604C28.1526 47.2255 28.2156 47.0865 28.2695 46.9436C28.3235 46.8006 28.3685 46.6547 28.4045 46.5068C28.4415 46.3588 28.4685 46.2089 28.4865 46.0569C28.5054 45.906 28.5144 45.753 28.5144 45.6011C28.5144 45.4481 28.5054 45.2962 28.4865 45.1443C28.4685 44.9933 28.4415 44.8434 28.4045 44.6944C28.3685 44.5465 28.3235 44.4015 28.2695 44.2586C28.2156 44.1156 28.1526 43.9767 28.0826 43.8407C28.0116 43.7058 27.9327 43.5758 27.8467 43.4499C27.7607 43.3239 27.6668 43.204 27.5658 43.089C27.4648 42.9741 27.3569 42.8661 27.2439 42.7651C27.13 42.6632 27.01 42.5692 26.8851 42.4813C26.7591 42.3943 26.6291 42.3153 26.4942 42.2433C26.3592 42.1724 26.2213 42.1094 26.0784 42.0544C25.9354 41.9994 25.7905 41.9534 25.6425 41.9165C25.4946 41.8785 25.3446 41.8505 25.1937 41.8315C25.0417 41.8125 24.8898 41.8025 24.7379 41.8015C24.5849 41.8005 24.433 41.8085 24.281 41.8265C24.1291 41.8435 23.9791 41.8695 23.8312 41.9055C23.6822 41.9405 23.5363 41.9854 23.3934 42.0384C23.2504 42.0914 23.1105 42.1524 22.9755 42.2223C22.8396 42.2923 22.7086 42.3703 22.5827 42.4563C22.4557 42.5412 22.3347 42.6342 22.2198 42.7352C22.1048 42.8351 21.9959 42.9421 21.8939 43.055C21.7919 43.168 21.697 43.2879 21.609 43.4119C21.521 43.5369 21.4411 43.6668 21.3681 43.8008C21.2961 43.9357 21.2322 44.0737 21.1762 44.2156C21.1212 44.3586 21.0742 44.5035 21.0352 44.6504H18.936C18.852 43.9757 18.6791 43.3229 18.4182 42.6942C18.1563 42.0654 17.8164 41.4826 17.3976 40.9458L20.4754 37.869C20.7513 38.1069 21.0372 38.3318 21.3341 38.5447C21.63 38.7576 21.9349 38.9566 22.2488 39.1425C22.5637 39.3274 22.8845 39.4984 23.2144 39.6553C23.5433 39.8122 23.8782 39.9542 24.22 40.0811C24.5619 40.2081 24.9088 40.3201 25.2607 40.416C25.6125 40.512 25.9684 40.593 26.3273 40.6569C26.6861 40.7219 27.047 40.7699 27.4099 40.8029C27.7737 40.8349 28.1376 40.8509 28.5024 40.8509C28.8663 40.8509 29.2302 40.8349 29.594 40.8029C29.9569 40.7699 30.3178 40.7219 30.6766 40.6569C31.0355 40.593 31.3914 40.512 31.7432 40.416C32.0951 40.3201 32.442 40.2081 32.7839 40.0811C33.1257 39.9542 33.4606 39.8122 33.7905 39.6553C34.1194 39.4984 34.4412 39.3274 34.7551 39.1425C35.069 38.9566 35.3739 38.7576 35.6698 38.5447C35.9667 38.3318 36.2526 38.1069 36.5285 37.869L40.1481 41.4976C40.0352 41.6356 39.9262 41.7765 39.8222 41.9205C39.7173 42.0644 39.6173 42.2113 39.5203 42.3613C39.4244 42.5112 39.3324 42.6632 39.2444 42.8181C39.1565 42.9731 39.0735 43.13 38.9945 43.2899C38.9156 43.4499 38.8406 43.6118 38.7716 43.7748C38.7017 43.9387 38.6367 44.1046 38.5757 44.2716C38.5147 44.4395 38.4597 44.6085 38.4088 44.7794C38.3578 44.9493 38.3108 45.1213 38.2698 45.2952C38.2288 45.4681 38.1918 45.6421 38.1609 45.818C38.1289 45.9929 38.1019 46.1689 38.0809 46.3458C38.0589 46.5227 38.0419 46.6997 38.0309 46.8776C38.0189 47.0546 38.0119 47.2325 38.0109 47.4104C38.0089 47.5893 38.0119 47.7673 38.0209 47.9452C38.0289 48.1231 38.0419 48.3001 38.0609 48.477C38.0789 48.654 38.1019 48.8309 38.1309 49.0068C38.1589 49.1828 38.1918 49.3577 38.2298 49.5316C38.2678 49.7056 38.3108 49.8785 38.3588 50.0494C38.4068 50.2214 38.4587 50.3913 38.5167 50.5602C38.5737 50.7282 38.6357 50.8951 38.7027 51.0601C38.7696 51.225 38.8406 51.3889 38.9166 51.5499C38.9925 51.7108 39.0725 51.8698 39.1575 52.0257C39.2425 52.1826 39.3314 52.3366 39.4254 52.4885C39.5183 52.6395 39.6163 52.7884 39.7183 52.9344C39.8202 53.0803 39.9262 53.2243 40.0362 53.3642C40.1461 53.5042 40.2591 53.6411 40.377 53.775C40.495 53.908 40.6159 54.039 40.7409 54.1659C40.8658 54.2919 40.9938 54.4158 41.1257 54.5358C41.2577 54.6547 41.3927 54.7707 41.5316 54.8826C41.6695 54.9946 41.8115 55.1026 41.9554 55.2075C42.1004 55.3115 42.2473 55.4114 42.3973 55.5074C42.5472 55.6024 42.7002 55.6943 42.8551 55.7813C43.011 55.8693 43.168 55.9512 43.3279 56.0302C43.4879 56.1082 43.6498 56.1822 43.8137 56.2511C43.9787 56.3211 44.1436 56.3851 44.3116 56.4451C44.4795 56.505 44.6484 56.56 44.8194 56.611C44.9903 56.661 45.1622 56.707 45.3352 56.7479C45.5091 56.7879 45.6831 56.8239 45.859 56.8549C46.0339 56.8859 46.2099 56.9119 46.3868 56.9329C46.5637 56.9539 46.7407 56.9699 46.9186 56.9809C47.0965 56.9929 47.2745 56.9988 47.4524 56.9998C47.6303 57.0008 47.8083 56.9968 47.9862 56.9879C48.1641 56.9789 48.3421 56.9649 48.519 56.9459C48.6959 56.9269 48.8719 56.9029 49.0478 56.8739C49.2237 56.8449 49.3987 56.8119 49.5726 56.7729C49.7465 56.7339 49.9185 56.691 50.0904 56.642C50.2613 56.594 50.4313 56.541 50.5992 56.483C50.7682 56.4251 50.9351 56.3621 51.1 56.2951C51.264 56.2281 51.4269 56.1562 51.5879 56.0792C51.7488 56.0032 51.9077 55.9222 52.0637 55.8363C52.2196 55.7513 52.3736 55.6613 52.5245 55.5674C52.6765 55.4734 52.8244 55.3755 52.9703 55.2725C53.1163 55.1705 53.2592 55.0646 53.3982 54.9536C53.5381 54.8437 53.6751 54.7287 53.808 54.6107C53.941 54.4928 54.0709 54.3708 54.1979 54.2459C54.3238 54.1209 54.4468 53.992 54.5657 53.859C54.6857 53.7271 54.8007 53.5911 54.9126 53.4532C55.0236 53.3142 55.1315 53.1723 55.2355 53.0273C55.3385 52.8824 55.4384 52.7344 55.5334 52.5845C55.6284 52.4345 55.7193 52.2806 55.8063 52.1257C55.8933 51.9697 55.9752 51.8118 56.0532 51.6518C56.1312 51.4919 56.2041 51.33 56.2731 51.165C56.3421 51.0011 56.4061 50.8351 56.465 50.6672C56.524 50.4993 56.579 50.3293 56.629 50.1584C56.679 49.9875 56.7239 49.8155 56.7639 49.6426C56.8039 49.4687 56.8389 49.2937 56.8699 49.1188C56.8999 48.9428 56.9249 48.7669 56.9459 48.59C56.9659 48.413 56.9818 48.2361 56.9918 48.0582C57.0028 47.8802 57.0078 47.7023 57.0078 47.5244C57.0088 47.3464 57.0038 47.1685 56.9948 46.9906C56.9848 46.8126 56.9709 46.6357 56.9509 46.4588C56.9319 46.2818 56.9069 46.1049 56.8779 45.929C56.8479 45.754 56.8139 45.5791 56.7739 45.4052C56.7349 45.2322 56.691 45.0593 56.642 44.8884C56.593 44.7174 56.539 44.5475 56.481 44.3785C56.4221 44.2106 56.3591 44.0447 56.2911 43.8797C56.2231 43.7148 56.1512 43.5529 56.0742 43.3919C55.9972 43.232 55.9152 43.073 55.8293 42.9171C55.7433 42.7611 55.6533 42.6082 55.5584 42.4573C55.4644 42.3063 55.3655 42.1584 55.2625 42.0124C55.1595 41.8675 55.0526 41.7245 54.9416 41.5856C54.8307 41.4466 54.7167 41.3097 54.5977 41.1777C54.4788 41.0448 54.3568 40.9148 54.2309 40.7889C54.1059 40.6629 53.976 40.541 53.843 40.422C53.7111 40.3031 53.5751 40.1881 53.4362 40.0771C53.2962 39.9662 53.1543 39.8592 53.0093 39.7553C52.8644 39.6523 52.7164 39.5533 52.5655 39.4594C52.4145 39.3644 52.2616 39.2734 52.1057 39.1875C51.9497 39.1015 51.7918 39.0195 51.6308 38.9426C51.4709 38.8646 51.308 38.7926 51.144 38.7246C50.9791 38.6557 50.8131 38.5927 50.6442 38.5337C50.4763 38.4747 50.3073 38.4208 50.1354 38.3718C49.9645 38.3228 49.7925 38.2778 49.6186 38.2388C49.4447 38.1988 49.2707 38.1649 49.0948 38.1349C48.9188 38.1049 48.7429 38.0799 48.566 38.0609C48.389 38.0409 48.2121 38.0259 48.0342 38.0159C47.8562 38.0059 47.6783 38.0009 47.5004 38.0019ZM14.2538 15.4313V14.2538C14.2538 13.623 14.1318 13.0162 13.8899 12.4334C13.648 11.8506 13.3041 11.3368 12.8573 10.891C12.6424 10.6771 12.4084 10.4872 12.1545 10.3212C12.3335 10.1463 12.4944 9.95535 12.6364 9.74843C12.7783 9.54151 12.8993 9.32259 12.9972 9.09167C13.0962 8.86176 13.1712 8.62285 13.2231 8.37794C13.2741 8.13203 13.3011 7.88412 13.3031 7.63322C13.3051 7.38231 13.2831 7.1334 13.2361 6.88649C13.1891 6.64059 13.1182 6.40067 13.0242 6.16776C12.9292 5.93585 12.8133 5.71493 12.6753 5.50501C12.5364 5.29609 12.3794 5.10216 12.2025 4.92422C12.0256 4.74529 11.8337 4.58635 11.6257 4.4464C11.4168 4.30645 11.1979 4.1875 10.966 4.09153C10.7341 3.99457 10.4952 3.9216 10.2492 3.87262C10.0033 3.82363 9.75443 3.79864 9.50352 3.79864C9.25261 3.79864 9.00471 3.82363 8.7588 3.87262C8.51189 3.9216 8.27398 3.99457 8.04206 4.09153C7.81015 4.1875 7.59023 4.30645 7.38231 4.4464C7.17439 4.58635 6.98146 4.74529 6.80552 4.92422C6.62859 5.10216 6.47065 5.29609 6.3327 5.50501C6.19475 5.71493 6.07779 5.93585 5.98383 6.16776C5.88886 6.40067 5.81889 6.64059 5.77191 6.88649C5.72493 7.1334 5.70193 7.38231 5.70393 7.63322C5.70693 7.88412 5.73392 8.13203 5.7849 8.37794C5.83588 8.62285 5.91186 8.86176 6.00982 9.09167C6.10878 9.32259 6.22874 9.54151 6.37069 9.74843C6.51263 9.95535 6.67357 10.1463 6.85351 10.3212C6.53163 10.5381 6.23973 10.791 5.97883 11.0789C5.71893 11.3678 5.49701 11.6827 5.31408 12.0256C5.13115 12.3685 4.9922 12.7283 4.89723 13.1052C4.80227 13.482 4.75529 13.8649 4.75429 14.2538V15.4313C4.55136 15.2694 4.35643 15.0964 4.1705 14.9135C3.98557 14.7306 3.80964 14.5386 3.6437 14.3377C3.47776 14.1368 3.32282 13.9279 3.17787 13.711C3.03393 13.494 2.90098 13.2701 2.78002 13.0392C2.65807 12.8093 2.54911 12.5734 2.45214 12.3315C2.35518 12.0896 2.27021 11.8437 2.19824 11.5927C2.12726 11.3418 2.06829 11.0889 2.0223 10.832C1.97632 10.5761 1.94433 10.3172 1.92534 10.0573C1.90635 9.79841 1.90035 9.53751 1.90835 9.27761C1.91534 9.0167 1.93634 8.7578 1.97032 8.49889C2.00531 8.24099 2.05229 7.98509 2.11327 7.73218C2.17325 7.47827 2.24722 7.22837 2.33319 6.98246C2.42016 6.73655 2.51812 6.49664 2.62908 6.26073C2.74104 6.02481 2.86299 5.7959 2.99794 5.57198C3.13289 5.34907 3.27884 5.13415 3.43578 4.92522C3.59172 4.7173 3.75966 4.51838 3.93659 4.32745C4.11353 4.13652 4.30046 3.95459 4.49638 3.78365C4.69231 3.61171 4.89723 3.45077 5.10915 3.29983C5.32208 3.14888 5.54199 3.00994 5.76891 2.88198C5.99582 2.75403 6.22874 2.63807 6.46765 2.53311C6.70656 2.42915 6.94947 2.33819 7.19838 2.25822C7.44628 2.17925 7.69819 2.11327 7.9531 2.06029C8.208 2.00731 8.46491 1.96732 8.72381 1.94033C8.98371 1.91334 9.24362 1.90035 9.50352 1.90035C9.76442 1.90035 10.0243 1.91334 10.2832 1.94033C10.5431 1.96732 10.8 2.00731 11.0549 2.06029C11.3098 2.11327 11.5618 2.17925 11.8097 2.25822C12.0586 2.33819 12.3015 2.42915 12.5404 2.53311C12.7793 2.63807 13.0122 2.75403 13.2391 2.88198C13.466 3.00994 13.686 3.14888 13.8979 3.29983C14.1108 3.45077 14.3147 3.61171 14.5117 3.78365C14.7076 3.95459 14.8935 4.13652 15.0714 4.32745C15.2484 4.51838 15.4153 4.7173 15.5723 4.92522C15.7292 5.13415 15.8751 5.34907 16.0101 5.57198C16.144 5.7959 16.267 6.02481 16.378 6.26073C16.4889 6.49664 16.5879 6.73655 16.6739 6.98246C16.7608 7.22837 16.8338 7.47827 16.8948 7.73218C16.9547 7.98509 17.0027 8.24099 17.0367 8.49889C17.0717 8.7578 17.0927 9.0167 17.0997 9.27761C17.1077 9.53751 17.1017 9.79841 17.0827 10.0573C17.0637 10.3172 17.0307 10.5761 16.9857 10.832C16.9398 11.0889 16.8808 11.3418 16.8088 11.5927C16.7378 11.8437 16.6529 12.0896 16.5559 12.3315C16.4589 12.5734 16.35 12.8093 16.228 13.0392C16.1071 13.2701 15.9741 13.494 15.8292 13.711C15.6852 13.9279 15.5303 14.1368 15.3643 14.3377C15.1984 14.5386 15.0225 14.7306 14.8365 14.9135C14.6516 15.0964 14.4567 15.2694 14.2538 15.4313ZM35.151 36.5575V34.2023C35.157 33.7675 35.119 33.3367 35.039 32.9098C34.958 32.482 34.8361 32.0671 34.6731 31.6643C34.5102 31.2614 34.3093 30.8786 34.0694 30.5157C33.8305 30.1538 33.5576 29.818 33.2517 29.5091C32.7729 29.0183 32.2281 28.6154 31.6173 28.3025C31.7412 28.1996 31.8582 28.0896 31.9702 27.9736C32.0821 27.8577 32.1881 27.7357 32.288 27.6098C32.387 27.4828 32.48 27.3519 32.5659 27.2149C32.6529 27.079 32.7319 26.939 32.8038 26.7951C32.8758 26.6511 32.9398 26.5032 32.9968 26.3523C33.0538 26.2013 33.1027 26.0484 33.1447 25.8924C33.1857 25.7375 33.2197 25.5795 33.2447 25.4206C33.2697 25.2617 33.2877 25.1017 33.2967 24.9408C33.3057 24.7798 33.3057 24.6189 33.2987 24.458C33.2917 24.297 33.2757 24.1371 33.2527 23.9771C33.2287 23.8182 33.1967 23.6603 33.1577 23.5043C33.1177 23.3474 33.0707 23.1944 33.0148 23.0425C32.9598 22.8915 32.8968 22.7436 32.8268 22.5986C32.7559 22.4537 32.6779 22.3128 32.5939 22.1748C32.509 22.0379 32.417 21.9059 32.319 21.778C32.2211 21.65 32.1161 21.528 32.0061 21.4111C31.8952 21.2941 31.7782 21.1822 31.6563 21.0772C31.5343 20.9723 31.4074 20.8733 31.2754 20.7813C31.1435 20.6884 31.0075 20.6034 30.8666 20.5244C30.7256 20.4464 30.5817 20.3755 30.4337 20.3115C30.2858 20.2475 30.1348 20.1915 29.9809 20.1436C29.827 20.0946 29.671 20.0546 29.5131 20.0216C29.3561 19.9896 29.1962 19.9646 29.0363 19.9486C28.8763 19.9326 28.7154 19.9236 28.5544 19.9236C28.3935 19.9236 28.2325 19.9326 28.0716 19.9486C27.9117 19.9646 27.7527 19.9896 27.5948 20.0216C27.4368 20.0546 27.2809 20.0946 27.128 20.1436C26.974 20.1915 26.8231 20.2475 26.6751 20.3115C26.5272 20.3755 26.3832 20.4464 26.2423 20.5244C26.1013 20.6034 25.9644 20.6884 25.8324 20.7813C25.7005 20.8733 25.5735 20.9723 25.4516 21.0772C25.3296 21.1822 25.2137 21.2941 25.1027 21.4111C24.9918 21.528 24.8878 21.65 24.7888 21.778C24.6909 21.9059 24.5999 22.0379 24.5149 22.1748C24.43 22.3128 24.352 22.4537 24.282 22.5986C24.212 22.7436 24.1491 22.8915 24.0931 23.0425C24.0381 23.1944 23.9911 23.3474 23.9511 23.5043C23.9112 23.6603 23.8792 23.8182 23.8562 23.9771C23.8322 24.1371 23.8172 24.297 23.8092 24.458C23.8022 24.6189 23.8032 24.7798 23.8122 24.9408C23.8212 25.1017 23.8382 25.2617 23.8642 25.4206C23.8892 25.5795 23.9222 25.7375 23.9641 25.8924C24.0051 26.0484 24.0541 26.2013 24.1111 26.3523C24.1681 26.5032 24.233 26.6511 24.305 26.7951C24.377 26.939 24.456 27.079 24.5419 27.2149C24.6279 27.3519 24.7209 27.4828 24.8208 27.6098C24.9208 27.7357 25.0257 27.8577 25.1377 27.9736C25.2497 28.0896 25.3676 28.1996 25.4906 28.3025C25.2197 28.4405 24.9588 28.5964 24.7089 28.7704C24.459 28.9433 24.222 29.1332 23.9981 29.3391C23.7742 29.5451 23.5663 29.766 23.3724 30.0009C23.1784 30.2348 23.0025 30.4817 22.8426 30.7406C22.6826 30.9995 22.5417 31.2684 22.4187 31.5473C22.2958 31.8252 22.1928 32.1111 22.1088 32.403C22.0249 32.6959 21.9619 32.9928 21.9189 33.2937C21.8759 33.5946 21.8539 33.8974 21.8529 34.2023V36.5575C21.578 36.3315 21.3151 36.0906 21.0652 35.8377C20.8153 35.5838 20.5784 35.3189 20.3555 35.041C20.1326 34.7631 19.9246 34.4752 19.7307 34.1763C19.5368 33.8774 19.3599 33.5686 19.1969 33.2517C19.035 32.9348 18.89 32.6099 18.7611 32.278C18.6321 31.9462 18.5202 31.6083 18.4262 31.2654C18.3322 30.9216 18.2553 30.5747 18.1963 30.2228C18.1373 29.8719 18.0973 29.5181 18.0743 29.1632C18.0513 28.8073 18.0473 28.4525 18.0603 28.0966C18.0743 27.7407 18.1063 27.3859 18.1563 27.034C18.2063 26.6811 18.2733 26.3313 18.3592 25.9864C18.4452 25.6405 18.5482 25.2996 18.6681 24.9648C18.7891 24.6299 18.926 24.301 19.08 23.9801C19.2339 23.6593 19.4038 23.3464 19.5898 23.0435C19.7757 22.7396 19.9766 22.4457 20.1925 22.1628C20.4085 21.8789 20.6384 21.608 20.8813 21.3481C21.1252 21.0882 21.3821 20.8423 21.651 20.6084C21.9199 20.3745 22.1998 20.1556 22.4907 19.9506C22.7826 19.7457 23.0835 19.5568 23.3934 19.3818C23.7042 19.2079 24.0231 19.05 24.35 18.909C24.6769 18.7671 25.0097 18.6431 25.3496 18.5352C25.6895 18.4282 26.0334 18.3382 26.3822 18.2663C26.7301 18.1933 27.082 18.1393 27.4368 18.1033C27.7907 18.0663 28.1456 18.0483 28.5024 18.0483C28.8583 18.0483 29.2132 18.0663 29.5681 18.1033C29.9219 18.1393 30.2738 18.1933 30.6217 18.2663C30.9705 18.3382 31.3154 18.4282 31.6543 18.5352C31.9942 18.6431 32.327 18.7671 32.6539 18.909C32.9808 19.05 33.2997 19.2079 33.6105 19.3818C33.9204 19.5568 34.2223 19.7457 34.5132 19.9506C34.8041 20.1556 35.085 20.3745 35.3529 20.6084C35.6218 20.8423 35.8787 21.0882 36.1226 21.3481C36.3655 21.608 36.5954 21.8789 36.8114 22.1628C37.0273 22.4457 37.2282 22.7396 37.4141 23.0435C37.6001 23.3464 37.77 23.6593 37.9239 23.9801C38.0779 24.301 38.2148 24.6299 38.3358 24.9648C38.4557 25.2996 38.5587 25.6405 38.6447 25.9864C38.7306 26.3313 38.7976 26.6811 38.8476 27.034C38.8976 27.3859 38.9296 27.7407 38.9436 28.0966C38.9566 28.4525 38.9526 28.8073 38.9296 29.1632C38.9066 29.5181 38.8666 29.8719 38.8076 30.2228C38.7486 30.5747 38.6717 30.9216 38.5777 31.2654C38.4837 31.6083 38.3718 31.9462 38.2428 32.278C38.1139 32.6099 37.9689 32.9348 37.807 33.2517C37.645 33.5686 37.4671 33.8774 37.2732 34.1763C37.0793 34.4752 36.8713 34.7631 36.6484 35.041C36.4255 35.3189 36.1886 35.5838 35.9387 35.8377C35.6888 36.0906 35.4259 36.3315 35.151 36.5575ZM52.2496 53.4282V52.2506C52.2496 51.6189 52.1287 51.0121 51.8867 50.4293C51.6448 49.8465 51.3 49.3327 50.8531 48.8879C50.6382 48.6729 50.4043 48.483 50.1504 48.3171C50.3303 48.1421 50.4913 47.9512 50.6332 47.7443C50.7752 47.5374 50.8951 47.3185 50.9941 47.0885C51.092 46.8576 51.168 46.6197 51.219 46.3738C51.27 46.1279 51.297 45.88 51.3 45.6291C51.302 45.3782 51.279 45.1293 51.232 44.8834C51.185 44.6364 51.115 44.3965 51.0201 44.1646C50.9261 43.9317 50.8091 43.7108 50.6712 43.5019C50.5332 43.292 50.3753 43.098 50.1994 42.9201C50.0224 42.7422 49.8295 42.5832 49.6216 42.4423C49.4137 42.3023 49.1937 42.1844 48.9618 42.0874C48.7299 41.9914 48.492 41.9185 48.2451 41.8695C47.9992 41.8195 47.7513 41.7955 47.5004 41.7955C47.2495 41.7955 47.0006 41.8195 46.7547 41.8695C46.5087 41.9185 46.2698 41.9914 46.0379 42.0874C45.807 42.1844 45.5871 42.3023 45.3782 42.4423C45.1702 42.5832 44.9783 42.7422 44.8014 42.9201C44.6244 43.098 44.4675 43.292 44.3286 43.5019C44.1906 43.7108 44.0747 43.9317 43.9797 44.1646C43.8857 44.3965 43.8148 44.6364 43.7678 44.8834C43.7208 45.1293 43.6988 45.3782 43.7008 45.6291C43.7028 45.88 43.7298 46.1279 43.7808 46.3738C43.8327 46.6197 43.9077 46.8576 44.0067 47.0885C44.1046 47.3185 44.2256 47.5374 44.3675 47.7443C44.5095 47.9512 44.6704 48.1421 44.8494 48.3171C44.5275 48.534 44.2356 48.7869 43.9757 49.0758C43.7148 49.3637 43.4929 49.6796 43.3099 50.0224C43.127 50.3653 42.9881 50.7252 42.8941 51.102C42.7991 51.4789 42.7511 51.8618 42.7501 52.2506V53.4282C42.5472 53.2652 42.3523 53.0923 42.1674 52.9094C41.9814 52.7264 41.8055 52.5345 41.6396 52.3336C41.4736 52.1327 41.3187 51.9237 41.1747 51.7068C41.0298 51.4899 40.8968 51.267 40.7759 51.0361C40.6539 50.8052 40.545 50.5692 40.448 50.3273C40.351 50.0854 40.2661 49.8395 40.1951 49.5886C40.1231 49.3387 40.0641 49.0848 40.0182 48.8289C39.9732 48.572 39.9402 48.3141 39.9212 48.0542C39.9022 47.7943 39.8962 47.5344 39.9042 47.2735C39.9122 47.0136 39.9322 46.7537 39.9672 46.4958C40.0012 46.2369 40.0491 45.9809 40.1091 45.728C40.1701 45.4741 40.2431 45.2252 40.33 44.9793C40.416 44.7334 40.515 44.4925 40.6259 44.2566C40.7369 44.0207 40.8598 43.7918 40.9948 43.5688C41.1287 43.3459 41.2747 43.13 41.4316 42.9221C41.5886 42.7142 41.7555 42.5142 41.9324 42.3233C42.1104 42.1324 42.2963 41.9514 42.4932 41.7795C42.6892 41.6076 42.8931 41.4466 43.106 41.2957C43.3179 41.1457 43.5379 41.0058 43.7648 40.8778C43.9917 40.7499 44.2246 40.6339 44.4635 40.53C44.7024 40.426 44.9463 40.334 45.1942 40.2551C45.4421 40.1761 45.694 40.1101 45.949 40.0562C46.2039 40.0032 46.4618 39.9632 46.7207 39.9372C46.9796 39.9102 47.2395 39.8962 47.5004 39.8962C47.7603 39.8962 48.0202 39.9102 48.2801 39.9372C48.539 39.9632 48.7959 40.0032 49.0508 40.0562C49.3057 40.1101 49.5576 40.1761 49.8065 40.2551C50.0544 40.334 50.2983 40.426 50.5362 40.53C50.7752 40.6339 51.0081 40.7499 51.235 40.8778C51.4619 41.0058 51.6818 41.1457 51.8947 41.2957C52.1067 41.4466 52.3116 41.6076 52.5075 41.7795C52.7034 41.9514 52.8904 42.1324 53.0673 42.3233C53.2442 42.5142 53.4122 42.7142 53.5691 42.9221C53.7251 43.13 53.871 43.3459 54.006 43.5688C54.1409 43.7918 54.2639 44.0207 54.3748 44.2566C54.4858 44.4925 54.5837 44.7334 54.6707 44.9793C54.7567 45.2252 54.8307 45.4741 54.8906 45.728C54.9516 45.9809 54.9986 46.2369 55.0336 46.4958C55.0676 46.7537 55.0886 47.0136 55.0965 47.2735C55.1035 47.5344 55.0975 47.7943 55.0786 48.0542C55.0596 48.3141 55.0276 48.572 54.9816 48.8289C54.9356 49.0848 54.8776 49.3387 54.8057 49.5886C54.7337 49.8395 54.6487 50.0854 54.5518 50.3273C54.4548 50.5692 54.3458 50.8052 54.2249 51.0361C54.1029 51.267 53.97 51.4899 53.826 51.7068C53.6811 51.9237 53.5261 52.1327 53.3602 52.3336C53.1943 52.5345 53.0183 52.7264 52.8334 52.9094C52.6475 53.0923 52.4525 53.2652 52.2496 53.4282Z" fill="#FDFDFD"/>
</svg>
