<svg width="58" height="65" viewBox="0 0 58 65" fill="none" xmlns="http://www.w3.org/2000/svg">
<mask id="mask0_340_2310" style="mask-type:luminance" maskUnits="userSpaceOnUse" x="0" y="0" width="58" height="65">
<path d="M0 0H57.8994V65H0V0Z" fill="white"/>
</mask>
<g mask="url(#mask0_340_2310)">
<path d="M28.8669 0C23.2756 0 18.7467 4.5256 18.7467 10.1114C18.7467 15.6973 23.2756 20.2218 28.8669 20.2218C34.4572 20.2218 38.9872 15.6973 38.9872 10.1114C38.9872 4.5256 34.4572 0 28.8669 0ZM18.7467 25.9996C14.0479 25.9996 10.8341 29.284 10.1622 30.1699C7.59267 33.5724 1.47727 43.5647 1.47727 43.5647C-0.561565 47.0576 -0.579217 49.7771 2.24514 52.5982L9.68226 60.0353C11.207 61.5644 13.686 61.5644 15.2173 60.0353C15.652 59.6006 15.9455 59.0865 16.1319 58.5448L16.5777 65H41.1551L41.5622 58.9519C41.7542 59.4197 42.0366 59.8544 42.4206 60.2383C43.9453 61.7619 46.4243 61.7619 47.9545 60.2383L55.4887 52.5982C58.312 49.7771 58.2955 47.0576 56.2566 43.5647C56.2566 43.5647 50.1401 33.5724 47.5706 30.1699C46.8987 29.284 43.6849 25.9996 38.9872 25.9996H37.4735L31.0415 41.4089L32.5717 41.934C33.0682 42.0973 33.323 42.6169 33.1476 43.0902L30.5781 49.9515C30.3972 50.4259 29.8555 50.6686 29.3579 50.5053L25.1622 49.0655C24.6646 48.9023 24.4053 48.3837 24.5808 47.9093L26.8623 41.827L20.2317 25.9996H18.7467ZM22.9711 25.9996L28.8669 40.0552L34.7396 25.9996H22.9711ZM14.4042 39.0004L15.855 55.385C15.6796 55.075 15.4766 54.7705 15.2173 54.5057L8.20278 47.4923L14.4042 39.0004ZM43.3297 39.0004L49.53 47.4923L42.4206 54.7087C42.2054 54.9173 42.0311 55.1489 41.8778 55.3917L43.3297 39.0004Z" fill="#FDFDFD"/>
</g>
</svg>
