<svg width="70" height="55" viewBox="0 0 70 55" fill="none" xmlns="http://www.w3.org/2000/svg">
<mask id="mask0_340_2389" style="mask-type:luminance" maskUnits="userSpaceOnUse" x="0" y="0" width="70" height="55">
<path d="M0 0H70V54.9072H0V0Z" fill="white"/>
</mask>
<g mask="url(#mask0_340_2389)">
<path d="M68.737 4.55799C68.0432 4.55799 67.4836 5.11879 67.4836 5.81266V52.3981H38.3149C42.0171 49.5621 50.2045 44.8345 63.8384 44.5351L65.0598 44.5101V0.308041L63.8895 0.232001C63.7112 0.218931 59.4292 -0.0424579 53.6085 1.45459C48.4996 2.76747 41.2341 5.74256 35 12.4401C28.7659 5.74256 21.5005 2.76747 16.3915 1.45459C10.5708 -0.0424579 6.2888 0.218931 6.11058 0.232001L4.94027 0.308041V44.5101L6.16167 44.5351C19.7955 44.8345 27.9829 49.5621 31.6851 52.3981H2.51054V5.81266C2.51054 5.11879 1.95093 4.55799 1.25706 4.55799C0.563191 4.55799 0.00952148 5.11879 0.00952148 5.81266V54.9086H69.9905V5.81266C69.9905 5.11879 69.4297 4.55799 68.737 4.55799ZM33.7465 50.8048C30.0954 47.8298 21.7488 42.6554 7.4401 42.0697V2.71638C11.3217 2.78648 24.0763 3.876 33.7465 14.7783V50.8048ZM36.2535 14.7783C42.1763 8.101 49.2315 5.18295 54.1432 3.90214C57.8704 2.93262 60.9631 2.73539 62.5599 2.71044V42.0626C48.2513 42.6495 39.9046 47.8226 36.2535 50.7989V14.7783Z" fill="#FDFDFD"/>
</g>
<path d="M30.7824 17.7401C18.9807 9.13208 11.7865 9.36733 11.4871 9.3804C10.8004 9.41248 10.2717 9.99229 10.2978 10.6802C10.3228 11.3681 10.9014 11.9099 11.5952 11.8779C11.6653 11.8779 18.3201 11.7436 29.3067 19.7599C29.5289 19.9191 29.7832 20.0023 30.0446 20.0023C30.4331 20.0023 30.8145 19.8241 31.0557 19.4855C31.4632 18.9318 31.3361 18.1476 30.7824 17.7401Z" fill="#FDFDFD"/>
<path d="M30.7824 24.7246C18.9807 16.1095 11.7865 16.3448 11.4871 16.3649C10.8004 16.3958 10.2717 16.9756 10.2978 17.6648C10.3228 18.3527 10.9085 18.8945 11.5952 18.8624C11.6594 18.8624 18.3201 18.7281 29.3067 26.7445C29.5289 26.9037 29.7832 26.9868 30.0446 26.9868C30.4331 26.9868 30.8145 26.8074 31.0557 26.47C31.4632 25.9163 31.3361 25.1322 30.7824 24.7246Z" fill="#FDFDFD"/>
<path d="M30.7824 31.7076C18.9807 23.0936 11.7865 23.3289 11.4871 23.3419C10.8004 23.374 10.2717 23.9538 10.2978 24.6418C10.3228 25.3297 10.9014 25.8655 11.5952 25.8394C11.6653 25.8394 18.3201 25.7063 29.3067 33.7215C29.5289 33.8807 29.7832 33.9639 30.0446 33.9639C30.4331 33.9639 30.8145 33.7856 31.0557 33.4482C31.4632 32.8933 31.3361 32.1092 30.7824 31.7076Z" fill="#FDFDFD"/>
<path d="M30.7824 38.6847C18.9807 30.0767 11.7865 30.312 11.4871 30.325C10.8004 30.3571 10.2717 30.9369 10.2978 31.6249C10.3228 32.3128 10.9085 32.8546 11.5952 32.8225C11.6594 32.8225 18.3201 32.6882 29.3067 40.7046C29.5289 40.8638 29.7832 40.9469 30.0446 40.9469C30.4331 40.9469 30.8145 40.7687 31.0557 40.4301C31.4632 39.8764 31.3361 39.0923 30.7824 38.6847Z" fill="#FDFDFD"/>
<path d="M58.5132 9.3804C58.2138 9.36733 51.0196 9.13208 39.2179 17.7401C38.6583 18.1476 38.5371 18.9318 38.9446 19.4926C39.1858 19.83 39.5684 20.0082 39.9557 20.0082C40.21 20.0082 40.4714 19.9322 40.6936 19.7659C51.6493 11.7697 58.2969 11.8779 58.4051 11.8838C59.0918 11.9099 59.6716 11.3812 59.7096 10.6921C59.7417 9.99823 59.2071 9.41248 58.5132 9.3804Z" fill="#FDFDFD"/>
<path d="M58.5132 16.3647C58.2138 16.3516 51.0196 16.1152 39.2179 24.7244C38.6583 25.1319 38.5371 25.9161 38.9446 26.4769C39.1858 26.8143 39.5684 26.9925 39.9557 26.9925C40.21 26.9925 40.4714 26.9165 40.6936 26.7501C51.6493 18.7599 58.2969 18.8621 58.4051 18.8681C59.0918 18.9001 59.6716 18.3643 59.7096 17.6764C59.7417 16.9825 59.2071 16.3956 58.5132 16.3647Z" fill="#FDFDFD"/>
<path d="M58.5132 23.342C58.2138 23.3289 51.0196 23.0936 39.2179 31.7016C38.6583 32.1092 38.5371 32.8933 38.9446 33.4541C39.1858 33.7916 39.5684 33.9698 39.9557 33.9698C40.21 33.9698 40.4714 33.8938 40.6936 33.7286C51.6493 25.7372 58.2969 25.8394 58.4051 25.8465C59.0918 25.8715 59.6716 25.3428 59.7096 24.6548C59.7417 23.9598 59.2071 23.374 58.5132 23.342Z" fill="#FDFDFD"/>
<path d="M58.5132 30.325C58.2138 30.312 51.0196 30.0767 39.2179 38.6847C38.6583 39.0923 38.5371 39.8764 38.9446 40.4372C39.1858 40.7747 39.5684 40.9529 39.9557 40.9529C40.21 40.9529 40.4714 40.8768 40.6936 40.7105C51.6493 32.7203 58.2969 32.8225 58.4051 32.8284C59.0918 32.8546 59.6716 32.3259 59.7096 31.6367C59.7417 30.9429 59.2071 30.3571 58.5132 30.325Z" fill="#FDFDFD"/>
</svg>
