<svg width="24" height="25" viewBox="0 0 24 25" fill="none" xmlns="http://www.w3.org/2000/svg">
<path d="M12 2.8999C6.69842 2.8999 2.40002 7.1983 2.40002 12.4999C2.40002 14.3009 2.9059 15.98 3.76877 17.4202L2.48596 22.0999L7.26565 20.8452C8.66351 21.64 10.2772 22.0999 12 22.0999C17.3016 22.0999 21.6 17.8015 21.6 12.4999C21.6 7.1983 17.3016 2.8999 12 2.8999ZM8.71409 8.02178C8.87009 8.02178 9.03037 8.02083 9.16878 8.02803C9.33998 8.03203 9.52631 8.04456 9.70471 8.43896C9.91671 8.90776 10.3783 10.0838 10.4375 10.203C10.4967 10.3222 10.5387 10.4627 10.4563 10.6187C10.3779 10.7787 10.3371 10.8755 10.2219 11.0171C10.1027 11.1547 9.97209 11.3256 9.86409 11.4296C9.74489 11.5488 9.6218 11.6795 9.7594 11.9171C9.897 12.1547 10.3749 12.9336 11.0813 13.5624C11.9893 14.3736 12.7554 14.6229 12.9938 14.7421C13.2322 14.8613 13.3702 14.8427 13.5078 14.6827C13.6494 14.5267 14.1025 13.9914 14.2625 13.753C14.4185 13.5146 14.5778 13.5559 14.7938 13.6343C15.013 13.7127 16.1819 14.2885 16.4203 14.4077C16.6587 14.5269 16.815 14.5859 16.875 14.6827C16.9366 14.7827 16.9367 15.2588 16.7391 15.814C16.5415 16.3684 15.5712 16.9045 15.136 16.9421C14.6968 16.9829 14.2869 17.1395 12.2813 16.3499C9.86207 15.3971 8.33641 12.9193 8.21721 12.7593C8.09801 12.6033 7.24846 11.471 7.24846 10.303C7.24846 9.13103 7.86295 8.55705 8.07815 8.31865C8.29735 8.08025 8.55409 8.02178 8.71409 8.02178Z" fill="white"/>
</svg>
